<svg viewBox="0 0 271 83" fill="none" xmlns="http://www.w3.org/2000/svg">
<rect width="271" height="83" rx="6" fill="#F0F2F5"/>
<path d="M84 13H174L160 57H70L84 13Z" fill="#DADDE0"/>
<path d="M95.2519 66.5L85.7973 14.5H172.748L182.203 66.5H95.2519Z" fill="white" stroke="#FF3355" stroke-width="3"/>
<path d="M148 20H168L171 39H151L148 20Z" fill="#2F363D"/>
<path d="M97.9032 26.7729C97.4287 23.7402 99.7735 21 102.843 21H130.688C133.151 21 135.247 22.7937 135.627 25.2271L136.097 28.2271C136.571 31.2598 134.226 34 131.157 34H103.312C100.849 34 98.7533 32.2063 98.3725 29.7729L97.9032 26.7729Z" fill="#DADDE0"/>
<path d="M152 32H157.217L158 37H152.783L152 32Z" fill="white"/>
<path d="M162 32H167.217L168 37H162.783L162 32Z" fill="white"/>
<path d="M161 22H166.217L167 27H161.783L161 22Z" fill="white"/>
<path d="M151 22H156.217L157 27H151.783L151 22Z" fill="white"/>
<path d="M157 27H162.217L163 32H157.783L157 27Z" fill="white"/>
</svg>