<svg viewBox="0 0 301 83" fill="none" xmlns="http://www.w3.org/2000/svg">
<rect width="301" height="83" rx="6" fill="#F0F2F5"/>
<path fill-rule="evenodd" clip-rule="evenodd" d="M23 26C23 24.8954 23.8954 24 25 24H138C139.105 24 140 24.8954 140 26V61C140 62.1046 139.105 63 138 63H25C23.8954 63 23 62.1046 23 61V26Z" fill="#C6E2D1"/>
<path fill-rule="evenodd" clip-rule="evenodd" d="M23 24C23 22.8954 23.8954 22 25 22H138C139.105 22 140 22.8954 140 24V59C140 60.1046 139.105 61 138 61H25C23.8954 61 23 60.1046 23 59V24Z" fill="#E0FFED"/>
<path d="M69.3906 46H67.7847L63.665 39.4429V46H62.0591V36.7578H63.665L67.7974 43.3403V36.7578H69.3906V46Z" fill="#00B849"/>
<path d="M79.9146 41.6201C79.9146 42.5257 79.758 43.3213 79.4448 44.0068C79.1317 44.6882 78.6831 45.2129 78.0991 45.5811C77.5194 45.945 76.8507 46.127 76.0933 46.127C75.3442 46.127 74.6756 45.945 74.0874 45.5811C73.5034 45.2129 73.0506 44.6903 72.729 44.0132C72.4116 43.3361 72.2508 42.5553 72.2466 41.6709V41.1504C72.2466 40.249 72.4053 39.4535 72.7227 38.7637C73.0443 38.0739 73.495 37.547 74.0747 37.1831C74.6587 36.8149 75.3273 36.6309 76.0806 36.6309C76.8338 36.6309 77.5003 36.8128 78.0801 37.1768C78.6641 37.5365 79.1147 38.057 79.4321 38.7383C79.7495 39.4154 79.9103 40.2046 79.9146 41.106V41.6201ZM78.3086 41.1377C78.3086 40.1136 78.1139 39.3286 77.7246 38.7827C77.3395 38.2368 76.7915 37.9639 76.0806 37.9639C75.3866 37.9639 74.8428 38.2368 74.4492 38.7827C74.0599 39.3244 73.861 40.0924 73.8525 41.0869V41.6201C73.8525 42.6357 74.0493 43.4207 74.4429 43.9751C74.8407 44.5295 75.3908 44.8066 76.0933 44.8066C76.8042 44.8066 77.3501 44.5358 77.731 43.9941C78.116 43.4525 78.3086 42.6611 78.3086 41.6201V41.1377Z" fill="#00B849"/>
<path d="M86.1602 42.439H84.3701V46H82.7642V36.7578H86.0142C87.0806 36.7578 87.9036 36.9969 88.4834 37.4751C89.0632 37.9533 89.353 38.6452 89.353 39.5508C89.353 40.1686 89.2028 40.687 88.9023 41.106C88.6061 41.5207 88.1914 41.8402 87.6582 42.0645L89.7339 45.9175V46H88.0137L86.1602 42.439ZM84.3701 41.1504H86.0205C86.5622 41.1504 86.9854 41.015 87.29 40.7441C87.5947 40.4691 87.7471 40.0946 87.7471 39.6206C87.7471 39.1255 87.6053 38.7425 87.3218 38.4717C87.0425 38.2008 86.6235 38.0612 86.0649 38.0527H84.3701V41.1504Z" fill="#00B849"/>
<path d="M94.2085 36.7578L96.8745 43.8418L99.5342 36.7578H101.61V46H100.01V42.9531L100.169 38.8779L97.4395 46H96.2905L93.5674 38.8843L93.7261 42.9531V46H92.1265V36.7578H94.2085Z" fill="#00B849"/>
<path d="M110.052 43.8481H106.472L105.723 46H104.053L107.544 36.7578H108.985L112.483 46H110.807L110.052 43.8481ZM106.922 42.5532H109.601L108.262 38.7192L106.922 42.5532Z" fill="#00B849"/>
<path d="M116.393 44.7178H120.588V46H114.787V36.7578H116.393V44.7178Z" fill="#00B849"/>
<path d="M54.2173 45.0873L52.2064 44.8577C51.7235 44.8023 51.2485 44.9685 50.9081 45.309L49.4514 46.7656C47.211 45.6256 45.3743 43.7969 44.2343 41.5485L45.6989 40.084C46.0393 39.7435 46.2056 39.2685 46.1502 38.7856L45.9206 36.7906C45.8256 35.991 45.1527 35.3894 44.3452 35.3894H42.9756C42.081 35.3894 41.3368 36.1335 41.3923 37.0281C41.8118 43.789 47.2189 49.1881 53.9718 49.6077C54.8664 49.6631 55.6106 48.919 55.6106 48.0244V46.6548C55.6185 45.8552 55.0168 45.1823 54.2173 45.0873Z" fill="#00B849"/>
<path fill-rule="evenodd" clip-rule="evenodd" d="M158 26C158 24.8954 158.895 24 160 24H272C273.105 24 274 24.8954 274 26V61C274 62.1046 273.105 63 272 63H160C158.895 63 158 62.1046 158 61V26Z" fill="#499E6B"/>
<path fill-rule="evenodd" clip-rule="evenodd" d="M158 24C158 22.8954 158.895 22 160 22H272C273.105 22 274 22.8954 274 24V59C274 60.1046 273.105 61 272 61H160C158.895 61 158 60.1046 158 59V24Z" fill="#00B849"/>
<path d="M203.829 43.6196C203.829 43.2134 203.685 42.9002 203.397 42.6802C203.113 42.4601 202.599 42.238 201.854 42.0137C201.11 41.7894 200.517 41.5397 200.077 41.2646C199.235 40.7357 198.814 40.0459 198.814 39.1953C198.814 38.4505 199.117 37.8369 199.722 37.3545C200.331 36.8721 201.12 36.6309 202.089 36.6309C202.733 36.6309 203.306 36.7493 203.81 36.9863C204.313 37.2233 204.709 37.5618 204.997 38.002C205.284 38.4378 205.428 38.9224 205.428 39.4556H203.829C203.829 38.9731 203.676 38.5965 203.372 38.3257C203.071 38.0506 202.639 37.9131 202.077 37.9131C201.552 37.9131 201.144 38.0252 200.852 38.2495C200.564 38.4738 200.42 38.7869 200.42 39.189C200.42 39.5275 200.576 39.811 200.89 40.0396C201.203 40.2638 201.719 40.4839 202.438 40.6997C203.158 40.9113 203.736 41.1546 204.171 41.4297C204.607 41.7005 204.927 42.0137 205.13 42.3691C205.333 42.7204 205.435 43.133 205.435 43.6069C205.435 44.3771 205.138 44.9907 204.546 45.4478C203.958 45.9006 203.158 46.127 202.146 46.127C201.478 46.127 200.862 46.0042 200.299 45.7588C199.741 45.5091 199.305 45.1663 198.992 44.7305C198.683 44.2946 198.528 43.7868 198.528 43.207H200.134C200.134 43.7318 200.308 44.138 200.655 44.4258C201.002 44.7135 201.499 44.8574 202.146 44.8574C202.705 44.8574 203.124 44.7453 203.403 44.521C203.687 44.2925 203.829 43.992 203.829 43.6196Z" fill="white"/>
<path d="M213.496 41.874H209.7V44.7178H214.137V46H208.094V36.7578L214.092 36.7578V38.0527L209.7 38.0527V40.6045H213.496V41.874Z" fill="white"/>
<path d="M223.747 42.9912C223.653 43.9772 223.29 44.7474 222.655 45.3018C222.02 45.8519 221.176 46.127 220.122 46.127C219.386 46.127 218.736 45.9535 218.173 45.6064C217.615 45.2552 217.183 44.758 216.878 44.1147C216.574 43.4715 216.415 42.7246 216.402 41.874V41.0107C216.402 40.139 216.557 39.3709 216.866 38.7065C217.175 38.0422 217.617 37.5301 218.192 37.1704C218.772 36.8107 219.441 36.6309 220.198 36.6309C221.218 36.6309 222.039 36.908 222.661 37.4624C223.283 38.0168 223.645 38.7996 223.747 39.811H222.147C222.071 39.1466 221.876 38.6685 221.563 38.3765C221.254 38.0802 220.799 37.9321 220.198 37.9321C219.5 37.9321 218.963 38.1882 218.586 38.7002C218.214 39.208 218.023 39.9549 218.015 40.9409V41.7598C218.015 42.7585 218.192 43.5202 218.548 44.0449C218.908 44.5697 219.432 44.832 220.122 44.832C220.753 44.832 221.227 44.6903 221.544 44.4067C221.861 44.1232 222.062 43.6514 222.147 42.9912H223.747Z" fill="white"/>
<path d="M233.198 36.7578V42.9341C233.198 43.9159 232.882 44.6945 232.252 45.27C231.626 45.8413 230.79 46.127 229.745 46.127C228.687 46.127 227.847 45.8455 227.225 45.2827C226.603 44.7157 226.292 43.9307 226.292 42.9277V36.7578H227.891V42.9404C227.891 43.5583 228.048 44.0301 228.361 44.356C228.674 44.6818 229.135 44.8447 229.745 44.8447C230.98 44.8447 231.598 44.193 231.598 42.8896V36.7578H233.198Z" fill="white"/>
<path d="M239.564 42.439H237.774V46H236.168V36.7578H239.418C240.484 36.7578 241.307 36.9969 241.887 37.4751C242.467 37.9533 242.757 38.6452 242.757 39.5508C242.757 40.1686 242.607 40.687 242.306 41.106C242.01 41.5207 241.595 41.8402 241.062 42.0645L243.138 45.9175V46H241.417L239.564 42.439ZM237.774 41.1504H239.424C239.966 41.1504 240.389 41.015 240.694 40.7441C240.999 40.4691 241.151 40.0946 241.151 39.6206C241.151 39.1255 241.009 38.7425 240.726 38.4717C240.446 38.2008 240.027 38.0612 239.469 38.0527H237.774V41.1504Z" fill="white"/>
<path d="M250.932 41.874H247.136V44.7178H251.573V46H245.53V36.7578H251.529V38.0527H247.136V40.6045H250.932V41.874Z" fill="white"/>
<path d="M189.217 44.0873L187.206 43.8577C186.724 43.8023 186.249 43.9685 185.908 44.309L184.451 45.7656C182.211 44.6256 180.374 42.7969 179.234 40.5485L180.699 39.084C181.039 38.7435 181.206 38.2685 181.15 37.7856L180.921 35.7906C180.826 34.991 180.153 34.3894 179.345 34.3894H177.976C177.081 34.3894 176.337 35.1335 176.392 36.0281C176.812 42.789 182.219 48.1881 188.972 48.6077C189.866 48.6631 190.611 47.919 190.611 47.0244V45.6548C190.619 44.8552 190.017 44.1823 189.217 44.0873Z" fill="white"/>
</svg>
