<svg viewBox="0 0 271 62" fill="none" xmlns="http://www.w3.org/2000/svg">
<rect width="271" height="62" rx="6" fill="#F0F2F5"/>
<g filter="url(#filter0_ddd)">
<path fill-rule="evenodd" clip-rule="evenodd" d="M29 14C29 12.8954 29.8954 12 31 12H240C241.105 12 242 12.8954 242 14V47C242 48.1046 241.105 49 240 49H31C29.8954 49 29 48.1046 29 47V14Z" fill="#0075EB"/>
</g>
<path d="M94.5389 31.8877C94.5389 31.5455 94.4156 31.2816 94.1692 31.0963C93.9264 30.9109 93.4861 30.7237 92.8483 30.5348C92.2105 30.3458 91.7032 30.1355 91.3263 29.9037C90.6052 29.4581 90.2446 28.877 90.2446 28.1604C90.2446 27.533 90.5037 27.016 91.0219 26.6096C91.5438 26.2032 92.2196 26 93.0495 26C93.6003 26 94.0913 26.0998 94.5226 26.2995C94.9538 26.4991 95.2926 26.7843 95.539 27.1551C95.7855 27.5223 95.9087 27.9305 95.9087 28.3797H94.5389C94.5389 27.9733 94.4084 27.656 94.1475 27.4278C93.8902 27.1961 93.5206 27.0802 93.0386 27.0802C92.5892 27.0802 92.2395 27.1747 91.9895 27.3636C91.7431 27.5526 91.6199 27.8164 91.6199 28.1551C91.6199 28.4403 91.7539 28.6791 92.0221 28.8717C92.2903 29.0606 92.7324 29.246 93.3484 29.4278C93.9645 29.6061 94.4591 29.8111 94.8324 30.0428C95.2056 30.2709 95.4792 30.5348 95.6532 30.8342C95.8271 31.1301 95.9141 31.4777 95.9141 31.877C95.9141 32.5258 95.6604 33.0428 95.1531 33.4278C94.6494 33.8093 93.9645 34 93.0984 34C92.5258 34 91.9985 33.8966 91.5166 33.6898C91.0382 33.4795 90.665 33.1907 90.3968 32.8235C90.1323 32.4563 90 32.0285 90 31.5401H91.3752C91.3752 31.9822 91.5238 32.3244 91.821 32.5668C92.1181 32.8093 92.5439 32.9305 93.0984 32.9305C93.5767 32.9305 93.9355 32.836 94.1747 32.6471C94.4175 32.4545 94.5389 32.2014 94.5389 31.8877Z" fill="white"/>
<path d="M104.32 31.3583C104.24 32.1889 103.928 32.8378 103.385 33.3048C102.841 33.7683 102.118 34 101.216 34C100.585 34 100.029 33.8538 99.547 33.5615C99.0687 33.2656 98.699 32.8467 98.4381 32.3048C98.1772 31.7629 98.0413 31.1337 98.0304 30.4171V29.6898C98.0304 28.9554 98.1627 28.3084 98.4272 27.7487C98.6918 27.1889 99.0705 26.7576 99.5633 26.4545C100.06 26.1515 100.632 26 101.281 26C102.154 26 102.857 26.2335 103.39 26.7005C103.923 27.1676 104.233 27.8271 104.32 28.6791H102.95C102.885 28.1194 102.718 27.7166 102.45 27.4706C102.185 27.221 101.796 27.0963 101.281 27.0963C100.683 27.0963 100.223 27.3119 99.9003 27.7433C99.5814 28.1711 99.4184 28.8004 99.4111 29.631V30.3209C99.4111 31.1622 99.5633 31.8039 99.8677 32.246C100.176 32.6881 100.625 32.9091 101.216 32.9091C101.756 32.9091 102.162 32.7897 102.433 32.5508C102.705 32.3119 102.877 31.9144 102.95 31.3583H104.32Z" fill="white"/>
<path d="M111.143 32.0802H108.078L107.436 33.893L106.006 33.893L108.996 26.107H110.23L113.225 33.893H111.79L111.143 32.0802ZM108.463 30.9893L110.757 30.9893L109.61 27.7594L108.463 30.9893Z" fill="white"/>
<path d="M121.565 33.893H120.19L116.662 28.369V33.893H115.287V26.107H116.662L120.201 31.6524V26.107H121.565V33.893Z" fill="white"/>
<path d="M128.282 33.893V26.107H130.995C131.89 26.107 132.571 26.2834 133.039 26.6364C133.506 26.9893 133.74 27.5152 133.74 28.2139C133.74 28.5704 133.642 28.8913 133.446 29.1765C133.251 29.4617 132.964 29.6827 132.587 29.8396C133.015 29.9537 133.345 30.1693 133.577 30.4866C133.812 30.8004 133.93 31.1783 133.93 31.6203C133.93 32.3512 133.691 32.9127 133.212 33.3048C132.738 33.697 132.056 33.893 131.169 33.893H128.282ZM129.657 30.3797V32.8128H131.185C131.616 32.8128 131.953 32.7077 132.196 32.4973C132.439 32.287 132.56 31.9947 132.56 31.6203C132.56 30.8111 132.14 30.3975 131.299 30.3797H129.657ZM129.657 29.385H131.006C131.433 29.385 131.767 29.2906 132.006 29.1016C132.249 28.9091 132.37 28.6381 132.37 28.2888C132.37 27.9037 132.258 27.6257 132.033 27.4545C131.812 27.2834 131.466 27.1979 130.995 27.1979H129.657V29.385Z" fill="white"/>
<path d="M137.84 31V33.893H136.465V26.107H139.493C140.377 26.107 141.078 26.3333 141.596 26.7861C142.118 27.2389 142.379 27.8378 142.379 28.5829C142.379 29.3458 142.123 29.9394 141.613 30.3636C141.105 30.7879 140.393 31 139.476 31L137.84 31ZM137.84 29.9144H139.493C139.982 29.9144 140.355 29.8021 140.612 29.5775C140.87 29.3494 140.998 29.0214 140.998 28.5936C140.998 28.1729 140.868 27.8378 140.607 27.5882C140.346 27.3351 139.987 27.205 139.531 27.1979H137.84V29.9144Z" fill="white"/>
<path d="M150.052 31V33.893H148.677V26.107H151.705C152.589 26.107 153.29 26.3333 153.809 26.7861C154.33 27.2389 154.591 27.8378 154.591 28.5829C154.591 29.3458 154.336 29.9394 153.825 30.3636C153.318 30.7879 152.605 31 151.689 31H150.052ZM150.052 29.9144H151.705C152.194 29.9144 152.567 29.8021 152.825 29.5775C153.082 29.3494 153.211 29.0214 153.211 28.5936C153.211 28.1729 153.08 27.8378 152.819 27.5882C152.558 27.3351 152.2 27.205 151.743 27.1979H150.052V29.9144Z" fill="white"/>
<path d="M160.42 32.0802H157.354L156.713 33.893H155.283L158.273 26.107H159.507L162.502 33.893H161.067L160.42 32.0802ZM157.74 30.9893H160.034L158.887 27.7594L157.74 30.9893Z" fill="white"/>
<path d="M168.701 31.8877C168.701 31.5455 168.578 31.2816 168.331 31.0963C168.088 30.9109 167.648 30.7237 167.01 30.5348C166.372 30.3458 165.865 30.1355 165.488 29.9037C164.767 29.4581 164.406 28.877 164.406 28.1604C164.406 27.533 164.666 27.016 165.184 26.6096C165.706 26.2032 166.381 26 167.211 26C167.762 26 168.253 26.0998 168.684 26.2995C169.116 26.4991 169.454 26.7843 169.701 27.1551C169.947 27.5223 170.071 27.9305 170.071 28.3797L168.701 28.3797C168.701 27.9733 168.57 27.656 168.309 27.4278C168.052 27.1961 167.682 27.0802 167.2 27.0802C166.751 27.0802 166.401 27.1747 166.151 27.3636C165.905 27.5526 165.782 27.8164 165.782 28.1551C165.782 28.4403 165.916 28.6791 166.184 28.8717C166.452 29.0606 166.894 29.246 167.51 29.4278C168.126 29.6061 168.621 29.8111 168.994 30.0428C169.368 30.2709 169.641 30.5348 169.815 30.8342C169.989 31.1301 170.076 31.4777 170.076 31.877C170.076 32.5258 169.822 33.0428 169.315 33.4278C168.811 33.8093 168.126 34 167.26 34C166.688 34 166.16 33.8966 165.678 33.6898C165.2 33.4795 164.827 33.1907 164.559 32.8235C164.294 32.4563 164.162 32.0285 164.162 31.5401H165.537C165.537 31.9822 165.686 32.3244 165.983 32.5668C166.28 32.8093 166.706 32.9305 167.26 32.9305C167.739 32.9305 168.097 32.836 168.337 32.6471C168.579 32.4545 168.701 32.2014 168.701 31.8877Z" fill="white"/>
<path d="M176.579 31.8877C176.579 31.5455 176.456 31.2816 176.209 31.0963C175.967 30.9109 175.526 30.7237 174.888 30.5348C174.251 30.3458 173.743 30.1355 173.366 29.9037C172.645 29.4581 172.285 28.877 172.285 28.1604C172.285 27.533 172.544 27.016 173.062 26.6096C173.584 26.2032 174.26 26 175.09 26C175.64 26 176.131 26.0998 176.563 26.2995C176.994 26.4991 177.333 26.7843 177.579 27.1551C177.826 27.5223 177.949 27.9305 177.949 28.3797H176.579C176.579 27.9733 176.449 27.656 176.188 27.4278C175.93 27.1961 175.561 27.0802 175.079 27.0802C174.629 27.0802 174.28 27.1747 174.03 27.3636C173.783 27.5526 173.66 27.8164 173.66 28.1551C173.66 28.4403 173.794 28.6791 174.062 28.8717C174.33 29.0606 174.772 29.246 175.389 29.4278C176.005 29.6061 176.499 29.8111 176.872 30.0428C177.246 30.2709 177.519 30.5348 177.693 30.8342C177.867 31.1301 177.954 31.4777 177.954 31.877C177.954 32.5258 177.701 33.0428 177.193 33.4278C176.689 33.8093 176.005 34 175.138 34C174.566 34 174.039 33.8966 173.557 33.6898C173.078 33.4795 172.705 33.1907 172.437 32.8235C172.172 32.4563 172.04 32.0285 172.04 31.5401H173.415C173.415 31.9822 173.564 32.3244 173.861 32.5668C174.158 32.8093 174.584 32.9305 175.138 32.9305C175.617 32.9305 175.976 32.836 176.215 32.6471C176.458 32.4545 176.579 32.2014 176.579 31.8877Z" fill="white"/>
<path d="M181.696 31V33.893H180.321V26.107H183.348C184.233 26.107 184.934 26.3333 185.452 26.7861C185.974 27.2389 186.235 27.8378 186.235 28.5829C186.235 29.3458 185.979 29.9394 185.468 30.3636C184.961 30.7879 184.249 31 183.332 31H181.696ZM181.696 29.9144H183.348C183.838 29.9144 184.211 29.8021 184.468 29.5775C184.725 29.3494 184.854 29.0214 184.854 28.5936C184.854 28.1729 184.724 27.8378 184.463 27.5882C184.202 27.3351 183.843 27.205 183.386 27.1979H181.696V29.9144Z" fill="white"/>
<path d="M194.917 30.2032C194.917 30.9661 194.783 31.6364 194.515 32.2139C194.247 32.7879 193.863 33.2299 193.363 33.5401C192.866 33.8467 192.294 34 191.645 34C191.004 34 190.431 33.8467 189.927 33.5401C189.427 33.2299 189.04 32.7897 188.764 32.2193C188.492 31.6488 188.355 30.9911 188.351 30.246V29.8075C188.351 29.0481 188.487 28.3779 188.759 27.7968C189.034 27.2157 189.42 26.7718 189.917 26.4652C190.417 26.1551 190.989 26 191.634 26C192.279 26 192.85 26.1533 193.346 26.4599C193.847 26.7629 194.232 27.2014 194.504 27.7754C194.776 28.3458 194.914 29.0107 194.917 29.7701V30.2032ZM193.542 29.7968C193.542 28.934 193.375 28.2727 193.042 27.8128C192.712 27.3529 192.243 27.123 191.634 27.123C191.04 27.123 190.574 27.3529 190.237 27.8128C189.904 28.2692 189.733 28.9162 189.726 29.754V30.2032C189.726 31.0588 189.895 31.7201 190.232 32.1872C190.572 32.6542 191.044 32.8877 191.645 32.8877C192.254 32.8877 192.721 32.6595 193.047 32.2032C193.377 31.7469 193.542 31.0802 193.542 30.2032V29.7968Z" fill="white"/>
<path d="M200.355 30.893H198.822V33.893H197.447V26.107L200.23 26.107C201.143 26.107 201.848 26.3084 202.344 26.7112C202.841 27.1141 203.089 27.697 203.089 28.4599C203.089 28.9804 202.961 29.4171 202.703 29.7701C202.45 30.1194 202.094 30.3886 201.638 30.5775L203.415 33.8235V33.893H201.942L200.355 30.893ZM198.822 29.8075H200.235C200.699 29.8075 201.062 29.6934 201.323 29.4652C201.583 29.2335 201.714 28.918 201.714 28.5187C201.714 28.1016 201.593 27.779 201.35 27.5508C201.111 27.3226 200.752 27.205 200.273 27.1979H198.822V29.8075Z" fill="white"/>
<path d="M211 27.1979H208.532V33.893H207.168V27.1979H204.722V26.107H211V27.1979Z" fill="white"/>
<mask id="mask0" mask-type="alpha" maskUnits="userSpaceOnUse" x="55" y="23" width="18" height="14">
<path fill-rule="evenodd" clip-rule="evenodd" d="M57.3333 23.3333L70.6667 23.3333C71.5917 23.3333 72.3333 24.075 72.3333 25V35C72.3333 35.925 71.5917 36.6667 70.6667 36.6667H57.3333C56.4083 36.6667 55.6667 35.925 55.6667 35L55.675 25C55.675 24.075 56.4083 23.3333 57.3333 23.3333ZM70.6667 25L57.3333 25V35H70.6667V25ZM67.3333 26.6667H69V28.3333H67.3333V26.6667ZM67.3333 29.1667V28.3333H65.6667V26.6667H64V28.3333L65.6667 28.3333V29.1667H66.5V30H67.3333V30.8333H66.5V31.6667L67.3333 31.6667V30.8333H68.1667V31.6667H69V30.8333H68.1667V30H69V29.1667H68.1667V30H67.3333V29.1667ZM64 30L65.6667 30V31.6667H64V30ZM62.3333 29.1667H59V30.8333L62.3333 30.8333V29.1667ZM69 32.5V33.3333H59V32.5H69ZM62.3333 26.6667L59 26.6667V27.5H62.3333V26.6667Z" fill="white"/>
</mask>
<g mask="url(#mask0)">
<rect x="54" y="20" width="20" height="20" fill="white"/>
</g>
<defs>
<filter id="filter0_ddd" x="26" y="11" width="219" height="43" filterUnits="userSpaceOnUse" color-interpolation-filters="sRGB">
<feFlood flood-opacity="0" result="BackgroundImageFix"/>
<feColorMatrix in="SourceAlpha" type="matrix" values="0 0 0 0 0 0 0 0 0 0 0 0 0 0 0 0 0 0 127 0"/>
<feOffset dy="2"/>
<feGaussianBlur stdDeviation="1.5"/>
<feColorMatrix type="matrix" values="0 0 0 0 0 0 0 0 0 0 0 0 0 0 0 0 0 0 0.08 0"/>
<feBlend mode="normal" in2="BackgroundImageFix" result="effect1_dropShadow"/>
<feColorMatrix in="SourceAlpha" type="matrix" values="0 0 0 0 0 0 0 0 0 0 0 0 0 0 0 0 0 0 127 0"/>
<feOffset dy="2"/>
<feGaussianBlur stdDeviation="0.5"/>
<feColorMatrix type="matrix" values="0 0 0 0 0 0 0 0 0 0 0 0 0 0 0 0 0 0 0.16 0"/>
<feBlend mode="normal" in2="effect1_dropShadow" result="effect2_dropShadow"/>
<feColorMatrix in="SourceAlpha" type="matrix" values="0 0 0 0 0 0 0 0 0 0 0 0 0 0 0 0 0 0 127 0"/>
<feOffset dy="2"/>
<feColorMatrix type="matrix" values="0 0 0 0 0 0 0 0 0 0.278431 0 0 0 0 0.560784 0 0 0 1 0"/>
<feBlend mode="normal" in2="effect2_dropShadow" result="effect3_dropShadow"/>
<feBlend mode="normal" in="SourceGraphic" in2="effect3_dropShadow" result="shape"/>
</filter>
</defs>
</svg>
