<svg width="512" height="512" viewBox="0 0 512 512" fill="none" xmlns="http://www.w3.org/2000/svg">
<path d="M256 486C348.31 486 423.143 411.109 423.143 318.727C423.143 193.273 256 26 256 26C256 26 88.8571 193.273 88.8571 318.727C88.8571 411.109 163.69 486 256 486Z" fill="#9D4AC7"/>
<path d="M156.114 394.516C148.906 385.499 150.367 372.341 159.377 365.127C168.387 357.913 181.535 359.375 188.743 368.393C218.459 405.567 272.661 411.594 309.805 381.855C314.772 377.878 319.283 373.363 323.257 368.393C330.465 359.375 343.613 357.913 352.623 365.127C361.633 372.341 363.094 385.499 355.886 394.516C349.985 401.898 343.285 408.603 335.909 414.509C280.743 458.676 200.246 449.725 156.114 394.516Z" fill="white"/>
<path d="M61 183.98H451V332.667H61V183.98Z" fill="#F3E1FC"/>
<path d="M179.55 299.21C198.03 299.21 208.92 289.64 208.92 275.23C208.92 261.26 198.14 256.42 181.86 252.79C170.2 250.15 165.69 248.39 165.69 242.89C165.69 238.38 169.87 234.75 176.8 234.75C184.06 234.75 191.65 237.72 198.36 243.11L206.83 231.45C199.13 224.85 189.56 221 177.24 221C160.74 221 149.3 230.57 149.3 244.54C149.3 259.17 160.63 263.68 176.58 267.31C188.13 269.95 192.53 271.6 192.53 276.99C192.53 281.72 188.35 285.46 180.21 285.46C170.64 285.46 162.5 281.72 155.35 275.56L146 286.67C154.8 294.81 166.46 299.21 179.55 299.21Z" fill="#9D4AC7"/>
<path d="M221.455 297.89H261.165C275.575 297.89 285.915 289.53 285.915 277.43C285.915 269.07 280.855 262.03 272.055 258.07C278.765 254.55 282.615 248.94 282.615 241.24C282.615 230.24 273.265 222.32 259.735 222.32H221.455V297.89ZM237.625 252.79V236.18H255.665C261.715 236.18 266.005 239.7 266.005 244.43C266.005 249.27 261.715 252.79 255.665 252.79H237.625ZM237.625 284.03V265.55H258.195C264.685 265.55 269.305 269.4 269.305 274.79C269.305 280.18 264.685 284.03 258.195 284.03H237.625Z" fill="#9D4AC7"/>
<path d="M366.804 222.32H347.884L329.734 247.07L311.584 222.32H292.444L320.054 260.27L292.444 297.89H311.254L329.514 273.14L347.554 297.89H366.804L339.084 259.94L366.804 222.32Z" fill="#9D4AC7"/>
</svg>
