<svg width="246" height="42" viewBox="0 0 246 42" fill="none" xmlns="http://www.w3.org/2000/svg">
<path d="M0.465769 34H25.3778V27.616H11.4098L17.4098 22.96C23.1698 18.784 25.0898 15.376 25.0898 10.96C25.0898 4.768 20.0018 0.447998 12.9938 0.447998C7.66577 0.447998 3.48977 2.752 0.225769 6.88L4.73777 11.248C7.13777 8.512 9.58577 6.88 12.8018 6.88C15.4898 6.88 17.7938 8.512 17.7938 11.248C17.7938 13.552 16.5458 15.712 12.6098 18.832L0.465769 28.24V34Z" fill="black"/>
<path d="M32.7375 41.008C36.1935 37.696 37.8255 34.672 37.8255 31.84C37.8255 28.336 35.9535 25.84 33.2655 25.84C30.8655 25.84 28.9455 27.856 28.9455 30.256C28.9455 32.608 30.8655 34.576 33.1695 34.576C32.7375 36.112 31.7295 37.744 30.2415 39.088L32.7375 41.008Z" fill="black"/>
<path d="M55.824 34.576C64.512 34.576 70.656 27.52 70.656 17.488C70.656 7.504 64.512 0.447998 55.824 0.447998C47.136 0.447998 41.04 7.504 41.04 17.488C41.04 27.52 47.136 34.576 55.824 34.576ZM55.824 28.144C51.408 28.144 48.288 23.68 48.288 17.488C48.288 11.296 51.408 6.88 55.824 6.88C60.288 6.88 63.36 11.296 63.36 17.488C63.36 23.68 60.288 28.144 55.824 28.144Z" fill="black"/>
<path d="M88.2746 34.576C96.9626 34.576 103.107 27.52 103.107 17.488C103.107 7.504 96.9626 0.447998 88.2746 0.447998C79.5866 0.447998 73.4906 7.504 73.4906 17.488C73.4906 27.52 79.5866 34.576 88.2746 34.576ZM88.2746 28.144C83.8586 28.144 80.7386 23.68 80.7386 17.488C80.7386 11.296 83.8586 6.88 88.2746 6.88C92.7386 6.88 95.8106 11.296 95.8106 17.488C95.8106 23.68 92.7386 28.144 88.2746 28.144Z" fill="black"/>
<path d="M120.725 34.576C129.413 34.576 135.557 27.52 135.557 17.488C135.557 7.504 129.413 0.447998 120.725 0.447998C112.037 0.447998 105.941 7.504 105.941 17.488C105.941 27.52 112.037 34.576 120.725 34.576ZM120.725 28.144C116.309 28.144 113.189 23.68 113.189 17.488C113.189 11.296 116.309 6.88 120.725 6.88C125.189 6.88 128.261 11.296 128.261 17.488C128.261 23.68 125.189 28.144 120.725 28.144Z" fill="black"/>
<path d="M142.712 41.008C146.168 37.696 147.8 34.672 147.8 31.84C147.8 28.336 145.928 25.84 143.24 25.84C140.84 25.84 138.92 27.856 138.92 30.256C138.92 32.608 140.84 34.576 143.144 34.576C142.712 36.112 141.704 37.744 140.216 39.088L142.712 41.008Z" fill="black"/>
<path d="M165.798 34.576C174.486 34.576 180.63 27.52 180.63 17.488C180.63 7.504 174.486 0.447998 165.798 0.447998C157.11 0.447998 151.014 7.504 151.014 17.488C151.014 27.52 157.11 34.576 165.798 34.576ZM165.798 28.144C161.382 28.144 158.262 23.68 158.262 17.488C158.262 11.296 161.382 6.88 165.798 6.88C170.262 6.88 173.334 11.296 173.334 17.488C173.334 23.68 170.262 28.144 165.798 28.144Z" fill="black"/>
<path d="M198.249 34.576C206.937 34.576 213.081 27.52 213.081 17.488C213.081 7.504 206.937 0.447998 198.249 0.447998C189.561 0.447998 183.465 7.504 183.465 17.488C183.465 27.52 189.561 34.576 198.249 34.576ZM198.249 28.144C193.833 28.144 190.713 23.68 190.713 17.488C190.713 11.296 193.833 6.88 198.249 6.88C202.713 6.88 205.785 11.296 205.785 17.488C205.785 23.68 202.713 28.144 198.249 28.144Z" fill="black"/>
<path d="M230.7 34.576C239.388 34.576 245.532 27.52 245.532 17.488C245.532 7.504 239.388 0.447998 230.7 0.447998C222.012 0.447998 215.916 7.504 215.916 17.488C215.916 27.52 222.012 34.576 230.7 34.576ZM230.7 28.144C226.284 28.144 223.164 23.68 223.164 17.488C223.164 11.296 226.284 6.88 230.7 6.88C235.164 6.88 238.236 11.296 238.236 17.488C238.236 23.68 235.164 28.144 230.7 28.144Z" fill="black"/>
</svg>
