<svg width="215" height="101" viewBox="0 0 215 101" fill="none" xmlns="http://www.w3.org/2000/svg">
<path d="M58.325 48.9999C58.325 48.9999 58.3203 44.9972 57.825 42.4999C57.4063 40.3896 56.216 37.231 56.216 37.231L69.825 35.2754C69.825 35.2754 67.1465 40.2571 64.825 42.9999C62.5931 45.6368 58.325 48.9999 58.325 48.9999Z" fill="#3385FF"/>
<path d="M11.325 52.4999L6.52457 39.4704L19.7762 39.0047L11.325 52.4999Z" fill="#4CFF48"/>
<path d="M110.825 39.9999L97.5796 29.992L109.126 25.2084L110.825 39.9999Z" fill="#FFED48"/>
<path d="M158.485 22.845C158.485 22.845 155.176 18.4344 151.463 17.6503C147.75 16.8661 143.863 13.9282 143.863 13.9282L155.843 8.50826C156.85 9.85882 155.84 12.5248 156.821 14.6481C158.191 17.6132 158.485 22.845 158.485 22.845Z" fill="#FF3355"/>
<path d="M189.937 -1.57734L182.429 -6.39585L191.144 -11.7752L189.937 -1.57734Z" fill="#FFB648"/>
<path d="M203.919 -19.8929C171.947 -2.05281 159.138 10.4948 109.477 25.377C59.8161 40.2593 0.390425 39.3568 0.390425 39.3568" stroke="#E7E7E7" stroke-width="3"/>
</svg>
