<svg width="309" height="175" viewBox="0 0 309 175" fill="none" xmlns="http://www.w3.org/2000/svg">
<path d="M120.002 85.5C120.002 85.5 107.557 79.1661 102.125 72.4396C98.5393 67.9998 95.0098 59.6753 95.0098 59.6753L123.092 53.7454C123.092 53.7454 121.335 61.8875 120.002 67.054C117.536 76.6118 120.002 85.5 120.002 85.5Z" fill="#4CFF48"/>
<path d="M26.8634 44.641C26.8634 44.641 19.8402 55.6003 18.4016 62.6074C17.5708 66.6537 16.2743 72.9685 16.2743 72.9685L44.5431 68.0027C44.5431 68.0027 38.7885 60.8454 34.7058 56.5454C30.075 51.6683 26.8634 44.641 26.8634 44.641Z" fill="#FFED48"/>
<path d="M198.822 66.5C198.822 66.5 193.759 59.4946 189.982 55.4688C184.179 49.2845 173.334 41.5257 173.334 41.5257L195.842 34.6173C195.842 34.6173 198.232 44.0781 198.822 50.2743C199.422 56.5823 198.822 66.5 198.822 66.5Z" fill="#5033FF"/>
<path d="M270.356 34.452C270.356 34.452 262.57 27.837 259.714 23.8934C256.858 19.9498 251.874 14.6353 251.874 14.6353L278.399 3.67084C278.399 3.67084 276.142 14.1626 273.819 20.2472C271.496 26.3318 270.356 34.452 270.356 34.452Z" fill="#FF65D4"/>
<path d="M297.646 -3.52156C297.646 -3.52156 209.361 34.2416 120.467 53.4539C63.8769 65.6846 -25.6183 78.7231 -25.6183 78.7231" stroke="#E7E7E7" stroke-width="3"/>
</svg>
