<svg width="288" height="113" viewBox="0 0 288 113" fill="none" xmlns="http://www.w3.org/2000/svg">
<path d="M112.263 74.5C112.263 74.5 112.787 61.088 112.263 52.9999C111.894 47.3049 112.263 38.3864 112.263 38.3864L139.679 46.8799C139.679 46.8799 134.18 53.1362 130.5 56.9999C123.693 64.1478 112.263 74.5 112.263 74.5Z" fill="#FFED48"/>
<path d="M44.0177 47C44.0177 47 44.0177 34.5057 44.0177 26.5C44.0177 21.8771 44.0177 14.6623 44.0177 14.6623L71.1272 24.0886C71.1272 24.0886 63.9402 31.2711 59 35.5C53.3968 40.2965 44.0177 47 44.0177 47Z" fill="#657EFF"/>
<path d="M200.229 84.0029C200.229 84.0029 192.497 76.8558 188.025 71.7584C183.161 66.2147 176.513 56.6683 176.513 56.6683L204.579 62.6719C204.579 62.6719 201.135 68.532 200.252 72.7293C199.343 77.053 200.229 84.0029 200.229 84.0029Z" fill="#FF3355"/>
<path d="M247.5 110C247.5 110 244.35 96.7521 244 90.0001C243.65 83.248 242.207 73.4208 242.207 73.4208L270.714 76.7582C270.714 76.7582 263.216 88.3997 258 94.5001C252.784 100.6 247.5 110 247.5 110Z" fill="#65FFA3"/>
<path d="M327.028 84.8472C327.028 84.8472 231.528 74.8473 144.528 48.3473C89.1432 31.4772 38.5 20.5 6.00001 -12" stroke="#E7E7E7" stroke-width="3"/>
</svg>
