<svg width="262" height="217" viewBox="0 0 262 217" fill="none" xmlns="http://www.w3.org/2000/svg">
<path d="M184.359 136.551L197.345 123.184L180.64 114.369L184.359 136.551Z" fill="#FF3395"/>
<path d="M228.739 160.323L244.112 145.432L228.873 138.921L228.739 160.323Z" fill="#FFF065"/>
<path d="M133.578 110.77L147.248 97.2207L133.578 90L133.578 110.77Z" fill="#33E7FF"/>
<path d="M59 44.873C59 44.873 66.347 46.5683 70.9126 46.9525C75.4782 47.3367 82.382 46.8406 82.382 46.8406L68.8414 36.9059C67.4328 38.0462 66.8714 40.3011 64.9426 41.8768C62.9751 43.484 59 44.873 59 44.873Z" fill="#65A3FF"/>
<path d="M29.6999 23.74L47.1147 14.7505L34.7609 3.00003L29.6999 23.74Z" fill="#48FFC8"/>
<path d="M97.0165 83.6327L111.732 73.0889L98.8705 64L97.0165 83.6327Z" fill="#E548FF"/>
<path d="M27.1957 -2.54952C63.0819 28.6935 88.0277 57.8973 133.5 88C183.965 121.408 273 155.5 273 155.5" stroke="#E7E7E7" stroke-width="3"/>
</svg>
