<svg width="216" height="200" viewBox="0 0 216 200" fill="none" xmlns="http://www.w3.org/2000/svg">
<path d="M25.6356 133.938L11.5737 112.625L31.5153 105.343L25.6356 133.938Z" fill="#FF3395"/>
<path d="M89.0638 109.217L70.2921 90.6108L89.0638 80.6954L89.0638 109.217Z" fill="#33E7FF"/>
<path d="M157.638 58.7026C157.638 58.7026 147.907 60.2406 141.779 60.2405C135.651 60.2405 126.256 58.7026 126.256 58.7026L143.373 46.1441C145.415 47.9417 146.445 51.2288 149.242 53.7104C152.096 56.2418 157.638 58.7026 157.638 58.7026Z" fill="#D765FF"/>
<path d="M191.222 34.5864L169.538 23.393L184.92 8.76175L191.222 34.5864Z" fill="#FFB648"/>
<path d="M196.125 -2.251C160.239 28.992 147.307 48.3767 88.134 80.5913C28.9609 112.806 -46.8541 127.56 -46.8541 127.56" stroke="#E7E7E7" stroke-width="3"/>
</svg>
