<svg width="246" height="42" viewBox="0 0 246 42" fill="none" xmlns="http://www.w3.org/2000/svg">
<path d="M0.465769 33.9999H25.3778V27.6159H11.4098L17.4098 22.9599C23.1698 18.7839 25.0898 15.3759 25.0898 10.9599C25.0898 4.76794 20.0018 0.447937 12.9938 0.447937C7.66577 0.447937 3.48977 2.75194 0.225769 6.87994L4.73777 11.2479C7.13777 8.51194 9.58577 6.87994 12.8018 6.87994C15.4898 6.87994 17.7938 8.51194 17.7938 11.2479C17.7938 13.5519 16.5458 15.7119 12.6098 18.8319L0.465769 28.2399V33.9999Z" fill="black"/>
<path d="M43.2015 34.5759C51.8895 34.5759 58.0335 27.5199 58.0335 17.4879C58.0335 7.50394 51.8895 0.447937 43.2015 0.447937C34.5135 0.447937 28.4175 7.50394 28.4175 17.4879C28.4175 27.5199 34.5135 34.5759 43.2015 34.5759ZM43.2015 28.1439C38.7855 28.1439 35.6655 23.6799 35.6655 17.4879C35.6655 11.2959 38.7855 6.87994 43.2015 6.87994C47.6655 6.87994 50.7375 11.2959 50.7375 17.4879C50.7375 23.6799 47.6655 28.1439 43.2015 28.1439Z" fill="black"/>
<path d="M65.1881 41.0079C68.6441 37.6959 70.2761 34.6719 70.2761 31.8399C70.2761 28.3359 68.4041 25.8399 65.7161 25.8399C63.3161 25.8399 61.3961 27.8559 61.3961 30.2559C61.3961 32.6079 63.3161 34.5759 65.6201 34.5759C65.1881 36.1119 64.1801 37.7439 62.6921 39.0879L65.1881 41.0079Z" fill="black"/>
<path d="M88.2746 34.5759C96.9626 34.5759 103.107 27.5199 103.107 17.4879C103.107 7.50394 96.9626 0.447937 88.2746 0.447937C79.5866 0.447937 73.4906 7.50394 73.4906 17.4879C73.4906 27.5199 79.5866 34.5759 88.2746 34.5759ZM88.2746 28.1439C83.8586 28.1439 80.7386 23.6799 80.7386 17.4879C80.7386 11.2959 83.8586 6.87994 88.2746 6.87994C92.7386 6.87994 95.8106 11.2959 95.8106 17.4879C95.8106 23.6799 92.7386 28.1439 88.2746 28.1439Z" fill="black"/>
<path d="M120.725 34.5759C129.413 34.5759 135.557 27.5199 135.557 17.4879C135.557 7.50394 129.413 0.447937 120.725 0.447937C112.037 0.447937 105.941 7.50394 105.941 17.4879C105.941 27.5199 112.037 34.5759 120.725 34.5759ZM120.725 28.1439C116.309 28.1439 113.189 23.6799 113.189 17.4879C113.189 11.2959 116.309 6.87994 120.725 6.87994C125.189 6.87994 128.261 11.2959 128.261 17.4879C128.261 23.6799 125.189 28.1439 120.725 28.1439Z" fill="black"/>
<path d="M142.712 41.0079C146.168 37.6959 147.8 34.6719 147.8 31.8399C147.8 28.3359 145.928 25.8399 143.24 25.8399C140.84 25.8399 138.92 27.8559 138.92 30.2559C138.92 32.6079 140.84 34.5759 143.144 34.5759C142.712 36.1119 141.704 37.7439 140.216 39.0879L142.712 41.0079Z" fill="black"/>
<path d="M165.798 34.5759C174.486 34.5759 180.63 27.5199 180.63 17.4879C180.63 7.50394 174.486 0.447937 165.798 0.447937C157.11 0.447937 151.014 7.50394 151.014 17.4879C151.014 27.5199 157.11 34.5759 165.798 34.5759ZM165.798 28.1439C161.382 28.1439 158.262 23.6799 158.262 17.4879C158.262 11.2959 161.382 6.87994 165.798 6.87994C170.262 6.87994 173.334 11.2959 173.334 17.4879C173.334 23.6799 170.262 28.1439 165.798 28.1439Z" fill="black"/>
<path d="M198.249 34.5759C206.937 34.5759 213.081 27.5199 213.081 17.4879C213.081 7.50394 206.937 0.447937 198.249 0.447937C189.561 0.447937 183.465 7.50394 183.465 17.4879C183.465 27.5199 189.561 34.5759 198.249 34.5759ZM198.249 28.1439C193.833 28.1439 190.713 23.6799 190.713 17.4879C190.713 11.2959 193.833 6.87994 198.249 6.87994C202.713 6.87994 205.785 11.2959 205.785 17.4879C205.785 23.6799 202.713 28.1439 198.249 28.1439Z" fill="black"/>
<path d="M230.7 34.5759C239.388 34.5759 245.532 27.5199 245.532 17.4879C245.532 7.50394 239.388 0.447937 230.7 0.447937C222.012 0.447937 215.916 7.50394 215.916 17.4879C215.916 27.5199 222.012 34.5759 230.7 34.5759ZM230.7 28.1439C226.284 28.1439 223.164 23.6799 223.164 17.4879C223.164 11.2959 226.284 6.87994 230.7 6.87994C235.164 6.87994 238.236 11.2959 238.236 17.4879C238.236 23.6799 235.164 28.1439 230.7 28.1439Z" fill="black"/>
</svg>
