<svg width="348" height="67" viewBox="0 0 348 67" fill="none" xmlns="http://www.w3.org/2000/svg">
<path d="M14.5 14L35.311 5.38226L19.6767 1.0283L14.5 14Z" fill="#FFED48"/>
<path d="M65.2719 27.161L85.2761 18.0505L69.6418 13.6966L65.2719 27.161Z" fill="#BA48FF"/>
<path d="M123.664 43.4582L134.762 27.8899L118.798 24.9682L123.664 43.4582Z" fill="#FFB648"/>
<path d="M167.94 50.3086L182.968 35.4405L166.825 33.7683L167.94 50.3086Z" fill="#A4FF48"/>
<path d="M230.257 51.1192C230.257 51.1192 234.261 46.4636 236.238 43.1991C238.215 39.9345 240.382 34.4005 240.382 34.4005L224.211 35.7726C224.211 35.7726 226.974 39.2439 228.155 42.2405C229.335 45.2371 230.257 51.1192 230.257 51.1192Z" fill="#48FFC8"/>
<path d="M289.886 43.5919L291.854 25.9194L275.844 28.5744L289.886 43.5919Z" fill="#5748FF"/>
<path d="M338.404 33.2962L342.012 14.5203L326.281 18.5113L338.404 33.2962Z" fill="#FF48ED"/>
<path d="M2.55505 -3.69092C2.55505 -3.69092 139.425 36.4083 203.451 35.8875C268.884 35.3553 369.357 6.16321 369.357 6.16321" stroke="#E7E7E7" stroke-width="3"/>
</svg>
