<svg width="76" height="76" viewBox="0 0 76 76" fill="none" xmlns="http://www.w3.org/2000/svg">
  <mask id="mask0_22716_38886" style="mask-type:alpha" maskUnits="userSpaceOnUse" x="-1" y="5" width="72" height="72">
    <ellipse cx="35.1351" cy="40.821" rx="35.1356" ry="35.1794" fill="#FFF8E0"/>
  </mask>
  <g mask="url(#mask0_22716_38886)">
    <ellipse cx="35.4717" cy="41.2079" rx="34.7495" ry="34.7928" fill="#2FA7AE" fill-opacity="0.3"/>
    <path fill-rule="evenodd" clip-rule="evenodd" d="M71.8028 73.1568C71.7624 73.2097 71.7214 73.2597 71.6804 73.3098C71.1845 73.9171 70.6655 74.5058 70.1183 75.0769C69.9337 75.2697 69.7459 75.4602 69.5575 75.6479C67.0023 76.6829 64.5253 77.651 61.8738 77.8245C60.7136 77.9039 59.5184 77.8315 58.2698 77.5463C53.5547 76.4667 50.2279 72.8666 45.7718 71.2922C45.4775 71.1869 45.1805 71.0939 44.8768 71.0083C39.189 69.4194 33.7743 68.8462 28.6108 65.4167C25.521 63.3649 23.1779 61.2452 21.8198 57.7118C19.9101 52.7619 17.4192 46.8564 17.4311 41.4581C17.436 39.5012 17.7716 37.987 19.7737 37.9167C21.5281 37.858 23.7349 39.5672 25.3416 40.2067C27.6775 41.1302 30.0664 41.8683 32.4936 42.4035C34.5452 42.8596 37.6072 42.6221 39.2048 43.768C40.8638 44.9598 41.6417 47.3634 43.8745 47.943C45.2528 48.3009 45.2858 48.4944 44.687 47.3537C43.7912 45.648 42.2926 44.6609 41.5689 42.5762C41.0708 41.1425 40.9864 39.6088 40.5393 38.1849C39.7682 35.7239 38.5919 33.8626 39.1679 31.064C39.4779 29.57 41.0197 25.5357 43.047 26.823C44.1527 27.5222 44.317 30.5552 44.54 31.7054C45.1734 35.0395 46.6034 37.3776 48.4067 40.2054C50.2611 43.1197 52.1226 45.9912 54.7589 48.122C57.8336 50.6137 61.0182 52.9196 63.8217 55.7847C66.2876 58.303 67.9146 60.5578 68.223 64.153C68.5461 67.9192 69.7641 70.3851 71.8028 73.1568Z" fill="#D7B38F"/>
    <mask id="mask1_22716_38886" style="mask-type:alpha" maskUnits="userSpaceOnUse" x="17" y="26" width="56" height="52">
      <path fill-rule="evenodd" clip-rule="evenodd" d="M39.1492 31.0786C38.5771 33.8789 39.7512 35.7354 40.5248 38.1967C40.9704 39.6197 41.0616 41.1512 41.5576 42.5811C42.2866 44.6687 43.7818 45.6512 44.6813 47.3542C45.2777 48.4912 45.2451 48.3007 43.8629 47.9486C41.6312 47.3719 40.854 44.9702 39.1918 43.7789C37.6021 42.6339 34.5452 42.8741 32.4901 42.4246C30.0656 41.8864 27.672 41.1498 25.3427 40.2313C23.7358 39.6031 21.5277 37.8919 19.772 37.9532C17.7741 38.0252 17.4409 39.5416 17.4375 41.4945C17.4311 46.8892 19.9229 52.7858 21.8394 57.7325C23.2034 61.2643 25.5416 63.381 28.63 65.4223C33.7957 68.843 39.21 69.4119 44.8868 70.992C47.2479 71.653 49.2644 72.9128 51.2853 74.1806C53.4793 75.5468 55.6668 76.9203 58.2821 77.512C63.5481 78.7085 67.8422 76.1355 72.7467 74.3457C70.134 71.0347 68.5846 68.4272 68.2136 64.1132C67.9029 60.5262 66.2722 58.2754 63.8075 55.7582C61.0039 52.901 57.8193 50.6002 54.7392 48.1149C52.1053 45.9879 50.2385 43.1154 48.3864 40.2102C46.5809 37.3835 45.1522 35.048 44.5107 31.7179C44.2899 30.571 44.1226 27.5401 43.0184 26.8365C42.9152 26.7731 42.8086 26.7193 42.6992 26.6779C40.8339 25.9724 39.4394 29.6658 39.1492 31.0786Z" fill="white"/>
    </mask>
    <g mask="url(#mask1_22716_38886)">
      <path fill-rule="evenodd" clip-rule="evenodd" d="M34.0792 70.0675C35.31 71.863 36.3374 73.5458 38.3842 73.102C40.6441 72.6125 43.0703 70.5714 44.9998 69.3356C47.3638 67.8181 49.692 66.2345 51.983 64.591C53.4819 63.5152 55.998 62.1628 56.4389 60.1275C57.3045 56.1461 51.0795 49.4991 48.8436 46.5972C44.0559 40.3948 40.9859 34.1554 41.272 26.0297C39.5308 25.9952 37.5157 31.5057 36.8787 32.813C35.8225 34.971 35.1785 35.3153 36.1567 37.2769C37.6911 40.3555 40.6703 43.7739 43.1046 46.0641C43.4719 46.4103 45.4214 47.6509 45.2008 48.1582C44.8354 49.0063 41.6453 46.6123 41.3402 46.3413C40.3397 45.4729 39.5392 43.7711 38.5441 43.2466C37.8019 42.8626 36.2128 43.0699 35.3912 42.9507C30.4274 42.2429 26.2016 39.8729 21.4442 38.5016C15.6976 36.8375 15.8114 46.5706 16.5491 50.4243C17.3109 54.4292 19.4299 59.4209 22.8575 61.6668C24.9172 63.0165 26.4868 62.9727 28.4243 64.8707C30.256 66.6675 32.2739 68.2415 34.0792 70.0675Z" fill="#C6996A"/>
    </g>
    <mask id="mask2_22716_38886" style="mask-type:alpha" maskUnits="userSpaceOnUse" x="13" y="18" width="40" height="48">
      <path d="M25.9973 21.122L18.8221 24.4312C15.6007 25.9169 14.3632 29.8578 16.1573 32.9172L32.5348 60.846C34.2816 63.8249 38.1766 64.7166 41.0467 62.7946L47.5208 58.4592C50.1543 56.6957 50.9632 53.1884 49.3679 50.4507L33.6916 23.5481C32.1354 20.8774 28.8047 19.8272 25.9973 21.122Z" fill="#F0F2F5" stroke="#2F363D" stroke-width="4"/>
    </mask>
    <g mask="url(#mask2_22716_38886)">
      <path d="M25.9973 21.122L18.8221 24.4312C15.6007 25.9169 14.3632 29.8578 16.1573 32.9172L32.5348 60.846C34.2816 63.8249 38.1766 64.7166 41.0467 62.7946L47.5208 58.4592C50.1543 56.6957 50.9632 53.1884 49.3679 50.4507L33.6916 23.5481C32.1354 20.8774 28.8047 19.8272 25.9973 21.122Z" fill="#F0F2F5"/>
      <path fill-rule="evenodd" clip-rule="evenodd" d="M36.8103 33.0639C36.1108 32.5229 35.5685 36.3618 35.6362 36.8843C35.8651 38.6499 37.0979 40.5729 38.1282 41.9403C40.3872 44.9306 44.0223 46.161 47.3507 47.1382C47.3477 45.8466 47.3687 44.5529 47.4181 43.2649C47.4562 42.3835 48.2134 39.9384 48.1249 39.2669C47.6023 35.5077 39.2543 34.4069 36.5673 32.8798" fill="#2F363D" fill-opacity="0.11"/>
      <path d="M25.9973 21.122L18.8221 24.4312C15.6007 25.9169 14.3632 29.8578 16.1573 32.9172L32.5348 60.846C34.2816 63.8249 38.1766 64.7166 41.0467 62.7946L47.5208 58.4592C50.1543 56.6957 50.9632 53.1884 49.3679 50.4507L33.6916 23.5481C32.1354 20.8774 28.8047 19.8272 25.9973 21.122Z" stroke="#2F363D" stroke-width="4"/>
    </g>
    <path fill-rule="evenodd" clip-rule="evenodd" d="M16.0749 39.3522C14.3033 39.4971 12.2983 38.3025 12.5874 36.0845C12.8815 33.8005 17.2293 30.5985 18.7961 29.2612C23.0218 25.6516 21.9475 31.2821 20.8243 33.9111C19.4969 37.0114 18.6846 37.8573 16.0749 39.3522Z" fill="#D7B38F"/>
    <mask id="mask3_22716_38886" style="mask-type:alpha" maskUnits="userSpaceOnUse" x="12" y="28" width="10" height="12">
      <path fill-rule="evenodd" clip-rule="evenodd" d="M18.787 29.2609C17.2228 30.5988 12.8879 33.8076 12.5901 36.0857C12.3011 38.303 14.3119 39.4963 16.0821 39.3496C18.6846 37.848 19.496 37.0047 20.819 33.9053C21.624 32.0166 22.4015 28.5772 21.2109 28.1308C20.7449 27.9595 19.9792 28.2416 18.787 29.2609Z" fill="white"/>
    </mask>
    <g mask="url(#mask3_22716_38886)">
      <path fill-rule="evenodd" clip-rule="evenodd" d="M21.9777 28.6412C21.1633 34.1238 16.682 34.9937 14.1504 39.0268C15.7023 39.6888 17.6811 38.9117 18.8568 37.7342C20.0688 36.5225 23.1228 30.4666 21.9777 28.6412Z" fill="#C6996A"/>
    </g>
    <mask id="mask4_22716_38886" style="mask-type:alpha" maskUnits="userSpaceOnUse" x="14" y="29" width="8" height="11">
      <path fill-rule="evenodd" clip-rule="evenodd" d="M14.1726 38.9893C14.3397 39.0714 14.5121 39.1406 14.6919 39.1935C15.2928 39.3094 15.9037 39.2816 16.4845 39.1128C18.7716 37.7498 19.5705 36.8356 20.8204 33.9023C21.3526 32.6561 21.8701 30.7319 21.8196 29.4426C20.7102 34.2001 16.5826 35.1912 14.1726 38.9893Z" fill="white"/>
    </mask>
    <g mask="url(#mask4_22716_38886)">
      <path fill-rule="evenodd" clip-rule="evenodd" d="M21.9796 28.6371C21.1653 34.1197 16.6866 34.989 14.1524 39.0227C15.7044 39.6847 17.6831 38.9076 18.8589 37.7302C20.0708 36.5184 23.1248 30.4625 21.9796 28.6371Z" fill="#C6996A"/>
    </g>
    <mask id="mask5_22716_38886" style="mask-type:alpha" maskUnits="userSpaceOnUse" x="14" y="29" width="8" height="11">
      <path fill-rule="evenodd" clip-rule="evenodd" d="M14.174 38.9894C14.341 39.0715 14.5148 39.1345 14.6932 39.1936C14.9578 39.2489 15.2339 39.2693 15.5092 39.2604C15.5182 39.2644 15.526 39.2627 15.5306 39.2588C15.8539 39.2455 16.1719 39.195 16.4832 39.1135C18.7756 37.7493 19.5719 36.8357 20.8218 33.9024C21.3507 32.6539 21.8707 30.7411 21.819 29.4461C20.7102 34.2064 16.5787 35.1924 14.174 38.9894Z" fill="white"/>
    </mask>
    <g mask="url(#mask5_22716_38886)">
      <path fill-rule="evenodd" clip-rule="evenodd" d="M21.9796 28.6364C21.1653 34.1189 16.6866 34.9883 14.1524 39.022C15.7044 39.684 17.6831 38.9069 18.8589 37.7294C20.0708 36.5177 23.1248 30.4618 21.9796 28.6364Z" fill="#C6996A"/>
    </g>
    <path fill-rule="evenodd" clip-rule="evenodd" d="M15.5486 44.9075C13.2419 44.3657 12.3728 41.6295 13.603 39.5472C14.6797 37.7277 17.1182 37.0081 18.7695 35.9869C19.7932 35.3529 22.0107 32.9513 23.2358 32.8558C26.0253 32.6369 25.2179 35.4171 24.1847 37.1595C22.9347 39.2637 20.9691 42.5441 18.9321 43.8746C18.0342 44.4611 16.553 44.6052 15.5486 44.9075Z" fill="#D7B38F"/>
    <mask id="mask6_22716_38886" style="mask-type:alpha" maskUnits="userSpaceOnUse" x="13" y="32" width="13" height="13">
      <path fill-rule="evenodd" clip-rule="evenodd" d="M23.2261 32.871C22.0036 32.9619 19.7879 35.3705 18.7648 35.9994C17.116 37.0189 14.6843 37.7462 13.6084 39.5627C12.3873 41.6403 13.2583 44.3753 15.5608 44.9109C16.5666 44.607 18.0496 44.4632 18.9406 43.8773C20.9776 42.5507 22.9387 39.2709 24.181 37.1652C25.0428 35.707 25.7484 33.5188 24.3122 32.9803C24.0309 32.8725 23.6768 32.8305 23.2261 32.871Z" fill="white"/>
    </mask>
    <g mask="url(#mask6_22716_38886)">
      <path fill-rule="evenodd" clip-rule="evenodd" d="M25.0804 33.551C24.2373 36.9628 21.4672 39.4596 18.4663 40.5314C17.1776 40.9896 10.4686 43.2845 15.1344 44.7523C17.013 45.3385 19.2175 43.6054 20.344 42.2855C21.5267 40.8975 26.6011 35.8355 25.0804 33.551Z" fill="#CB8A8A"/>
    </g>
    <path fill-rule="evenodd" clip-rule="evenodd" d="M22.7283 59.9945C19.29 57.3652 11.0059 49.0821 13.772 43.9546C15.133 41.4339 22.8859 38.7263 25.3504 40.7905C28.3679 43.3327 20.6308 47.1875 19.0919 47.9908C21.4497 48.5703 32.1155 44.9756 31.0648 49.3123C30.2764 52.5692 25.5765 52.2505 23.5787 54.0014C21.9753 55.4086 22.3636 57.9483 22.7283 59.9945Z" fill="#D7B38F"/>
  </g>
  <path d="M32.2847 4V27.89V34.2871C32.2847 36.3392 35.0061 37.0603 36.0222 35.2775L39.082 29.9092C39.7936 28.6608 41.1201 27.89 42.5571 27.89H72C74.2091 27.89 76 26.0991 76 23.89V4C76 1.79086 74.2091 0 72 0H36.2847C34.0755 0 32.2847 1.79086 32.2847 4Z" fill="#2FA7AE"/>
  <mask id="mask7_22716_38886" style="mask-type:alpha" maskUnits="userSpaceOnUse" x="46" y="6" width="17" height="17">
    <path fill-rule="evenodd" clip-rule="evenodd" d="M53.7814 7.68171C55.7024 5.76072 58.8169 5.76072 60.7379 7.68171C62.6589 9.6027 62.6589 12.7172 60.7379 14.6382L54.5499 20.8262C52.6289 22.7472 49.5144 22.7472 47.5934 20.8262C45.6724 18.9052 45.6724 15.7907 47.5934 13.8697L53.7814 7.68171ZM59.6054 8.81422C58.3099 7.5187 56.2094 7.5187 54.9139 8.81422L51.8199 11.9082L56.5114 16.5997L59.6054 13.5057C60.9009 12.2102 60.9009 10.1097 59.6054 8.81422Z" fill="black"/>
  </mask>
  <g mask="url(#mask7_22716_38886)">
    <path d="M44.6655 4.75391H63.6655V23.7539H44.6655V4.75391Z" fill="white"/>
  </g>
</svg>
