<svg width="24" height="24" viewBox="0 0 24 24" fill="none" xmlns="http://www.w3.org/2000/svg">
  <path fill-rule="evenodd" clip-rule="evenodd" d="M8 8C8 9.933 7.10457 11.5 6 11.5C4.89543 11.5 4 9.933 4 8C4 6.067 4.89543 4.5 6 4.5C7.10457 4.5 8 6.067 8 8ZM20.0001 17.5012C17.7057 18.5683 14.9565 19.1895 12.0013 19.1895C9.04506 19.1895 6.29492 18.5678 4 17.5C5.19729 21.0023 8.32739 23.5007 12.0003 23.5007C15.6727 23.5007 18.8025 21.0029 20.0001 17.5012ZM18 11.5C19.1046 11.5 20 9.933 20 8C20 6.067 19.1046 4.5 18 4.5C16.8954 4.5 16 6.067 16 8C16 9.933 16.8954 11.5 18 11.5Z" fill="#886B00"/>
</svg>
