<svg viewBox="0 0 301 67" fill="none" xmlns="http://www.w3.org/2000/svg">
<rect width="301" height="67" rx="6" fill="#F0F2F5"/>
<path d="M165.7 29.08C164.34 22.18 158.28 17 151 17C145.22 17 140.2 20.28 137.7 25.08C131.68 25.72 127 30.82 127 37C127 43.62 132.38 49 139 49H165C170.52 49 175 44.52 175 39C175 33.72 170.9 29.44 165.7 29.08Z" fill="#00B849"/>
<path d="M148.42 41.5807C147.64 42.3607 146.38 42.3607 145.6 41.5807L141.4 37.4007C141.025 37.027 140.815 36.5197 140.815 35.9907C140.815 35.4617 141.025 34.9544 141.4 34.5807C142.18 33.8007 143.44 33.8007 144.22 34.5807L147 37.3607L155.96 28.4007C156.74 27.6207 158 27.6207 158.78 28.4007C159.56 29.1807 159.56 30.4407 158.78 31.2207L148.42 41.5807Z" fill="white"/>
</svg>