<svg viewBox="0 0 301 67" fill="none" xmlns="http://www.w3.org/2000/svg">
<rect width="301" height="67" rx="6" fill="#F0F2F5"/>
<mask id="mask0" mask-type="alpha" maskUnits="userSpaceOnUse" x="127" y="17" width="48" height="32">
<path fill-rule="evenodd" clip-rule="evenodd" d="M151 17C158.28 17 164.34 22.18 165.7 29.08C170.9 29.44 175 33.72 175 39C175 44.52 170.52 49 165 49H139C132.38 49 127 43.62 127 37C127 30.82 131.68 25.72 137.7 25.08C140.2 20.28 145.22 17 151 17ZM145.6 41.5807C146.38 42.3607 147.64 42.3607 148.42 41.5807L158.78 31.2207C159.56 30.4407 159.56 29.1807 158.78 28.4007C158 27.6207 156.74 27.6207 155.96 28.4007L147 37.3607L144.22 34.5807C143.44 33.8007 142.18 33.8007 141.4 34.5807C141.025 34.9544 140.815 35.4617 140.815 35.9907C140.815 36.5197 141.025 37.027 141.4 37.4007L145.6 41.5807Z" fill="white"/>
</mask>
<g mask="url(#mask0)">
<rect x="127" y="9" width="48" height="48" fill="#00B849"/>
</g>
</svg>