<?xml version="1.0" encoding="UTF-8"?>
<svg width="100px" height="100px" viewBox="0 0 100 100" version="1.1" xmlns="http://www.w3.org/2000/svg" xmlns:xlink="http://www.w3.org/1999/xlink">
    <!-- Generator: Sketch 53.2 (72643) - https://sketchapp.com -->
    <title>Artboard</title>
    <desc>Created with Sketch.</desc>
    <defs>
        <circle id="path-1" cx="42" cy="42" r="42"></circle>
    </defs>
    <g id="Artboard" stroke="none" stroke-width="1" fill="none" fill-rule="evenodd">
        <g id="Group-2" transform="translate(8.000000, 8.000000)">
            <mask id="mask-2" fill="white">
                <use xlink:href="#path-1"></use>
            </mask>
            <use id="Oval" fill="#E0F0FF" xlink:href="#path-1"></use>
            <path d="M27.7386779,26.5121543 C27.7386779,26.5121543 34.8346187,25.046146 37.6243101,36.3793362 C39.2291904,42.8959797 41.2024393,47.1237586 41.2024393,47.1237586 C41.2024393,47.1237586 44.8947412,53.7444415 40.4980153,58.6602984 C39.9228434,59.301086 39.2959707,59.979706 38.6173971,60.6015772 C35.8040095,63.1741854 32.3702118,73.370037 31.7239512,82.8281553 C31.7239512,82.8281553 23.1071439,86.1384967 7.81231093,83.3010612 C7.81231093,83.3010612 6.56287387,62.1621668 14.2749164,45.232135 C20.9529421,30.5720516 27.6309678,26.4743218 27.7386779,26.5121543 Z" id="Shape" fill="#6FAAE5" fill-rule="nonzero" mask="url(#mask-2)"></path>
        </g>
        <path d="M58.8459695,9.55159203 C58.8459695,9.55159203 64.7314885,10.3403621 65.9552102,15.4296434 C66.6941051,18.5024171 58.0138387,17.8691148 60.3214283,24.6593959 C62.3469792,30.6151811 59.8715649,33.9234426 59.8715649,33.9234426 C59.8715649,33.9234426 55.3752614,41.4224736 43.7883644,38.1919459 C29.9428267,34.3349748 27.2576315,29.4857539 27.2576315,29.4857539 C27.2576315,29.4857539 22.2438686,23.9575049 27.1597337,17.6907842 C31.336704,12.3637286 34.7421469,17.7799495 42.6042679,7.23100775 C47.1704983,1.09917817 58.8459695,9.55159203 58.8459695,9.55159203 Z" id="hair-back" fill="#0A0908" fill-rule="nonzero" transform="translate(45.500000, 22.000000) rotate(-8.000000) translate(-45.500000, -22.000000) "></path>
        <path d="M48.4848611,31.6259778 C48.4848611,31.6259778 44.3649501,36.3473241 42.7627625,41.9679744 L33.8761891,34.3124514 C33.8761891,34.3124514 39.2658024,30.2124449 47.0478565,20.5449263 L48.4848611,31.6259778 Z" id="Shape" fill="#EBB9A0" fill-rule="nonzero" transform="translate(41.180525, 31.256450) rotate(-8.000000) translate(-41.180525, -31.256450) "></path>
        <path d="M39.5975408,38.7395873 L43.2390844,41.5678985 C44.841272,35.9472482 48.961183,31.2259019 48.961183,31.2259019 L47.86254,27.3566462 C46.0452015,31.53841 43.0628437,35.5965196 39.5975408,38.7395873 Z" id="Shape" fill="#CC8B8B" fill-rule="nonzero" transform="translate(44.279362, 34.462272) rotate(-8.000000) translate(-44.279362, -34.462272) "></path>
        <path d="M63.3391582,15.3382222 C63.3391582,15.3382222 60.9332549,26.8966584 55.6815376,31.0395238 C50.4298203,35.1823892 48.6815154,34.090734 46.4932999,31.4757339 C44.3050843,28.8607337 43.0080281,26.0310188 45.6338867,21.4519433 C45.6338867,21.4519433 43.8583709,19.908257 46.0556568,17.5192724 C48.4615601,14.9020121 49.9944448,17.5192724 49.9944448,17.5192724 C49.9944448,17.5192724 51.7450172,15.5551971 56.5568238,16.4276172 C61.3686304,17.3000373 61.8085411,16.4276172 63.3391582,15.3382222 Z" id="Shape" fill="#EBB9A0" fill-rule="nonzero" transform="translate(53.755387, 24.567979) rotate(-8.000000) translate(-53.755387, -24.567979) "></path>
        <path d="M56.5425357,16.2421665 C53.6921865,15.726851 51.9166707,16.2037439 50.9416109,16.6806367 L50.9416109,16.7665227 L50.9620191,16.7665227 C52.0187118,16.206004 53.2704165,16.2557275 54.4745019,16.5066047 C55.0481999,16.626393 60.9892618,16.8659695 59.889485,20.5432428 C58.9098901,23.8204686 56.9416299,26.6637445 54.6332326,29.0866314 C51.3973947,32.4768649 47.9461366,32.3163939 46.8168813,31.6677292 C48.8577041,33.9934294 50.692177,34.7754433 55.6740522,30.8450325 C60.9257695,26.7021671 63.3316728,15.1437309 63.3316728,15.1437309 C61.794253,16.2421665 61.3566099,17.1145866 56.5425357,16.2421665 Z" id="Shape" fill="#CC8B8B" fill-rule="nonzero" transform="translate(55.074277, 24.373089) rotate(-8.000000) translate(-55.074277, -24.373089) "></path>
        <path d="M44.904455,22 C44.904455,22 45.5454331,25.193124 43.5069866,29.0180304 C41.3031994,33.1440028 38.2704439,37.2631327 31.5028014,33.5522665 C24.3772983,29.6452512 44.904455,22 44.904455,22 Z" id="hair-front" fill="#0A0908" fill-rule="nonzero" transform="translate(37.500000, 28.500000) rotate(-8.000000) translate(-37.500000, -28.500000) "></path>
        <path d="M47.4665468,74.9072994 C47.4665468,74.9072994 43.8124523,59.2658433 41.8779317,48.3382508 C39.9434112,37.4106582 32.850169,41.0531891 32.850169,41.0531891 C32.850169,41.0531891 26.401767,44.4814534 28.9811278,56.266112 C31.5604886,68.0507707 39.298571,83.4779602 39.298571,83.4779602 C39.298571,83.4779602 47.6814935,86.9062245 69.3911134,81.5495615 C71.2926207,81.103182 73.2412494,80.8873529 75.1946752,80.9067619 C78.6338229,80.9067619 71.9704742,74.9072994 71.9704742,74.9072994 L68.101433,74.9072994 C63.1576582,74.9072994 55.4195759,73.6217002 47.4665468,74.9072994 Z" id="Shape" fill="#EBB9A0" fill-rule="nonzero"></path>
        <path d="M41.8779317,48.3382508 C39.9448493,37.4099312 32.850169,41.0531891 32.850169,41.0531891 C32.850169,41.0531891 26.401767,44.4814534 28.9811278,56.266112 C30.0816551,61.2949473 28.8529011,58.5713739 30.830411,63.4502226 C37.8952896,61.6433117 41.9452694,59.5640908 42.9803506,57.2125597 C43.9739715,54.9552193 42.4606098,51.6323121 41.8779317,48.3382508 Z" id="Shape" fill="#4888C8" fill-rule="nonzero"></path>
        <path d="M75.1946752,80.9067619 L80.13845,80.9067619 C81.6430772,80.9067619 83.5775978,79.6211628 83.5775978,79.6211628 L87.2316922,76.835698 C87.2316922,76.835698 88.0914791,76.407165 87.8765324,74.4787663 C87.6615857,72.5503676 86.586852,68.4793037 86.586852,68.4793037 C86.586852,68.4793037 85.368104,67.050146 85.1187658,69.1585286 C84.8694276,71.2669112 85.5121183,73.8359668 85.5121183,73.8359668 C85.5121183,73.8359668 85.7270651,74.9072994 81.6430772,76.407165 C77.5590893,77.9070306 80.7832902,73.1931672 80.7832902,73.1931672 L82.9327576,71.050502 C84.0074912,69.9791694 84.7963457,69.1221033 84.4008437,68.3721705 C84.0053417,67.6222376 81.6430772,69.3363698 81.6430772,69.3363698 C81.6430772,69.3363698 79.9235033,70.6219689 79.0637164,70.6219689 C78.2039295,70.6219689 76.2694089,70.8362355 74.7647817,72.1218346 C73.7718731,72.9869528 72.8383389,73.9175328 71.9704742,74.9072994 L75.1946752,80.9067619 Z" id="Shape" fill="#EBB9A0" fill-rule="nonzero"></path>
        <path d="M48.0039136,74.3009251 C44.4958641,76.4280978 40.788472,78.2099082 36.9341569,79.6211628 L30.9156484,64.8367729 C30.9156484,64.8367729 39.5135177,62.6941077 44.6722393,59.6943764 L48.0039136,74.3009251 Z" id="Shape" fill="#244056" fill-rule="nonzero"></path>
        <path d="M61.8139498,87.7796088 L75.5978692,84.6532701 C75.8733016,84.5908557 76.1608655,84.683405 76.3481905,84.8947528 L83.5387694,92.9822675 C83.7894689,93.2636608 83.8813474,93.6525107 83.7831057,94.0163527 C83.684864,94.3801946 83.4097532,94.6699531 83.0514918,94.7869196 L72.3421648,98.3013555 C71.4540634,98.592596 70.4782443,98.3092661 69.8842158,97.5876878 L61.8139498,87.7796088 Z" id="Shape" fill="#2B4C66" fill-rule="nonzero"></path>
        <polygon id="Shape" fill="#FFFFFF" fill-rule="nonzero" points="65.694922 88.6116578 71.9676492 96.3259435 80.694922 93.1830863 74.694922 86.3259435"></polygon>
        <path d="M40.2896471,77.4670034 C40.2529935,77.6459593 41.97787,94.0322861 61.5983402,92.7386287" id="Shape" stroke="#1C3248" stroke-width="3" stroke-linecap="round" stroke-linejoin="round"></path>
        <path d="M70.5957273,98.1870824 L62.855344,96.9537957 C62.0034039,96.7602265 61.4133984,95.9829465 61.4560379,95.1103339 L61.8139498,87.7796088 L70.5957273,98.1870824 Z" id="Shape" fill="#1C3248" fill-rule="nonzero"></path>
    </g>
</svg>