<svg width="64" height="64" viewBox="0 0 16 16" fill="none" xmlns="http://www.w3.org/2000/svg">
  <mask id="mask0" mask-type="alpha" maskUnits="userSpaceOnUse" x="0" y="2" width="42" height="42">
    <path fill-rule="evenodd" clip-rule="evenodd" d="M8 2.66663C10.4267 2.66663 12.4467 4.39329 12.9 6.69329C14.6333 6.81329 16 8.23996 16 9.99996C16 11.84 14.5067 13.3333 12.6667 13.3333H4C1.79333 13.3333 0 11.54 0 9.33329C0 7.27329 1.56 5.57329 3.56667 5.35996C4.4 3.75996 6.07333 2.66663 8 2.66663ZM9.33333 11.3336V8.66689H11.3333L8.24 5.56689C8.10667 5.43355 7.9 5.43355 7.76667 5.56689L4.66667 8.66689H6.66667V11.3336H9.33333Z" fill="white"/>
  </mask>
  <g mask="url(#mask0)">
    <rect width="16" height="16" fill="#E0B000"/>
  </g>
</svg>
