<?xml version="1.0" encoding="UTF-8"?>
<svg viewBox="0 0 160 160" version="1.1" xmlns="http://www.w3.org/2000/svg" xmlns:xlink="http://www.w3.org/1999/xlink">
    <g id="Artboard" stroke="none" stroke-width="1" fill="none" fill-rule="evenodd">
        <g id="icon_apple_icon" transform="translate(7.000000, 7.000000)">
            <rect id="Rectangle" fill-opacity="0" fill="#D8D8D8" x="0" y="0" width="151" height="151"></rect>
            <path d="M112.757438,107.949412 C110.836362,112.389944 108.562436,116.477431 105.927818,120.235407 C102.336582,125.358495 99.39616,128.904644 97.1300747,130.873856 C93.6172505,134.106187 89.8535102,135.761579 85.8231716,135.855725 C82.9297963,135.855725 79.4404954,135.031951 75.3787923,133.360868 C71.3037593,131.697629 67.5588378,130.873856 64.1346182,130.873856 C60.5433827,130.873856 56.6918218,131.697629 52.5720944,133.360868 C48.4460941,135.031951 45.1222409,135.902798 42.5809321,135.989098 C38.7160413,136.153853 34.8636963,134.451387 31.0184083,130.873856 C28.564136,128.732044 25.4943353,125.060367 21.8168474,119.858825 C17.871193,114.304237 14.6273194,107.863112 12.0860106,100.519758 C9.36435586,92.5879947 8,84.9072861 8,77.471356 C8,68.9535365 9.83952807,61.6070446 13.524073,55.4507096 C16.4198007,50.5057141 20.2721457,46.6049497 25.0936538,43.7413556 C29.915162,40.8777615 35.1248058,39.4185053 40.7351312,39.3251443 C43.8049318,39.3251443 47.8305657,40.2752299 52.8332039,42.1424502 C57.821728,44.0159468 61.0248278,44.9660324 62.4291734,44.9660324 C63.4791001,44.9660324 67.0374029,43.8551148 73.0695808,41.6403405 C78.7739997,39.5863982 83.5884508,38.73595 87.532537,39.0709513 C98.2199912,39.9339522 106.249304,44.1493197 111.58911,51.7437282 C102.030778,57.5383874 97.3025795,65.6545192 97.396673,76.0662335 C97.4829254,84.176089 100.423348,90.9247565 106.202257,96.2832079 C108.821193,98.7702198 111.745933,100.692358 115,102.057469 C114.294299,104.105135 113.549392,106.066501 112.757438,107.949412 L112.757438,107.949412 Z M89,10.618939 C89,17.1659632 86.6576101,23.2788948 81.9886573,28.9369666 C76.3542601,35.6633004 69.5391717,39.5500935 62.1487734,38.9367721 C62.054603,38.1513328 62,37.3246822 62,36.4560122 C62,30.170882 64.6795041,23.4445481 69.4378792,17.9448571 C71.8135057,15.1602648 74.8348721,12.8449159 78.498813,10.9979215 C82.1548404,9.17848213 85.6130309,8.17227948 88.8654709,8 C88.9604326,8.8752153 89,9.75051141 89,10.6188582 L89,10.618939 Z" id="Shape" fill="#FFFFFF" fill-rule="nonzero"></path>
        </g>
    </g>
</svg>