<?xml version="1.0" encoding="UTF-8"?>
<svg viewBox="0 0 160 160" version="1.1" xmlns="http://www.w3.org/2000/svg" xmlns:xlink="http://www.w3.org/1999/xlink">
    <g id="Artboard" stroke="none" stroke-width="1" fill="none" fill-rule="evenodd">
        <g id="icon_google_play_icon" transform="translate(18.000000, 22.000000)" fill-rule="nonzero">
            <path d="M5.09938854,2.93239879 C4.24942862,2.38804224 0.647945459,7.05174681 0,6.27313428 L0,117 L69,61.6879891 L69,60.232404 L5.46923828,2.55810547 L5.09938854,2.93239879 Z" id="path40" fill="#66E1FF"></path>
            <path d="M83.3095975,81 L63,60.7013752 L63,59.2573674 L83.3095975,39 L83.7636739,39.2475442 L107.829721,52.9037328 C114.723426,56.7819253 114.723426,63.1768173 107.829721,67.0962672 L83.7636739,80.7524558 L83.3095975,81 Z" id="path42" fill="#FFD100"></path>
            <path d="M83,80.7252195 L62.6767875,60 L0,117 C0.05018529,119.354401 0.623915759,120.937897 1.72119141,121.750488 C2.81846705,122.563079 4.94542018,122.979631 8.10205078,123.000144" id="path44" fill="#EE053F"></path>
            <path d="M83,39.2244559 C50.3674259,22.7969246 25.1083113,10.0235383 7.22265625,0.904296875 C2.93229167,-1.28320313 0.524739583,0.506409345 0,6.27313428 C1.39656914,8.65840044 22.2532527,26.5673557 62.5700508,60 L83,39.2244559 Z" id="path46" fill="#43FF3F"></path>
        </g>
    </g>
</svg>