<?xml version="1.0" encoding="UTF-8"?>
<svg width="100px" height="100px" viewBox="0 0 100 100" version="1.1" xmlns="http://www.w3.org/2000/svg" xmlns:xlink="http://www.w3.org/1999/xlink">
    <!-- Generator: Sketch 53.2 (72643) - https://sketchapp.com -->
    <title>Artboard</title>
    <desc>Created with Sketch.</desc>
    <defs>
        <circle id="path-1" cx="42" cy="42" r="42"></circle>
    </defs>
    <g id="Artboard" stroke="none" stroke-width="1" fill="none" fill-rule="evenodd">
        <g id="Group-2" transform="translate(48.551111, 49.611771) rotate(-345.000000) translate(-48.551111, -49.611771) translate(5.051111, 7.611771)">
            <g id="Group" transform="translate(3.000000, 0.000000)">
                <mask id="mask-2" fill="white">
                    <use xlink:href="#path-1"></use>
                </mask>
                <use id="Oval" fill="#FFF8E0" xlink:href="#path-1"></use>
                <g id="rightArm" mask="url(#mask-2)" fill-rule="nonzero">
                    <g transform="translate(12.000000, -71.000000)" id="Shape">
                        <path d="M77.3295978,124.033773 C77.3295978,124.033773 75.2374884,122.786359 72.5386674,120.949889 C69.4911615,118.870866 63.0474648,111.476475 62.6429903,110.596355 C60.1533802,105.253267 49.1279641,102.328775 45.599273,102.224824 C42.0705819,102.120873 32.725827,92.3217451 31.017271,90.5129952 C29.3087151,88.7042454 23.6042303,81.8850506 22.7604129,87.6439438 C22.2443592,91.1089818 26.5262097,97.1797283 26.5262097,97.1797283 C26.5262097,97.1797283 30.0549007,104.802812 34.4413566,105.842323 C38.8278125,106.881835 31.7076671,108.392591 26.5471308,103.846461 C26.5471308,103.846461 17.6138239,107.089737 4.39169301,105.814603 C-8.83043791,104.539469 13.4086842,128.919476 13.4086842,128.919476 C13.4086842,128.919476 22.8162025,135.787182 39.8180776,132.349864 C45.3970358,131.220262 49.5463859,131.795458 52.5381023,132.980501 C57.6498227,134.990223 66.4157608,132.467675 66.4157608,132.467675 L77.3295978,124.033773 Z" fill="#EBB9A0"></path>
                        <path d="M31.7146408,133.285424 C32.3631947,133.285424 33.0396434,133.229984 33.7300394,133.181473 C34.9155681,132.564696 36.1359652,132.00336 37.3703097,131.455884 C41.6172916,128.496742 51.136389,119.882657 52.1615226,118.240229 C53.1866562,116.597801 53.7096835,114.886073 52.5520497,113.326805 C50.6691513,110.776537 41.0384747,104.283056 39.3020239,103.319776 C30.1943747,98.2053796 26.5610782,94.0958445 23.1230452,86.2856489 C22.9227001,86.7247555 22.7932604,87.192501 22.7394918,87.6716641 C22.2234382,91.1367021 26.5052886,97.2074486 26.5052886,97.2074486 C26.5052886,97.2074486 30.0339796,104.830532 34.4204355,105.870044 C38.8068914,106.909555 31.686746,108.420312 26.5262097,103.874182 C26.5262097,103.874182 17.5929028,107.117457 4.37077192,105.842323 C-3.96279689,105.038435 0.611948836,118.960957 14.9847399,123.721919 C17.7254031,124.629759 21.9584376,128.129448 24.8594959,129.799596 C27.0143685,131.005429 29.3575309,132.211263 31.7146408,133.285424 Z" fill="#CC8B8B"></path>
                        <path d="M112.442166,0.796231237 C112.442166,0.796231237 104.771098,9.80533005 104.771098,42.3766873 C104.828437,62.4027736 106.931326,82.3713518 111.047426,101.975341 C111.047426,101.975341 90.1263331,109.598425 55.2578444,104.747371 C55.2578444,104.747371 76.8763074,115.142485 52.4683653,133.160683 C52.4683653,133.160683 116.626385,146.327827 145.218545,123.458577 L137.547478,35.4466113 C137.547478,35.4466113 137.547478,2.87525404 112.442166,0.796231237 Z" fill="#BF9600"></path>
                    </g>
                </g>
            </g>
            <g id="phone" transform="translate(-0.000000, 5.000000)" fill-rule="nonzero">
                <path d="M64.9592044,40.4863919 L48.1644356,56.1332446 C47.0127188,57.2054284 45.2564423,57.2927646 44.0040527,56.3401325 L1.38119758,23.8740626 C0.673520714,23.3352732 0.219018056,22.528738 0.124654664,21.6442712 L0.0250506528,18.1961401 C-0.112862594,16.9624754 0.316200841,16.76325 1.37353573,16.1042739 L18.5130876,5.49935512 C19.5659515,4.83354829 20.9080548,4.83354829 21.9609187,5.49935512 L63.4498205,32.6476406 C64.2696381,33.176354 65.6334469,34.1801433 65.7483746,35.1532825 L65.97823,37.7278871 C66.097918,38.7573019 65.7193602,39.7820588 64.9592044,40.4863919 Z" id="Shape" fill="#1C3248"></path>
                <path d="M64.9205535,38.2901772 L48.8350696,53.0906693 C47.6156034,54.2171646 45.7518283,54.307254 44.4271393,53.3037355 L1.34789037,20.879624 C0.546122444,20.2736297 0.0546755846,19.3492439 0.00428715304,18.3523768 C-0.0461012785,17.3555096 0.349678055,16.3872424 1.08633779,15.7051589 L17.1564362,0.904666756 C18.3785162,-0.215697586 20.2376806,-0.305564051 21.5643665,0.691600546 L64.6436154,33.1157121 C65.4474563,33.7193634 65.9418392,34.6424878 65.9951949,35.6394158 C66.0485506,36.6363439 65.6554665,37.6059436 64.9205535,38.2901772 Z" id="Shape" fill="#2B4C66"></path>
                <path d="M58.0857342,35.4896515 L44.5139256,48.213606 C43.4879071,49.1787041 41.9028612,49.265544 40.7747538,48.4184639 L4.15241328,20.9295628 C3.46941705,20.4111443 3.05003072,19.624451 3.00418808,18.775699 C2.95834543,17.9269469 3.29061775,17.1007707 3.91390644,16.513736 L17.485715,3.78978151 C18.5072495,2.82350851 20.0896864,2.7334152 21.217193,3.57733624 L57.8472273,31.0662373 C58.5305607,31.586121 58.9499888,32.3740563 58.9958154,33.2239685 C59.041642,34.0738808 58.709309,34.9012367 58.0857342,35.4896515 L58.0857342,35.4896515 Z" id="Shape" fill="#FFFFFF"></path>
            </g>
            <circle id="Oval" fill="#E0F0FF" cx="14.4130484" cy="22.371381" r="5"></circle>
            <circle id="Oval" fill="#E0F0FF" cx="23.7627196" cy="30.2189059" r="5"></circle>
            <circle id="Oval" fill="#E0F0FF" cx="34.0783167" cy="37.8076118" r="5"></circle>
            <g id="rightArm-fingers" transform="translate(7.000000, 23.000000)" fill-rule="nonzero">
                <path d="M5.80826267,15.115242 C5.80826267,15.115242 1.67776294,17.0224066 0.439328883,13.0983126 C0.439328883,13.0983126 0.0241313368,11.7879945 2.01421613,9.07131397 C3.45435139,6.9241638 4.72036679,4.67423427 5.8011041,2.34135546 C6.16879563,1.51677393 6.95290269,0.93117213 7.87709183,0.790926694 C8.91508569,0.660580913 10.0246653,1.14080221 9.86717662,3.93980636 C9.74962681,6.71514026 9.34679745,9.47260316 8.66453545,12.1721715 L5.80826267,15.115242 Z" id="Shape" fill="#EBB9A0"></path>
                <path d="M9.09405015,1.05847856 C9.50569909,3.68527854 9.00250541,6.36887333 7.66233448,8.69399723 C7.36682368,9.16831204 7.02399221,9.61403291 6.63865777,10.0248963 C5.15781205,11.6147954 4.04094796,13.4843641 3.36002887,15.5131397 L3.36002887,15.5543015 C4.19847455,15.5849424 5.03321284,15.4324578 5.8011041,15.1083817 L8.66453545,12.13787 C9.34679745,9.43830164 9.74962681,6.68083874 9.86717662,3.90550484 C9.96739672,2.30705394 9.6094678,1.4426556 9.09405015,1.05847856 Z" id="Shape" fill="#CC8B8B"></path>
                <path d="M7.17555115,21.3649793 C7.17555115,21.3649793 2.61553671,22.0990318 2.78018402,16.8920609 C2.78018402,16.8920609 2.83745264,15.1495436 5.64361537,12.6249516 C8.4497781,10.1003596 12.2366661,4.98943292 12.2366661,4.98943292 C12.2366661,4.98943292 16.8253148,3.38412172 14.8209129,9.41432918 C13.7891596,12.6630939 12.4745196,15.8230788 10.8908533,18.8609682 L7.17555115,21.3649793 Z" id="Shape" fill="#EBB9A0"></path>
                <path d="M14.6061555,5.1197787 C14.7636442,8.24807746 13.2460256,10.944177 11.8286271,12.9542462 C10.5042901,14.8271093 7.84845751,16.1168465 6.03733718,17.5300692 C5.12103915,18.2160996 3.78954357,20.2741909 3.97566661,20.4731397 C4.86079632,21.194093 6.02502026,21.5185738 7.17555115,21.3649793 L10.8836948,18.8609682 C12.4690656,15.8238112 13.7837637,12.6636863 14.8137543,9.41432918 C15.6799423,6.79369295 15.3076962,5.61372061 14.6061555,5.1197787 Z" id="Shape" fill="#CC8B8B"></path>
                <path d="M21.2636334,34.8111757 C21.2636334,34.8111757 12.3655205,29.3229322 5.28568645,23.9170124 C5.28568645,23.9170124 1.74219015,21.1728907 9.15131878,16.2060304 C16.5604474,11.2391701 21.0703518,12.206473 18.214079,16.466722 C16.5999738,18.9261925 14.7030159,21.2043429 12.5588021,23.2584232 C12.5588021,23.2584232 14.3699224,23.3133057 19.0015226,20.8367358 C23.6331229,18.360166 26.3891755,16.7205533 27.2410464,18.4699308 C28.0929172,20.2193084 27.1336677,21.9412448 24.327505,24.4658368 C21.5213422,26.9904288 20.6193614,26.9698479 19.6601119,28.6780636 C18.7008623,30.3862794 21.2636334,34.8111757 21.2636334,34.8111757 Z" id="Shape" fill="#EBB9A0"></path>
            </g>
        </g>
        <path d="M47.878436,53.1786982 L47.0136899,53.1786982 L44.7954282,49.6479365 L44.7954282,53.1786982 L43.9306821,53.1786982 L43.9306821,48.2021357 L44.7954282,48.2021357 L47.0205259,51.7465693 L47.0205259,48.2021357 L47.878436,48.2021357 L47.878436,53.1786982 Z M52.3091001,50.9570185 L50.2651547,50.9570185 L50.2651547,52.4882685 L52.6543149,52.4882685 L52.6543149,53.1786982 L49.4004087,53.1786982 L49.4004087,48.2021357 L52.6303891,48.2021357 L52.6303891,48.8994013 L50.2651547,48.8994013 L50.2651547,50.2734248 L52.3091001,50.2734248 L52.3091001,50.9570185 Z M57.7617367,51.9482295 L58.5273617,48.2021357 L59.3852719,48.2021357 L58.2368344,53.1786982 L57.409686,53.1786982 L56.4629086,49.5453974 L55.4956235,53.1786982 L54.6650571,53.1786982 L53.5166196,48.2021357 L54.3745297,48.2021357 L55.1469907,51.9413935 L56.097186,48.2021357 L56.8217953,48.2021357 L57.7617367,51.9482295 Z" id="NEW" fill="#0075EB" fill-rule="nonzero" transform="translate(51.657977, 50.690417) rotate(-31.000000) translate(-51.657977, -50.690417) "></path>
    </g>
</svg>