<?xml version="1.0" encoding="UTF-8"?>
<svg width="328px" height="56px" viewBox="0 0 328 56" version="1.1" xmlns="http://www.w3.org/2000/svg" xmlns:xlink="http://www.w3.org/1999/xlink">
    <!-- Generator: Sketch 53.2 (72643) - https://sketchapp.com -->
    <title>searching</title>
    <desc>Created with Sketch.</desc>
    <g id="searching" stroke="none" stroke-width="1" fill="none" fill-rule="evenodd">
        <rect id="card" stroke="#0075EB" fill="#FFFFFF" x="0.5" y="0.5" width="327" height="55" rx="2"></rect>
        <path d="M106.71875,28.0849609 L101.172852,28.0849609 L101.172852,32.6201172 L107.615234,32.6201172 L107.615234,34 L99.4853516,34 L99.4853516,21.203125 L107.527344,21.203125 L107.527344,22.5917969 L101.172852,22.5917969 L101.172852,26.7050781 L106.71875,26.7050781 L106.71875,28.0849609 Z M111.249023,24.4902344 L111.301758,25.6855469 C112.028324,24.7714798 112.977533,24.3144531 114.149414,24.3144531 C116.15919,24.3144531 117.172851,25.4482308 117.19043,27.7158203 L117.19043,34 L115.564453,34 L115.564453,27.7070312 C115.558594,27.0214809 115.401857,26.5146501 115.094238,26.1865234 C114.78662,25.8583968 114.30762,25.6943359 113.657227,25.6943359 C113.12988,25.6943359 112.666994,25.8349595 112.268555,26.1162109 C111.870115,26.3974623 111.559571,26.7665993 111.336914,27.2236328 L111.336914,34 L109.710938,34 L109.710938,24.4902344 L111.249023,24.4902344 Z M122.098633,22.1875 L122.098633,24.4902344 L123.874023,24.4902344 L123.874023,25.7470703 L122.098633,25.7470703 L122.098633,31.6445312 C122.098633,32.0253925 122.177734,32.3110342 122.335938,32.5014648 C122.494141,32.6918955 122.76367,32.7871094 123.144531,32.7871094 C123.332032,32.7871094 123.589842,32.7519535 123.917969,32.6816406 L123.917969,34 C123.490232,34.1171881 123.074221,34.1757812 122.669922,34.1757812 C121.943356,34.1757812 121.39551,33.9560569 121.026367,33.5166016 C120.657225,33.0771462 120.472656,32.453129 120.472656,31.6445312 L120.472656,25.7470703 L118.741211,25.7470703 L118.741211,24.4902344 L120.472656,24.4902344 L120.472656,22.1875 L122.098633,22.1875 Z M129.96875,34.1757812 C128.679681,34.1757812 127.630863,33.7524456 126.822266,32.9057617 C126.013668,32.0590778 125.609375,30.9267649 125.609375,29.5087891 L125.609375,29.2099609 C125.609375,28.2665968 125.789549,27.4243201 126.149902,26.6831055 C126.510256,25.9418908 127.014157,25.3618185 127.661621,24.9428711 C128.309085,24.5239237 129.010738,24.3144531 129.766602,24.3144531 C131.002936,24.3144531 131.963864,24.7216756 132.649414,25.5361328 C133.334964,26.35059 133.677734,27.516594 133.677734,29.0341797 L133.677734,29.7109375 L127.235352,29.7109375 C127.258789,30.6484422 127.532712,31.4057588 128.057129,31.9829102 C128.581546,32.5600615 129.248043,32.8486328 130.056641,32.8486328 C130.630862,32.8486328 131.117186,32.7314465 131.515625,32.4970703 C131.914064,32.2626941 132.262694,31.9521504 132.561523,31.5654297 L133.554688,32.3388672 C132.757809,33.5634827 131.562508,34.1757812 129.96875,34.1757812 Z M129.766602,25.6503906 C129.110348,25.6503906 128.559573,25.8891578 128.114258,26.3666992 C127.668943,26.8442407 127.393555,27.5136676 127.288086,28.375 L132.051758,28.375 L132.051758,28.2519531 C132.004883,27.4257771 131.782229,26.7856468 131.383789,26.331543 C130.98535,25.8774391 130.446292,25.6503906 129.766602,25.6503906 Z M140.405273,25.9492188 C140.159178,25.9082029 139.89258,25.8876953 139.605469,25.8876953 C138.539057,25.8876953 137.815432,26.3417923 137.43457,27.25 L137.43457,34 L135.808594,34 L135.808594,24.4902344 L137.390625,24.4902344 L137.416992,25.5888672 C137.950198,24.7392536 138.70605,24.3144531 139.68457,24.3144531 C140.000978,24.3144531 140.24121,24.3554683 140.405273,24.4375 L140.405273,25.9492188 Z M154.888672,29.3505859 C154.888672,30.7978588 154.55762,31.9638628 153.895508,32.8486328 C153.233395,33.7334029 152.33692,34.1757812 151.206055,34.1757812 C150.051752,34.1757812 149.143558,33.809574 148.481445,33.0771484 L148.481445,37.65625 L146.855469,37.65625 L146.855469,24.4902344 L148.34082,24.4902344 L148.419922,25.5449219 C149.082035,24.7246053 150.001947,24.3144531 151.179688,24.3144531 C152.322271,24.3144531 153.226071,24.7451129 153.891113,25.6064453 C154.556156,26.4677777 154.888672,27.6660079 154.888672,29.2011719 L154.888672,29.3505859 Z M153.262695,29.1660156 C153.262695,28.0937446 153.034182,27.2470734 152.577148,26.6259766 C152.120115,26.0048797 151.493168,25.6943359 150.696289,25.6943359 C149.711909,25.6943359 148.973635,26.130855 148.481445,27.0039062 L148.481445,31.5478516 C148.967776,32.4150434 149.711909,32.8486328 150.713867,32.8486328 C151.493168,32.8486328 152.112791,32.5395539 152.572754,31.9213867 C153.032717,31.3032196 153.262695,30.3847717 153.262695,29.1660156 Z M163.075195,34 C162.981445,33.8124991 162.905274,33.478518 162.84668,32.9980469 C162.090817,33.7832071 161.188482,34.1757812 160.139648,34.1757812 C159.202144,34.1757812 158.433108,33.9106472 157.83252,33.3803711 C157.231931,32.850095 156.931641,32.1777384 156.931641,31.3632812 C156.931641,30.3730419 157.308102,29.6040066 158.061035,29.0561523 C158.813969,28.508298 159.87304,28.234375 161.238281,28.234375 L162.820312,28.234375 L162.820312,27.4873047 C162.820312,26.9189425 162.650392,26.4663103 162.310547,26.1293945 C161.970701,25.7924788 161.46973,25.6240234 160.807617,25.6240234 C160.227536,25.6240234 159.741213,25.7705063 159.348633,26.0634766 C158.956053,26.3564468 158.759766,26.7109354 158.759766,27.1269531 L157.125,27.1269531 C157.125,26.6523414 157.293455,26.1938499 157.630371,25.7514648 C157.967287,25.3090798 158.424314,24.9589857 159.001465,24.7011719 C159.578616,24.4433581 160.212887,24.3144531 160.904297,24.3144531 C162.000005,24.3144531 162.858395,24.5883762 163.479492,25.1362305 C164.100589,25.6840848 164.422851,26.4384718 164.446289,27.3994141 L164.446289,31.7763672 C164.446289,32.6494184 164.557616,33.3437474 164.780273,33.859375 L164.780273,34 L163.075195,34 Z M160.376953,32.7607422 C160.886721,32.7607422 161.370115,32.6289076 161.827148,32.3652344 C162.284182,32.1015612 162.615233,31.7587912 162.820312,31.3369141 L162.820312,29.3857422 L161.545898,29.3857422 C159.553701,29.3857422 158.557617,29.9687442 158.557617,31.1347656 C158.557617,31.6445338 158.727537,32.0429673 159.067383,32.3300781 C159.407228,32.6171889 159.843747,32.7607422 160.376953,32.7607422 Z M169.451172,22.1875 L169.451172,24.4902344 L171.226562,24.4902344 L171.226562,25.7470703 L169.451172,25.7470703 L169.451172,31.6445312 C169.451172,32.0253925 169.530273,32.3110342 169.688477,32.5014648 C169.84668,32.6918955 170.116209,32.7871094 170.49707,32.7871094 C170.684571,32.7871094 170.942381,32.7519535 171.270508,32.6816406 L171.270508,34 C170.842771,34.1171881 170.42676,34.1757812 170.022461,34.1757812 C169.295895,34.1757812 168.748049,33.9560569 168.378906,33.5166016 C168.009764,33.0771462 167.825195,32.453129 167.825195,31.6445312 L167.825195,25.7470703 L166.09375,25.7470703 L166.09375,24.4902344 L167.825195,24.4902344 L167.825195,22.1875 L169.451172,22.1875 Z M175.141602,34 L173.515625,34 L173.515625,24.4902344 L175.141602,24.4902344 L175.141602,34 Z M173.383789,21.9677734 C173.383789,21.7041002 173.464355,21.4814462 173.625488,21.2998047 C173.786622,21.1181632 174.025389,21.0273438 174.341797,21.0273438 C174.658205,21.0273438 174.898437,21.1181632 175.0625,21.2998047 C175.226563,21.4814462 175.308594,21.7041002 175.308594,21.9677734 C175.308594,22.2314466 175.226563,22.451171 175.0625,22.6269531 C174.898437,22.8027353 174.658205,22.890625 174.341797,22.890625 C174.025389,22.890625 173.786622,22.8027353 173.625488,22.6269531 C173.464355,22.451171 173.383789,22.2314466 173.383789,21.9677734 Z M181.939453,34.1757812 C180.650384,34.1757812 179.601567,33.7524456 178.792969,32.9057617 C177.984371,32.0590778 177.580078,30.9267649 177.580078,29.5087891 L177.580078,29.2099609 C177.580078,28.2665968 177.760252,27.4243201 178.120605,26.6831055 C178.480959,25.9418908 178.98486,25.3618185 179.632324,24.9428711 C180.279788,24.5239237 180.981442,24.3144531 181.737305,24.3144531 C182.973639,24.3144531 183.934567,24.7216756 184.620117,25.5361328 C185.305667,26.35059 185.648438,27.516594 185.648438,29.0341797 L185.648438,29.7109375 L179.206055,29.7109375 C179.229492,30.6484422 179.503415,31.4057588 180.027832,31.9829102 C180.552249,32.5600615 181.218746,32.8486328 182.027344,32.8486328 C182.601565,32.8486328 183.087889,32.7314465 183.486328,32.4970703 C183.884768,32.2626941 184.233397,31.9521504 184.532227,31.5654297 L185.525391,32.3388672 C184.728512,33.5634827 183.533211,34.1757812 181.939453,34.1757812 Z M181.737305,25.6503906 C181.081051,25.6503906 180.530276,25.8891578 180.084961,26.3666992 C179.639646,26.8442407 179.364258,27.5136676 179.258789,28.375 L184.022461,28.375 L184.022461,28.2519531 C183.975586,27.4257771 183.752932,26.7856468 183.354492,26.331543 C182.956053,25.8774391 182.416996,25.6503906 181.737305,25.6503906 Z M189.317383,24.4902344 L189.370117,25.6855469 C190.096683,24.7714798 191.045893,24.3144531 192.217773,24.3144531 C194.227549,24.3144531 195.241211,25.4482308 195.258789,27.7158203 L195.258789,34 L193.632812,34 L193.632812,27.7070312 C193.626953,27.0214809 193.470216,26.5146501 193.162598,26.1865234 C192.854979,25.8583968 192.37598,25.6943359 191.725586,25.6943359 C191.19824,25.6943359 190.735354,25.8349595 190.336914,26.1162109 C189.938475,26.3974623 189.627931,26.7665993 189.405273,27.2236328 L189.405273,34 L187.779297,34 L187.779297,24.4902344 L189.317383,24.4902344 Z M200.166992,22.1875 L200.166992,24.4902344 L201.942383,24.4902344 L201.942383,25.7470703 L200.166992,25.7470703 L200.166992,31.6445312 C200.166992,32.0253925 200.246093,32.3110342 200.404297,32.5014648 C200.562501,32.6918955 200.832029,32.7871094 201.212891,32.7871094 C201.400392,32.7871094 201.658201,32.7519535 201.986328,32.6816406 L201.986328,34 C201.558592,34.1171881 201.14258,34.1757812 200.738281,34.1757812 C200.011715,34.1757812 199.463869,33.9560569 199.094727,33.5166016 C198.725584,33.0771462 198.541016,32.453129 198.541016,31.6445312 L198.541016,25.7470703 L196.80957,25.7470703 L196.80957,24.4902344 L198.541016,24.4902344 L198.541016,22.1875 L200.166992,22.1875 Z M204.205078,24.8066406 L203.282227,24.1738281 C203.827151,23.4121056 204.108398,22.6093792 204.125977,21.765625 L204.125977,20.5 L205.734375,20.5 L205.734375,21.6425781 C205.728516,22.2285186 205.583498,22.8129854 205.299316,23.3959961 C205.015135,23.9790068 204.650393,24.449217 204.205078,24.8066406 Z M212.488281,31.4775391 C212.488281,31.0380837 212.322756,30.6967786 211.991699,30.4536133 C211.660643,30.210448 211.0835,30.0009774 210.260254,29.8251953 C209.437008,29.6494132 208.783694,29.4384778 208.300293,29.1923828 C207.816892,28.9462878 207.459474,28.653322 207.228027,28.3134766 C206.996581,27.9736311 206.880859,27.5693383 206.880859,27.1005859 C206.880859,26.3212852 207.210446,25.6621121 207.869629,25.1230469 C208.528812,24.5839817 209.371089,24.3144531 210.396484,24.3144531 C211.474615,24.3144531 212.349118,24.5927707 213.02002,25.1494141 C213.690921,25.7060575 214.026367,26.4179644 214.026367,27.2851562 L212.391602,27.2851562 C212.391602,26.8398415 212.202639,26.4560563 211.824707,26.1337891 C211.446775,25.8115218 210.970706,25.6503906 210.396484,25.6503906 C209.804685,25.6503906 209.341799,25.7792956 209.007812,26.0371094 C208.673826,26.2949232 208.506836,26.6318339 208.506836,27.0478516 C208.506836,27.4404317 208.662108,27.7363271 208.972656,27.9355469 C209.283205,28.1347666 209.844234,28.3251944 210.655762,28.5068359 C211.467289,28.6884775 212.124997,28.9052722 212.628906,29.1572266 C213.132815,29.4091809 213.506346,29.7124006 213.749512,30.0668945 C213.992677,30.4213885 214.114258,30.8535131 214.114258,31.3632812 C214.114258,32.2128949 213.774417,32.8940404 213.094727,33.4067383 C212.415036,33.9194362 211.533209,34.1757812 210.449219,34.1757812 C209.687496,34.1757812 209.013675,34.041017 208.427734,33.7714844 C207.841794,33.5019518 207.383302,33.1254907 207.052246,32.6420898 C206.72119,32.158689 206.555664,31.635745 206.555664,31.0732422 L208.181641,31.0732422 C208.210938,31.6181668 208.429197,32.0502914 208.836426,32.3696289 C209.243654,32.6889664 209.781247,32.8486328 210.449219,32.8486328 C211.064456,32.8486328 211.558104,32.7241223 211.930176,32.4750977 C212.302248,32.226073 212.488281,31.8935568 212.488281,31.4775391 Z M222.726562,24.4902344 L222.779297,25.6855469 C223.505863,24.7714798 224.455072,24.3144531 225.626953,24.3144531 C227.636729,24.3144531 228.650391,25.4482308 228.667969,27.7158203 L228.667969,34 L227.041992,34 L227.041992,27.7070312 C227.036133,27.0214809 226.879396,26.5146501 226.571777,26.1865234 C226.264159,25.8583968 225.78516,25.6943359 225.134766,25.6943359 C224.607419,25.6943359 224.144533,25.8349595 223.746094,26.1162109 C223.347654,26.3974623 223.03711,26.7665993 222.814453,27.2236328 L222.814453,34 L221.188477,34 L221.188477,24.4902344 L222.726562,24.4902344 Z M237.241211,34 C237.14746,33.8124991 237.071289,33.478518 237.012695,32.9980469 C236.256832,33.7832071 235.354497,34.1757812 234.305664,34.1757812 C233.368159,34.1757812 232.599124,33.9106472 231.998535,33.3803711 C231.397946,32.850095 231.097656,32.1777384 231.097656,31.3632812 C231.097656,30.3730419 231.474117,29.6040066 232.227051,29.0561523 C232.979984,28.508298 234.039056,28.234375 235.404297,28.234375 L236.986328,28.234375 L236.986328,27.4873047 C236.986328,26.9189425 236.816408,26.4663103 236.476562,26.1293945 C236.136717,25.7924788 235.635745,25.6240234 234.973633,25.6240234 C234.393552,25.6240234 233.907229,25.7705063 233.514648,26.0634766 C233.122068,26.3564468 232.925781,26.7109354 232.925781,27.1269531 L231.291016,27.1269531 C231.291016,26.6523414 231.459471,26.1938499 231.796387,25.7514648 C232.133302,25.3090798 232.590329,24.9589857 233.16748,24.7011719 C233.744632,24.4433581 234.378903,24.3144531 235.070312,24.3144531 C236.166021,24.3144531 237.024411,24.5883762 237.645508,25.1362305 C238.266605,25.6840848 238.588867,26.4384718 238.612305,27.3994141 L238.612305,31.7763672 C238.612305,32.6494184 238.723632,33.3437474 238.946289,33.859375 L238.946289,34 L237.241211,34 Z M234.542969,32.7607422 C235.052737,32.7607422 235.536131,32.6289076 235.993164,32.3652344 C236.450198,32.1015612 236.781249,31.7587912 236.986328,31.3369141 L236.986328,29.3857422 L235.711914,29.3857422 C233.719717,29.3857422 232.723633,29.9687442 232.723633,31.1347656 C232.723633,31.6445338 232.893553,32.0429673 233.233398,32.3300781 C233.573244,32.6171889 234.009763,32.7607422 234.542969,32.7607422 Z M242.94043,24.4902344 L242.984375,25.5449219 C243.681644,24.7246053 244.622064,24.3144531 245.805664,24.3144531 C247.135749,24.3144531 248.041013,24.8242137 248.521484,25.84375 C248.837892,25.3867165 249.249509,25.0175795 249.756348,24.7363281 C250.263186,24.4550767 250.862301,24.3144531 251.553711,24.3144531 C253.639659,24.3144531 254.700195,25.4189343 254.735352,27.6279297 L254.735352,34 L253.109375,34 L253.109375,27.7246094 C253.109375,27.0449185 252.954103,26.5366228 252.643555,26.199707 C252.333006,25.8627913 251.811527,25.6943359 251.079102,25.6943359 C250.475583,25.6943359 249.974611,25.8745099 249.576172,26.2348633 C249.177732,26.5952166 248.946289,27.0800751 248.881836,27.6894531 L248.881836,34 L247.24707,34 L247.24707,27.7685547 C247.24707,26.3857353 246.570319,25.6943359 245.216797,25.6943359 C244.150385,25.6943359 243.4209,26.148433 243.02832,27.0566406 L243.02832,34 L241.402344,34 L241.402344,24.4902344 L242.94043,24.4902344 Z M261.383789,34.1757812 C260.09472,34.1757812 259.045902,33.7524456 258.237305,32.9057617 C257.428707,32.0590778 257.024414,30.9267649 257.024414,29.5087891 L257.024414,29.2099609 C257.024414,28.2665968 257.204588,27.4243201 257.564941,26.6831055 C257.925295,25.9418908 258.429196,25.3618185 259.07666,24.9428711 C259.724124,24.5239237 260.425777,24.3144531 261.181641,24.3144531 C262.417975,24.3144531 263.378903,24.7216756 264.064453,25.5361328 C264.750003,26.35059 265.092773,27.516594 265.092773,29.0341797 L265.092773,29.7109375 L258.650391,29.7109375 C258.673828,30.6484422 258.947751,31.4057588 259.472168,31.9829102 C259.996585,32.5600615 260.663082,32.8486328 261.47168,32.8486328 C262.045901,32.8486328 262.532225,32.7314465 262.930664,32.4970703 C263.329104,32.2626941 263.677733,31.9521504 263.976562,31.5654297 L264.969727,32.3388672 C264.172848,33.5634827 262.977547,34.1757812 261.383789,34.1757812 Z M261.181641,25.6503906 C260.525387,25.6503906 259.974612,25.8891578 259.529297,26.3666992 C259.083982,26.8442407 258.808594,27.5136676 258.703125,28.375 L263.466797,28.375 L263.466797,28.2519531 C263.419922,27.4257771 263.197268,26.7856468 262.798828,26.331543 C262.400389,25.8774391 261.861332,25.6503906 261.181641,25.6503906 Z" id="Enterpatientsname" fill="#0075EB" fill-rule="nonzero"></path>
        <path d="M77.9765628,30.4715628 L77.1865628,30.4715628 L76.9065628,30.2015628 C78.1065628,28.8015628 78.7265628,26.8915628 78.3865628,24.8615628 C77.9165628,22.0815628 75.5965628,19.8615628 72.7965628,19.5215628 C68.5665628,19.0015628 65.0065628,22.5615628 65.5265628,26.7915628 C65.8665628,29.5915628 68.0865628,31.9115628 70.8665628,32.3815628 C72.8965628,32.7215628 74.8065628,32.1015628 76.2065628,30.9015628 L76.4765628,31.1815628 L76.4765628,31.9715628 L80.7265628,36.2215628 C81.1365628,36.6315628 81.8065628,36.6315628 82.2165628,36.2215628 C82.6265628,35.8115628 82.6265628,35.1415628 82.2165628,34.7315628 L77.9765628,30.4715628 Z" id="Path" fill="#0075EB" fill-rule="nonzero"></path>
        <path d="M71.9765628,30.4715628 C69.4865628,30.4715628 67.4765628,28.4615628 67.4765628,25.9715628 C67.4765628,23.4815628 69.4865628,21.4715628 71.9765628,21.4715628 C74.4665628,21.4715628 76.4765628,23.4815628 76.4765628,25.9715628 C76.4765628,28.4615628 74.4665628,30.4715628 71.9765628,30.4715628 Z" id="Path" fill="#FFFFFF" fill-rule="nonzero"></path>
    </g>
</svg>