<svg width="42" height="42" viewBox="0 0 42 42" fill="none" xmlns="http://www.w3.org/2000/svg" class="lock">
  <g id="icon/action/https_24px">
    <path id="icon/action/https_24px_2" fill-rule="evenodd" clip-rule="evenodd" d="M31.5 14.875H29.75V11.375C29.75 6.545 25.83 2.625 21 2.625C16.17 2.625 12.25 6.545 12.25 11.375V14.875H10.5C8.575 14.875 7 16.45 7 18.375V35.875C7 37.8 8.575 39.375 10.5 39.375H31.5C33.425 39.375 35 37.8 35 35.875V18.375C35 16.45 33.425 14.875 31.5 14.875ZM21 30.625C19.075 30.625 17.5 29.05 17.5 27.125C17.5 25.2 19.075 23.625 21 23.625C22.925 23.625 24.5 25.2 24.5 27.125C24.5 29.05 22.925 30.625 21 30.625ZM15.75 11.375V14.875H26.25V11.375C26.25 8.47 23.905 6.125 21 6.125C18.095 6.125 15.75 8.47 15.75 11.375Z" fill="black" fill-opacity="0.25"/>
  </g>
</svg>
