<svg width="0" height="0" style="width: 24px; height: 24px;" viewBox="0 0 20 20" fill="none" xmlns="http://www.w3.org/2000/svg">
  <path id="icon/navigation/arrow_forward_24px_2" d="M5.20874 13H16.3787L11.4987 17.88C11.1087 18.27 11.1087 18.91 11.4987 19.3C11.8887 19.69 12.5187 19.69 12.9087 19.3L19.4987 12.71C19.8887 12.32 19.8887 11.69 19.4987 11.3L12.9187 4.69999C12.7319 4.51273 12.4783 4.4075 12.2137 4.4075C11.9492 4.4075 11.6956 4.51273 11.5087 4.69999C11.1187 5.08999 11.1187 5.71999 11.5087 6.10999L16.3787 11H5.20874C4.65874 11 4.20874 11.45 4.20874 12C4.20874 12.55 4.65874 13 5.20874 13Z" fill="#0075EB" fill-opacity="1"/>
</svg>
