<?xml version="1.0" encoding="utf-8"?>
<!-- Generator: Adobe Illustrator 22.1.0, SVG Export Plug-In . SVG Version: 6.00 Build 0)  -->
<svg version="1.1" id="Layer_1" xmlns="http://www.w3.org/2000/svg" xmlns:xlink="http://www.w3.org/1999/xlink" x="0px" y="0px"
	 viewBox="0 0 500 500" style="enable-background:new 0 0 500 500;" xml:space="preserve">
<style type="text/css">
	.st0{clip-path:url(#SVGID_2_);}
	.st1{clip-path:url(#SVGID_4_);enable-background:new    ;}
	.st2{clip-path:url(#SVGID_6_);}
	.st3{clip-path:url(#SVGID_8_);fill:#E2F1E6;}
	.st4{clip-path:url(#SVGID_10_);}
	.st5{clip-path:url(#SVGID_12_);fill:#27B34B;}
	.st6{clip-path:url(#SVGID_14_);}
	.st7{clip-path:url(#SVGID_16_);fill:#0D0C0C;}
	.st8{clip-path:url(#SVGID_18_);}
	.st9{clip-path:url(#SVGID_20_);fill:#EBB9A0;}
	.st10{clip-path:url(#SVGID_22_);}
	.st11{clip-path:url(#SVGID_24_);fill:#CB8B8B;}
	.st12{clip-path:url(#SVGID_26_);}
	.st13{clip-path:url(#SVGID_28_);fill:#EBB9A0;}
	.st14{clip-path:url(#SVGID_30_);}
	.st15{clip-path:url(#SVGID_32_);fill:#CB8B8B;}
	.st16{clip-path:url(#SVGID_34_);}
	.st17{clip-path:url(#SVGID_36_);fill:#0D0C0C;}
	.st18{clip-path:url(#SVGID_38_);}
	.st19{clip-path:url(#SVGID_40_);fill:#EBB9A0;}
	.st20{clip-path:url(#SVGID_42_);}
	.st21{clip-path:url(#SVGID_44_);fill:#107F40;}
	.st22{clip-path:url(#SVGID_46_);}
	.st23{clip-path:url(#SVGID_48_);fill:#EBB9A0;}
	.st24{clip-path:url(#SVGID_50_);}
	.st25{clip-path:url(#SVGID_52_);fill:#254056;}
	.st26{clip-path:url(#SVGID_54_);}
	.st27{clip-path:url(#SVGID_56_);fill:#2C4D67;}
	.st28{clip-path:url(#SVGID_58_);}
	.st29{clip-path:url(#SVGID_60_);fill:#FFFFFF;}
	.st30{fill:none;stroke:#1D3248;stroke-width:15;stroke-linecap:round;stroke-linejoin:round;stroke-miterlimit:10;}
	.st31{clip-path:url(#SVGID_62_);}
	.st32{clip-path:url(#SVGID_64_);fill:#1D3248;}
</style>
<g>
	<defs>
		<circle id="SVGID_1_" cx="250.5" cy="250" r="210"/>
	</defs>
	<clipPath id="SVGID_2_">
		<use xlink:href="#SVGID_1_"  style="overflow:visible;"/>
	</clipPath>
	<g class="st0">
		<defs>
			<rect id="SVGID_3_" x="0.5" width="500" height="500"/>
		</defs>
		<clipPath id="SVGID_4_">
			<use xlink:href="#SVGID_3_"  style="overflow:visible;"/>
		</clipPath>
		<g class="st1">
			<g>
				<defs>
					<rect id="SVGID_5_" x="15.5" y="15" width="470" height="470"/>
				</defs>
				<clipPath id="SVGID_6_">
					<use xlink:href="#SVGID_5_"  style="overflow:visible;"/>
				</clipPath>
				<g class="st2">
					<defs>
						<rect id="SVGID_7_" x="40.5" y="40" width="420" height="420"/>
					</defs>
					<clipPath id="SVGID_8_">
						<use xlink:href="#SVGID_7_"  style="overflow:visible;"/>
					</clipPath>
					<rect x="15.5" y="15" class="st3" width="470" height="470"/>
				</g>
				<g class="st2">
					<defs>
						<path id="SVGID_9_" d="M179.2,172.6c0,0,35.5-7.3,49.4,49.3c8,32.6,17.9,53.7,17.9,53.7s18.5,33.1-3.5,57.7
							c-2.9,3.2-6,6.6-9.4,9.7c-14.1,12.9-31.2,63.8-34.5,111.1c0,0-43.1,16.6-119.6,2.4c0,0-6.2-105.7,32.3-190.3
							C145.2,192.9,178.6,172.4,179.2,172.6z"/>
					</defs>
					<clipPath id="SVGID_10_">
						<use xlink:href="#SVGID_9_"  style="overflow:visible;"/>
					</clipPath>
					<g class="st4">
						<defs>
							<rect id="SVGID_11_" x="40.5" y="40" width="420" height="420"/>
						</defs>
						<clipPath id="SVGID_12_">
							<use xlink:href="#SVGID_11_"  style="overflow:visible;"/>
						</clipPath>
						<rect x="54.1" y="147.3" class="st5" width="224.6" height="340"/>
					</g>
				</g>
			</g>
		</g>
	</g>
</g>
<g>
	<defs>
		<path id="SVGID_13_" d="M285.4,39.1c0,0,29.7-0.2,39.3,24.2c5.8,14.7-37.6,17.6-21.5,49.6c14.2,28.1,4.2,46.2,4.2,46.2
			s-17,40.3-76.7,32.3c-71.2-9.5-87.9-31.6-87.9-31.6s-28.7-23.9-8.7-58.3c17-29.3,37.6-4.8,69.2-62.5
			C221.7,5.4,285.4,39.1,285.4,39.1z"/>
	</defs>
	<clipPath id="SVGID_14_">
		<use xlink:href="#SVGID_13_"  style="overflow:visible;"/>
	</clipPath>
	<g class="st6">
		<defs>
			<rect id="SVGID_15_" x="0.5" width="500" height="500"/>
		</defs>
		<clipPath id="SVGID_16_">
			<use xlink:href="#SVGID_15_"  style="overflow:visible;"/>
		</clipPath>
		<rect x="100.5" y="0" transform="matrix(0.9903 -0.1392 0.1392 0.9903 -13.0905 32.7964)" class="st7" width="255" height="220"/>
	</g>
</g>
<g>
	<defs>
		<path id="SVGID_17_" d="M242.8,153c0,0-17.1,26.2-21.1,55.2l-49.3-31.7c0,0,23.8-24.1,55.6-77.3L242.8,153z"/>
	</defs>
	<clipPath id="SVGID_18_">
		<use xlink:href="#SVGID_17_"  style="overflow:visible;"/>
	</clipPath>
	<g class="st8">
		<defs>
			<rect id="SVGID_19_" x="0.5" width="500" height="500"/>
		</defs>
		<clipPath id="SVGID_20_">
			<use xlink:href="#SVGID_19_"  style="overflow:visible;"/>
		</clipPath>
		
			<rect x="144.8" y="77.7" transform="matrix(0.9903 -0.1392 0.1392 0.9903 -19.742 30.241)" class="st9" width="123" height="157.1"/>
	</g>
</g>
<g>
	<defs>
		<path id="SVGID_21_" d="M201.7,196.7l20,11.5c4-28.9,21.1-55.2,21.1-55.2l-8.1-18.4C228.6,156.6,216.6,178.8,201.7,196.7z"/>
	</defs>
	<clipPath id="SVGID_22_">
		<use xlink:href="#SVGID_21_"  style="overflow:visible;"/>
	</clipPath>
	<g class="st10">
		<defs>
			<rect id="SVGID_23_" x="0.5" width="500" height="500"/>
		</defs>
		<clipPath id="SVGID_24_">
			<use xlink:href="#SVGID_23_"  style="overflow:visible;"/>
		</clipPath>
		
			<rect x="173.4" y="111.8" transform="matrix(0.9903 -0.1392 0.1392 0.9903 -21.822 32.5534)" class="st11" width="96.8" height="121.1"/>
	</g>
</g>
<g>
	<defs>
		<path id="SVGID_25_" d="M310.3,70.5c0,0-3.9,58.9-27,83.1c-23.1,24.2-32.5,20-45.2,8.6c-12.7-11.4-21-24.5-11.2-49
			c0,0-9.9-6.4-0.6-19.8c10.1-14.6,19.5-2.7,19.5-2.7s7.3-10.9,31.7-10C301.9,81.6,303.4,76.9,310.3,70.5z"/>
	</defs>
	<clipPath id="SVGID_26_">
		<use xlink:href="#SVGID_25_"  style="overflow:visible;"/>
	</clipPath>
	<g class="st12">
		<defs>
			<rect id="SVGID_27_" x="0.5" width="500" height="500"/>
		</defs>
		<clipPath id="SVGID_28_">
			<use xlink:href="#SVGID_27_"  style="overflow:visible;"/>
		</clipPath>
		
			<rect x="196.3" y="51.7" transform="matrix(0.9903 -0.1392 0.1392 0.9903 -14.4758 38.6659)" class="st13" width="145.8" height="142.3"/>
	</g>
</g>
<g>
	<defs>
		<path id="SVGID_29_" d="M277.4,80.6c-14.5-0.6-22.9,3-27.4,6.1l0.1,0.4l0.1,0c4.8-3.5,11.1-4.1,17.2-3.7
			c2.9,0.2,32.5-2.8,29.6,16.2c-2.6,16.9-10.3,32.4-20.1,46c-13.7,19-30.9,20.6-36.9,18.2c11.7,10.1,21.4,12.7,43.3-10.2
			c23.1-24.2,27-83.1,27-83.1C303.4,76.9,301.9,81.6,277.4,80.6z"/>
	</defs>
	<clipPath id="SVGID_30_">
		<use xlink:href="#SVGID_29_"  style="overflow:visible;"/>
	</clipPath>
	<g class="st14">
		<defs>
			<rect id="SVGID_31_" x="0.5" width="500" height="500"/>
		</defs>
		<clipPath id="SVGID_32_">
			<use xlink:href="#SVGID_31_"  style="overflow:visible;"/>
		</clipPath>
		
			<rect x="209.5" y="50.7" transform="matrix(0.9903 -0.1392 0.1392 0.9903 -14.276 39.5742)" class="st15" width="132.6" height="142.3"/>
	</g>
</g>
<g>
	<defs>
		<path id="SVGID_33_" d="M220.1,105.2c0,0,5.4,15.4-2,35.7c-8,22-20.2,44.5-56.3,30.8C123.8,157.3,220.1,105.2,220.1,105.2z"/>
	</defs>
	<clipPath id="SVGID_34_">
		<use xlink:href="#SVGID_33_"  style="overflow:visible;"/>
	</clipPath>
	<g class="st16">
		<defs>
			<rect id="SVGID_35_" x="0.5" width="500" height="500"/>
		</defs>
		<clipPath id="SVGID_36_">
			<use xlink:href="#SVGID_35_"  style="overflow:visible;"/>
		</clipPath>
		
			<rect x="125.5" y="85" transform="matrix(0.9903 -0.1392 0.1392 0.9903 -18.0029 27.5457)" class="st17" width="125" height="115"/>
	</g>
</g>
<g>
	<defs>
		<path id="SVGID_37_" d="M237.8,374.5c0,0-18.3-78.2-27.9-132.8c-9.7-54.6-45.1-36.4-45.1-36.4s-32.2,17.1-19.3,76.1
			c12.9,58.9,51.6,136.1,51.6,136.1s41.9,17.1,150.5-9.6c9.5-2.2,19.3-3.3,29-3.2c17.2,0-16.1-30-16.1-30H341
			C316.2,374.5,277.6,368.1,237.8,374.5z"/>
	</defs>
	<clipPath id="SVGID_38_">
		<use xlink:href="#SVGID_37_"  style="overflow:visible;"/>
	</clipPath>
	<g class="st18">
		<defs>
			<rect id="SVGID_39_" x="0.5" width="500" height="500"/>
		</defs>
		<clipPath id="SVGID_40_">
			<use xlink:href="#SVGID_39_"  style="overflow:visible;"/>
		</clipPath>
		<rect x="117.3" y="177.4" class="st19" width="289" height="270.4"/>
	</g>
</g>
<g>
	<defs>
		<path id="SVGID_41_" d="M209.8,241.7c-9.7-54.6-45.1-36.4-45.1-36.4s-32.2,17.1-19.3,76.1c5.5,25.1-0.6,11.5,9.2,35.9
			c35.3-9,55.6-19.4,60.7-31.2C220.3,274.8,212.8,258.2,209.8,241.7z"/>
	</defs>
	<clipPath id="SVGID_42_">
		<use xlink:href="#SVGID_41_"  style="overflow:visible;"/>
	</clipPath>
	<g class="st20">
		<defs>
			<rect id="SVGID_43_" x="0.5" width="500" height="500"/>
		</defs>
		<clipPath id="SVGID_44_">
			<use xlink:href="#SVGID_43_"  style="overflow:visible;"/>
		</clipPath>
		<rect x="117.3" y="177.4" class="st21" width="124.7" height="164.9"/>
	</g>
</g>
<g>
	<defs>
		<path id="SVGID_45_" d="M376.4,404.5h24.7c7.5,0,17.2-6.4,17.2-6.4l18.3-13.9c0,0,4.3-2.1,3.2-11.8c-1.1-9.6-6.4-30-6.4-30
			s-6.1-7.1-7.3,3.4c-1.2,10.5,2,23.4,2,23.4s1.1,5.4-19.3,12.9c-20.4,7.5-4.3-16.1-4.3-16.1l10.7-10.7c5.4-5.4,9.3-9.6,7.3-13.4
			c-2-3.7-13.8,4.8-13.8,4.8s-8.6,6.4-12.9,6.4c-4.3,0-14,1.1-21.5,7.5c-5,4.3-9.6,9-14,13.9L376.4,404.5z"/>
	</defs>
	<clipPath id="SVGID_46_">
		<use xlink:href="#SVGID_45_"  style="overflow:visible;"/>
	</clipPath>
	<g class="st22">
		<defs>
			<rect id="SVGID_47_" x="0.5" width="500" height="500"/>
		</defs>
		<clipPath id="SVGID_48_">
			<use xlink:href="#SVGID_47_"  style="overflow:visible;"/>
		</clipPath>
		<rect x="335.3" y="315" class="st23" width="129.7" height="114.5"/>
	</g>
</g>
<g>
	<defs>
		<path id="SVGID_49_" d="M240.5,371.5c-17.5,10.6-36.1,19.5-55.3,26.6L155,324.2c0,0,43-10.7,68.8-25.7L240.5,371.5z"/>
	</defs>
	<clipPath id="SVGID_50_">
		<use xlink:href="#SVGID_49_"  style="overflow:visible;"/>
	</clipPath>
	<g class="st24">
		<defs>
			<rect id="SVGID_51_" x="0.5" width="500" height="500"/>
		</defs>
		<clipPath id="SVGID_52_">
			<use xlink:href="#SVGID_51_"  style="overflow:visible;"/>
		</clipPath>
		<rect x="130" y="273.5" class="st25" width="135.4" height="149.6"/>
	</g>
</g>
<g>
	<defs>
		<path id="SVGID_53_" d="M309.5,438.9l68.9-15.6c1.4-0.3,2.8,0.2,3.8,1.2l36,40.4c1.3,1.4,1.7,3.4,1.2,5.2
			c-0.5,1.8-1.9,3.3-3.7,3.9l-53.5,17.6c-4.4,1.5-9.3,0-12.3-3.6L309.5,438.9z"/>
	</defs>
	<clipPath id="SVGID_54_">
		<use xlink:href="#SVGID_53_"  style="overflow:visible;"/>
	</clipPath>
	<g class="st26">
		<defs>
			<rect id="SVGID_55_" x="0.5" width="500" height="500"/>
		</defs>
		<clipPath id="SVGID_56_">
			<use xlink:href="#SVGID_55_"  style="overflow:visible;"/>
		</clipPath>
		<rect x="284.5" y="398.2" class="st27" width="160" height="118.9"/>
	</g>
</g>
<g>
	<defs>
		<polygon id="SVGID_57_" points="328.9,443.1 360.3,481.6 403.9,465.9 373.9,431.6 		"/>
	</defs>
	<clipPath id="SVGID_58_">
		<use xlink:href="#SVGID_57_"  style="overflow:visible;"/>
	</clipPath>
	<g class="st28">
		<defs>
			<rect id="SVGID_59_" x="0.5" width="500" height="500"/>
		</defs>
		<clipPath id="SVGID_60_">
			<use xlink:href="#SVGID_59_"  style="overflow:visible;"/>
		</clipPath>
		<rect x="303.9" y="406.6" class="st29" width="125" height="100"/>
	</g>
</g>
<g>
	<path class="st30" d="M201.9,387.3c-0.2,0.9,8.4,82.8,106.5,76.4"/>
</g>
<g>
	<defs>
		<path id="SVGID_61_" d="M353.4,490.9l-38.7-6.2c-4.3-1-7.2-4.9-7-9.2l1.8-36.7L353.4,490.9z"/>
	</defs>
	<clipPath id="SVGID_62_">
		<use xlink:href="#SVGID_61_"  style="overflow:visible;"/>
	</clipPath>
	<g class="st31">
		<defs>
			<rect id="SVGID_63_" x="0.5" width="500" height="500"/>
		</defs>
		<clipPath id="SVGID_64_">
			<use xlink:href="#SVGID_63_"  style="overflow:visible;"/>
		</clipPath>
		<rect x="282.7" y="413.9" class="st32" width="95.7" height="102"/>
	</g>
</g>
</svg>
