<svg viewBox="0 0 301 67" fill="none" xmlns="http://www.w3.org/2000/svg">
<rect width="301" height="67" rx="6" fill="#F0F2F5"/>
<rect x="100" y="14" width="101" height="39" fill="#0C3966"/>
<path fill-rule="evenodd" clip-rule="evenodd" d="M158.502 34C158.502 34.34 158.472 34.66 158.432 34.98L160.542 36.63C160.732 36.78 160.782 37.05 160.662 37.27L158.662 40.73C158.542 40.95 158.282 41.04 158.052 40.95L155.562 39.95C155.042 40.34 154.482 40.68 153.872 40.93L153.492 43.58C153.462 43.82 153.252 44 153.002 44H149.002C148.752 44 148.542 43.82 148.512 43.58L148.132 40.93C147.522 40.68 146.962 40.35 146.442 39.95L143.952 40.95C143.732 41.03 143.462 40.95 143.342 40.73L141.342 37.27C141.222 37.05 141.272 36.78 141.462 36.63L143.572 34.98C143.532 34.66 143.502 34.33 143.502 34C143.502 33.67 143.532 33.34 143.572 33.02L141.462 31.37C141.272 31.22 141.212 30.95 141.342 30.73L143.342 27.27C143.462 27.05 143.722 26.96 143.952 27.05L146.442 28.05C146.962 27.66 147.522 27.32 148.132 27.07L148.512 24.42C148.542 24.18 148.752 24 149.002 24H153.002C153.252 24 153.462 24.18 153.492 24.42L153.872 27.07C154.482 27.32 155.042 27.65 155.562 28.05L158.052 27.05C158.272 26.97 158.542 27.05 158.662 27.27L160.662 30.73C160.782 30.95 160.732 31.22 160.542 31.37L158.432 33.02C158.472 33.34 158.502 33.66 158.502 34ZM147.502 34C147.502 35.93 149.072 37.5 151.002 37.5C152.932 37.5 154.502 35.93 154.502 34C154.502 32.07 152.932 30.5 151.002 30.5C149.072 30.5 147.502 32.07 147.502 34Z" fill="white"/>
</svg>