<?xml version="1.0" encoding="UTF-8"?>
<svg width="100px" height="100px" viewBox="0 0 100 100" version="1.1" xmlns="http://www.w3.org/2000/svg" xmlns:xlink="http://www.w3.org/1999/xlink">
    <!-- Generator: Sketch 54 (76480) - https://sketchapp.com -->
    <title>webview-whatsapp</title>
    <desc>Created with Sketch.</desc>
    <defs>
        <circle id="path-1" cx="42" cy="42" r="42"></circle>
        <path d="M58.0857342,35.4896515 L44.5139256,48.213606 C43.4879071,49.1787041 41.9028612,49.265544 40.7747538,48.4184639 L4.15241328,20.9295628 C3.46941705,20.4111443 3.05003072,19.624451 3.00418808,18.775699 C2.95834543,17.9269469 3.29061775,17.1007707 3.91390644,16.513736 L17.485715,3.78978151 C18.5072495,2.82350851 20.0896864,2.7334152 21.217193,3.57733624 L57.8472273,31.0662373 C58.5305607,31.586121 58.9499888,32.3740563 58.9958154,33.2239685 C59.041642,34.0738808 58.709309,34.9012367 58.0857342,35.4896515 L58.0857342,35.4896515 Z" id="path-3"></path>
    </defs>
    <g id="webview-whatsapp" stroke="none" stroke-width="1" fill="none" fill-rule="evenodd">
        <g id="Group" transform="translate(50.000000, 50.000000) rotate(-345.000000) translate(-50.000000, -50.000000) translate(8.000000, 8.000000)">
            <mask id="mask-2" fill="white">
                <use xlink:href="#path-1"></use>
            </mask>
            <use id="Oval" fill="#DEF4E7" xlink:href="#path-1"></use>
            <path d="M89.3295978,53.0337729 C89.3295978,53.0337729 87.2374884,51.7863592 84.5386674,49.949889 C81.4911615,47.8708662 75.0474648,40.4764751 74.6429903,39.5963555 C72.1533802,34.2532669 61.1279641,31.3287748 57.599273,31.2248237 C54.0705819,31.1208725 44.725827,21.3217451 43.017271,19.5129952 C41.3087151,17.7042454 35.6042303,10.8850506 34.7604129,16.6439438 C34.2443592,20.1089818 38.5262097,26.1797283 38.5262097,26.1797283 C38.5262097,26.1797283 42.0549007,33.8028119 46.4413566,34.8423233 C50.8278125,35.8818348 43.7076671,37.3925913 38.5471308,32.8464615 C38.5471308,32.8464615 29.6138239,36.089737 16.391693,34.814603 C3.16956209,33.5394691 25.4086842,57.9194765 25.4086842,57.9194765 C25.4086842,57.9194765 34.8162025,64.7871818 51.8180776,61.3498641 C57.3970358,60.2202617 61.5463859,60.795458 64.5381023,61.980501 C69.6498227,63.990223 78.4157608,61.4676754 78.4157608,61.4676754 L89.3295978,53.0337729 Z" id="Shape" fill="#EBB9A0" fill-rule="nonzero" mask="url(#mask-2)"></path>
            <path d="M43.7146408,62.2854243 C44.3631947,62.2854243 45.0396434,62.2299837 45.7300394,62.1814732 C46.9155681,61.5646964 48.1359652,61.0033603 49.3703097,60.4558843 C53.6172916,57.4967418 63.136389,48.8826573 64.1615226,47.2402293 C65.1866562,45.5978013 65.7096835,43.8860725 64.5520497,42.3268054 C62.6691513,39.7765375 53.0384747,33.2830562 51.3020239,32.3197757 C42.1943747,27.2053796 38.5610782,23.0958445 35.1230452,15.2856489 C34.9227001,15.7247555 34.7932604,16.192501 34.7394918,16.6716641 C34.2234382,20.1367021 38.5052886,26.2074486 38.5052886,26.2074486 C38.5052886,26.2074486 42.0339796,33.8305323 46.4204355,34.8700437 C50.8068914,35.9095551 43.686746,37.4203116 38.5262097,32.8741818 C38.5262097,32.8741818 29.5929028,36.1174573 16.3707719,34.8423233 C8.03720311,34.0384345 12.6119488,47.9609572 26.9847399,52.7219194 C29.7254031,53.6297594 33.9584376,57.1294478 36.8594959,58.7995961 C39.0143685,60.0054293 41.3575309,61.2112626 43.7146408,62.2854243 Z" id="Shape" fill="#CC8B8B" fill-rule="nonzero" mask="url(#mask-2)"></path>
            <path d="M124.442166,-70.2037688 C124.442166,-70.2037688 116.771098,-61.19467 116.771098,-28.6233127 C116.828437,-8.5972264 118.931326,11.3713518 123.047426,30.9753409 C123.047426,30.9753409 102.126333,38.5984245 67.2578444,33.7473713 C67.2578444,33.7473713 88.8763074,44.1424854 64.4683653,62.160683 C64.4683653,62.160683 128.626385,75.3278274 157.218545,52.4585766 L149.547478,-35.5533887 C149.547478,-35.5533887 149.547478,-68.124746 124.442166,-70.2037688 Z" id="Shape" fill="#00B849" fill-rule="nonzero" mask="url(#mask-2)"></path>
        </g>
        <g id="phone" transform="translate(40.608852, 38.683802) rotate(-345.000000) translate(-40.608852, -38.683802) translate(7.608852, 10.183802)">
            <path d="M64.9592044,40.4863919 L48.1644356,56.1332446 C47.0127188,57.2054284 45.2564423,57.2927646 44.0040527,56.3401325 L1.38119758,23.8740626 C0.673520714,23.3352732 0.219018056,22.528738 0.124654664,21.6442712 L0.0250506528,18.1961401 C-0.112862594,16.9624754 0.316200841,16.76325 1.37353573,16.1042739 L18.5130876,5.49935512 C19.5659515,4.83354829 20.9080548,4.83354829 21.9609187,5.49935512 L63.4498205,32.6476406 C64.2696381,33.176354 65.6334469,34.1801433 65.7483746,35.1532825 L65.97823,37.7278871 C66.097918,38.7573019 65.7193602,39.7820588 64.9592044,40.4863919 Z" id="Shape" fill="#1C3248" fill-rule="nonzero"></path>
            <path d="M64.9205535,38.2901772 L48.8350696,53.0906693 C47.6156034,54.2171646 45.7518283,54.307254 44.4271393,53.3037355 L1.34789037,20.879624 C0.546122444,20.2736297 0.0546755846,19.3492439 0.00428715304,18.3523768 C-0.0461012785,17.3555096 0.349678055,16.3872424 1.08633779,15.7051589 L17.1564362,0.904666756 C18.3785162,-0.215697586 20.2376806,-0.305564051 21.5643665,0.691600546 L64.6436154,33.1157121 C65.4474563,33.7193634 65.9418392,34.6424878 65.9951949,35.6394158 C66.0485506,36.6363439 65.6554665,37.6059436 64.9205535,38.2901772 Z" id="Shape" fill="#2B4C66" fill-rule="nonzero"></path>
            <mask id="mask-4" fill="white">
                <use xlink:href="#path-3"></use>
            </mask>
            <use id="Shape" fill="#FFFFFF" fill-rule="nonzero" xlink:href="#path-3"></use>
            <circle id="Oval" fill="#00B849" mask="url(#mask-4)" cx="54.0190978" cy="36.5493083" r="4"></circle>
        </g>
        <path d="M21.7295132,37.9800111 C21.7295132,37.9800111 17.5990135,39.8871757 16.3605795,35.9630816 C16.3605795,35.9630816 15.9453819,34.6527635 17.9354667,31.936083 C19.375602,29.7889328 20.6416174,27.5390033 21.7223547,25.2061245 C22.0900462,24.3815429 22.8741533,23.7959411 23.7983424,23.6556957 C24.8363363,23.5253499 25.9459159,24.0055712 25.7884272,26.8045754 C25.6708774,29.5799093 25.268048,32.3373722 24.585786,35.0369405 L21.7295132,37.9800111 Z" id="Shape" fill="#EBB9A0" fill-rule="nonzero" transform="translate(21.064018, 31.039957) rotate(-345.000000) translate(-21.064018, -31.039957) "></path>
        <path d="M24.9304399,24.3015732 C25.3420889,26.9283731 24.8388952,29.6119679 23.4987242,31.9370918 C23.2032134,32.4114066 22.860382,32.8571275 22.4750475,33.2679909 C20.9942018,34.85789 19.8773377,36.7274587 19.1964186,38.7562343 L19.1964186,38.7973961 C20.0348643,38.828037 20.8696026,38.6755524 21.6374939,38.3514763 L24.5009252,35.3809646 C25.1831872,32.6813962 25.5860166,29.9239333 25.7035664,27.1485994 C25.8037865,25.5501485 25.4458576,24.6857502 24.9304399,24.3015732 Z" id="Shape" fill="#CC8B8B" fill-rule="nonzero" transform="translate(22.458422, 31.551411) rotate(-345.000000) translate(-22.458422, -31.551411) "></path>
        <path d="M21.6894712,45.0737236 C21.6894712,45.0737236 17.1294567,45.8077762 17.294104,40.6008052 C17.294104,40.6008052 17.3513727,38.8582879 20.1575354,36.3336959 C22.9636981,33.809104 26.7505861,28.6981773 26.7505861,28.6981773 C26.7505861,28.6981773 31.3392348,27.0928661 29.3348329,33.1230735 C28.3030796,36.3718382 26.9884396,39.5318231 25.4047733,42.5697125 L21.6894712,45.0737236 Z" id="Shape" fill="#EBB9A0" fill-rule="nonzero" transform="translate(23.565667, 36.806813) rotate(-345.000000) translate(-23.565667, -36.806813) "></path>
        <path d="M29.0579259,28.9746206 C29.2154146,32.1029193 27.697796,34.7990189 26.2803975,36.8090881 C24.9560605,38.6819511 22.3002279,39.9716883 20.4891076,41.384911 C19.5728095,42.0709415 18.241314,44.1290327 18.427437,44.3279816 C19.3125667,45.0489349 20.4767906,45.3734157 21.6273215,45.2198211 L25.3354651,42.7158101 C26.920836,39.678653 28.2355341,36.5185281 29.2655247,33.2691711 C30.1317127,30.6485348 29.7594666,29.4685625 29.0579259,28.9746206 Z" id="Shape" fill="#CC8B8B" fill-rule="nonzero" transform="translate(24.089453, 37.115898) rotate(-345.000000) translate(-24.089453, -37.115898) "></path>
        <path d="M32.761939,59.9497625 C32.761939,59.9497625 23.8638261,54.4615191 16.7839921,49.0555993 C16.7839921,49.0555993 13.2404958,46.3114776 20.6496244,41.3446173 C28.058753,36.377757 32.5686574,37.3450599 29.7123846,41.6053088 C28.0982794,44.0647794 26.2013215,46.3429298 24.0571077,48.3970101 C24.0571077,48.3970101 25.868228,48.4518925 30.4998282,45.9753227 C35.1314285,43.4987528 37.8874811,41.8591401 38.739352,43.6085177 C39.5912228,45.3578953 38.6319733,47.0798316 35.8258106,49.6044236 C33.0196478,52.1290156 32.117667,52.1084347 31.1584175,53.8166505 C30.199168,55.5248662 32.761939,59.9497625 32.761939,59.9497625 Z" id="Shape" fill="#EBB9A0" fill-rule="nonzero" transform="translate(27.488226, 48.974667) rotate(-345.000000) translate(-27.488226, -48.974667) "></path>
        <circle id="Oval" fill="#00B849" cx="35" cy="22" r="4"></circle>
        <circle id="Oval" fill="#00B849" cx="43" cy="32" r="4"></circle>
        <circle id="Oval" fill="#00B849" cx="51" cy="42" r="4"></circle>
    </g>
</svg>