<?xml version="1.0" encoding="UTF-8"?>
<svg viewBox="0 0 42 42" version="1.1" xmlns="http://www.w3.org/2000/svg" xmlns:xlink="http://www.w3.org/1999/xlink">
    <!-- Generator: Sketch 56.3 (81716) - https://sketch.com -->
    <title>Artboard</title>
    <desc>Created with Sketch.</desc>
    <g id="Artboard" stroke="none" stroke-width="1" fill="none" fill-rule="evenodd">
        <g id="Group" transform="translate(2.000000, 1.000000)" fill-rule="nonzero">
            <path d="M33.3678474,6.69189189 C29.7547684,3.0027027 24.760218,1 19.6594005,1 C8.82016349,1 0.10626703,9.74864865 0.21253406,20.3945946 C0.21253406,23.7675676 1.16893733,27.0351351 2.76294278,29.9864865 L0,40 L10.3079019,37.3648649 C13.1771117,38.9459459 16.3651226,39.6837838 19.5531335,39.6837838 L19.5531335,39.6837838 C30.2861035,39.6837838 39,30.9351351 39,20.2891892 C39,15.1243243 36.9809264,10.2756757 33.3678474,6.69189189 Z" id="Path" stroke="#000000" fill="#000000" opacity="0.15"></path>
            <g id="icon_whatsapp_icon">
                <path d="M10.2243243,33.5189189 L10.8567568,33.8351351 C13.4918919,35.4162162 16.4432432,36.1540541 19.3945946,36.1540541 C28.6702703,36.1540541 36.2594595,28.5648649 36.2594595,19.2891892 C36.2594595,14.8621622 34.4675676,10.5405405 31.3054054,7.37837838 C28.1432432,4.21621622 23.927027,2.42432432 19.3945946,2.42432432 C10.1189189,2.42432432 2.52972973,10.0135135 2.63513514,19.3945946 C2.63513514,22.5567568 3.58378378,25.6135135 5.16486486,28.2486486 L5.58648649,28.8810811 L3.9,35.1 L10.2243243,33.5189189 Z" id="Path" fill="#35BD7B"></path>
                <path d="M33.0972973,5.69189189 C29.5135135,2.0027027 24.5594595,0 19.5,0 C8.74864865,0 0.105405405,8.74864865 0.210810811,19.3945946 C0.210810811,22.7675676 1.15945946,26.0351351 2.74054054,28.9864865 L0,39 L10.2243243,36.3648649 C13.0702703,37.9459459 16.2324324,38.6837838 19.3945946,38.6837838 L19.3945946,38.6837838 C30.0405405,38.6837838 38.6837838,29.9351351 38.6837838,19.2891892 C38.6837838,14.1243243 36.6810811,9.27567568 33.0972973,5.69189189 Z M19.5,35.4162162 L19.5,35.4162162 C16.6540541,35.4162162 13.8081081,34.6783784 11.3837838,33.2027027 L10.7513514,32.8864865 L4.63783784,34.4675676 L6.21891892,28.4594595 L5.7972973,27.827027 C1.15945946,20.3432432 3.37297297,10.4351351 10.9621622,5.7972973 C18.5513514,1.15945946 28.3540541,3.37297297 32.9918919,10.9621622 C37.6297297,18.5513514 35.4162162,28.3540541 27.827027,32.9918919 C25.4027027,34.572973 22.4513514,35.4162162 19.5,35.4162162 Z M28.7756757,23.7162162 L27.6162162,23.1891892 C27.6162162,23.1891892 25.9297297,22.4513514 24.8756757,21.9243243 C24.7702703,21.9243243 24.6648649,21.8189189 24.5594595,21.8189189 C24.2432432,21.8189189 24.0324324,21.9243243 23.8216216,22.0297297 L23.8216216,22.0297297 C23.8216216,22.0297297 23.7162162,22.1351351 22.2405405,23.8216216 C22.1351351,24.0324324 21.9243243,24.1378378 21.7135135,24.1378378 L21.6081081,24.1378378 C21.5027027,24.1378378 21.2918919,24.0324324 21.1864865,23.927027 L20.6594595,23.7162162 L20.6594595,23.7162162 C19.5,23.1891892 18.4459459,22.5567568 17.6027027,21.7135135 C17.3918919,21.5027027 17.0756757,21.2918919 16.8648649,21.0810811 C16.127027,20.3432432 15.3891892,19.5 14.8621622,18.5513514 L14.7567568,18.3405405 C14.6513514,18.2351351 14.6513514,18.1297297 14.5459459,17.9189189 C14.5459459,17.7081081 14.5459459,17.4972973 14.6513514,17.3918919 C14.6513514,17.3918919 15.072973,16.8648649 15.3891892,16.5486486 C15.6,16.3378378 15.7054054,16.0216216 15.9162162,15.8108108 C16.127027,15.4945946 16.2324324,15.072973 16.127027,14.7567568 C16.0216216,14.2297297 14.7567568,11.3837838 14.4405405,10.7513514 C14.2297297,10.4351351 14.0189189,10.3297297 13.7027027,10.2243243 L13.3864865,10.2243243 C13.1756757,10.2243243 12.8594595,10.2243243 12.5432432,10.2243243 C12.3324324,10.2243243 12.1216216,10.3297297 11.9108108,10.3297297 L11.8054054,10.4351351 C11.5945946,10.5405405 11.3837838,10.7513514 11.172973,10.8567568 C10.9621622,11.0675676 10.8567568,11.2783784 10.6459459,11.4891892 C9.90810811,12.4378378 9.48648649,13.5972973 9.48648649,14.7567568 L9.48648649,14.7567568 C9.48648649,15.6 9.6972973,16.4432432 10.0135135,17.1810811 L10.1189189,17.4972973 C11.0675676,19.5 12.3324324,21.2918919 14.0189189,22.872973 L14.4405405,23.2945946 C14.7567568,23.6108108 15.072973,23.8216216 15.2837838,24.1378378 C17.4972973,26.0351351 20.027027,27.4054054 22.872973,28.1432432 C23.1891892,28.2486486 23.6108108,28.2486486 23.927027,28.3540541 L23.927027,28.3540541 C24.2432432,28.3540541 24.6648649,28.3540541 24.9810811,28.3540541 C25.5081081,28.3540541 26.1405405,28.1432432 26.5621622,27.9324324 C26.8783784,27.7216216 27.0891892,27.7216216 27.3,27.5108108 L27.5108108,27.3 C27.7216216,27.0891892 27.9324324,26.9837838 28.1432432,26.772973 C28.3540541,26.5621622 28.5648649,26.3513514 28.6702703,26.1405405 C28.8810811,25.7189189 28.9864865,25.1918919 29.0918919,24.6648649 C29.0918919,24.4540541 29.0918919,24.1378378 29.0918919,23.927027 C29.0918919,23.927027 28.9864865,23.8216216 28.7756757,23.7162162 Z" id="Shape" fill="#FFFFFF"></path>
            </g>
        </g>
    </g>
</svg>