<svg width="25" height="26" viewBox="0 0 25 26" fill="none" xmlns="http://www.w3.org/2000/svg">
  <path d="M20.4837 4.52719C18.0362 2.08219 14.5676 0.672186 10.7537 1.06219C5.24311 1.61719 0.708475 6.08719 0.0928462 11.5922C-0.732997 18.8672 4.89775 25.0022 12 25.0022C16.7899 25.0022 20.9041 22.1972 22.8261 18.1622C23.3065 17.1572 22.5858 16.0022 21.4747 16.0022C20.9191 16.0022 20.3936 16.3022 20.1533 16.7972C18.4566 20.4422 14.3874 22.7522 9.9429 21.7622C6.6095 21.0272 3.92176 18.3122 3.21604 14.9822C1.95475 9.16219 6.38427 4.00219 12 4.00219C14.4925 4.00219 16.7148 5.03719 18.3365 6.67219L16.0692 8.93719C15.1232 9.88219 15.7839 11.5022 17.1202 11.5022H22.5107C23.3366 11.5022 24.0123 10.8272 24.0123 10.0022V4.61719C24.0123 3.28219 22.3906 2.60719 21.4446 3.55219L20.4837 4.52719Z" fill="white"/>
</svg>
