<svg class="ribbon" width="130" height="130" fill="none" xmlns="http://www.w3.org/2000/svg"><ellipse cx="65" cy="80.5" rx="64" ry="48.5" fill="url(#paint0_radial)"/><path d="M126.27 68.39a2.44 2.44 0 000-3.45l-5.16-5.26c-.12-.26-.28-.5-.47-.73a8.64 8.64 0 01-1.33-7.37c-32.45 0-32.45 0-107.32-3.1 0 2.3-.69 4.54-1.96 6.44l-6.27 5.5a2.45 2.45 0 00-.18 3.45l6.06 6.83a8.74 8.74 0 01.4 6.5l-3.61 7.4a2.46 2.46 0 001.17 3.27l6.76 3.2c3.46 2.6 4.16 7.35 4.27 8.35l-.35 6.45a2.45 2.45 0 002.35 2.54l5.91.27c.16.03.31.05.47.05 5.6.11 7.98 6.27 7.98 6.27l2.27 5.86a2.55 2.55 0 003.24 1.43l6.34-2.32.2-.05c4.04-1.26 7.8 1.14 9.48 2.5l4.4 4.8a2.46 2.46 0 003.45.1l6.86-6.43a8 8 0 015.06-.93l8.7 3.99a2.44 2.44 0 003.22-1.26l2.59-5.8c.16-.25.29-.51.38-.79a8.1 8.1 0 015.98-4.8l8.77.27a2.46 2.46 0 002.48-2.41l.16-7.23c.07-.25.13-.5.17-.77.63-3.82 3.86-5.93 5.87-6.9l5.8-2.24a2.43 2.43 0 001.36-3.18s-3.15-7.18-3.34-8.77a7.28 7.28 0 011.31-5.46 81.22 81.22 0 016.53-6.22z" fill="#C9CFD4"/><path d="M126.27 67.39a2.44 2.44 0 000-3.45l-5.16-5.26c-.12-.26-.28-.5-.47-.73a8.64 8.64 0 01-1.33-7.37l3.09-7.23a2.42 2.42 0 00-.53-2.66c-.23-.22-.5-.4-.8-.52l-5.75-2.41c-3.08-1.78-4.24-5.36-4.63-7.2V23.9a2.46 2.46 0 00-1.53-2.25c-.3-.12-.62-.18-.94-.17h-5.42a10.22 10.22 0 01-5.93-3.91c-.77-1.24-1.9-6.23-1.9-6.23a2.46 2.46 0 00-3.03-1.59l-5.56 1.75c-5.06 1.02-9.73-2.47-11.32-3.82l-3.18-3.83a2.45 2.45 0 00-3.45-.27L62.75 8.4c-4.57 2.87-10.35 0-10.35 0l-4.77-2.48a2.44 2.44 0 00-3.28 1.09l-2.85 5.54c-2.08 4.12-7.2 5.06-9.1 5.21l-6.3-.5a2.42 2.42 0 00-2.6 2.28l-.62 8.9c-.9 2.13-2.47 3.9-4.47 5.06l-7.73 2.57a2.44 2.44 0 00-1.51 3.1l2.82 8.3c0 2.3-.69 4.54-1.96 6.44l-6.27 5.5a2.45 2.45 0 00-.18 3.45l6.06 6.83a8.74 8.74 0 01.4 6.5l-3.61 7.4a2.46 2.46 0 001.17 3.27l6.76 3.2c3.46 2.6 4.16 7.35 4.27 8.35l-.35 6.45a2.45 2.45 0 002.35 2.54l5.91.27c.16.03.31.05.47.05 5.6.11 7.98 6.27 7.98 6.27l2.27 5.86a2.55 2.55 0 003.24 1.43l6.34-2.32.2-.05c4.04-1.26 7.8 1.14 9.48 2.5l4.4 4.8a2.46 2.46 0 003.45.1l6.86-6.43a8 8 0 015.06-.93l8.7 3.99a2.44 2.44 0 003.22-1.26l2.59-5.8c.16-.25.29-.51.38-.79a8.1 8.1 0 015.98-4.8l8.77.27a2.46 2.46 0 002.48-2.41l.16-7.23c.07-.25.13-.5.17-.77.63-3.82 3.86-5.93 5.87-6.9l5.8-2.24a2.43 2.43 0 001.36-3.18s-3.15-7.18-3.34-8.77a7.28 7.28 0 011.31-5.46 81.22 81.22 0 016.53-6.22z" fill="#DADDE0"/><path d="M13.62 65.04a51.31 51.31 0 0131.61-47.37 51.16 51.16 0 0155.81 11.12 51.29 51.29 0 01-36.22 87.52 51.14 51.14 0 01-47.3-31.65 51.3 51.3 0 01-3.9-19.62z" fill="#fff"/><defs><radialGradient id="paint0_radial" cx="0" cy="0" r="1" gradientUnits="userSpaceOnUse" gradientTransform="matrix(0 48.5 -64 0 65 80.5)"><stop/><stop offset="1" stop-color="#B9B9B9" stop-opacity="0"/></radialGradient></defs></svg>
