<svg width="76" height="126" viewBox="0 0 76 126" fill="none" xmlns="http://www.w3.org/2000/svg">
<ellipse cx="38" cy="10" rx="38" ry="6" fill="#0C3966"/>
<rect y="5" width="76" height="5" fill="#0C3966"/>
<path d="M76 5C76 8.31371 58.9868 11 38 11C17.0132 11 0 8.31371 0 5C0 1.68629 17.0132 0 38 0C58.9868 0 76 1.68629 76 5Z" fill="#0C3966"/>
<path d="M76 119C76 122.314 58.9868 126 38 126C17.0132 126 0 122.314 0 119C0 115.686 17.0132 113 38 113C58.9868 113 76 115.686 76 119Z" fill="#0C3966"/>
<rect y="114" width="76" height="5" fill="#0C3966"/>
<ellipse cx="38" cy="114" rx="38" ry="6" fill="#0C3966"/>
<path opacity="0.8" d="M76 114C76 114 72.286 88.5271 62 77C55.0767 69.2413 41 62 41 62H35C35 62 20.9233 69.2413 14 77C3.71398 88.5271 0 114 0 114C0 114 0 121 38 121C76 121 76 114 76 114Z" fill="#E0F0FF"/>
<path opacity="0.8" d="M76 10C76 10 72.286 35.4729 62 47C55.0767 54.7587 41 62 41 62H35C35 62 20.9233 54.7587 14 47C3.71398 35.4729 0 10 0 10C0 10 0 5 38 5C76 5 76 10 76 10Z" fill="#E0F0FF"/>
<path d="M71 105.5C71 105.5 47 85.9218 37.9999 85.9219C28.9999 85.922 3.49993 109 3.49993 109L2.99993 113C2.99993 113 0.499992 116.5 37.9999 116.5C75.4999 116.5 72.9999 113 72.9999 113L71 105.5Z" fill="#FFD771"/>
<path d="M71 105.5C71 105.5 66 111 37 111.5C8 112 3.49993 109 3.49993 109L2.99993 113C2.99993 113 0.499992 119 37.9999 119C75.4999 119 72.9999 113 72.9999 113L71 105.5Z" fill="#FAC84A"/>
<path opacity="0.2" d="M71 105.5C71 105.5 47 85.9218 37.9999 85.9219C28.9999 85.922 3.49993 109 3.49993 109L2.99993 113C2.99993 113 0.499992 119 37.9999 119C75.4999 119 72.9999 113 72.9999 113L71 105.5Z" fill="#E6F3FF"/>
<path d="M64 37C57 51 38 59 38 59C38 59 19 51 12 37H64Z" fill="#FFD771"/>
<path opacity="0.2" d="M64 37C57 51 38 59 38 59C38 59 19 51 12 37H64Z" fill="#E6F3FF"/>
<rect x="37" y="58" width="2" height="6" fill="#FADD8D"/>
<rect x="37" y="66" width="2" height="6" fill="#FADD8D"/>
<rect x="37" y="74" width="2" height="6" fill="#FADD8D"/>
<rect x="37" y="82" width="2" height="6" fill="#FADD8D"/>
<rect x="37" y="90" width="2" height="6" fill="#FADD8D"/>
<path d="M64 37.0006C69.8238 28.0005 41.5001 39.5005 20.5002 31.5006C15.7057 29.6741 8.02769 30.5005 12 37.0007C17.4999 46.0005 60.1176 43.0005 64 37.0006Z" fill="#FADD8D"/>
</svg>
