<svg width="81" height="152" viewBox="0 0 81 152" fill="none" xmlns="http://www.w3.org/2000/svg">
    <ellipse cx="40.5" cy="12.0635" rx="40" ry="7.2381" fill="#0C3966"/>
    <rect x="0.5" y="6.03174" width="80" height="6.03175" fill="#0C3966"/>
    <path d="M80.5 6.03175C80.5 10.0292 62.5914 13.2698 40.5 13.2698C18.4086 13.2698 0.5 10.0292 0.5 6.03175C0.5 2.03426 18.4086 0 40.5 0C62.5914 0 80.5 2.03426 80.5 6.03175Z" fill="#0C3966"/>
    <path d="M80.5 143.555C80.5 147.553 62.5914 152 40.5 152C18.4086 152 0.5 147.553 0.5 143.555C0.5 139.558 18.4086 136.317 40.5 136.317C62.5914 136.317 80.5 139.558 80.5 143.555Z" fill="#0C3966"/>
    <rect x="0.5" y="137.524" width="80" height="6.03175" fill="#0C3966"/>
    <ellipse cx="40.5" cy="137.524" rx="40" ry="7.23809" fill="#0C3966"/>
    <path opacity="0.8" d="M80.5 137.524C80.5 137.524 76.5905 106.795 65.7632 92.8889C58.4755 83.5292 43.6579 74.7937 43.6579 74.7937H37.3421C37.3421 74.7937 22.5245 83.5292 15.2368 92.8889C4.40945 106.795 0.5 137.524 0.5 137.524C0.5 137.524 0.5 145.968 40.5 145.968C80.5 145.968 80.5 137.524 80.5 137.524Z" fill="#E0F0FF"/>
    <path opacity="0.8" d="M80.5 12.0635C80.5 12.0635 76.5905 42.7927 65.7632 56.6984C58.4755 66.0581 43.6579 74.7936 43.6579 74.7936H37.3421C37.3421 74.7936 22.5245 66.0581 15.2368 56.6984C4.40945 42.7927 0.5 12.0635 0.5 12.0635C0.5 12.0635 0.5 6.03174 40.5 6.03174C80.5 6.03174 80.5 12.0635 80.5 12.0635Z" fill="#E0F0FF"/>
    <path d="M75.237 127.27C75.237 127.27 49.9739 103.652 40.5001 103.652C31.0264 103.652 4.18432 131.492 4.18432 131.492L3.658 136.318C3.658 136.318 1.02649 139.937 40.5001 139.937C79.9737 139.937 77.3422 136.318 77.3422 136.318L75.237 127.27Z" fill="#FFD771"/>
    <mask id="mask0_28693_49504" style="mask-type:alpha" maskUnits="userSpaceOnUse" x="3" y="103" width="75" height="41">
      <path d="M75.237 127.27C75.237 127.27 49.9739 103.652 40.5001 103.652C31.0264 103.652 4.18432 131.492 4.18432 131.492L3.658 136.318C3.658 136.318 1.02649 143.556 40.5001 143.556C79.9737 143.556 77.3422 136.318 77.3422 136.318L75.237 127.27Z" fill="#FFD771"/>
    </mask>
    <g mask="url(#mask0_28693_49504)">
      <path d="M75.7635 126.064C74.7109 135.715 0.778659 136.921 4.18457 130.286C5.51894 127.686 -1.60487 136.318 1.55283 140.54C20.8137 166.295 77.3423 140.54 77.3423 140.54C77.3423 140.54 76.3521 120.668 75.7635 126.064Z" fill="#FAC84A"/>
    </g>
    <path opacity="0.2" d="M75.237 127.27C75.237 127.27 49.9739 103.652 40.5001 103.652C31.0264 103.652 4.18432 131.492 4.18432 131.492L3.658 136.318C3.658 136.318 1.02649 143.556 40.5001 143.556C79.9737 143.556 77.3422 136.318 77.3422 136.318L75.237 127.27Z" fill="#E6F3FF"/>
    <path d="M67.8682 44.6348C60.4998 61.5238 40.4998 71.1746 40.4998 71.1746C40.4998 71.1746 20.4998 61.5238 13.1313 44.6348H67.8682Z" fill="#FFD771"/>
    <path opacity="0.2" d="M67.8682 44.6348C60.4998 61.5238 40.4998 71.1746 40.4998 71.1746C40.4998 71.1746 20.4998 61.5238 13.1313 44.6348H67.8682Z" fill="#E6F3FF"/>
    <rect x="39.4473" y="69.9683" width="2.10526" height="7.2381" fill="#FADD8D"/>
    <rect x="39.4473" y="79.6191" width="2.10526" height="7.23809" fill="#FADD8D"/>
    <rect x="39.4473" y="89.2698" width="2.10526" height="7.23809" fill="#FADD8D"/>
    <rect x="39.4473" y="98.9207" width="2.10526" height="7.2381" fill="#FADD8D"/>
    <rect x="39.4473" y="108.572" width="2.10526" height="7.2381" fill="#FADD8D"/>
    <path d="M67.8686 44.6351C73.9989 33.7779 44.1845 47.6509 22.0794 38.0002C17.0325 35.7968 8.95038 36.7937 13.1318 44.6352C18.9211 55.4921 63.7819 51.8731 67.8686 44.6351Z" fill="#FADD8D"/>
  </svg>