<svg xmlns="http://www.w3.org/2000/svg" width="512" height="512" viewBox="0 0 512 512">
    <g fill="none" fill-rule="evenodd">
        <path d="M0 0h512v512H0z"/>
        <path fill="#F35" fill-rule="nonzero" d="M256 452c79.529 0 144-64.471 144-144 0-72-48-156-144-252-96 96-144 180-144 252 0 79.529 64.471 144 144 144z"/>
        <path fill="#FFF" fill-rule="nonzero" d="M169.944 373.245c-6.21-7.763-4.951-19.09 2.811-25.3 7.763-6.21 19.09-4.952 25.3 2.81 25.602 32.002 72.299 37.19 104.3 11.59a74.205 74.205 0 0 0 11.59-11.59c6.21-7.762 17.537-9.02 25.3-2.81 7.762 6.21 9.02 17.537 2.81 25.3a110.205 110.205 0 0 1-17.21 17.21c-47.528 38.022-116.879 30.317-154.9-17.21zM88 192h336v128H88z"/>
        <path fill="#2F363D" d="M192.88 289.152c-11.424 0-21.6-3.84-29.28-10.944l8.16-9.696c6.24 5.376 13.344 8.64 21.696 8.64 7.104 0 10.752-3.264 10.752-7.392 0-4.704-3.84-6.144-13.92-8.448-13.92-3.168-23.808-7.104-23.808-19.872 0-12.192 9.984-20.544 24.384-20.544 10.752 0 19.104 3.36 25.824 9.12l-7.392 10.176c-5.856-4.704-12.48-7.296-18.816-7.296-6.048 0-9.696 3.168-9.696 7.104 0 4.8 3.936 6.336 14.112 8.64 14.208 3.168 23.616 7.392 23.616 19.584 0 12.576-9.504 20.928-25.632 20.928zM245.776 288v-53.184h-20.544v-12.768h55.296v12.768h-20.544V288h-14.208zm87.648 0l-4.224-10.368h-29.376L295.6 288h-15.84l26.88-65.952h15.84L349.36 288h-15.936zm-28.704-22.368h19.584l-9.792-24.096-9.792 24.096z"/>
    </g>
</svg>
