<?xml version="1.0" encoding="UTF-8"?>
<svg width="410px" height="410px" viewBox="0 0 410 410" version="1.1" xmlns="http://www.w3.org/2000/svg" xmlns:xlink="http://www.w3.org/1999/xlink">
    <!-- Generator: Sketch 55.2 (78181) - https://sketchapp.com -->
    <title>09 Assets/storeIcon_demo_512px</title>
    <desc>Created with Sketch.</desc>
    <g id="09-Assets" stroke="none" stroke-width="1" fill="none" fill-rule="evenodd">
        <g id="09-Assets/storeIcon_demo_512px" transform="translate(-51.000000, -51.000000)">
            <polygon id="bounds" points="0 0 512 0 512 512 0 512"></polygon>
            <g id="Group-2" transform="translate(88.000000, 56.000000)" fill-rule="nonzero">
                <path d="M168,396 C247.529004,396 312,331.529004 312,252 C312,180 264,96 168,0 C72,96 24,180 24,252 C24,331.529004 88.470996,396 168,396 Z" id="Oval-Copy" fill="#0C3966"></path>
                <path d="M81.9443614,317.244511 C75.7341896,309.481796 76.9927743,298.154533 84.7554891,291.944361 C92.518204,285.73419 103.845467,286.992774 110.055639,294.755489 C135.657068,326.757276 182.353702,331.945791 214.355489,306.344361 C218.634498,302.921155 222.521155,299.034498 225.944361,294.755489 C232.154533,286.992774 243.481796,285.73419 251.244511,291.944361 C259.007226,298.154533 260.26581,309.481796 254.055639,317.244511 C248.971688,323.599449 243.199449,329.371688 236.844511,334.455639 C189.317294,372.477412 119.966135,364.771728 81.9443614,317.244511 Z" id="Path-2" fill="#FFFFFF"></path>
                <g id="Group" transform="translate(0.000000, 136.000000)" fill="#E0F0FF">
                    <rect id="Rectangle" x="0" y="0" width="336" height="128"></rect>
                </g>
            </g>
            <text id="DEV" font-family="Metropolis-Bold, Metropolis" font-size="100" font-weight="bold" fill="#0C3966">
                <tspan x="151.85" y="292">DEV</tspan>
            </text>
        </g>
    </g>
</svg>