<svg width="512" height="512" viewBox="0 0 512 512" fill="none" xmlns="http://www.w3.org/2000/svg">
<path d="M256 486C348.31 486 423.143 411.109 423.143 318.727C423.143 193.273 256 26 256 26C256 26 88.8571 193.273 88.8571 318.727C88.8571 411.109 163.69 486 256 486Z" fill="#0075EB"/>
<path d="M156.114 394.516C148.906 385.499 150.367 372.341 159.377 365.127C168.387 357.913 181.535 359.375 188.743 368.393C218.459 405.567 272.661 411.594 309.805 381.855C314.772 377.878 319.283 373.363 323.257 368.393C330.465 359.375 343.613 357.913 352.623 365.127C361.633 372.341 363.094 385.499 355.886 394.516C349.985 401.898 343.285 408.603 335.909 414.509C280.743 458.676 200.246 449.725 156.114 394.516Z" fill="white"/>
<path d="M61 183.98H451V332.667H61V183.98Z" fill="#E0F0FF"/>
<path d="M139.096 301.303H167.65C194.462 301.303 213.498 284.692 213.498 261.343C213.498 237.995 194.462 221.5 167.65 221.5H139.096V301.303ZM156.159 285.737V237.066H169.855C185.06 237.066 195.855 247.172 195.855 261.343C195.855 275.631 185.06 285.737 169.855 285.737H156.159Z" fill="#0075EB"/>
<path d="M288.102 236.949V221.5H226.7V301.303H288.102V285.854H243.879V268.313H283.923V252.864H243.879V236.949H288.102Z" fill="#0075EB"/>
<path d="M359.674 221.5L336.808 277.722L313.942 221.5H294.674L327.174 301.303H346.326L378.826 221.5H359.674Z" fill="#0075EB"/>
</svg>
