<?xml version="1.0" encoding="UTF-8"?>
<svg width="512px" height="512px" viewBox="0 0 512 512" version="1.1" xmlns="http://www.w3.org/2000/svg" xmlns:xlink="http://www.w3.org/1999/xlink">
    <!-- Generator: Sketch 52.2 (67145) - http://www.bohemiancoding.com/sketch -->
    <title>09 Assets/appIcon_512px</title>
    <desc>Created with Sketch.</desc>
    <g id="09-Assets/appIcon_512px" stroke="none" stroke-width="1" fill="none" fill-rule="evenodd">
        <g id="icon">
            <polygon id="bounds" points="0 0 512 0 512 512 0 512"></polygon>
            <path d="M217.088653,53 L294.911347,53 C351.968547,53 372.658866,58.9408391 393.518125,70.096493 C414.377384,81.252147 430.747853,97.6226157 441.903507,118.481875 C453.059161,139.341134 459,160.031453 459,217.088653 L459,294.911347 C459,351.968547 453.059161,372.658866 441.903507,393.518125 C430.747853,414.377384 414.377384,430.747853 393.518125,441.903507 C372.658866,453.059161 351.968547,459 294.911347,459 L217.088653,459 C160.031453,459 139.341134,453.059161 118.481875,441.903507 C97.6226157,430.747853 81.252147,414.377384 70.096493,393.518125 C58.9408391,372.658866 53,351.968547 53,294.911347 L53,217.088653 C53,160.031453 58.9408391,139.341134 70.096493,118.481875 C81.252147,97.6226157 97.6226157,81.252147 118.481875,70.096493 C139.341134,58.9408391 160.031453,53 217.088653,53 Z" id="bg" fill="#FFFFFF"></path>
            <path d="M255.9976,387.9934 C309.01561,387.9934 351.9952,345.01381 351.9952,291.9958 C351.9952,240.65086 319.996,184.65226 255.9976,124 C191.9992,184.65226 160,240.65086 160,291.9958 C160,345.01381 202.97959,387.9934 255.9976,387.9934 Z" id="Oval" fill="#FF3355" fill-rule="nonzero"></path>
            <path d="M207.9988,327.9949 L207.9988,327.9949 C229.206004,354.503905 267.887635,358.801864 294.39664,337.59466 C297.9412,334.759012 301.160752,331.53946 303.9964,327.9949" id="Path-2" stroke="#FFFFFF" stroke-width="23.9994" stroke-linecap="round" stroke-linejoin="round" fill-rule="nonzero"></path>
        </g>
    </g>
</svg>