<?xml version="1.0" encoding="UTF-8"?>
<svg width="410px" height="410px" viewBox="0 0 410 410" version="1.1" xmlns="http://www.w3.org/2000/svg" xmlns:xlink="http://www.w3.org/1999/xlink">
    <!-- Generator: Sketch 55.2 (78181) - https://sketchapp.com -->
    <title>09 Assets/storeIcon_demo_512px</title>
    <desc>Created with Sketch.</desc>
    <g id="09-Assets" stroke="none" stroke-width="1" fill="none" fill-rule="evenodd">
        <g id="09-Assets/storeIcon_experiments_512px" transform="translate(-51.000000, -51.000000)">
            <polygon id="bounds" points="0 0 512 0 512 512 0 512"></polygon>
            <path d="M256,452 C335.529004,452 400,387.529004 400,308 C400,236 352,152 256,56 C160,152 112,236 112,308 C112,387.529004 176.470996,452 256,452 Z" id="Oval-Copy" fill="#00B849" fill-rule="nonzero"></path>
            <path d="M169.944361,373.244511 C163.73419,365.481796 164.992774,354.154533 172.755489,347.944361 C180.518204,341.73419 191.845467,342.992774 198.055639,350.755489 C223.657068,382.757276 270.353702,387.945791 302.355489,362.344361 C306.634498,358.921155 310.521155,355.034498 313.944361,350.755489 C320.154533,342.992774 331.481796,341.73419 339.244511,347.944361 C347.007226,354.154533 348.26581,365.481796 342.055639,373.244511 C336.971688,379.599449 331.199449,385.371688 324.844511,390.455639 C277.317294,428.477412 207.966135,420.771728 169.944361,373.244511 Z" id="Path-2" fill="#FFFFFF" fill-rule="nonzero"></path>
            <g id="Group" transform="translate(88.000000, 192.000000)" fill="#E0FFED" fill-rule="nonzero">
                <rect id="Rectangle" x="0" y="0" width="336" height="128"></rect>
            </g>
            <text id="QA" font-family="Metropolis-Bold, Metropolis" font-size="100" font-weight="bold" fill="#0C3966">
                <tspan x="181.35" y="292">QA</tspan>
            </text>
        </g>
    </g>
</svg>