<?xml version="1.0" encoding="UTF-8"?>
<svg width="420px" height="420px" viewBox="0 0 420 420" version="1.1" xmlns="http://www.w3.org/2000/svg" xmlns:xlink="http://www.w3.org/1999/xlink">
    <!-- Generator: Sketch 55.2 (78181) - https://sketchapp.com -->
    <title>09 Assets/simple_logo_sandbox</title>
    <desc>Created with Sketch.</desc>
    <g id="09-Assets/simple_logo_sandbox" stroke="none" stroke-width="1" fill="none" fill-rule="evenodd">
        <polygon id="bounds" points="0 0 420 0 420 420 0 420"></polygon>
        <path d="M210,408 C289.529004,408 354,343.529004 354,264 C354,192 306,108 210,12 C114,108 66,192 66,264 C66,343.529004 130.470996,408 210,408 Z" id="Oval-Copy" fill="#8D17DE" fill-rule="nonzero"></path>
        <path d="M123.944361,329.244511 C117.73419,321.481796 118.992774,310.154533 126.755489,303.944361 C134.518204,297.73419 145.845467,298.992774 152.055639,306.755489 C177.657068,338.757276 224.353702,343.945791 256.355489,318.344361 C260.634498,314.921155 264.521155,311.034498 267.944361,306.755489 C274.154533,298.992774 285.481796,297.73419 293.244511,303.944361 C301.007226,310.154533 302.26581,321.481796 296.055639,329.244511 C290.971688,335.599449 285.199449,341.371688 278.844511,346.455639 C231.317294,384.477412 161.966135,376.771728 123.944361,329.244511 Z" id="Path-2" fill="#FFFFFF" fill-rule="nonzero"></path>
        <g id="Group" transform="translate(42.000000, 148.000000)" fill="#EDE2FF" fill-rule="nonzero">
            <rect id="Rectangle" x="0" y="0" width="336" height="128"></rect>
        </g>
        <text id="SBX" font-family="Metropolis-Bold, Metropolis" font-size="100" font-weight="bold" fill="#6D24A0">
            <tspan x="111.35" y="248">SBX</tspan>
        </text>
    </g>
</svg>