<?xml version="1.0" encoding="UTF-8"?>
<svg width="420px" height="420px" viewBox="0 0 420 420" version="1.1" xmlns="http://www.w3.org/2000/svg" xmlns:xlink="http://www.w3.org/1999/xlink">
    <!-- Generator: Sketch 55.2 (78181) - https://sketchapp.com -->
    <title>09 Assets/simple_logo_staging</title>
    <desc>Created with Sketch.</desc>
    <g id="09-Assets/simple_logo_staging" stroke="none" stroke-width="1" fill="none" fill-rule="evenodd">
        <g id="Group-2" transform="translate(42.000000, 12.000000)">
            <path d="M168,396 C247.529004,396 312,331.529004 312,252 C312,180 264,96 168,0 C72,96 24,180 24,252 C24,331.529004 88.470996,396 168,396 Z" id="Oval-Copy" fill="#FFC800" fill-rule="nonzero"></path>
            <path d="M81.9443614,317.244511 C75.7341896,309.481796 76.9927743,298.154533 84.7554891,291.944361 C92.518204,285.73419 103.845467,286.992774 110.055639,294.755489 C135.657068,326.757276 182.353702,331.945791 214.355489,306.344361 C218.634498,302.921155 222.521155,299.034498 225.944361,294.755489 C232.154533,286.992774 243.481796,285.73419 251.244511,291.944361 C259.007226,298.154533 260.26581,309.481796 254.055639,317.244511 C248.971688,323.599449 243.199449,329.371688 236.844511,334.455639 C189.317294,372.477412 119.966135,364.771728 81.9443614,317.244511 Z" id="Path-2" fill="#FFFFFF" fill-rule="nonzero"></path>
            <rect id="Rectangle" fill="#FFF8E0" fill-rule="nonzero" x="0" y="136" width="336" height="128"></rect>
            <path d="M104.88,233.152 C93.456,233.152 83.28,229.312 75.6,222.208 L83.76,212.512 C90,217.888 97.104,221.152 105.456,221.152 C112.56,221.152 116.208,217.888 116.208,213.76 C116.208,209.056 112.368,207.616 102.288,205.312 C88.368,202.144 78.48,198.208 78.48,185.44 C78.48,173.248 88.464,164.896 102.864,164.896 C113.616,164.896 121.968,168.256 128.688,174.016 L121.296,184.192 C115.44,179.488 108.816,176.896 102.48,176.896 C96.432,176.896 92.784,180.064 92.784,184 C92.784,188.8 96.72,190.336 106.896,192.64 C121.104,195.808 130.512,200.032 130.512,212.224 C130.512,224.8 121.008,233.152 104.88,233.152 Z M157.776,232 L157.776,178.816 L137.232,178.816 L137.232,166.048 L192.528,166.048 L192.528,178.816 L171.984,178.816 L171.984,232 L157.776,232 Z M245.424,232 L241.2,221.632 L211.824,221.632 L207.6,232 L191.76,232 L218.64,166.048 L234.48,166.048 L261.36,232 L245.424,232 Z M216.72,209.632 L236.304,209.632 L226.512,185.536 L216.72,209.632 Z" id="Sta" fill="#977600"></path>
        </g>
    </g>
</svg>