<svg width="512" height="512" viewBox="0 0 512 512" fill="none" xmlns="http://www.w3.org/2000/svg">
<path d="M256 486C348.31 486 423.143 411.109 423.143 318.727C423.143 193.273 256 26 256 26C256 26 88.8571 193.273 88.8571 318.727C88.8571 411.109 163.69 486 256 486Z" fill="#00B849"/>
<path d="M156.114 394.516C148.906 385.499 150.367 372.341 159.377 365.127C168.387 357.913 181.535 359.375 188.743 368.393C218.459 405.567 272.661 411.594 309.805 381.855C314.772 377.878 319.283 373.363 323.257 368.393C330.465 359.375 343.613 357.913 352.623 365.127C361.633 372.341 363.094 385.499 355.886 394.516C349.985 401.898 343.285 408.603 335.909 414.509C280.743 458.676 200.246 449.725 156.114 394.516Z" fill="white"/>
<path d="M61 183.98H451V332.667H61V183.98Z" fill="#E0FFED"/>
<path d="M247.266 256.697C247.266 234.278 227.998 215.46 204.9 215.46C182.033 215.46 162.533 234.278 162.533 256.697C162.533 279.116 182.033 298.051 204.9 298.051C214.417 298.051 223.239 294.914 230.319 289.571L238.444 296.657L247.15 286.551L239.721 280.046C244.48 273.308 247.266 265.293 247.266 256.697ZM204.9 282.485C191.551 282.485 180.176 270.636 180.176 256.697C180.176 242.874 191.551 231.025 204.9 231.025C218.364 231.025 229.739 242.874 229.739 256.697C229.739 260.995 228.694 265.177 226.721 268.778L217.087 260.414L208.382 270.52L217.667 278.652C213.953 281.091 209.542 282.485 204.9 282.485Z" fill="#00B849"/>
<path d="M318.362 296.657H337.63L305.13 216.854H285.978L253.478 296.657H272.63L277.737 284.111H313.255L318.362 296.657ZM283.657 269.591L295.496 240.434L307.335 269.591H283.657Z" fill="#00B849"/>
</svg>
