<?xml version="1.0" encoding="UTF-8"?>
<svg width="410px" height="410px" viewBox="0 0 410 410" version="1.1" xmlns="http://www.w3.org/2000/svg" xmlns:xlink="http://www.w3.org/1999/xlink">
    <!-- Generator: Sketch 55.2 (78181) - https://sketchapp.com -->
    <title>09 Assets/storeIcon_demo_512px</title>
    <desc>Created with Sketch.</desc>
    <g id="09-Assets" stroke="none" stroke-width="1" fill="none" fill-rule="evenodd">
        <g id="09-Assets/storeIcon_512px" transform="translate(-51.000000, -51.000000)">
            <polygon id="bounds" points="0 0 512 0 512 512 0 512"></polygon>
            <g id="Group" transform="translate(112.000000, 56.000000)" fill-rule="nonzero">
                <path d="M144,396 C223.529004,396 288,331.529004 288,252 C288,180 240,96 144,0 C48,96 0,180 0,252 C0,331.529004 64.470996,396 144,396 Z" id="Oval-Copy" fill="#FF3355"></path>
                <path d="M57.9443614,317.244511 C51.7341896,309.481796 52.9927743,298.154533 60.7554891,291.944361 C68.518204,285.73419 79.8454667,286.992774 86.0556386,294.755489 C111.657068,326.757276 158.353702,331.945791 190.355489,306.344361 C194.634498,302.921155 198.521155,299.034498 201.944361,294.755489 C208.154533,286.992774 219.481796,285.73419 227.244511,291.944361 C235.007226,298.154533 236.26581,309.481796 230.055639,317.244511 C224.971688,323.599449 219.199449,329.371688 212.844511,334.455639 C165.317294,372.477412 95.9661349,364.771728 57.9443614,317.244511 Z" id="Path-2" fill="#FFFFFF"></path>
            </g>
            <g id="Group" transform="translate(57.000000, 192.000000)" fill="#F4E8EA" fill-rule="nonzero">
                <rect id="Rectangle" x="0" y="0" width="398" height="128"></rect>
            </g>
            <text id="Staging" font-family="Metropolis-Bold, Metropolis" font-size="100" font-weight="bold" letter-spacing="-2.5" fill="#B81631">
                <tspan x="78.45" y="292">Staging</tspan>
            </text>
        </g>
    </g>
</svg>