<svg xmlns="http://www.w3.org/2000/svg" width="512" height="512" viewBox="0 0 512 512">
    <g fill="none" fill-rule="evenodd">
        <path d="M0 0h512v512H0z"/>
        <path fill="#F35" fill-rule="nonzero" d="M256 452c79.529 0 144-64.471 144-144 0-72-48-156-144-252-96 96-144 180-144 252 0 79.529 64.471 144 144 144z"/>
        <path fill="#FFF" fill-rule="nonzero" d="M169.944 373.245c-6.21-7.763-4.951-19.09 2.811-25.3 7.763-6.21 19.09-4.952 25.3 2.81 25.602 32.002 72.299 37.19 104.3 11.59a74.205 74.205 0 0 0 11.59-11.59c6.21-7.762 17.537-9.02 25.3-2.81 7.762 6.21 9.02 17.537 2.81 25.3a110.205 110.205 0 0 1-17.21 17.21c-47.528 38.022-116.879 30.317-154.9-17.21z"/>
        <path fill="#FFF8E0" fill-rule="nonzero" d="M88 192h336v128H88z"/>
        <path fill="#2F363D" d="M189.924 289.152c-11.424 0-21.6-3.84-29.28-10.944l8.16-9.696c6.24 5.376 13.344 8.64 21.696 8.64 7.104 0 10.752-3.264 10.752-7.392 0-4.704-3.84-6.144-13.92-8.448-13.92-3.168-23.808-7.104-23.808-19.872 0-12.192 9.984-20.544 24.384-20.544 10.752 0 19.104 3.36 25.824 9.12l-7.392 10.176c-5.856-4.704-12.48-7.296-18.816-7.296-6.048 0-9.696 3.168-9.696 7.104 0 4.8 3.936 6.336 14.112 8.64 14.208 3.168 23.616 7.392 23.616 19.584 0 12.576-9.504 20.928-25.632 20.928zM226.308 288v-65.952h33.408c11.808 0 19.968 6.912 19.968 16.512 0 6.72-3.36 11.616-9.216 14.688 7.68 3.456 12.096 9.6 12.096 16.896 0 10.56-9.024 17.856-21.6 17.856h-34.656zm14.112-39.36h15.744c5.28 0 9.024-3.072 9.024-7.296 0-4.128-3.744-7.2-9.024-7.2H240.42v14.496zm0 27.264h17.952c5.664 0 9.696-3.36 9.696-8.064 0-4.704-4.032-8.064-9.696-8.064H240.42v16.128zm112.512-53.856L328.74 254.88 352.932 288h-16.8l-15.744-21.6-15.936 21.6h-16.416l24.096-32.832-24.096-33.12h16.704l15.84 21.6 15.84-21.6h16.512z"/>
    </g>
</svg>
