<?xml version="1.0" encoding="UTF-8"?>
<svg viewBox="0 0 500 300" version="1.1" xmlns="http://www.w3.org/2000/svg" xmlns:xlink="http://www.w3.org/1999/xlink">
    <defs>
        <linearGradient x1="50%" y1="51.8137058%" x2="50%" y2="3.061617e-15%" id="linearGradient-1">
            <stop stop-color="#F2F9FF" offset="0%"></stop>
            <stop stop-color="#E0F0FF" offset="100%"></stop>
        </linearGradient>
    </defs>
    <g id="Artboard" stroke="none" stroke-width="1" fill="none" fill-rule="evenodd">
        <rect id="Rectangle" fill="url(#linearGradient-1)" x="0" y="-1" width="500" height="301"></rect>
        <path d="M94.6252464,139.877194 L94.6252464,139.877194 C112.270941,137.516397 128.489406,149.907255 130.850203,167.552949 C131.039619,168.968731 131.134722,170.395537 131.134882,171.823934 L131.145211,263.901957 L58.1331059,263.893777 L58.1238737,181.591993 C58.1215084,160.505895 73.7253673,142.673365 94.6252464,139.877194 Z" id="Rectangle-2-Copy" fill="#C5CED6" transform="translate(94.634542, 201.745364) rotate(-5.000000) translate(-94.634542, -201.745364) "></path>
        <path d="M103.540394,140.360665 L103.540394,140.360665 C121.186088,137.999868 137.404554,150.390725 139.765351,168.036419 C139.954767,169.452201 140.04987,170.879008 140.05003,172.307405 L140.060359,264.385427 L67.0482537,264.377248 L67.0390216,182.075463 C67.0366562,160.989366 82.6405151,143.156835 103.540394,140.360665 Z" id="Rectangle-2" fill="#E1E6EB" transform="translate(103.549690, 202.228834) rotate(-5.000000) translate(-103.549690, -202.228834) "></path>
        <path d="M168.686995,71.8540705 C168.686995,71.8540705 181.878604,73.6541627 184.621414,85.2686707 C186.277548,92.2812038 166.821884,90.8359124 171.99404,106.332358 C176.534043,119.924359 170.98573,127.474311 170.98573,127.474311 C170.98573,127.474311 160.907863,144.588231 134.937372,137.215679 C103.904438,128.413489 97.8859293,117.346836 97.8859293,117.346836 C97.8859293,117.346836 86.6482455,104.730537 97.6665045,90.428935 C107.028629,78.2717906 114.661477,90.6324237 132.283377,66.5581471 C142.517976,52.5643868 168.686995,71.8540705 168.686995,71.8540705 Z" id="hair-back" fill="#0A0908" fill-rule="nonzero" transform="translate(138.773776, 100.263216) rotate(-8.000000) translate(-138.773776, -100.263216) "></path>
        <path d="M148.035492,121.250472 C148.035492,121.250472 138.631572,132.207555 134.974492,145.251702 L110.942253,124.381067 C110.942253,124.381067 123.971906,121.135684 141.734865,98.6997517 L148.035492,121.250472 Z" id="Shape" fill="#EBB9A0" fill-rule="nonzero" transform="translate(129.488872, 121.975727) rotate(-8.000000) translate(-129.488872, -121.975727) "></path>
        <path d="M127.530346,137.527935 L135.842366,144.091749 C139.499446,131.047603 148.903366,120.09052 148.903366,120.09052 L146.395654,111.110929 C142.24748,120.815774 135.440087,130.233648 127.530346,137.527935 Z" id="Shape" fill="#CC8B8B" fill-rule="nonzero" transform="translate(138.216856, 127.601339) rotate(-8.000000) translate(-138.216856, -127.601339) "></path>
        <path d="M179.812482,83.0930993 C179.812482,83.0930993 174.269394,109.776205 162.169684,119.340173 C150.069974,128.904142 146.041962,126.384012 141.000416,120.347181 C135.95887,114.310351 132.970514,107.777842 139.020369,97.2068657 C139.020369,97.2068657 134.929664,93.6432049 139.992107,88.1281398 C145.535195,82.0860911 149.066889,88.1281398 149.066889,88.1281398 C149.066889,88.1281398 153.100126,83.5939945 164.186302,85.6080107 C175.272478,87.6220269 176.286012,85.6080107 179.812482,83.0930993 Z" id="Shape" fill="#EBB9A0" fill-rule="nonzero" transform="translate(157.731924, 104.400358) rotate(-8.000000) translate(-157.731924, -104.400358) "></path>
        <path d="M164.153377,85.1807415 C157.586307,83.9911153 153.495602,85.0920413 151.24911,86.1929672 L151.24911,86.3912383 L151.296129,86.3912383 C153.7307,85.0972589 156.614568,85.2120474 159.388724,85.7912075 C160.710498,86.0677434 174.398425,86.6208152 171.864591,95.1099457 C169.60765,102.675551 165.072871,109.239365 159.754432,114.832695 C152.299214,122.659183 144.347678,122.288729 141.745927,120.791261 C146.447886,126.160232 150.674426,127.965542 162.152432,118.892034 C174.252142,109.328065 179.79523,82.6449594 179.79523,82.6449594 C176.253087,85.1807415 175.244778,87.1947577 164.153377,85.1807415 Z" id="Shape" fill="#CC8B8B" fill-rule="nonzero" transform="translate(160.770578, 103.951297) rotate(-8.000000) translate(-160.770578, -103.951297) "></path>
        <path d="M121.54036,125.872879 C121.54036,125.872879 138.749533,122.63793 145.515131,147.646168 C149.407308,162.026035 154.192858,171.355209 154.192858,171.355209 C154.192858,171.355209 163.14748,185.964653 152.48448,196.812165 C151.089565,198.22615 149.569265,199.723618 147.923579,201.095862 C141.100513,206.772675 132.77282,229.271219 131.2055,250.141853 C131.2055,250.141853 110.307901,257.446575 73.2146626,251.185385 C73.2146626,251.185385 70.1845107,204.539517 88.8878618,167.181082 C105.083501,134.831599 121.27914,125.789396 121.54036,125.872879 Z" id="Shape" fill="#66B3FF" fill-rule="nonzero" transform="translate(115.372091, 189.728692) rotate(-8.000000) translate(-115.372091, -189.728692) "></path>
        <path d="M154.458588,167.406095 C154.458588,167.406095 149.673038,158.076921 145.78086,143.697054 C144.783137,139.77974 143.222234,136.02751 141.146818,132.557353 C143.314944,136.961057 143.335841,141.792609 144.495658,146.545896 C145.806982,151.930519 148.581138,159.292636 149.82977,164.708565 C151.39709,171.528045 153.810763,176.406556 152.368828,183.366912 C151.261256,188.735883 147.144429,193.353511 144.490433,198.106798 C143.826935,199.296424 138.743594,207.775119 138.221154,208.860392 C135.765686,214.015439 134.38122,218.554802 132.996754,223.469836 C130.828628,231.15023 131.189112,238.945412 129.506855,246.751029 C130.807731,246.406663 131.476454,246.171869 131.476454,246.171869 C133.043774,225.301234 141.371467,202.802691 148.194533,197.125878 C149.840219,195.753634 151.360519,194.256166 152.755434,192.84218 C163.413209,182.025974 154.458588,167.406095 154.458588,167.406095 Z" id="Shape" fill="#3983CC" fill-rule="nonzero" transform="translate(143.742435, 189.654191) rotate(-8.000000) translate(-143.742435, -189.654191) "></path>
        <path d="M139.514103,101.252445 C139.514103,101.252445 140.992608,108.557167 136.290648,117.307181 C131.207307,126.745925 124.211836,136.169016 108.60133,127.679886 C92.165368,118.742037 139.514103,101.252445 139.514103,101.252445 Z" id="hair-front" fill="#0A0908" fill-rule="nonzero" transform="translate(122.434700, 116.122113) rotate(-8.000000) translate(-122.434700, -116.122113) "></path>
        <path d="M313.609409,37.28784 C313.609409,37.28784 304.20549,34.7311873 301.619412,47.2013913 C299.608018,56.9062362 306.493777,70.6130253 315.448398,75.9611253 C325.975563,82.2223156 347.233646,77.7142586 354.699313,75.8359015 C356.450561,75.396036 357.915164,74.2010084 358.695979,72.5748649 C362.671747,64.2944408 372.368233,38.0130945 342.129407,26.5759869 C327.569005,21.0609218 313.609409,37.28784 313.609409,37.28784 Z" id="Shape" fill="#0A0908" fill-rule="nonzero"></path>
        <ellipse id="Oval" fill="#0A0908" fill-rule="nonzero" transform="translate(342.415254, 26.791894) rotate(-40.330000) translate(-342.415254, -26.791894) " cx="342.415254" cy="26.791894" rx="16.9805687" ry="15.6614502"></ellipse>
        <path d="M357.071191,66.506728 C357.071191,66.506728 360.367787,83.4641184 364.024867,86.0729477 C367.681946,88.6817769 372.906346,89.7253087 372.906346,89.7253087 C372.906346,89.7253087 396.416145,100.160626 399.028345,104.856519 C401.640545,109.552411 407.387384,125.727153 401.640545,151.815446 C395.893705,177.903739 398.505905,189.382587 404.252745,198.252607 C409.999584,207.122627 413.656664,217.557944 414.701544,220.688539 C415.746424,223.819134 389.101985,243.646237 361.935107,238.428578 C361.935107,238.428578 337.902868,234.254451 337.380428,226.949729 C337.380428,226.949729 338.425308,188.339056 329.021388,180.512568 C319.617469,172.68608 312.94591,168.814577 319.617469,148.163085 C324.841869,131.988343 319.617469,125.205387 319.617469,125.205387 C319.617469,125.205387 314.915509,115.291836 318.050149,110.074177 C321.184789,104.856519 324.319429,98.0735624 333.723348,89.2035428 C343.127268,80.3335232 340.196379,63.1152499 357.071191,66.506728 Z" id="Shape" fill="#E1E6EB" fill-rule="nonzero"></path>
        <path d="M404.252745,198.252607 C398.505905,189.382587 395.893705,177.903739 401.640545,151.815446 C406.765681,128.560341 402.753342,113.204772 399.973961,106.797488 C399.728414,106.88097 399.493316,106.974888 399.263443,107.068806 C399.430624,107.006194 399.404502,107.068806 398.876837,107.277512 C398.479783,107.454912 398.087953,107.627095 397.696123,107.799278 C395.954868,108.588692 394.259482,109.475357 392.618006,110.455066 C391.823898,110.935091 391.087257,111.498598 390.287924,111.98384 C390.026704,112.213417 389.765484,112.432559 389.49904,112.667353 C388.830317,113.272602 384.076113,130.683928 384.128357,137.190349 C384.128357,138.113874 384.19105,139.016529 384.248518,139.934837 C384.248518,140.117455 384.248518,140.26355 384.248518,140.393991 C384.248518,140.524433 384.279864,140.524433 384.300762,140.61835 C384.645572,142.183648 384.912017,143.748946 385.277725,145.314243 C386.113629,148.914428 386.902513,152.462435 387.367485,156.135667 C388.19294,162.584693 388.605667,169.179813 389.14378,175.691451 C389.62965,181.571753 389.702791,187.608584 387.524217,193.181043 C383.611141,203.19373 379.243543,210.759335 370.863606,218.674523 C364.688365,224.502647 350.446652,234.327498 337.902868,228.614162 L337.850624,228.577639 C341.377094,234.885788 361.882863,238.449449 361.882863,238.449449 C389.049741,243.667107 415.69418,223.840005 414.6493,220.70941 C413.60442,217.578814 409.999584,207.122627 404.252745,198.252607 Z" id="Shape" fill="#C5CED6" fill-rule="nonzero"></path>
        <path d="M331.894808,116.465809 C331.894808,116.465809 346.653737,142.814985 366.114626,108.117555 C366.114626,108.117555 363.721851,128.382941 359.228868,139.611342 C354.735884,150.839744 348.680805,172.253014 350.237676,183.992746 C350.237676,183.992746 342.280915,157.226158 336.920681,148.763115 C331.560447,140.300073 331.894808,116.465809 331.894808,116.465809 Z" id="Shape" fill="#FFFFFF" fill-rule="nonzero"></path>
        <path d="M329.940883,114.170039 C329.627419,128.701218 333.597963,142.971514 338.900728,156.349591 C341.852514,163.769101 346.099951,170.677281 348.435258,178.321151 C350.686974,185.69892 351.569898,193.41062 351.914708,201.085796 C352.374455,210.884558 352.066216,220.698974 351.966952,230.502955 C351.966952,230.9352 352.317808,231.285603 352.750612,231.285603 C353.183415,231.285603 353.534272,230.9352 353.534272,230.502955 C353.701453,214.526484 354.777679,197.996942 351.120599,182.302225 C349.417445,174.997503 346.016361,168.736312 342.954862,161.953356 C339.559003,154.424275 336.403465,146.498652 334.507008,138.437369 C332.652346,130.563922 331.330573,122.262628 331.508203,114.170039 C331.508203,113.163031 329.940883,113.163031 329.940883,114.170039 L329.940883,114.170039 Z" id="Shape" fill="#D4D3DD" fill-rule="nonzero"></path>
        <path d="M357.071191,66.506728 C357.071191,66.506728 359.887142,79.0291086 362.044819,83.5789069 C364.202496,88.1287051 370.466551,89.0313601 370.466551,89.0313601 C370.466551,89.0313601 367.593132,126.421101 346.000687,126.160218 C346.000687,126.160218 328.587763,128.685565 329.716234,99.63886 C329.750179,97.596718 329.575123,95.5564554 329.193794,93.5498524 C334.651554,89.8004742 338.624959,84.2633413 340.426253,77.8968767 C343.299673,67.378077 357.071191,66.506728 357.071191,66.506728 Z" id="Shape" fill="#EBB9A0" fill-rule="nonzero"></path>
        <path d="M362.044819,83.5789069 C359.887142,79.0291086 357.071191,66.506728 357.071191,66.506728 C357.071191,66.506728 349.344303,66.9971879 344.255738,71.6669923 C345.527503,72.838112 346.494082,74.3013337 347.071689,75.9298194 C350.086168,84.4398205 354.438093,92.6576328 355.780764,101.668529 C356.418141,105.947009 356.721156,110.601161 355.15906,114.712676 C352.975261,120.4521 347.473968,124.725362 341.157669,124.714927 C340.268698,124.717512 339.381588,124.633634 338.508898,124.464479 C340.77379,125.780498 343.389857,126.36717 346.000687,126.144566 C367.593132,126.405448 370.466551,89.0157071 370.466551,89.0157071 C370.466551,89.0157071 364.197272,88.1600111 362.044819,83.5789069 Z" id="Shape" fill="#CC8B8B" fill-rule="nonzero"></path>
        <path d="M313.609409,47.7231571 C313.609409,47.7231571 310.626277,61.6438702 313.139213,69.7781999 C314.38262,73.8010147 319.194292,87.8052103 331.032782,94.4525073 C334.277134,96.2734702 339.950833,96.398694 343.357141,95.1203676 C353.048403,91.4680066 356.940581,80.5109236 355.895701,68.6042267 C355.765091,67.0389292 358.884057,66.6162988 356.893561,60.6472974 C354.589601,53.7547704 349.427894,57.6680144 349.427894,57.6680144 C349.427894,57.6680144 342.14508,51.1146352 333.498699,53.6921585 C323.744745,56.5931767 319.56,53.165175 313.609409,47.7231571 Z" id="Shape" fill="#EBB9A0" fill-rule="nonzero"></path>
        <path d="M356.888337,60.6212091 C354.584376,53.7286822 349.422669,57.6419261 349.422669,57.6419261 C349.422669,57.6419261 342.139856,51.0885469 333.493475,53.6660702 C323.744745,56.5931767 319.56,53.165175 313.609409,47.7231571 C313.609409,47.7231571 313.578063,47.832728 313.520594,48.015346 C314.603673,48.6985476 315.483957,49.6587644 316.070101,50.796358 C316.331321,51.3181239 316.749273,51.881631 316.973923,52.4294852 L317.020942,52.554709 C317.621748,53.196481 318.212105,53.8226 318.854706,54.4226307 L319.074131,54.6156841 C319.439839,54.8609141 319.800323,55.13745 320.17648,55.3409387 C320.89852,55.8014649 321.654782,56.2061448 322.438645,56.5514354 L322.438645,56.5514354 C322.605825,56.5827414 322.856597,56.6401356 323.232753,56.7340535 L323.666379,56.8384067 C323.969394,56.8697126 324.491834,56.9427598 324.591097,56.9479775 L325.792709,57.0001541 C328.493724,57.0888543 331.226085,57.1253779 333.885304,57.6836674 C346.888835,60.4177204 354.965757,81.8101206 344.950583,91.4367007 C341.512928,94.7394786 336.157918,95.2560267 331.471632,94.671649 C334.768228,96.2682525 340.086667,96.3308644 343.341468,95.1099323 C353.03273,91.4575713 356.924907,80.5004883 355.880027,68.5937914 C355.759866,67.0284939 358.878833,66.5902105 356.888337,60.6212091 Z" id="Shape" fill="#CC8B8B" fill-rule="nonzero"></path>
        <path d="M325.014274,148.648327 C315.652149,110.33506 327.882469,93.7898647 328.410134,93.0802631 C329.128499,93.3194769 329.803991,93.6717592 330.411079,94.1237948 C330.411079,94.1237948 319.08458,111.154232 328.054874,147.865678 L325.014274,148.648327 Z" id="Shape" fill="#0C3966" fill-rule="nonzero"></path>
        <path d="M373.622089,131.581366 C380.758619,88.7130829 363.105372,84.6693975 363.105372,84.6693975" id="Shape" stroke="#ADB2B8" stroke-width="1.5"></path>
        <path d="M376.887339,116.121443 L373.752699,116.001437 C374.855047,91.1810354 365.017503,86.709502 364.871219,86.6886314 C363.006109,85.5877054 362.609054,85.1233338 362.013473,83.5580362 C362.640401,83.68326 378.041931,86.5216663 376.887339,116.121443 Z" id="Shape" fill="#0C3966" fill-rule="nonzero"></path>
        <ellipse id="Oval" fill="#ADB2B8" fill-rule="nonzero" cx="327.057014" cy="154.017298" rx="8.35903958" ry="8.34825372"></ellipse>
        <ellipse id="Oval" stroke="#E5E2EF" stroke-width="0.688888889" cx="327.057014" cy="154.017298" rx="5.22439974" ry="5.21765858"></ellipse>
        <path d="M357.94889,172.279103 C358.47133,171.757337 348.576317,129.953456 373.622089,131.581366 C397.654328,133.146663 382.503568,171.757337 382.503568,171.757337" id="Shape" stroke="#ADB2B8" stroke-width="2"></path>
        <path d="M357.337294,168.638925 L358.528439,168.639092 C359.350753,168.639207 360.017463,169.305078 360.017578,170.126356 L360.018039,173.413531 C360.018154,174.234809 359.35163,174.900494 358.529316,174.900378 L357.327722,174.90021 C356.462129,174.900089 355.760328,174.199173 355.760207,173.33467 L355.759763,170.162284 C355.759642,169.297781 356.461246,168.597061 357.32684,168.597182 L357.337294,168.638925 Z" id="Shape" fill="#0C3966" fill-rule="nonzero" transform="translate(357.888901, 171.748780) rotate(-6.260000) translate(-357.888901, -171.748780) "></path>
        <path d="M382.407254,168.614025 L382.659911,168.613016 C383.74423,168.612755 384.623457,169.491557 384.623718,170.575876 C384.623718,170.576192 384.623718,170.576508 384.623718,170.576824 L384.621258,172.911641 C384.620997,173.995589 383.742348,174.874238 382.658399,174.8745 L382.405742,174.876457 C381.321423,174.876718 380.442196,173.997916 380.441935,172.913597 C380.441935,172.913281 380.441935,172.912965 380.441935,172.912649 L380.444395,170.577832 C380.444657,169.493883 381.323305,168.615235 382.407254,168.614973 Z" id="Rectangle-path" fill="#0C3966" fill-rule="nonzero" transform="translate(382.532827, 171.744736) rotate(10.980000) translate(-382.532827, -171.744736) "></path>
        <path d="M124.660775,168.990187 C119.958815,142.380129 103.454936,150.149222 103.454936,150.149222 C102.862329,150.685718 102.300675,151.255358 101.77268,151.855397 C96.1328857,158.153891 93.0675062,166.338172 93.1837664,174.787006 C93.2516836,181.079502 93.3666204,187.382434 94.171178,193.627971 C95.4772779,203.734576 108.38677,239.976432 112.252825,249.1856 C112.467026,249.707365 112.676002,250.229131 112.884978,250.750897 C117.811587,250.27609 133.683313,247.662043 138.244214,233.715242 C138.244214,233.689154 129.362735,195.600246 124.660775,168.990187 Z" id="rightArm_shadow" fill="#3983CC" fill-rule="nonzero"></path>
        <polygon id="table" fill="#DAEAF9" fill-rule="nonzero" points="-2.84217094e-14 257.040106 501.439285 211.29569 502.866016 300 -2.84217094e-14 300"></polygon>
        <path d="M141.023595,231.080324 C141.023595,231.080324 132.142115,192.991417 127.440155,166.381358 C122.738196,139.771299 105.497677,148.641319 105.497677,148.641319 C105.497677,148.641319 89.8244774,156.989573 96.0937571,185.686695 C102.363037,214.383817 121.170876,251.950959 121.170876,251.950959 C121.170876,251.950959 141.546035,260.299212 194.312472,247.255066 C198.934191,246.168076 203.670441,245.642505 208.418351,245.689768 C216.777391,245.689768 200.581752,231.080324 200.581752,231.080324 L191.177832,231.080324 C179.161713,231.080324 160.353874,227.949729 141.023595,231.080324 Z" id="Shape" fill="#EBB9A0" fill-rule="nonzero"></path>
        <path d="M127.414111,185.334742 C124.441428,171.914925 130.094151,181.413432 127.440155,166.381358 C122.738196,139.771299 105.497677,148.641319 105.497677,148.641319 C105.497677,148.641319 89.8244774,156.989573 96.0937571,185.686695 C98.7686497,197.932539 95.3716072,182.882195 98.8888889,195.457 C100.795717,202.274194 129.697174,195.670924 127.414111,185.334742 Z" id="Shape" fill="#66B3FF" fill-rule="nonzero"></path>
        <path d="M110.533998,148.025635 C118.057134,149.502233 121.468667,157.64178 123.161372,164.2369 C124.890648,170.988551 126.09226,177.943689 127.461053,184.768387 C129.451549,194.681938 131.520412,204.595489 134.252773,214.378599 C134.761281,216.194344 135.25934,218.00835 135.746951,219.820617 C136.953787,217.702248 137.502349,215.516049 137.0635,213.533339 C134.090816,200.113521 130.099375,181.413432 127.44538,166.381358 C123.621119,144.733293 111.495287,146.554255 107.106792,148.004764 C108.240527,147.798506 109.402866,147.805584 110.533998,148.025635 L110.533998,148.025635 Z" id="Shape" fill="#3983CC" fill-rule="nonzero"></path>
        <path d="M208.418351,245.689768 L220.434471,245.689768 C224.091551,245.689768 228.79351,242.559173 228.79351,242.559173 L237.67499,235.776217 C237.67499,235.776217 239.76475,234.732685 239.24231,230.036793 C238.71987,225.3409 236.10767,215.427349 236.10767,215.427349 C236.10767,215.427349 233.145435,211.94717 232.539405,217.081346 C231.933375,222.215522 233.49547,228.471495 233.49547,228.471495 C233.49547,228.471495 234.01791,231.080324 224.091551,234.732685 C214.165191,238.385046 222.001791,226.906197 222.001791,226.906197 L227.22619,221.688539 C229.83839,219.07971 231.755745,216.992646 230.794455,215.166466 C229.833166,213.340285 224.091551,217.514412 224.091551,217.514412 C224.091551,217.514412 219.912031,220.645007 217.822271,220.645007 C215.732511,220.645007 211.030551,221.166773 207.373471,224.297368 C204.960152,226.40404 202.691145,228.670119 200.581752,231.080324 L208.418351,245.689768 Z" id="Shape" fill="#EBB9A0" fill-rule="nonzero"></path>
        <path d="M142.329695,229.603727 C133.803186,234.783659 124.792163,239.122591 115.424036,242.559173 L100.795717,206.557329 C100.795717,206.557329 121.693316,201.33967 134.231875,194.034948 L142.329695,229.603727 Z" id="Shape" fill="#244056" fill-rule="nonzero"></path>
        <path d="M119.169931,230.44377 C116.108432,221.375479 112.561065,213.168102 109.018922,204.251124 C103.935581,205.571192 100.795717,206.557329 100.795717,206.557329 L115.424036,242.559173 C117.660079,241.760871 119.843878,240.905175 121.933638,240.023391 C121.118632,236.798878 120.235708,233.595236 119.169931,230.44377 Z" id="Shape" fill="#1C3248" fill-rule="nonzero"></path>
        <path d="M175.504633,263.429807 L208.904221,255.864203 C209.571616,255.713162 210.268408,255.937128 210.722312,256.44858 L228.145685,276.020018 C228.753151,276.700977 228.97578,277.641977 228.737732,278.522459 C228.499684,279.402941 227.833068,280.104144 226.96497,280.387198 L201.015377,288.891981 C198.863433,289.596771 196.498942,288.911125 195.059561,287.164936 L175.504633,263.429807 Z" id="Shape" fill="#2B4C66" fill-rule="nonzero"></path>
        <polygon id="Shape" fill="#FFFFFF" fill-rule="nonzero" points="184.908553 267.603934 196.924672 281.691613 213.642751 275.952188 202.149072 263.429807"></polygon>
        <path d="M123.34945,238.473747 C123.260636,238.906812 127.440155,278.561017 174.982193,275.430422" id="Shape" stroke="#1C3248" stroke-width="3" stroke-linecap="round" stroke-linejoin="round"></path>
        <path d="M196.783613,288.615445 L178.028018,285.630945 C175.963696,285.162516 174.534064,283.281532 174.637383,281.169847 L175.504633,263.429807 L196.783613,288.615445 Z" id="Shape" fill="#1C3248" fill-rule="nonzero"></path>
        <path d="M398.427539,103.484274 C398.427539,103.484274 416.791304,111.639475 443.435743,178.425504 C443.435743,178.425504 439.778663,209.20969 403.881812,229.657694 C403.881812,229.657694 407.909824,213.383817 387.534665,211.296753 C387.534665,211.296753 401.640545,201.383202 416.268864,180.512568 C416.268864,180.512568 395.893705,153.380743 389.624425,144.510724 C383.355146,135.640704 384.243294,103.677328 398.427539,103.484274 Z" id="Shape" fill="#E1E6EB" fill-rule="nonzero"></path>
        <path d="M403.881812,229.657694 C403.881812,229.657694 394.645073,234.510116 392.435152,233.028301 C389.399776,230.993415 386.542029,244.642809 383.093926,248.863895 C379.645822,253.084981 379.598802,249.109125 379.598802,249.109125 L381.740806,235.856272 C381.740806,235.856272 376.516406,243.160994 375.257326,251.561425 C375.257326,251.561425 374.734886,254.900726 373.167566,254.989426 C371.600246,255.078127 369.803053,251.290106 373.209361,235.647566 C371.114692,241.214256 369.313291,246.886659 367.812556,252.64148 C367.154282,255.333792 364.704039,254.598102 364.275638,252.604956 C363.847237,250.611811 364.636121,247.277727 364.636121,247.277727 C365.862427,243.276304 366.77424,239.185419 367.363258,235.042318 C367.363258,235.042318 366.192992,236.951981 362.044819,251.018788 C362.044819,251.018788 359.244541,252.46408 359.64682,247.121197 C359.970732,242.811411 361.412667,223.876528 376.835095,218.742352 C381.213142,217.286626 384.509738,215.376962 387.524217,211.296753 C399.77021,211.228924 408.479284,214.375172 403.881812,229.657694 Z" id="Shape" fill="#EBB9A0" fill-rule="nonzero"></path>
        <path d="M388.58477,211.301971 C392.623231,212.345503 399.232096,215.476098 400.674031,219.775449 C402.539141,225.358343 395.172738,229.741177 389.906543,230.883844 L389.216922,230.988197 C388.913907,231.155162 388.610892,231.322127 388.313101,231.509963 C387.388382,232.031729 386.49501,232.631759 385.606862,233.221355 C385.081362,234.24789 384.498803,235.244279 383.861912,236.205855 C383.682841,241.243072 382.548229,246.200591 380.518297,250.8153 C381.040737,250.867476 381.834845,250.418757 383.093926,248.879548 C386.542029,244.658462 389.399776,231.009068 392.435152,233.043954 C394.645073,234.525769 403.881812,229.673347 403.881812,229.673347 C408.348674,214.818673 400.261303,211.421977 388.58477,211.301971 Z" id="Shape" fill="#CC8B8B" fill-rule="nonzero"></path>
        <rect id="Rectangle" stroke="#0075EB" stroke-width="2" fill-opacity="0.439739948" fill="#FFFFFF" x="0" y="0" width="500" height="300"></rect>
        <path d="M301.379,106.723 C291.194,104 250.33,104 250.33,104 C250.33,104 209.486,104 199.28,106.723 C193.668,108.219 189.24,112.647 187.723,118.28 C185,128.465 185,149.729 185,149.729 C185,149.729 185,170.992 187.723,181.177 C189.22,186.79 193.647,191.217 199.28,192.734 C209.486,195.457 250.33,195.457 250.33,195.457 C250.33,195.457 291.194,195.457 301.379,192.734 C306.992,191.238 311.419,186.81 312.936,181.177 C315.659,170.992 315.659,149.729 315.659,149.729 C315.659,149.729 315.659,128.465 312.936,118.28 C311.44,112.668 307.012,108.24 301.379,106.723 Z" id="Fill-16" fill="#FF3333"></path>
        <polyline id="Fill-18" fill="#FFFFFE" points="237.276 169.33 271.219 149.729 237.276 130.128 237.276 169.33"></polyline>
    </g>
</svg>