<?xml version="1.0" encoding="utf-8"?>
<svg version="1.1" id="Layer_1" xmlns="http://www.w3.org/2000/svg" xmlns:xlink="http://www.w3.org/1999/xlink" x="0px" y="0px"
	 viewBox="0 0 649.2 500" style="enable-background:new 0 0 649.2 500;" xml:space="preserve">
<style type="text/css">
	.st0{fill:#FFEEF4;}
	.st1{fill:#AFCDDC;}
	.st2{fill:#C1DAE9;}
	.st3{fill:#ABC5D1;}
	.st4{fill:#DEEFF3;}
	.st5{fill:#E0ECF3;}
	.st6{fill:#E5AC97;}
	.st7{fill:#C98084;}
	.st8{fill:#1D3248;}
	.st9{fill:#FF004F;}
	.st10{fill:#E50053;}
	.st11{fill:#4491CC;}
	.st12{fill:#6EA5D9;}
	.st13{clip-path:url(#SVGID_2_);fill:none;stroke:#EE4036;stroke-width:1.3255;stroke-miterlimit:10;}
	.st14{clip-path:url(#SVGID_4_);fill:#C98084;}
	.st15{clip-path:url(#SVGID_6_);fill:#C98084;}
	.st16{fill:#CE2527;}
	.st17{fill:#244056;}
	.st18{fill:#EE4036;}
	.st19{fill:#9BBBCB;}
	.st20{fill:#197690;}
	.st21{fill:#F9F8F8;}
	.st22{fill:#156B80;}
	.st23{fill:#02535E;}
	.st24{fill:#006173;}
	.st25{clip-path:url(#SVGID_8_);fill:#02535E;}
	.st26{fill:none;stroke:#C98084;stroke-width:0.9112;stroke-linecap:round;stroke-miterlimit:10;}
	.st27{fill:none;stroke:#1D3248;stroke-width:3.2283;stroke-linecap:round;stroke-linejoin:round;stroke-miterlimit:10;}
	.st28{clip-path:url(#SVGID_10_);}
	.st29{clip-path:url(#SVGID_12_);fill:#A6C2D5;}
	.st30{clip-path:url(#SVGID_14_);}
	.st31{clip-path:url(#SVGID_20_);fill:#A6C2D5;}
	.st32{clip-path:url(#SVGID_22_);fill:#A6C2D5;}
	.st33{clip-path:url(#SVGID_22_);}
	.st34{fill:#2A4C66;}
	.st35{clip-path:url(#SVGID_28_);fill:none;stroke:#EE4036;stroke-width:1.4036;stroke-miterlimit:10;}
	.st36{clip-path:url(#SVGID_30_);fill:none;stroke:#EE4036;stroke-width:1.4036;stroke-miterlimit:10;}
	.st37{fill:#FFFFFF;}
	.st38{clip-path:url(#SVGID_32_);fill:none;stroke:#EE4036;stroke-width:1.4036;stroke-miterlimit:10;}
	.st39{fill:none;stroke:#44718B;stroke-width:1.1319;stroke-miterlimit:10;}
	.st40{clip-path:url(#SVGID_34_);fill:none;stroke:#EE4036;stroke-width:1.4036;stroke-miterlimit:10;}
	.st41{fill:none;stroke:#F2B450;stroke-width:1.0765;stroke-linecap:round;stroke-linejoin:round;}
	.st42{fill:none;stroke:#F2B450;stroke-width:1.0765;stroke-linecap:round;stroke-linejoin:round;stroke-dasharray:4.4282,6.6423;}
	.st43{fill:#231F20;}
</style>
<circle class="st0" cx="324.6" cy="250" r="242.9"/>
<g>
	<g>
		<path class="st1" d="M318,436.1l-4.7,2.3V304.8l9.1,1.1v123.7C322.4,432.3,320.8,434.8,318,436.1"/>
		<polygon class="st2" points="313.3,438.4 302.8,435 304.2,310.5 313.3,304.8 		"/>
		<path class="st3" d="M239.4,415.2l-4.4,2.3V284l8.5,1.1v123.7C243.6,411.4,242,413.9,239.4,415.2"/>
		<polygon class="st4" points="235.1,417.5 225.2,414.1 226.5,289.6 235.1,284 		"/>
		<path class="st2" d="M389.9,277.3l5.1-134.6c0-3.9-0.1-7.6-0.4-11.4c-1-12.9-6.1-38-35.5-45.4c-40.3-10.1-58.4,13.3-62.1,33.6
			c-3.6,20.3-5.1,125.2-5.1,125.2L389.9,277.3z"/>
		<path class="st5" d="M380.7,277.6l6.2-134c-0.1-3.8-0.1-7.5-0.4-11.2c-1-12.9-5.9-38.1-34.5-45.6c-39.1-10.2-56.6,13.2-60.1,33.5
			c-2.9,16.8-3.4,16.8-6,129.5L380.7,277.6z"/>
		<path class="st1" d="M369.5,295.3l-45.8,29.2c-5,3.7-11.5,4.7-17.4,2.7l-111-28.7l0.6-13.2l89.9-35.7l91.5,26.2l0.1,3.4
			C377.6,285.6,374.6,291.6,369.5,295.3"/>
		<path class="st4" d="M377.3,277.3l-54,35.2c-5,2.3-11.5,3.3-17.4,1.3l-110-28.4l89.2-37.6L377.3,277.3z"/>
		<path class="st6" d="M286.7,154c0,0,2.7,35.9,1.3,52.5l12.9,0.2l-1.5-54.1L286.7,154z"/>
		<path class="st6" d="M217.8,414.4c0,0-6.1,6.9-16,13.5c-8.5,5.7,9,11.9,18.5,7.4c9.5-4.5,21.5-13.6,21.5-13.6l-0.6-9l-0.8-3.9
			L217.8,414.4z"/>
		<path class="st7" d="M221.4,428c-8.8,3.3-12.4,4.2-17.7,3.7c0,0-1.4,8.4,16.6,3.7c23-6,22.4-22.9,22.4-22.9l-2.2-3.6
			c-1.9,0-5.7,2.9-5.9,4.4C233.9,417.2,231,422.7,221.4,428"/>
		<path class="st8" d="M215.1,445.3c-9.1,3.2-22.9,9.9-31.9,6.9c-1.1-0.4-2.2-1.9-2-3.5c0.3-2.5,1.4-5.1,5-8.3
			c5.8-5.1,19.9-15.5,19.9-15.5s-2.9,2.1-1.8,4.2c1.1,2.2,3,4.6,9.7,3.9c4.9-0.5,9.1-2.6,9.1-2.6s3.4-1.3,8.9-4.4
			c3.9-2.2,5.3-3.3,5.3-3.3s2.8-1.9,4.1-4.7c0.8-2.4,0.9-3.1,1.2-5.7c2.3,3.7,3.8,5.2,4.8,11c0.3,1.7,0.3,2.1,0.1,3.8
			c-0.3,2.8-4.8,5.8-7.3,7c-1,0.5-3.5,1.3-5.1,1.6C230.5,436.8,218,444.3,215.1,445.3"/>
		<path class="st7" d="M217.7,414.6c0,0,4.3,6.8,18.5,1.2l0.3-4.5L217.7,414.6z"/>
		<path class="st9" d="M204.8,273.4c0,0-11.8,7.1-10.1,20.6c1.1,9.3,3.8,18.1,3.8,18.1l34.2-10.6c0,0,5.7-4.1,17.6-9.4
			c20.1-8.9,60.2-34.6,60.2-34.6l-20.7-35.2L204.8,273.4z"/>
		<path class="st9" d="M198.5,312.2c0,0,15.9,67.8,19.2,102.5c0,0,12.1,6.9,23.4-4.6c0,0-1.7-22.7-1.3-40.5
			c0.4-18.7,0.8-49-4.7-62.2c-5.2-12.4-12.3-21.5-20.2-19.1C207,290.5,197.1,300.1,198.5,312.2"/>
		<path class="st6" d="M286,427.8c0,0-4.9,8.5-10.7,20.1c-4.9,8,11.5,12.8,17.8,7.7c6.6-5.3,15.4-16.3,15.4-16.3l0-12.2l-0.3-2
			L286,427.8z"/>
		<path class="st7" d="M293.2,449.1c-6.4,4.3-10.3,4.6-14.7,4.5c0,0,1.9,8.2,14.5,2c7.1-3.5,18.4-20.7,18.4-20.7l-3.3-9.8
			c-1.6,0-5,0.4-5.2,2.7C302.4,433.6,300.3,442.3,293.2,449.1"/>
		<path class="st8" d="M290.7,470c-4,3.6-18,9.4-25.4,7.5c-1.3-0.3-2.4-1.6-2.5-3c-0.2-2.3,3.8-11.5,6.6-16.6
			c3.4-6.1,6.6-11.2,6.6-11.2s-0.9,11.7,13.1,6.9c3.7-0.8,11-9.5,11-9.5c2.7-2.4,4.1-3.7,6-6.2c1.1-1.4,1.5-3.2,1.6-5
			c0.1-2.1,0.3-3.5,1.3-5.5c3.4,4.5,4.4,9.5,4.2,11.4c-0.4,3-2.5,7.1-4.9,8.9C304.9,450.3,293,468.7,290.7,470"/>
		<path class="st7" d="M284.1,430.5c0,0,13.4,7.1,20.1,1.1l0.3-6.7L284.1,430.5z"/>
		<path class="st9" d="M264.1,291.6c0,0-10.5,7.9-10,17.8c0.5,9.3,5.2,19.8,5.2,19.8l33.2-11.1c0,0,7.2-2.4,21.2-7.8
			c44.6-17.2,50.9-41.2,50.9-41.2l-14.8-28.5L264.1,291.6z"/>
		<path class="st9" d="M258.5,327.2c0,0,21.9,69.5,25.7,103.6c0,0,13.2,6.6,24.1-5.4c0,0-1.6-17.6-4-37.5
			c-2.3-18.6,1.4-48.2-5.8-62.7c-6.3-12.6-18.5-21.4-26.2-18.6S256.4,315.2,258.5,327.2"/>
		<path class="st10" d="M312,291.5c0,0-9,2.7-25,17.9c-10.4,9.9-5.9,19.5-5.9,19.5l10.9-9.3c0,0,11.4-3.2,21-10.5
			c9.6-7.3,51.6-40.1,51.6-40.1l-14.8-28.5L312,291.5z"/>
		<path class="st10" d="M289.1,370.3c0,0,11.8,45,10.4,61.2c0,0,4.2-1.4,8.8-6.1c0,0-2.5-20.5-3.6-38.5c-1.7-26.5,0.2-45.5-5.4-60
			c-4.9-12.5-9.5-15.4-16.1-10.4C276.1,321.9,281.8,334.8,289.1,370.3"/>
		<path class="st10" d="M289.9,321.7c-3-17.8-10.6-24.4-26.9-25.7c0,0,14.9-9.8,40.3,1.1C303.3,297.1,295.5,319,289.9,321.7"/>
		<path class="st10" d="M244.1,277.6c0,0-12.4,11.3-19.6,20.3c-4.7,5.8-3.1,12.3-3.1,12.3l13.7-3c0,0,8-3.4,17.6-10.7
			c11.7-8.9,11.6-9.1,52-45.7l-14.8-28.5C273.7,240.8,266.3,262.7,244.1,277.6"/>
		<path class="st10" d="M221.2,307.4c-1,26.3,16.4,52.6,11.9,108c0,0,3.9-0.8,7.9-5.5c0,0-1.3-11.5-1.2-39.4
			c0.1-19.4,1.2-49.6-4.8-63.2c-4.4-10-10.4-4.8-10.4-4.8S223.8,301.5,221.2,307.4"/>
		<path class="st10" d="M224.8,299c0,0-2.3-3.2-5-8.8c-2-4.1-4.9-8.9-10.6-13.5c0,0,9.8-12.8,24.9,4.9
			C234.1,281.6,231,298.1,224.8,299"/>
		<path class="st11" d="M301.3,105.8c0,0-11.6,3.8-13.6,26.9l-1,21.3c0,0,14,7,25.9,8.1l1.2-27.3c0.9-7.2-2.3-17.6-7.1-22.4
			C304.6,110.3,304.6,106.5,301.3,105.8"/>
		<polygon class="st6" points="289.3,154.6 292.8,195.4 314,199.4 314.5,153.3 		"/>
		<path class="st12" d="M342.2,94.4c0,0,23.8,13.8,38,29.3c9.4,10.2-20.4,62.4-19.4,78.5c0.6,10.1,6.4,19.1,9.4,29.9
			c1.8,6.5-83.8-12.1-83.8-12.1s10.2-9.8,5-38.1c0,0-2.4-2.6-5.2-6c-2.8-3.4-6.8-11-0.7-20.6c2.1-3.3,5.6-15.6,6-18.8
			c0.5-4.3,1.2-9.4,0.9-13.1c-0.5-6.3,2.1-12.5,4.1-14.1c2-1.6,12.2-7.8,20.9-10.6C326.2,95.8,342.2,94.4,342.2,94.4"/>
		<path class="st11" d="M298.6,185.2c0,0,10.5-5.7,21.5,4.4L298.6,185.2z"/>
		<path class="st11" d="M347,151.7c4-13.4,11.3-25,11.4-25c0.4-0.3,3.5-4,4-4.3c10.7-6.5,15-2.9,16.7-0.7
			c8.6,10.8-20.4,64.8-19.4,80.9c0.6,10.1,6.4,19.1,9.4,29.9c0.8,2.9-27.9,1.6-46.1-1.6c23.1-37.9,10.2-41.1,13.7-55.9
			C339.1,164.6,343.8,162.4,347,151.7"/>
		<path class="st12" d="M286.9,219.6c0,0-8.9,8-22,14.9c-54.9,28.9-64.8,42.7-64.8,42.7s8.9-6,18.4,8.3
			c11.7,17.7,25.5,20.7,25.5,20.7s6.4,1.4,13.4-6c13.4-14.1,33.7,4.1,41,16.7c1.6,2.7,3.2,4.8,5.4,5.5c0,0,26.4-17.7,44.5-30.4
			c18.8-13.1,30.7-37.8,20-65.3C359.5,203.3,286.9,219.6,286.9,219.6"/>
		<path class="st11" d="M246.6,283.9c13.2-5.1,31.4-27.1,42.9-38c10.4-9.9,25.4-13.3,37-21.8c5.4-4,11.3-7,17.3-9.5
			c0.7,0.1,10.6-1.3,15.1,1.8c0.7,6.3,1.1,10.7-2.3,13.3c-17.6,13.6-38.7,19.8-53.4,31.5c-17.8,14.2-47.6,41.7-56.4,42
			c-2.1,0-11.7,2.7-21.2-12.6c-2.9-4.7-6.3-7.8-9.9-9.9C227.8,283.3,235.3,288.2,246.6,283.9"/>
		<path class="st8" d="M316.2,30.5c0,0-7.4-2.8-14,7.9c-1.7,2.8-3,12-3,12s15.7-5.4,19.8,0c7.3,9.6,11.6,31.1,18.9,32
			c1.7,0.2,3.3-0.5,4.7-1.6c8.2-6.6,29.1-26,2.6-50C334,20.7,316.2,30.5,316.2,30.5"/>
		<path class="st6" d="M342.8,73.6c0,0-1.6,14.3-0.9,19.3c0.5,3.6,4.1,9.3,4.1,9.3s-9.5,34.7-27.7,25.3c-8.5-5.4-0.9-16.3-1.2-22.7
			c-0.1-1.8-1.4-16.3-0.9-18.3c6.1-1.1,5.7-2.8,9.8-7.8C332.6,70.4,342.8,73.6,342.8,73.6"/>
	</g>
	<g>
		<defs>
			<path id="SVGID_1_" d="M325.9,78.6c-4.1,5-3.6,6.7-9.8,7.8c-0.5,2,0.8,16.5,0.9,18.3c0.3,6.4-7.2,17.2,1.2,22.7
				c18.1,9.4,27.7-25.3,27.7-25.3s-3.6-5.7-4.1-9.3c-0.7-5,0.9-19.3,0.9-19.3s-1.9-0.6-4.7-0.6C334.5,73,329.7,74,325.9,78.6"/>
		</defs>
		<clipPath id="SVGID_2_">
			<use xlink:href="#SVGID_1_"  style="overflow:visible;"/>
		</clipPath>
		<polygon class="st13" points="318.2,55.2 364,78.1 334.5,143.3 288.8,120.4 		"/>
	</g>
	<g>
		<defs>
			<path id="SVGID_3_" d="M325.9,78.6c-4.1,5-3.6,6.7-9.8,7.8c-0.5,2,0.8,16.5,0.9,18.3c0.3,6.4-7.2,17.2,1.2,22.7
				c18.1,9.4,27.7-25.3,27.7-25.3s-3.6-5.7-4.1-9.3c-0.7-5,0.9-19.3,0.9-19.3s-1.9-0.6-4.7-0.6C334.5,73,329.7,74,325.9,78.6"/>
		</defs>
		<clipPath id="SVGID_4_">
			<use xlink:href="#SVGID_3_"  style="overflow:visible;"/>
		</clipPath>
		<path class="st14" d="M342.8,73.6c0,0-1.6,14.3-0.9,19.3c0.5,3.6,4.1,9.3,4.1,9.3s-7.9,26.1-21.5,26.9c-4,0.2-7.7-0.2-8-3.3
			c0,0,5.6,4.9,12.8-4.1c3.2-4,3.3-13.5,2.2-29.3c-0.5-7.1-9.6-8.7-5.5-13.7C332.6,70.4,342.8,73.6,342.8,73.6"/>
	</g>
	<g>
		<path class="st6" d="M312.2,39.2c0,0-7.3,11.7-7.8,20c-0.2,4.1-0.7,18.7,7.6,29.1c2.3,2.8,6.7,5,10.7,5.1
			c9.8,0.1,16-8.4,19.1-19.7c0.4-1.5,4.1-0.8,5.4-7.1c1.4-7-4.9-5.3-4.9-5.3s-1-14.7-9.5-15.4C323.2,44.9,315.7,46.3,312.2,39.2"/>
	</g>
	<g>
		<defs>
			<path id="SVGID_5_" d="M304.4,59.2c-0.2,4.1-0.7,18.7,7.6,29.1c2.3,2.8,6.7,5,10.7,5.1c9.8,0.1,16-8.4,19.1-19.7
				c0.4-1.5,4.1-0.8,5.4-7.1c1.4-7-4.9-5.3-4.9-5.3s-1-14.7-9.5-15.4c-9.6-0.9-17.2,0.6-20.6-6.6C312.2,39.2,304.9,50.9,304.4,59.2"
				/>
		</defs>
		<clipPath id="SVGID_6_">
			<use xlink:href="#SVGID_5_"  style="overflow:visible;"/>
		</clipPath>
		<path class="st15" d="M312.2,39.2c-2.7,4.8-5.9,10.6-7.5,17.4c0,0,4.9,2.4,15,4.3c6,1.1,16,1.2,16,6.7
			c-0.3,28.8-19.3,25.1-13,25.8c0,0,14,1.4,19.1-19.7c0.4-1.5,4.1-0.8,5.4-7.1c1.4-7-4.9-5.3-4.9-5.3s-1-14.7-9.5-15.4
			C323.2,44.9,315.7,46.3,312.2,39.2"/>
	</g>
	<g>
		<path class="st8" d="M341.2,54.6l-3.3,6l-14.4-3.2c0,0-0.8-4.4,0.7-7.4c0,0-2.1,3-3.3,6.6c0,0-1.6,0.2-3.5-0.7
			c0,0-0.9-4.8,1.1-7.3c0,0-2.9,2.7-3.1,6.5c0,0-13.9-0.1-16.3-3.9l2.7-9c4.1-6.1,11.5-9.8,18.5-8.1C330,36.4,343.9,44.4,341.2,54.6
			"/>
		<path class="st11" d="M382.3,133.5c0,0,1.3-8.8-3.1-14.8c0,0-2.5-3.1-5.1-4.2c0,0-7.5-10.6-17.9-9.8c-16,1.3-28.7,41.7-39.8,39.7
			c-11.1-2-1.8-42.5-1.8-42.5s-0.2-0.8-3,0.2c0,0-2,0.6-2.6,2c0,0-6.7,0.5-9.6,5.7c-1.7,3-12.2,39.3,3.5,55.5c0,0,5.9,6.1,15.8,1.7
			c11.6-5.1,17.1-8.7,21-11.8c6.7-5.3,22.5-21.4,33.1-26.4c3.1-1.4,5.3-5,6.5-1.9C380.2,128.9,381.3,131.5,382.3,133.5"/>
		<path class="st9" d="M382.3,131.3c0,0,1.3-8.8-3.1-14.8c0,0-2.5-3.1-5.1-4.2c0,0-7.5-10.6-17.9-9.8c-16,1.3-28.7,41.7-39.8,39.7
			c-11.1-2-1.8-42.5-1.8-42.5s-0.2-0.8-3,0.2c0,0-2,0.6-2.6,2c0,0-6.7,0.5-9.6,5.7c-1.7,3-12.2,39.3,3.5,55.5c0,0,9,5.1,16.6,0.8
			c10.8-6,15.8-8.8,19.7-11.9c6.7-5.3,21.5-25.6,32.2-30.6c3.1-1.4,6.7,0.1,7.9,3.2C380.2,126.7,381.3,129.2,382.3,131.3"/>
		<path class="st10" d="M374.1,112.2c0,0-6.2-9.3-29.6,22.3c-19.8,26.7-31.5,26.7-37,24.1c-5.5-2.6-5-14.4-5-14.4s1.4,9.3,18.3,6.4
			c16.9-2.8,35.3-45,52.1-39.9L374.1,112.2z"/>
		<path class="st10" d="M309.1,101.8c0,0-6.7,23-3.4,37.4c0,0,2.5,8.7,8.7,9.6c0,0-13.3,0.1-12.8-14.7
			C302,121.8,309.1,101.8,309.1,101.8"/>
		<path class="st6" d="M254.9,230.3c0,0-7.8,4.4-10.7,6.7c-3.9,3.1-4.7,4.1-6.6,5.3c-0.4,0.2-4,3.2-4.3,3.6c-2.6,2.4-3,2.5-5.2,4.4
			c0,0-4.7,6.4-6,9.4c0,0,13.5-8.8,16.3-10.3c1.9-1,8.1-1.3,8.1-1.3l-4.6,5.1c0,0-7.1,3.4-6.2,7.8l10.8-4.4c0,0,5.4-4.5,8.2-7.5
			c1.8-2,3.2-4.3,4-6.9l0.4-1.4L254.9,230.3z"/>
		<path class="st6" d="M292.5,191.6c-16.4,17.8-30.4,33.2-39.7,40.1l6.2,9.4l30.3-23.1C295.4,204.2,292.1,196.3,292.5,191.6"/>
		<path class="st7" d="M235.7,259.8c0,0-0.1,0.3,0.1,1.1l10.8-4.4c0,0,5.4-4.5,8.2-7.5c1.8-2,3.2-4.3,4-6.9l0.6-1.3l-2.5-2.2
			c-2.1,6.2-7,10.3-10.9,14.4C242.7,256,240,258.2,235.7,259.8"/>
		<path class="st7" d="M256.7,238.5l2.3,2.7l30.1-23.1c1.3-2.1,2.6-7.7,2.8-8.5C283.3,216.2,264.6,234.1,256.7,238.5"/>
		<path class="st16" d="M290.3,228.1l9.1-5.6l4.9,5.4l-7.8,8.2C296.5,236.2,290.5,234.6,290.3,228.1"/>
		<path class="st16" d="M280.4,244c6.2-3.1,10.4-3.7,11-11.1l1.6,6.3C293,239.3,293.9,244,280.4,244"/>
		<path class="st9" d="M352,151c0,0-9.9,42.4-29.9,55.9c-13.6,9.2-23.3,11.3-28.2,11.7c-0.9,0.1-1.2,1.4-0.4,1.9
			c3.8,2.5,9.5,6.9,7.5,9.7c-2.9,4.1-8.2,1.2-10.7-2.1c0,0,2.4,6.1-0.5,10.9c-2.6,4.2-9.4,5-9.4,5s25.5,11.3,56.7-32
			c21.8-30.3,21.3-44.3,21.3-44.3L352,151z"/>
		<path class="st16" d="M304.6,229.7c0,0,39.7-17.3,50.6-64.5l-1.1-5.6C354.1,159.7,345.3,207.2,304.6,229.7"/>
		<path class="st8" d="M328.5,164.5c0,0,9.5,18.9,0.7,30.7c-6.7,9.1-9,9.9-8.8,16.1c0,0-23.6-12.2,0.9-47.3L328.5,164.5z"/>
		<path class="st8" d="M358.2,53c0,0,4.3,14.3-4.6,25.8c0,0,1.8,9-7.3,16c0,0,1.7,11.8-5.6,16c0,0,2.3,9.7-3.5,13.3
			c0,0,2.6,8.5-3.1,13.1c0,0,3.2,7.4-1.9,12.1c0,0,1.5,5.1-4.3,10.6L323,159c0,0-3.4-4.7,0.8-10.9c0,0-2.6-3.9,1.8-11.7
			c0,0-3.2-6,2.2-13.9c0,0-2.5-5.6,3.4-14.3c0,0-2-8.7,4.7-16.3c0,0-0.1-8.5,5.1-19.1c0.9-1.9,4.1,4.4,5.5,2.7
			C352.9,67.7,358.2,53,358.2,53"/>
		<path class="st17" d="M350.6,82.2c-0.9,12.2-6.2,7-10.2,12.7c0,0,0.1-5.3,4.8-6.5C349,87.3,349,84,350.6,82.2"/>
		<path class="st17" d="M357.8,62.6c-1,14.4-4.9,8.3-8.2,15c0,0,0.2-6.3,3.8-7.8C356.4,68.7,356.4,64.7,357.8,62.6"/>
		<path class="st17" d="M343.6,100.8c-0.8,10.7-5.4,6.1-9,11.1c0,0,0.1-4.6,4.2-5.7C342.1,105.3,342.1,102.4,343.6,100.8"/>
		<path class="st16" d="M328.9,158.5c0.7,2.2,0.6,4.3-0.5,6.2c-2.3,0.4-4.7,0.2-7.2-0.7c-0.8-2-0.2-4.2,0.9-6.4
			C322.2,157.6,323.8,158.6,328.9,158.5"/>
		<path class="st18" d="M328.1,159.6c0.5,1.6,0.5,3-0.3,4.4c-1.7,0.3-3.4,0.1-5.1-0.5C322.1,162.1,326.2,163.3,328.1,159.6"/>
		<path class="st19" d="M370.6,307.5l-94.3-43.6c-2.1-0.9-3.1-2.7-3-4.4c0.1-1.7,0-7.6,0-7.6l120.6-59.2c4.2-1.4,8.8-1.5,13-0.2
			l101.6,29.3c0,0-0.2,5.4,0,7.1c0.2,1.7-0.7,3.5-2.8,4.5L388,307.1C382.7,309.8,376.1,309.9,370.6,307.5"/>
		<path class="st5" d="M370.6,300l-94.3-43.6c-4.2-1.8-3.9-7,0.5-8.6l117.1-62.6c4.2-1.4,8.8-1.5,13-0.2l97.9,32.4
			c4.5,1.4,5,6.5,0.8,8.5l-117.6,73.7C382.7,302.2,376.1,302.4,370.6,300"/>
		<path class="st2" d="M328.6,267.1l-45.8-17c-1-0.3-1.2-1.7-0.2-2.2l21.5-3.6c1.2-0.6,2.6-0.8,3.9-0.5l45.8,6.1
			c3.6,0.9,2.9,2.8,1.1,4l-22.1,12.7C331.4,267.3,329.9,267.5,328.6,267.1"/>
		<path class="st20" d="M329.1,265.2l-44.9-16.5c-1-0.3-1.2-1.6-0.2-2.1l21-11.4c1.2-0.6,2.5-0.8,3.8-0.5l45.7,15.6
			c1,0.3,1.2,1.6,0.3,2.1l-21.7,12.3C331.9,265.4,330.5,265.6,329.1,265.2"/>
		<path class="st21" d="M327.8,265.3l-44.7-16.5c-0.5-0.1-0.8-0.5-0.8-1c-0.1-0.4-0.5-10.4,0-10.7l21.6,6.1c1.2-0.6,2.5-0.8,3.8-0.5
			l46-1.2c-1.1,3.6-1.6,7,0.4,9.7c0.3,0.4-0.1,0.9-0.6,1.2l-21.6,12.3C330.6,265.5,329.2,265.6,327.8,265.3"/>
		<path class="st22" d="M282.3,236.9c-1.6,2.8-3.8,7.9,0.2,11.7l45.4,16.7c0.5,0.1,2,0.5,4,0c-3.6-0.9-4.5-8.5-0.3-10.5
			C328.7,253.5,282.3,236.9,282.3,236.9"/>
		<path class="st20" d="M327.9,255.1L283,238.6c-1-0.3-1.2-1.6-0.2-2.1l21-11.4c1.2-0.6,2.5-0.8,3.8-0.5l45.7,15.6
			c1,0.3,1.2,1.6,0.3,2.1l-21.7,12.3C330.7,255.3,329.2,255.5,327.9,255.1"/>
		<path class="st23" d="M327.8,254.5l-44.9-16.7c-1-0.3-1.2-1.6-0.2-2.1l21.1-3.5c1.2-0.6,2.5-0.8,3.8-0.5l45.8,7.8
			c1,0.3,1.2,1.6,0.3,2.1L331.8,254C330.6,254.7,329.1,254.9,327.8,254.5"/>
		<path class="st20" d="M328.7,253.4l-44.9-16.5c-1-0.3-1.2-1.6-0.2-2.1l21-11.4c1.2-0.6,2.5-0.8,3.8-0.5l45.7,15.6
			c1,0.3,1.2,1.6,0.3,2.1l-21.7,12.3C331.5,253.6,330.1,253.7,328.7,253.4"/>
		<path class="st21" d="M327.4,253.4l-44.7-16.5c-0.5-0.1-0.8-0.5-0.8-1c0-0.4-0.5-10.4,0-10.7l21.6,6.1c1.2-0.6,2.5-0.8,3.8-0.5
			l46-1.2c-1.1,3.6-1.6,7,0.4,9.7c0.3,0.4-0.1,0.9-0.6,1.2l-21.6,12.3C330.2,253.6,328.8,253.8,327.4,253.4"/>
		<path class="st24" d="M281.9,225c-1.6,2.8-3.8,7.9,0.2,11.7l45.4,16.7c0.5,0.1,2,0.5,4,0c-3.6-0.9-4.5-8.5-0.3-10.5
			C328.3,241.7,281.9,225,281.9,225"/>
		<path class="st22" d="M327.5,243.3l-44.9-16.5c-1-0.3-1.2-1.6-0.2-2.1l21-11.4c1.2-0.6,2.5-0.8,3.8-0.5l45.7,15.6
			c1,0.3,1.2,1.6,0.3,2.1l-21.7,12.3C330.3,243.4,328.8,243.6,327.5,243.3"/>
		<path class="st23" d="M341.9,224.5c-6.7,4.1-14.6,6.2-21.9,8.8c-3.4,1.2-7.1,2.1-10.7,3.1l13.1,4.8c0.1,0,13.7-5.8,21.3-10.9
			c1.5-1,3.4-2.6,5-3.5L341.9,224.5z"/>
		<g>
			<defs>
				<rect id="SVGID_7_" x="295.6" y="238.3" width="26.8" height="20.8"/>
			</defs>
			<clipPath id="SVGID_8_">
				<use xlink:href="#SVGID_7_"  style="overflow:visible;"/>
			</clipPath>
			<path class="st25" d="M322.4,241.2l-11.4,17.9l-15.5-5.7c0.3-8.3,8.6-12.1,18.4-15.1L322.4,241.2z"/>
		</g>
		<path class="st6" d="M349.2,161.7c-2.8,8.7-10.4,32.5-13.4,42.1c0,0-6,5.6-19.4,15.7c-14.3,10.8-26.4,17.2-26.4,17.2l5.8,11.5
			c0,0,17.1-4.2,37.1-15.8c11-6.4,16.4-9.4,22.4-17.8c6.1-8.6,13.1-24.8,20-45C368.2,164.2,359.4,161.8,349.2,161.7"/>
		<path class="st7" d="M367.7,166.7c-4.2,17.5-11.9,35.5-19,45.4c0,0-8.1,8-22.7,17.9c-14.8,10-30.7,16.5-30.7,16.5l0.5,1.7
			c0,0,17.1-4.2,37.1-15.8c11-6.4,16.4-9.4,22.4-17.8c6.1-8.6,13.1-24.8,20-45C368.2,164.2,377.9,166.8,367.7,166.7"/>
		<path class="st6" d="M295.2,235.7c0,0-3.7-1.7-8.3,1.9c-4.6,3.6-10.2,6.1-10.2,6.1s-3,10.6,2,13l2.5,3.1l20-14L295.2,235.7z"/>
		<path class="st6" d="M276.6,243.7c0,0-4.9,0.9-6.8,1.2c-1.9,0.2-8,0.4-9,3.5c0,0,4.4,0.2,7.4,0.1c3-0.1,9.2-1.2,9.2-1.2
			L276.6,243.7z"/>
		<path class="st6" d="M277.2,247.8c0,0-5.6,1.6-8.5,2.6l-7.3,0.1c0,0-4.5-0.3-4.3,2.6c0,0-1.9,0.7-1.9,2.4l4,1.6
			c0,0,1.8,2.8,14.8,5.4c0,0,4.1-0.7,7.3-2.7L277.2,247.8z"/>
		<path class="st26" d="M257,253.1c0,0,5.4,0.7,9.8,1.4c4.7,0.7,9.7-1.5,9.7-1.5"/>
		<path class="st26" d="M259.1,257.1c0,0,2.8-1.9,6.1-0.7c3.2,1.1,5.8,1.2,5.8,1.2s5.6-1.7,6.5-1.5"/>
		<path class="st6" d="M301.2,245.8l-6,9.5c-0.3,0.4-0.7,0.8-1.2,0.9c-2.2,0.7-8.6,3-12.4,5.9c0,0-2-3.1,5.4-8l3.8-3.6"/>
		<path class="st7" d="M293.1,254c-8.2,4.7-11,6.3-11.6,8.1c3.9-2.8,10.3-5.2,12.4-5.9c0.5-0.2,0.9-0.5,1.2-0.9l6-9.5l-0.9-1.6
			L293.1,254z"/>
		<path class="st26" d="M281.4,261.7c0,0-1.8-2.7,5.5-7.6l1.9-2.7c0,0-1-4.8,3.6-8.9"/>
		<path class="st12" d="M384.1,130.9c1.4,8.9-4.3,24.8-9.3,40.7c0,0-5.6-8-26.3-8.4c0,0,2.5-9.3,4.6-15.9c1.2-4,7.5-19.5,16.8-24.5
			C376.9,119.1,382.9,123.2,384.1,130.9"/>
		<path class="st11" d="M384.3,131.5c0.8,9-3.1,24.8-9.4,40.2c0,0-3.8-4-7.2-5c0,0,6.1-10.2,8-16.4c7.9-25.1,0.8-28.8,0.8-28.8
			S383.5,122.6,384.3,131.5"/>
		<path class="st27" d="M396.1,245.6c0,0,8.4-8.2-0.6-11.2c-7.5-2.5-16.6,5.9-33,6.1c0,0-33.7,3-26.1-22.7
			c3.5-11.9,8.9-22.1,8.9-22.1"/>
		<g>
			<defs>
				<rect id="SVGID_9_" x="371.2" y="241.7" width="50.5" height="32.7"/>
			</defs>
			<clipPath id="SVGID_10_">
				<use xlink:href="#SVGID_9_"  style="overflow:visible;"/>
			</clipPath>
			<g class="st28">
				<defs>
					<rect id="SVGID_11_" x="371.2" y="241.7" width="50.5" height="32.7"/>
				</defs>
				<clipPath id="SVGID_12_">
					<use xlink:href="#SVGID_11_"  style="overflow:visible;"/>
				</clipPath>
				<path class="st29" d="M421.7,251.5l-28.5-9.7c-0.6-0.1-1.4,0.1-2,0.6l-18.9,16.5c-0.8,0.7-1.2,1.6-1.2,2.5s0.5,1.5,1.3,1.8
					l22.6,11.1c2,0.7,4.5,0,6.4-1.7L421.7,251.5z"/>
			</g>
			<g class="st28">
				<defs>
					<path id="SVGID_13_" d="M421.7,251.5l-28.5-9.7c-0.6-0.1-1.4,0.1-2,0.6l-18.9,16.5c-0.8,0.7-1.2,1.6-1.2,2.5
						c0,0.9,0.5,1.5,1.3,1.8l22.6,11.1c2,0.7,4.5,0,6.4-1.7L421.7,251.5z"/>
				</defs>
				<clipPath id="SVGID_14_">
					<use xlink:href="#SVGID_13_"  style="overflow:visible;"/>
				</clipPath>
				<g class="st30">
					<defs>
						<rect id="SVGID_15_" x="371.2" y="241.7" width="50.5" height="32.7"/>
					</defs>
					<clipPath id="SVGID_16_">
						<use xlink:href="#SVGID_15_"  style="overflow:visible;"/>
					</clipPath>
				</g>
			</g>
			<g class="st28">
				<defs>
					<rect id="SVGID_17_" x="371.2" y="241.7" width="50.5" height="32.7"/>
				</defs>
				<clipPath id="SVGID_18_">
					<use xlink:href="#SVGID_17_"  style="overflow:visible;"/>
				</clipPath>
			</g>
		</g>
		<g>
			<g>
				<defs>
					<rect id="SVGID_19_" x="398.6" y="251.5" width="23.2" height="22.7"/>
				</defs>
				<clipPath id="SVGID_20_">
					<use xlink:href="#SVGID_19_"  style="overflow:visible;"/>
				</clipPath>
				<path class="st31" d="M398.6,274.2l18.6-7.2c2.2-0.5,4.1-2.3,4.5-4.4l-0.1-11.1L398.6,274.2z"/>
			</g>
			<g>
				<defs>
					<path id="SVGID_21_" d="M398.6,274.2l18.6-7.2c2.2-0.5,4.1-2.3,4.5-4.4l-0.1-11.1L398.6,274.2z"/>
				</defs>
				<clipPath id="SVGID_22_">
					<use xlink:href="#SVGID_21_"  style="overflow:visible;"/>
				</clipPath>
				<polygon class="st32" points="539.3,519.7 79.4,520.6 285.4,-274.8 745.2,-275.7 				"/>
				<g class="st33">
					<defs>
						<rect id="SVGID_23_" x="398.6" y="251.5" width="23.2" height="22.7"/>
					</defs>
					<clipPath id="SVGID_24_">
						<use xlink:href="#SVGID_23_"  style="overflow:visible;"/>
					</clipPath>
				</g>
			</g>
			<g>
				<defs>
					<rect id="SVGID_25_" x="398.6" y="251.5" width="23.2" height="22.7"/>
				</defs>
				<clipPath id="SVGID_26_">
					<use xlink:href="#SVGID_25_"  style="overflow:visible;"/>
				</clipPath>
			</g>
		</g>
		<path class="st34" d="M421.3,250.4l-28.5-9.7c-0.6-0.1-1.4,0.1-2,0.6L372,257.7c-0.8,0.7-1.2,1.6-1.2,2.5c0,0.9,0.5,1.5,1.3,1.8
			l22.6,11.1c2,0.7,4.5,0,6.4-1.7L421.3,250.4z"/>
	</g>
	<g>
		<defs>
			<path id="SVGID_27_" d="M390.9,241.2L372,257.7c-0.8,0.7-1.2,1.6-1.2,2.5c0,0.9,0.5,1.5,1.3,1.8l22.6,11.1c2,0.7,4.5,0,6.4-1.7
				l20.2-21l-28.5-9.7c-0.1,0-0.3,0-0.4,0C391.9,240.6,391.3,240.8,390.9,241.2"/>
		</defs>
		<clipPath id="SVGID_28_">
			<use xlink:href="#SVGID_27_"  style="overflow:visible;"/>
		</clipPath>
		<polygon class="st35" points="434,235 367.6,235.2 355.7,282.2 422.2,282.1 		"/>
	</g>
	<g>
		<defs>
			<path id="SVGID_29_" d="M390.9,241.2L372,257.7c-0.8,0.7-1.2,1.6-1.2,2.5c0,0.9,0.5,1.5,1.3,1.8l22.6,11.1c2,0.7,4.5,0,6.4-1.7
				l20.2-21l-28.5-9.7c-0.1,0-0.3,0-0.4,0C391.9,240.6,391.3,240.8,390.9,241.2"/>
		</defs>
		<clipPath id="SVGID_30_">
			<use xlink:href="#SVGID_29_"  style="overflow:visible;"/>
		</clipPath>
		<polygon class="st36" points="538.9,518.6 79.1,519.5 285,-275.9 744.8,-276.8 		"/>
	</g>
	<g>
		<polygon class="st37" points="411.9,252.8 397.7,267 383.8,260.7 397.4,247.5 		"/>
	</g>
	<g>
		<defs>
			<polygon id="SVGID_31_" points="383.8,260.7 397.7,267 411.9,252.8 397.4,247.5 			"/>
		</defs>
		<clipPath id="SVGID_32_">
			<use xlink:href="#SVGID_31_"  style="overflow:visible;"/>
		</clipPath>
		<polygon class="st38" points="422.6,242.5 381,242.6 372.9,274.9 414.6,274.8 		"/>
		<polygon class="st38" points="538.9,518.6 79.1,519.5 285,-275.9 744.8,-276.8 		"/>
	</g>
	<g>
		<path class="st39" d="M385.1,251.4c-0.4-0.7,0.8-2.2,2.6-3.3c1.8-1.1,3.5-1.4,3.9-0.6c0.4,0.7-0.8,2.2-2.6,3.3
			C387.3,251.8,385.5,252.1,385.1,251.4z"/>
		<path class="st39" d="M377.1,258c-0.4-0.7,0.8-2.2,2.6-3.3c1.8-1.1,3.5-1.4,3.9-0.6c0.4,0.7-0.8,2.2-2.6,3.3
			C379.2,258.5,377.5,258.8,377.1,258z"/>
		<path class="st8" d="M398.2,273.1l18.6-7.2c2.2-0.5,4.1-2.3,4.5-4.4l-0.1-11.1L398.2,273.1z"/>
	</g>
	<g>
		<defs>
			<path id="SVGID_33_" d="M398.2,273.1l18.6-7.2c2.2-0.5,4.1-2.3,4.5-4.4l-0.1-11.1L398.2,273.1z"/>
		</defs>
		<clipPath id="SVGID_34_">
			<use xlink:href="#SVGID_33_"  style="overflow:visible;"/>
		</clipPath>
		<polygon class="st40" points="433,242.5 400.8,240 391,279.1 423.4,279.6 		"/>
	</g>
	<g>
		<path class="st34" d="M375.3,174.4c0,0-8.7-6.6-28.8-8.5c-6,14.9-6.1,20-8.7,28c0,0,11.6,10,25,10.9
			C367.2,195,375.3,174.4,375.3,174.4"/>
		<path class="st8" d="M374.6,175.8c0,0-11.4-7.5-28.6-8.5c-6,14.9-6.1,20-8.6,28.1c0,0,10.2,10.4,25.4,9.6
			C368.3,194.1,374.6,175.8,374.6,175.8"/>
		<path class="st17" d="M344.8,168.9c0,0,10.2,1.6,19.5,5.1c0.3,0.1,0.4,0.3,0.3,0.6c-1.3,2.9-9.7,22.2-12.4,29.2
			c0,0-11.4-2.5-14.8-7.2c-0.2-0.2-0.2-0.5-0.1-0.8C342.3,176.7,344.8,168.9,344.8,168.9"/>
		<line class="st41" x1="360.3" y1="188.1" x2="358.3" y2="187.5"/>
		<line class="st42" x1="351.9" y1="185.7" x2="267.4" y2="161.2"/>
	</g>
</g>
<g>
	<path class="st9" d="M67.5,67.7h-4.2V51.4l-5.1,1.6v-3.4l8.8-3.2h0.5V67.7z"/>
	<path class="st43" d="M100.2,67.7h-2.8L86.7,51.3v16.4h-2.8V46.4h2.8l10.8,16.5V46.4h2.8V67.7z"/>
	<path class="st43" d="M104.5,59.6c0-1.6,0.3-2.9,0.9-4.2s1.5-2.2,2.5-2.9s2.3-1,3.7-1c2.2,0,3.9,0.7,5.2,2.2s2,3.5,2,6V60
		c0,1.5-0.3,2.9-0.9,4.2s-1.4,2.2-2.5,2.9s-2.4,1-3.8,1c-2.1,0-3.9-0.7-5.2-2.2s-2-3.5-2-5.9V59.6z M107.2,60c0,1.8,0.4,3.2,1.2,4.2
		s1.9,1.6,3.3,1.6c1.4,0,2.5-0.5,3.3-1.6s1.2-2.6,1.2-4.5c0-1.7-0.4-3.1-1.2-4.2s-1.9-1.6-3.3-1.6c-1.3,0-2.4,0.5-3.2,1.6
		S107.2,58,107.2,60z"/>
	<path class="st43" d="M134.4,48v3.8h3v2.1h-3v9.8c0,0.6,0.1,1.1,0.4,1.4s0.7,0.5,1.3,0.5c0.3,0,0.7-0.1,1.3-0.2v2.2
		c-0.7,0.2-1.4,0.3-2.1,0.3c-1.2,0-2.1-0.4-2.7-1.1s-0.9-1.8-0.9-3.1v-9.8h-2.9v-2.1h2.9V48H134.4z"/>
	<path class="st43" d="M150.7,67.7c-0.2-0.3-0.3-0.9-0.4-1.7c-1.3,1.3-2.8,2-4.5,2c-1.6,0-2.8-0.4-3.8-1.3s-1.5-2-1.5-3.4
		c0-1.7,0.6-2.9,1.9-3.8s3-1.4,5.3-1.4h2.6v-1.2c0-0.9-0.3-1.7-0.8-2.3s-1.4-0.8-2.5-0.8c-1,0-1.8,0.2-2.4,0.7s-1,1.1-1,1.8h-2.7
		c0-0.8,0.3-1.6,0.8-2.3s1.3-1.3,2.3-1.8s2-0.6,3.2-0.6c1.8,0,3.3,0.5,4.3,1.4s1.6,2.2,1.6,3.8V64c0,1.5,0.2,2.6,0.6,3.5v0.2H150.7z
		 M146.2,65.6c0.8,0,1.7-0.2,2.4-0.7s1.3-1,1.7-1.7V60h-2.1c-3.3,0-5,1-5,2.9c0,0.8,0.3,1.5,0.8,2S145.3,65.6,146.2,65.6z"/>
	<path class="st43" d="M160.6,67.7h-2.7V45.2h2.7V67.7z"/>
	<path class="st43" d="M169.8,60.4l-1.7,1.8v5.6h-2.7V45.2h2.7v13.6l1.5-1.7l4.9-5.2h3.3l-6.2,6.6l6.9,9.2h-3.2L169.8,60.4z"/>
	<path class="st43" d="M181.1,47.6c0-0.4,0.1-0.8,0.4-1.1s0.7-0.5,1.2-0.5s0.9,0.2,1.2,0.5s0.4,0.7,0.4,1.1s-0.1,0.8-0.4,1.1
		s-0.7,0.4-1.2,0.4s-0.9-0.1-1.2-0.4S181.1,48.1,181.1,47.6z M184,67.7h-2.7V51.9h2.7V67.7z"/>
	<path class="st43" d="M191.4,51.9l0.1,2c1.2-1.5,2.8-2.3,4.7-2.3c3.3,0,5,1.9,5.1,5.7v10.5h-2.7V57.2c0-1.1-0.3-2-0.8-2.5
		s-1.3-0.8-2.4-0.8c-0.9,0-1.7,0.2-2.3,0.7s-1.2,1.1-1.6,1.8v11.3h-2.7V51.9H191.4z"/>
	<path class="st43" d="M205.2,59.6c0-2.5,0.6-4.4,1.7-5.9s2.7-2.2,4.5-2.2c1.9,0,3.4,0.7,4.5,2.1l0.1-1.8h2.5v15.5
		c0,2.1-0.6,3.7-1.8,4.8s-2.8,1.8-4.9,1.8c-1.1,0-2.3-0.2-3.4-0.7s-1.9-1.2-2.5-2l1.4-1.6c1.2,1.4,2.6,2.2,4.3,2.2
		c1.3,0,2.3-0.4,3.1-1.1s1.1-1.8,1.1-3.1v-1.4c-1.1,1.2-2.6,1.9-4.4,1.9c-1.9,0-3.4-0.7-4.5-2.2S205.2,62.2,205.2,59.6z M207.9,60
		c0,1.8,0.4,3.2,1.1,4.2s1.8,1.5,3.1,1.5c1.7,0,3-0.8,3.8-2.3v-7.2c-0.8-1.5-2.1-2.3-3.7-2.3c-1.3,0-2.3,0.5-3.1,1.5
		S207.9,57.9,207.9,60z"/>
</g>
<g>
	<path class="st9" d="M15.1,144H1.4v-2.7l6.4-6.9c0.9-1,1.5-1.8,2-2.5c0.4-0.7,0.6-1.4,0.6-2.1c0-0.9-0.2-1.6-0.7-2.1
		S8.7,127,7.9,127c-0.9,0-1.6,0.3-2.1,0.9S5,129.4,5,130.4H1c0-1.2,0.3-2.3,0.9-3.3c0.6-1,1.4-1.8,2.5-2.4c1.1-0.6,2.3-0.9,3.6-0.9
		c2.1,0,3.6,0.5,4.8,1.5s1.7,2.4,1.7,4.2c0,1-0.3,2-0.8,3c-0.5,1-1.4,2.2-2.6,3.6l-4.5,4.8h8.6V144z"/>
	<path class="st43" d="M40.9,137.7c-0.2,2.1-1,3.7-2.3,4.9c-1.3,1.1-3,1.7-5.2,1.7c-2.4,0-4.2-0.8-5.7-2.5c-1.4-1.7-2.1-3.9-2.1-6.8
		v-1.9c0-1.9,0.3-3.5,1-4.9c0.7-1.4,1.6-2.5,2.8-3.2s2.6-1.1,4.2-1.1c2.1,0,3.8,0.6,5.1,1.8c1.3,1.2,2,2.8,2.2,4.9h-2.6
		c-0.2-1.6-0.7-2.7-1.5-3.5c-0.8-0.7-1.8-1.1-3.2-1.1c-1.7,0-3,0.6-3.9,1.9c-1,1.2-1.4,3-1.4,5.3v1.9c0,2.2,0.5,3.9,1.4,5.2
		s2.2,1.9,3.8,1.9c1.5,0,2.6-0.3,3.4-1c0.8-0.7,1.3-1.8,1.6-3.5H40.9z"/>
	<path class="st43" d="M53.6,142.5c-1,1.2-2.4,1.7-4.3,1.7c-1.6,0-2.8-0.5-3.6-1.4s-1.2-2.3-1.3-4.1v-9.6H47v9.6
		c0,2.2,0.9,3.4,2.7,3.4c1.9,0,3.2-0.7,3.9-2.2v-10.8h2.5V144h-2.4L53.6,142.5z"/>
	<path class="st43" d="M61.6,144v-12.8h-2.3v-2h2.3v-1.5c0-1.6,0.4-2.8,1.3-3.7c0.8-0.9,2-1.3,3.6-1.3c0.6,0,1.2,0.1,1.7,0.2l-0.1,2
		c-0.4-0.1-0.9-0.1-1.4-0.1c-0.8,0-1.5,0.2-1.9,0.7c-0.4,0.5-0.7,1.2-0.7,2.1v1.6h3.2v2h-3.2V144H61.6z"/>
	<path class="st43" d="M71.7,144v-12.8h-2.3v-2h2.3v-1.5c0-1.6,0.4-2.8,1.3-3.7c0.8-0.9,2-1.3,3.6-1.3c0.6,0,1.2,0.1,1.7,0.2l-0.1,2
		c-0.4-0.1-0.9-0.1-1.4-0.1c-0.8,0-1.5,0.2-1.9,0.7c-0.4,0.5-0.7,1.2-0.7,2.1v1.6h3.2v2h-3.2V144H71.7z"/>
	<path class="st43" d="M97.1,144c-0.1-0.3-0.3-0.8-0.4-1.6c-1.2,1.2-2.6,1.8-4.2,1.8c-1.5,0-2.7-0.4-3.6-1.2
		c-0.9-0.8-1.4-1.9-1.4-3.1c0-1.5,0.6-2.7,1.8-3.6c1.2-0.9,2.8-1.3,4.9-1.3h2.5v-1.2c0-0.9-0.3-1.6-0.8-2.1
		c-0.5-0.5-1.3-0.8-2.3-0.8c-0.9,0-1.7,0.2-2.3,0.7c-0.6,0.5-0.9,1-0.9,1.7h-2.5c0-0.7,0.3-1.5,0.8-2.1c0.5-0.7,1.2-1.2,2.1-1.6
		c0.9-0.4,1.9-0.6,3-0.6c1.7,0,3,0.4,4,1.3c1,0.9,1.5,2,1.5,3.5v6.8c0,1.4,0.2,2.4,0.5,3.2v0.2H97.1z M92.9,142.1
		c0.8,0,1.5-0.2,2.3-0.6s1.2-0.9,1.5-1.6v-3h-2c-3.1,0-4.6,0.9-4.6,2.7c0,0.8,0.3,1.4,0.8,1.9C91.4,141.9,92.1,142.1,92.9,142.1z"/>
	<path class="st43" d="M107.1,125.6v3.6h2.8v2h-2.8v9.2c0,0.6,0.1,1,0.4,1.3s0.7,0.4,1.3,0.4c0.3,0,0.7-0.1,1.2-0.2v2
		c-0.7,0.2-1.3,0.3-1.9,0.3c-1.1,0-2-0.3-2.6-1s-0.9-1.7-0.9-2.9v-9.2h-2.7v-2h2.7v-3.6H107.1z"/>
	<path class="st43" d="M123.1,131c1.1-1.4,2.6-2.1,4.4-2.1c3.1,0,4.7,1.8,4.7,5.3v9.8h-2.5v-9.8c0-1.1-0.3-1.9-0.7-2.4
		c-0.5-0.5-1.2-0.8-2.2-0.8c-0.8,0-1.5,0.2-2.2,0.7s-1.1,1-1.4,1.7V144h-2.5v-21h2.5V131z"/>
	<path class="st43" d="M142.5,144.3c-2,0-3.6-0.7-4.9-2c-1.3-1.3-1.9-3.1-1.9-5.3v-0.5c0-1.5,0.3-2.8,0.8-3.9
		c0.6-1.2,1.3-2.1,2.4-2.7c1-0.7,2.1-1,3.3-1c1.9,0,3.4,0.6,4.5,1.9c1.1,1.3,1.6,3.1,1.6,5.4v1.1h-10c0,1.5,0.5,2.6,1.3,3.5
		c0.8,0.9,1.9,1.3,3.1,1.3c0.9,0,1.6-0.2,2.3-0.5c0.6-0.4,1.2-0.8,1.6-1.4l1.5,1.2C146.9,143.3,145,144.3,142.5,144.3z M142.2,131
		c-1,0-1.9,0.4-2.6,1.1c-0.7,0.7-1.1,1.8-1.3,3.1h7.4v-0.2c-0.1-1.3-0.4-2.3-1-3C144.1,131.4,143.3,131,142.2,131z"/>
	<path class="st43" d="M160.8,144c-0.1-0.3-0.3-0.8-0.4-1.6c-1.2,1.2-2.6,1.8-4.2,1.8c-1.5,0-2.7-0.4-3.6-1.2
		c-0.9-0.8-1.4-1.9-1.4-3.1c0-1.5,0.6-2.7,1.8-3.6c1.2-0.9,2.8-1.3,4.9-1.3h2.5v-1.2c0-0.9-0.3-1.6-0.8-2.1
		c-0.5-0.5-1.3-0.8-2.3-0.8c-0.9,0-1.7,0.2-2.3,0.7c-0.6,0.5-0.9,1-0.9,1.7h-2.5c0-0.7,0.3-1.5,0.8-2.1c0.5-0.7,1.2-1.2,2.1-1.6
		c0.9-0.4,1.9-0.6,3-0.6c1.7,0,3,0.4,4,1.3c1,0.9,1.5,2,1.5,3.5v6.8c0,1.4,0.2,2.4,0.5,3.2v0.2H160.8z M156.6,142.1
		c0.8,0,1.5-0.2,2.3-0.6s1.2-0.9,1.5-1.6v-3h-2c-3.1,0-4.6,0.9-4.6,2.7c0,0.8,0.3,1.4,0.8,1.9C155.1,141.9,155.8,142.1,156.6,142.1z
		"/>
	<path class="st43" d="M174.5,131.5c-0.4-0.1-0.8-0.1-1.2-0.1c-1.7,0-2.8,0.7-3.4,2.1V144h-2.5v-14.8h2.5l0,1.7c0.8-1.3,2-2,3.5-2
		c0.5,0,0.9,0.1,1.1,0.2V131.5z"/>
	<path class="st43" d="M181.3,125.6v3.6h2.8v2h-2.8v9.2c0,0.6,0.1,1,0.4,1.3s0.7,0.4,1.3,0.4c0.3,0,0.7-0.1,1.2-0.2v2
		c-0.7,0.2-1.3,0.3-1.9,0.3c-1.1,0-2-0.3-2.6-1s-0.9-1.7-0.9-2.9v-9.2h-2.7v-2h2.7v-3.6H181.3z"/>
	<path class="st43" d="M197.5,144H195v-21h2.5V144z"/>
	<path class="st43" d="M208.2,144.3c-2,0-3.6-0.7-4.9-2c-1.3-1.3-1.9-3.1-1.9-5.3v-0.5c0-1.5,0.3-2.8,0.8-3.9
		c0.6-1.2,1.3-2.1,2.4-2.7c1-0.7,2.1-1,3.3-1c1.9,0,3.4,0.6,4.5,1.9c1.1,1.3,1.6,3.1,1.6,5.4v1.1h-10c0,1.5,0.5,2.6,1.3,3.5
		c0.8,0.9,1.9,1.3,3.1,1.3c0.9,0,1.6-0.2,2.3-0.5c0.6-0.4,1.2-0.8,1.6-1.4l1.5,1.2C212.5,143.3,210.6,144.3,208.2,144.3z M207.8,131
		c-1,0-1.9,0.4-2.6,1.1c-0.7,0.7-1.1,1.8-1.3,3.1h7.4v-0.2c-0.1-1.3-0.4-2.3-1-3C209.7,131.4,208.9,131,207.8,131z"/>
	<path class="st43" d="M222,140.6l3.7-11.4h2.6l-5.3,14.8H221l-5.4-14.8h2.6L222,140.6z"/>
	<path class="st43" d="M237,144.3c-2,0-3.6-0.7-4.9-2c-1.3-1.3-1.9-3.1-1.9-5.3v-0.5c0-1.5,0.3-2.8,0.8-3.9c0.6-1.2,1.3-2.1,2.4-2.7
		c1-0.7,2.1-1,3.3-1c1.9,0,3.4,0.6,4.5,1.9c1.1,1.3,1.6,3.1,1.6,5.4v1.1h-10c0,1.5,0.5,2.6,1.3,3.5c0.8,0.9,1.9,1.3,3.1,1.3
		c0.9,0,1.6-0.2,2.3-0.5c0.6-0.4,1.2-0.8,1.6-1.4l1.5,1.2C241.4,143.3,239.5,144.3,237,144.3z M236.7,131c-1,0-1.9,0.4-2.6,1.1
		c-0.7,0.7-1.1,1.8-1.3,3.1h7.4v-0.2c-0.1-1.3-0.4-2.3-1-3C238.6,131.4,237.8,131,236.7,131z"/>
	<path class="st43" d="M248.9,144h-2.5v-21h2.5V144z"/>
	<path class="st43" d="M0.8,170.1c0-1.4,0.3-2.8,0.9-3.9c0.6-1.2,1.4-2.1,2.4-2.7c1-0.6,2.2-0.9,3.5-0.9c2,0,3.6,0.7,4.9,2.1
		s1.9,3.2,1.9,5.6v0.2c0,1.4-0.3,2.7-0.8,3.9c-0.6,1.1-1.3,2-2.4,2.7c-1,0.6-2.2,1-3.5,1c-2,0-3.6-0.7-4.9-2.1s-1.9-3.2-1.9-5.5
		V170.1z M3.4,170.4c0,1.6,0.4,3,1.1,4c0.8,1,1.8,1.5,3.1,1.5c1.3,0,2.3-0.5,3.1-1.5c0.8-1,1.1-2.4,1.1-4.2c0-1.6-0.4-2.9-1.2-3.9
		c-0.8-1-1.8-1.5-3.1-1.5c-1.2,0-2.3,0.5-3,1.5C3.8,167.1,3.4,168.5,3.4,170.4z"/>
	<path class="st43" d="M20.3,162.8l0.1,1.9c1.1-1.4,2.6-2.1,4.4-2.1c3.1,0,4.7,1.8,4.7,5.3v9.8H27v-9.8c0-1.1-0.3-1.9-0.7-2.4
		c-0.5-0.5-1.2-0.8-2.2-0.8c-0.8,0-1.5,0.2-2.2,0.7c-0.6,0.4-1.1,1-1.4,1.7v10.5h-2.5v-14.8H20.3z"/>
	<path class="st43" d="M53.7,170.4c0,2.3-0.5,4.1-1.6,5.4c-1,1.4-2.4,2.1-4.2,2.1c-1.9,0-3.3-0.7-4.3-2l-0.1,1.7h-2.3v-21h2.5v7.8
		c1-1.3,2.4-1.9,4.2-1.9c1.8,0,3.2,0.7,4.2,2c1,1.4,1.5,3.2,1.5,5.6V170.4z M51.1,170.1c0-1.7-0.3-3.1-1-4c-0.7-0.9-1.6-1.4-2.9-1.4
		c-1.7,0-2.9,0.8-3.6,2.3v6.4c0.8,1.5,2,2.3,3.6,2.3c1.2,0,2.2-0.5,2.8-1.4C50.8,173.4,51.1,172,51.1,170.1z"/>
	<path class="st43" d="M66.4,177.6c-0.1-0.3-0.3-0.8-0.4-1.6c-1.2,1.2-2.6,1.8-4.2,1.8c-1.5,0-2.7-0.4-3.6-1.2
		c-0.9-0.8-1.4-1.9-1.4-3.1c0-1.5,0.6-2.7,1.8-3.6c1.2-0.9,2.8-1.3,4.9-1.3H66v-1.2c0-0.9-0.3-1.6-0.8-2.1c-0.5-0.5-1.3-0.8-2.3-0.8
		c-0.9,0-1.7,0.2-2.3,0.7c-0.6,0.5-0.9,1-0.9,1.7h-2.5c0-0.7,0.3-1.5,0.8-2.1c0.5-0.7,1.2-1.2,2.1-1.6c0.9-0.4,1.9-0.6,3-0.6
		c1.7,0,3,0.4,4,1.3c1,0.9,1.5,2,1.5,3.5v6.8c0,1.4,0.2,2.4,0.5,3.2v0.2H66.4z M62.2,175.7c0.8,0,1.5-0.2,2.3-0.6s1.2-0.9,1.5-1.6
		v-3h-2c-3.1,0-4.6,0.9-4.6,2.7c0,0.8,0.3,1.4,0.8,1.9C60.7,175.5,61.4,175.7,62.2,175.7z"/>
	<path class="st43" d="M80.1,165.1c-0.4-0.1-0.8-0.1-1.2-0.1c-1.7,0-2.8,0.7-3.4,2.1v10.5h-2.5v-14.8h2.5l0,1.7c0.8-1.3,2-2,3.5-2
		c0.5,0,0.9,0.1,1.1,0.2V165.1z"/>
	<path class="st43" d="M88.7,177.9c-2,0-3.6-0.7-4.9-2c-1.3-1.3-1.9-3.1-1.9-5.3v-0.5c0-1.5,0.3-2.8,0.8-3.9
		c0.6-1.2,1.3-2.1,2.4-2.7c1-0.7,2.1-1,3.3-1c1.9,0,3.4,0.6,4.5,1.9c1.1,1.3,1.6,3.1,1.6,5.4v1.1h-10c0,1.5,0.5,2.6,1.3,3.5
		c0.8,0.9,1.9,1.3,3.1,1.3c0.9,0,1.6-0.2,2.3-0.5c0.6-0.4,1.2-0.8,1.6-1.4l1.5,1.2C93,176.9,91.2,177.9,88.7,177.9z M88.4,164.6
		c-1,0-1.9,0.4-2.6,1.1c-0.7,0.7-1.1,1.8-1.3,3.1h7.4v-0.2c-0.1-1.3-0.4-2.3-1-3C90.3,165,89.4,164.6,88.4,164.6z"/>
	<path class="st43" d="M113.8,173.7c0-0.7-0.3-1.2-0.8-1.6c-0.5-0.4-1.4-0.7-2.7-1s-2.3-0.6-3-1s-1.3-0.8-1.7-1.4
		c-0.4-0.5-0.5-1.2-0.5-1.9c0-1.2,0.5-2.2,1.5-3.1c1-0.8,2.3-1.3,3.9-1.3c1.7,0,3,0.4,4.1,1.3c1,0.9,1.6,2,1.6,3.3h-2.5
		c0-0.7-0.3-1.3-0.9-1.8c-0.6-0.5-1.3-0.8-2.2-0.8c-0.9,0-1.6,0.2-2.2,0.6c-0.5,0.4-0.8,0.9-0.8,1.6c0,0.6,0.2,1.1,0.7,1.4
		c0.5,0.3,1.4,0.6,2.6,0.9c1.3,0.3,2.3,0.6,3.1,1c0.8,0.4,1.4,0.9,1.7,1.4c0.4,0.6,0.6,1.2,0.6,2c0,1.3-0.5,2.4-1.6,3.2
		c-1.1,0.8-2.4,1.2-4.1,1.2c-1.2,0-2.2-0.2-3.1-0.6s-1.6-1-2.1-1.8s-0.8-1.6-0.8-2.4h2.5c0,0.8,0.4,1.5,1,2c0.6,0.5,1.5,0.7,2.5,0.7
		c1,0,1.7-0.2,2.3-0.6C113.5,174.8,113.8,174.3,113.8,173.7z"/>
	<path class="st43" d="M124.1,170.8l-1.6,1.7v5.2H120v-21h2.5v12.7l1.4-1.6l4.6-4.9h3.1l-5.8,6.2l6.4,8.6h-3L124.1,170.8z"/>
	<path class="st43" d="M134.6,158.9c0-0.4,0.1-0.8,0.4-1c0.2-0.3,0.6-0.4,1.1-0.4s0.9,0.1,1.1,0.4c0.3,0.3,0.4,0.6,0.4,1
		s-0.1,0.8-0.4,1c-0.3,0.3-0.6,0.4-1.1,0.4s-0.9-0.1-1.1-0.4C134.8,159.6,134.6,159.3,134.6,158.9z M137.4,177.6h-2.5v-14.8h2.5
		V177.6z"/>
	<path class="st43" d="M144.2,162.8l0.1,1.9c1.1-1.4,2.6-2.1,4.4-2.1c3.1,0,4.7,1.8,4.7,5.3v9.8h-2.5v-9.8c0-1.1-0.3-1.9-0.7-2.4
		c-0.5-0.5-1.2-0.8-2.2-0.8c-0.8,0-1.5,0.2-2.2,0.7c-0.6,0.4-1.1,1-1.4,1.7v10.5h-2.5v-14.8H144.2z"/>
	<path class="st43" d="M164.4,170.1c0-1.4,0.3-2.8,0.9-3.9c0.6-1.2,1.4-2.1,2.4-2.7c1-0.6,2.2-0.9,3.5-0.9c2,0,3.6,0.7,4.9,2.1
		s1.9,3.2,1.9,5.6v0.2c0,1.4-0.3,2.7-0.8,3.9c-0.6,1.1-1.3,2-2.4,2.7c-1,0.6-2.2,1-3.5,1c-2,0-3.6-0.7-4.9-2.1s-1.9-3.2-1.9-5.5
		V170.1z M166.9,170.4c0,1.6,0.4,3,1.1,4c0.8,1,1.8,1.5,3.1,1.5c1.3,0,2.3-0.5,3.1-1.5c0.8-1,1.1-2.4,1.1-4.2c0-1.6-0.4-2.9-1.2-3.9
		c-0.8-1-1.8-1.5-3.1-1.5c-1.2,0-2.3,0.5-3,1.5C167.3,167.1,166.9,168.5,166.9,170.4z"/>
	<path class="st43" d="M188.6,165.1c-0.4-0.1-0.8-0.1-1.2-0.1c-1.7,0-2.8,0.7-3.4,2.1v10.5h-2.5v-14.8h2.5l0,1.7c0.8-1.3,2-2,3.5-2
		c0.5,0,0.9,0.1,1.1,0.2V165.1z"/>
	<path class="st43" d="M198,170.1c0-1.4,0.3-2.8,0.9-3.9c0.6-1.2,1.4-2.1,2.4-2.7s2.2-0.9,3.5-0.9c2,0,3.6,0.7,4.9,2.1
		s1.9,3.2,1.9,5.6v0.2c0,1.4-0.3,2.7-0.8,3.9c-0.6,1.1-1.3,2-2.4,2.7c-1,0.6-2.2,1-3.5,1c-2,0-3.6-0.7-4.9-2.1s-1.9-3.2-1.9-5.5
		V170.1z M200.6,170.4c0,1.6,0.4,3,1.1,4c0.8,1,1.8,1.5,3.1,1.5c1.3,0,2.3-0.5,3.1-1.5c0.8-1,1.1-2.4,1.1-4.2c0-1.6-0.4-2.9-1.2-3.9
		c-0.8-1-1.8-1.5-3.1-1.5c-1.2,0-2.3,0.5-3,1.5C200.9,167.1,200.6,168.5,200.6,170.4z"/>
	<path class="st43" d="M219.8,174.2l3.7-11.4h2.6l-5.3,14.8h-1.9l-5.4-14.8h2.6L219.8,174.2z"/>
	<path class="st43" d="M234.8,177.9c-2,0-3.6-0.7-4.9-2c-1.3-1.3-1.9-3.1-1.9-5.3v-0.5c0-1.5,0.3-2.8,0.8-3.9
		c0.6-1.2,1.3-2.1,2.4-2.7c1-0.7,2.1-1,3.3-1c1.9,0,3.4,0.6,4.5,1.9c1.1,1.3,1.6,3.1,1.6,5.4v1.1h-10c0,1.5,0.5,2.6,1.3,3.5
		c0.8,0.9,1.9,1.3,3.1,1.3c0.9,0,1.6-0.2,2.3-0.5c0.6-0.4,1.2-0.8,1.6-1.4l1.5,1.2C239.2,176.9,237.3,177.9,234.8,177.9z
		 M234.5,164.6c-1,0-1.9,0.4-2.6,1.1c-0.7,0.7-1.1,1.8-1.3,3.1h7.4v-0.2c-0.1-1.3-0.4-2.3-1-3C236.4,165,235.6,164.6,234.5,164.6z"
		/>
	<path class="st43" d="M251.1,165.1c-0.4-0.1-0.8-0.1-1.2-0.1c-1.7,0-2.8,0.7-3.4,2.1v10.5h-2.5v-14.8h2.5l0,1.7c0.8-1.3,2-2,3.5-2
		c0.5,0,0.9,0.1,1.1,0.2V165.1z"/>
	<path class="st43" d="M51.5,192.8v3.6h2.8v2h-2.8v9.2c0,0.6,0.1,1,0.4,1.3s0.7,0.4,1.3,0.4c0.3,0,0.7-0.1,1.2-0.2v2
		c-0.7,0.2-1.3,0.3-1.9,0.3c-1.1,0-2-0.3-2.6-1s-0.9-1.7-0.9-2.9v-9.2h-2.7v-2H49v-3.6H51.5z"/>
	<path class="st43" d="M60.2,198.2c1.1-1.4,2.6-2.1,4.4-2.1c3.1,0,4.7,1.8,4.7,5.3v9.8h-2.5v-9.8c0-1.1-0.3-1.9-0.7-2.4
		c-0.5-0.5-1.2-0.8-2.2-0.8c-0.8,0-1.5,0.2-2.2,0.7c-0.6,0.4-1.1,1-1.4,1.7v10.5h-2.5v-21h2.5V198.2z"/>
	<path class="st43" d="M73.5,192.5c0-0.4,0.1-0.8,0.4-1c0.2-0.3,0.6-0.4,1.1-0.4s0.9,0.1,1.1,0.4c0.3,0.3,0.4,0.6,0.4,1
		s-0.1,0.8-0.4,1c-0.3,0.3-0.6,0.4-1.1,0.4s-0.9-0.1-1.1-0.4C73.6,193.2,73.5,192.9,73.5,192.5z M76.3,211.2h-2.5v-14.8h2.5V211.2z"
		/>
	<path class="st43" d="M83.1,196.4l0.1,1.9c1.1-1.4,2.6-2.1,4.4-2.1c3.1,0,4.7,1.8,4.7,5.3v9.8h-2.5v-9.8c0-1.1-0.3-1.9-0.7-2.4
		c-0.5-0.5-1.2-0.8-2.2-0.8c-0.8,0-1.5,0.2-2.2,0.7c-0.6,0.4-1.1,1-1.4,1.7v10.5h-2.5v-14.8H83.1z"/>
	<path class="st43" d="M109.9,209.4c0.9,0,1.7-0.3,2.4-0.8s1-1.2,1.1-2.1h2.4c0,0.8-0.3,1.7-0.9,2.4s-1.3,1.4-2.2,1.8
		s-1.8,0.7-2.9,0.7c-2,0-3.6-0.7-4.8-2c-1.2-1.3-1.8-3.2-1.8-5.5v-0.4c0-1.4,0.3-2.7,0.8-3.8s1.3-2,2.3-2.6c1-0.6,2.2-0.9,3.5-0.9
		c1.7,0,3,0.5,4.1,1.5c1.1,1,1.7,2.3,1.8,3.9h-2.4c-0.1-1-0.4-1.7-1.1-2.4s-1.5-0.9-2.4-0.9c-1.3,0-2.3,0.5-3,1.4
		c-0.7,0.9-1.1,2.3-1.1,4v0.5c0,1.7,0.4,3,1.1,3.9C107.6,209,108.6,209.4,109.9,209.4z"/>
	<path class="st43" d="M121.8,211.2h-2.5v-21h2.5V211.2z"/>
	<path class="st43" d="M125.6,203.7c0-1.4,0.3-2.8,0.9-3.9c0.6-1.2,1.4-2.1,2.4-2.7c1-0.6,2.2-0.9,3.5-0.9c2,0,3.6,0.7,4.9,2.1
		s1.9,3.2,1.9,5.6v0.2c0,1.4-0.3,2.7-0.8,3.9c-0.6,1.1-1.3,2-2.4,2.7c-1,0.6-2.2,1-3.5,1c-2,0-3.6-0.7-4.9-2.1
		c-1.2-1.4-1.9-3.2-1.9-5.5V203.7z M128.1,204c0,1.6,0.4,3,1.1,4c0.8,1,1.8,1.5,3.1,1.5c1.3,0,2.3-0.5,3.1-1.5
		c0.8-1,1.1-2.4,1.1-4.2c0-1.6-0.4-2.9-1.2-3.9c-0.8-1-1.8-1.5-3.1-1.5c-1.2,0-2.3,0.5-3,1.5C128.5,200.7,128.1,202.1,128.1,204z"/>
	<path class="st43" d="M146.1,192.8v3.6h2.8v2h-2.8v9.2c0,0.6,0.1,1,0.4,1.3s0.7,0.4,1.3,0.4c0.3,0,0.7-0.1,1.2-0.2v2
		c-0.7,0.2-1.3,0.3-1.9,0.3c-1.1,0-2-0.3-2.6-1s-0.9-1.7-0.9-2.9v-9.2h-2.7v-2h2.7v-3.6H146.1z"/>
	<path class="st43" d="M154.7,198.2c1.1-1.4,2.6-2.1,4.4-2.1c3.1,0,4.7,1.8,4.7,5.3v9.8h-2.5v-9.8c0-1.1-0.3-1.9-0.7-2.4
		c-0.5-0.5-1.2-0.8-2.2-0.8c-0.8,0-1.5,0.2-2.2,0.7s-1.1,1-1.4,1.7v10.5h-2.5v-21h2.5V198.2z"/>
	<path class="st43" d="M168,192.5c0-0.4,0.1-0.8,0.4-1c0.2-0.3,0.6-0.4,1.1-0.4s0.9,0.1,1.1,0.4c0.3,0.3,0.4,0.6,0.4,1
		s-0.1,0.8-0.4,1c-0.3,0.3-0.6,0.4-1.1,0.4s-0.9-0.1-1.1-0.4C168.2,193.2,168,192.9,168,192.5z M170.8,211.2h-2.5v-14.8h2.5V211.2z"
		/>
	<path class="st43" d="M177.6,196.4l0.1,1.9c1.1-1.4,2.6-2.1,4.4-2.1c3.1,0,4.7,1.8,4.7,5.3v9.8h-2.5v-9.8c0-1.1-0.3-1.9-0.7-2.4
		c-0.5-0.5-1.2-0.8-2.2-0.8c-0.8,0-1.5,0.2-2.2,0.7c-0.6,0.4-1.1,1-1.4,1.7v10.5h-2.5v-14.8H177.6z"/>
	<path class="st43" d="M190.5,203.7c0-2.3,0.5-4.1,1.6-5.5c1.1-1.4,2.5-2,4.2-2c1.8,0,3.2,0.6,4.2,1.9l0.1-1.6h2.3v14.4
		c0,1.9-0.6,3.4-1.7,4.5c-1.1,1.1-2.7,1.7-4.6,1.7c-1.1,0-2.1-0.2-3.1-0.7c-1-0.5-1.8-1.1-2.3-1.9l1.3-1.5c1.1,1.3,2.4,2,4,2
		c1.2,0,2.2-0.3,2.9-1c0.7-0.7,1-1.7,1-2.9v-1.3c-1,1.2-2.4,1.8-4.1,1.8c-1.7,0-3.1-0.7-4.2-2.1C191,208,190.5,206.1,190.5,203.7z
		 M193.1,204c0,1.7,0.3,3,1,3.9c0.7,1,1.6,1.4,2.9,1.4c1.6,0,2.8-0.7,3.5-2.2v-6.8c-0.8-1.4-1.9-2.1-3.5-2.1c-1.2,0-2.2,0.5-2.9,1.4
		C193.4,200.7,193.1,202.1,193.1,204z"/>
</g>
<g>
	<path class="st9" d="M411.7,74h2.3c1.1,0,1.9-0.3,2.4-0.8s0.8-1.2,0.8-2.1c0-0.9-0.3-1.5-0.8-2s-1.2-0.7-2.1-0.7
		c-0.8,0-1.5,0.2-2,0.7s-0.8,1-0.8,1.7h-4.2c0-1.1,0.3-2.1,0.9-3s1.4-1.6,2.5-2.1s2.3-0.7,3.6-0.7c2.3,0,4,0.5,5.3,1.6
		s1.9,2.6,1.9,4.5c0,1-0.3,1.9-0.9,2.7s-1.4,1.5-2.3,1.9c1.2,0.4,2.1,1.1,2.7,1.9s0.9,1.9,0.9,3c0,1.9-0.7,3.4-2.1,4.6
		s-3.2,1.7-5.5,1.7c-2.1,0-3.9-0.6-5.2-1.7s-2-2.6-2-4.5h4.2c0,0.8,0.3,1.5,0.9,2s1.3,0.8,2.2,0.8c1,0,1.8-0.3,2.4-0.8
		s0.9-1.2,0.9-2.1c0-2.1-1.2-3.2-3.5-3.2h-2.2V74z"/>
	<path class="st43" d="M434,86.5V65.2h7c2.3,0,4.1,0.5,5.2,1.4s1.8,2.4,1.8,4.2c0,1-0.3,1.9-0.8,2.6s-1.3,1.4-2.3,1.8
		c1.2,0.3,2.1,0.9,2.7,1.8s1,2,1,3.2c0,1.9-0.6,3.4-1.9,4.5s-3,1.6-5.3,1.6H434z M436.8,74.3h4.2c1.2,0,2.2-0.3,3-0.9
		s1.1-1.5,1.1-2.5c0-1.2-0.3-2-1-2.6s-1.7-0.8-3.1-0.8h-4.2V74.3z M436.8,76.6v7.7h4.6c1.3,0,2.3-0.3,3.1-1s1.1-1.6,1.1-2.8
		c0-2.6-1.4-3.9-4.2-3.9H436.8z"/>
	<path class="st43" d="M462.5,86.5c-0.2-0.3-0.3-0.9-0.4-1.7c-1.3,1.3-2.8,2-4.5,2c-1.6,0-2.8-0.4-3.8-1.3s-1.5-2-1.5-3.4
		c0-1.7,0.6-2.9,1.9-3.8s3-1.4,5.3-1.4h2.6v-1.2c0-0.9-0.3-1.7-0.8-2.3s-1.4-0.8-2.5-0.8c-1,0-1.8,0.2-2.4,0.7s-1,1.1-1,1.8h-2.7
		c0-0.8,0.3-1.6,0.8-2.3s1.3-1.3,2.3-1.8s2-0.6,3.2-0.6c1.8,0,3.3,0.5,4.3,1.4s1.6,2.2,1.6,3.8v7.3c0,1.5,0.2,2.6,0.6,3.5v0.2H462.5
		z M458,84.5c0.8,0,1.7-0.2,2.4-0.7s1.3-1,1.7-1.7v-3.3H460c-3.3,0-5,1-5,2.9c0,0.8,0.3,1.5,0.8,2S457.1,84.5,458,84.5z"/>
	<path class="st43" d="M475.8,84.6c1,0,1.8-0.3,2.5-0.9s1.1-1.3,1.2-2.2h2.6c0,0.9-0.4,1.8-0.9,2.6s-1.3,1.5-2.3,2s-2,0.7-3.1,0.7
		c-2.2,0-3.9-0.7-5.1-2.2s-1.9-3.4-1.9-5.9v-0.5c0-1.5,0.3-2.9,0.8-4.1s1.4-2.1,2.4-2.8s2.3-1,3.8-1c1.8,0,3.3,0.5,4.4,1.6
		s1.8,2.4,1.9,4.1h-2.6c-0.1-1-0.5-1.9-1.2-2.5s-1.6-1-2.6-1c-1.4,0-2.4,0.5-3.2,1.5s-1.1,2.4-1.1,4.3v0.5c0,1.8,0.4,3.2,1.1,4.2
		S474.4,84.6,475.8,84.6z"/>
	<path class="st43" d="M490.1,79.2l-1.7,1.8v5.6h-2.7V64h2.7v13.6l1.5-1.7l4.9-5.2h3.3l-6.2,6.6l6.9,9.2h-3.2L490.1,79.2z"/>
	<path class="st43" d="M518.4,82.3c0-0.7-0.3-1.3-0.8-1.7s-1.5-0.8-2.9-1s-2.5-0.6-3.3-1.1s-1.4-0.9-1.8-1.5s-0.6-1.2-0.6-2
		c0-1.3,0.5-2.4,1.6-3.3s2.5-1.3,4.2-1.3c1.8,0,3.3,0.5,4.4,1.4s1.7,2.1,1.7,3.6h-2.7c0-0.7-0.3-1.4-0.9-1.9s-1.4-0.8-2.4-0.8
		c-1,0-1.8,0.2-2.3,0.6s-0.8,1-0.8,1.7c0,0.7,0.3,1.1,0.8,1.5s1.5,0.6,2.8,1s2.4,0.7,3.3,1.1s1.5,0.9,1.9,1.5s0.6,1.3,0.6,2.2
		c0,1.4-0.6,2.6-1.7,3.4s-2.6,1.3-4.4,1.3c-1.3,0-2.4-0.2-3.4-0.7s-1.7-1.1-2.3-1.9s-0.8-1.7-0.8-2.6h2.7c0,0.9,0.4,1.6,1.1,2.2
		s1.6,0.8,2.7,0.8c1,0,1.8-0.2,2.5-0.6S518.4,83,518.4,82.3z"/>
	<path class="st43" d="M534.9,85c-1.1,1.2-2.6,1.9-4.6,1.9c-1.7,0-3-0.5-3.9-1.5S525,82.9,525,81V70.7h2.7v10.2c0,2.4,1,3.6,2.9,3.6
		c2.1,0,3.4-0.8,4.1-2.3V70.7h2.7v15.8h-2.6L534.9,85z"/>
	<path class="st43" d="M555.5,78.8c0,2.4-0.6,4.4-1.7,5.8s-2.6,2.2-4.5,2.2c-1.9,0-3.4-0.6-4.5-1.8v7.6h-2.7V70.7h2.5l0.1,1.8
		c1.1-1.4,2.6-2.1,4.6-2.1c1.9,0,3.4,0.7,4.5,2.2s1.7,3.4,1.7,6V78.8z M552.8,78.5c0-1.8-0.4-3.2-1.1-4.2s-1.8-1.6-3.1-1.6
		c-1.6,0-2.9,0.7-3.7,2.2v7.6c0.8,1.4,2.1,2.2,3.7,2.2c1.3,0,2.3-0.5,3.1-1.5S552.8,80.5,552.8,78.5z"/>
	<path class="st43" d="M572.7,78.8c0,2.4-0.6,4.4-1.7,5.8s-2.6,2.2-4.5,2.2c-1.9,0-3.4-0.6-4.5-1.8v7.6h-2.7V70.7h2.5l0.1,1.8
		c1.1-1.4,2.6-2.1,4.6-2.1c1.9,0,3.4,0.7,4.5,2.2s1.7,3.4,1.7,6V78.8z M570,78.5c0-1.8-0.4-3.2-1.1-4.2s-1.8-1.6-3.1-1.6
		c-1.6,0-2.9,0.7-3.7,2.2v7.6c0.8,1.4,2.1,2.2,3.7,2.2c1.3,0,2.3-0.5,3.1-1.5S570,80.5,570,78.5z"/>
	<path class="st43" d="M575.9,78.5c0-1.6,0.3-2.9,0.9-4.2s1.5-2.2,2.5-2.9s2.3-1,3.7-1c2.2,0,3.9,0.7,5.2,2.2s2,3.5,2,6v0.2
		c0,1.5-0.3,2.9-0.9,4.2s-1.4,2.2-2.5,2.9s-2.4,1-3.8,1c-2.1,0-3.9-0.7-5.2-2.2s-2-3.5-2-5.9V78.5z M578.6,78.8
		c0,1.8,0.4,3.2,1.2,4.2s1.9,1.6,3.3,1.6c1.4,0,2.5-0.5,3.3-1.6s1.2-2.6,1.2-4.5c0-1.7-0.4-3.1-1.2-4.2s-1.9-1.6-3.3-1.6
		c-1.3,0-2.4,0.5-3.2,1.6S578.6,76.8,578.6,78.8z"/>
	<path class="st43" d="M601.9,73.1c-0.4-0.1-0.9-0.1-1.3-0.1c-1.8,0-3,0.8-3.6,2.3v11.2h-2.7V70.7h2.6l0,1.8
		c0.9-1.4,2.1-2.1,3.8-2.1c0.5,0,0.9,0.1,1.2,0.2V73.1z"/>
	<path class="st43" d="M609.2,66.9v3.8h3v2.1h-3v9.8c0,0.6,0.1,1.1,0.4,1.4s0.7,0.5,1.3,0.5c0.3,0,0.7-0.1,1.3-0.2v2.2
		c-0.7,0.2-1.4,0.3-2.1,0.3c-1.2,0-2.1-0.4-2.7-1.1s-0.9-1.8-0.9-3.1v-9.8h-2.9v-2.1h2.9v-3.8H609.2z"/>
	<path class="st43" d="M622.4,86.8c-2.1,0-3.9-0.7-5.2-2.1s-2-3.3-2-5.7v-0.5c0-1.6,0.3-3,0.9-4.2s1.4-2.2,2.5-2.9s2.2-1,3.5-1
		c2.1,0,3.7,0.7,4.8,2s1.7,3.3,1.7,5.8v1.1h-10.7c0,1.6,0.5,2.8,1.4,3.8s2,1.4,3.3,1.4c1,0,1.8-0.2,2.4-0.6s1.2-0.9,1.7-1.6l1.7,1.3
		C627,85.8,625,86.8,622.4,86.8z M622,72.6c-1.1,0-2,0.4-2.8,1.2s-1.2,1.9-1.4,3.3h7.9V77c-0.1-1.4-0.4-2.4-1.1-3.2
		S623.2,72.6,622,72.6z"/>
	<path class="st43" d="M631.5,78.5c0-2.4,0.6-4.4,1.7-5.9s2.7-2.2,4.5-2.2c1.9,0,3.3,0.6,4.4,1.9V64h2.7v22.5h-2.5l-0.1-1.7
		c-1.1,1.3-2.6,2-4.5,2c-1.8,0-3.3-0.8-4.5-2.3s-1.7-3.5-1.7-5.9V78.5z M634.2,78.8c0,1.8,0.4,3.2,1.1,4.2s1.8,1.5,3.1,1.5
		c1.7,0,3-0.8,3.8-2.3v-7.3c-0.8-1.5-2.1-2.2-3.7-2.2c-1.3,0-2.4,0.5-3.1,1.5S634.2,76.8,634.2,78.8z"/>
</g>
<g>
	<path class="st9" d="M431.1,147.5h2.4v3.4h-2.4v4.6h-4.2v-4.6h-8.7l-0.2-2.7l8.9-14h4.3V147.5z M422.1,147.5h4.7V140l-0.3,0.5
		L422.1,147.5z"/>
	<path class="st43" d="M457,150H448l-2,5.6h-2.9l8.1-21.3h2.5l8.2,21.3H459L457,150z M448.9,147.7h7.3l-3.6-10L448.9,147.7z"/>
	<path class="st43" d="M472.4,142.1c-0.4-0.1-0.9-0.1-1.3-0.1c-1.8,0-3,0.8-3.6,2.3v11.2h-2.7v-15.8h2.6l0,1.8
		c0.9-1.4,2.1-2.1,3.8-2.1c0.5,0,0.9,0.1,1.2,0.2V142.1z"/>
	<path class="st43" d="M477.9,139.7l0.1,1.8c1.2-1.4,2.7-2.1,4.7-2.1c2.2,0,3.7,0.8,4.5,2.5c0.5-0.8,1.2-1.4,2.1-1.8s1.8-0.7,3-0.7
		c3.5,0,5.2,1.8,5.3,5.5v10.6h-2.7v-10.5c0-1.1-0.3-2-0.8-2.5s-1.4-0.8-2.6-0.8c-1,0-1.8,0.3-2.5,0.9s-1,1.4-1.2,2.4v10.5h-2.7
		v-10.4c0-2.3-1.1-3.5-3.4-3.5c-1.8,0-3,0.8-3.6,2.3v11.6h-2.7v-15.8H477.9z"/>
	<path class="st43" d="M519.2,151.3c0-0.7-0.3-1.3-0.8-1.7s-1.5-0.8-2.9-1s-2.5-0.6-3.3-1.1s-1.4-0.9-1.8-1.5s-0.6-1.2-0.6-2
		c0-1.3,0.5-2.4,1.6-3.3s2.5-1.3,4.2-1.3c1.8,0,3.3,0.5,4.4,1.4s1.7,2.1,1.7,3.6h-2.7c0-0.7-0.3-1.4-0.9-1.9s-1.4-0.8-2.4-0.8
		c-1,0-1.8,0.2-2.3,0.6s-0.8,1-0.8,1.7c0,0.7,0.3,1.1,0.8,1.5s1.5,0.6,2.8,1s2.4,0.7,3.3,1.1s1.5,0.9,1.9,1.5s0.6,1.3,0.6,2.2
		c0,1.4-0.6,2.6-1.7,3.4s-2.6,1.3-4.4,1.3c-1.3,0-2.4-0.2-3.4-0.7s-1.7-1.1-2.3-1.9s-0.8-1.7-0.8-2.6h2.7c0,0.9,0.4,1.6,1.1,2.2
		s1.6,0.8,2.7,0.8c1,0,1.8-0.2,2.5-0.6S519.2,152,519.2,151.3z"/>
	<path class="st43" d="M535.7,154c-1.1,1.2-2.6,1.9-4.6,1.9c-1.7,0-3-0.5-3.9-1.5s-1.3-2.4-1.3-4.4v-10.3h2.7v10.2
		c0,2.4,1,3.6,2.9,3.6c2.1,0,3.4-0.8,4.1-2.3v-11.5h2.7v15.8h-2.6L535.7,154z"/>
	<path class="st43" d="M556.3,147.8c0,2.4-0.6,4.4-1.7,5.8s-2.6,2.2-4.5,2.2c-1.9,0-3.4-0.6-4.5-1.8v7.6h-2.7v-21.9h2.5l0.1,1.8
		c1.1-1.4,2.6-2.1,4.6-2.1c1.9,0,3.4,0.7,4.5,2.2s1.7,3.4,1.7,6V147.8z M553.6,147.5c0-1.8-0.4-3.2-1.1-4.2s-1.8-1.6-3.1-1.6
		c-1.6,0-2.9,0.7-3.7,2.2v7.6c0.8,1.4,2.1,2.2,3.7,2.2c1.3,0,2.3-0.5,3.1-1.5S553.6,149.5,553.6,147.5z"/>
	<path class="st43" d="M573.6,147.8c0,2.4-0.6,4.4-1.7,5.8s-2.6,2.2-4.5,2.2c-1.9,0-3.4-0.6-4.5-1.8v7.6h-2.7v-21.9h2.5l0.1,1.8
		c1.1-1.4,2.6-2.1,4.6-2.1c1.9,0,3.4,0.7,4.5,2.2s1.7,3.4,1.7,6V147.8z M570.9,147.5c0-1.8-0.4-3.2-1.1-4.2s-1.8-1.6-3.1-1.6
		c-1.6,0-2.9,0.7-3.7,2.2v7.6c0.8,1.4,2.1,2.2,3.7,2.2c1.3,0,2.3-0.5,3.1-1.5S570.9,149.5,570.9,147.5z"/>
	<path class="st43" d="M576.7,147.5c0-1.6,0.3-2.9,0.9-4.2s1.5-2.2,2.5-2.9s2.3-1,3.7-1c2.2,0,3.9,0.7,5.2,2.2s2,3.5,2,6v0.2
		c0,1.5-0.3,2.9-0.9,4.2s-1.4,2.2-2.5,2.9s-2.4,1-3.8,1c-2.1,0-3.9-0.7-5.2-2.2s-2-3.5-2-5.9V147.5z M579.5,147.8
		c0,1.8,0.4,3.2,1.2,4.2s1.9,1.6,3.3,1.6c1.4,0,2.5-0.5,3.3-1.6s1.2-2.6,1.2-4.5c0-1.7-0.4-3.1-1.2-4.2s-1.9-1.6-3.3-1.6
		c-1.3,0-2.4,0.5-3.2,1.6S579.5,145.8,579.5,147.8z"/>
	<path class="st43" d="M602.7,142.1c-0.4-0.1-0.9-0.1-1.3-0.1c-1.8,0-3,0.8-3.6,2.3v11.2H595v-15.8h2.6l0,1.8
		c0.9-1.4,2.1-2.1,3.8-2.1c0.5,0,0.9,0.1,1.2,0.2V142.1z"/>
	<path class="st43" d="M610,135.9v3.8h3v2.1h-3v9.8c0,0.6,0.1,1.1,0.4,1.4s0.7,0.5,1.3,0.5c0.3,0,0.7-0.1,1.3-0.2v2.2
		c-0.7,0.2-1.4,0.3-2.1,0.3c-1.2,0-2.1-0.4-2.7-1.1s-0.9-1.8-0.9-3.1v-9.8h-2.9v-2.1h2.9v-3.8H610z"/>
	<path class="st43" d="M623.2,155.8c-2.1,0-3.9-0.7-5.2-2.1s-2-3.3-2-5.7v-0.5c0-1.6,0.3-3,0.9-4.2s1.4-2.2,2.5-2.9s2.2-1,3.5-1
		c2.1,0,3.7,0.7,4.8,2s1.7,3.3,1.7,5.8v1.1h-10.7c0,1.6,0.5,2.8,1.4,3.8s2,1.4,3.3,1.4c1,0,1.8-0.2,2.4-0.6s1.2-0.9,1.7-1.6l1.7,1.3
		C627.8,154.8,625.8,155.8,623.2,155.8z M622.8,141.6c-1.1,0-2,0.4-2.8,1.2s-1.2,1.9-1.4,3.3h7.9V146c-0.1-1.4-0.4-2.4-1.1-3.2
		S624,141.6,622.8,141.6z"/>
	<path class="st43" d="M632.3,147.5c0-2.4,0.6-4.4,1.7-5.9s2.7-2.2,4.5-2.2c1.9,0,3.3,0.6,4.4,1.9V133h2.7v22.5h-2.5l-0.1-1.7
		c-1.1,1.3-2.6,2-4.5,2c-1.8,0-3.3-0.8-4.5-2.3s-1.7-3.5-1.7-5.9V147.5z M635,147.8c0,1.8,0.4,3.2,1.1,4.2s1.8,1.5,3.1,1.5
		c1.7,0,3-0.8,3.8-2.3v-7.3c-0.8-1.5-2.1-2.2-3.7-2.2c-1.3,0-2.4,0.5-3.1,1.5S635,145.8,635,147.8z"/>
</g>
<g>
	<path class="st9" d="M392.5,343.9l1.2-10.8h12v3.5h-8.5l-0.5,4.6c1-0.5,2.1-0.8,3.2-0.8c2,0,3.6,0.6,4.8,1.9s1.7,3,1.7,5.3
		c0,1.4-0.3,2.6-0.9,3.7s-1.4,1.9-2.5,2.5s-2.4,0.9-3.8,0.9c-1.3,0-2.5-0.3-3.6-0.8s-2-1.3-2.6-2.2s-1-2-1-3.2h4.2
		c0.1,0.9,0.4,1.6,0.9,2.1s1.2,0.7,2.1,0.7c1,0,1.7-0.3,2.2-1s0.8-1.7,0.8-2.9c0-1.2-0.3-2.1-0.9-2.8s-1.4-1-2.5-1
		c-1,0-1.8,0.3-2.4,0.8l-0.4,0.4L392.5,343.9z"/>
	<path class="st43" d="M426.3,345.7h-5v8.6h-2.8V333h7.1c2.4,0,4.2,0.5,5.5,1.6s1.9,2.7,1.9,4.8c0,1.3-0.4,2.5-1.1,3.5
		s-1.7,1.7-3,2.2l5,9.1v0.2h-3L426.3,345.7z M421.3,343.4h4.3c1.4,0,2.5-0.4,3.3-1.1c0.8-0.7,1.2-1.7,1.2-2.9c0-1.3-0.4-2.3-1.2-3
		c-0.8-0.7-1.9-1.1-3.4-1.1h-4.3V343.4z"/>
	<path class="st43" d="M443.6,354.7c-2.1,0-3.9-0.7-5.2-2.1s-2-3.3-2-5.7v-0.5c0-1.6,0.3-3,0.9-4.2s1.4-2.2,2.5-2.9s2.2-1,3.5-1
		c2.1,0,3.7,0.7,4.8,2s1.7,3.3,1.7,5.8v1.1H439c0,1.6,0.5,2.8,1.4,3.8s2,1.4,3.3,1.4c1,0,1.8-0.2,2.4-0.6s1.2-0.9,1.7-1.6l1.7,1.3
		C448.2,353.6,446.2,354.7,443.6,354.7z M443.2,340.5c-1.1,0-2,0.4-2.8,1.2s-1.2,1.9-1.4,3.3h7.9v-0.2c-0.1-1.4-0.4-2.4-1.1-3.2
		S444.4,340.5,443.2,340.5z"/>
	<path class="st43" d="M459.7,352.4c1,0,1.8-0.3,2.5-0.9s1.1-1.3,1.2-2.2h2.6c0,0.9-0.4,1.8-0.9,2.6s-1.3,1.5-2.3,2s-2,0.7-3.1,0.7
		c-2.2,0-3.9-0.7-5.1-2.2s-1.9-3.4-1.9-5.9v-0.5c0-1.5,0.3-2.9,0.8-4.1s1.4-2.1,2.4-2.8s2.3-1,3.8-1c1.8,0,3.3,0.5,4.4,1.6
		s1.8,2.4,1.9,4.1h-2.6c-0.1-1-0.5-1.9-1.2-2.5s-1.6-1-2.6-1c-1.4,0-2.4,0.5-3.2,1.5s-1.1,2.4-1.1,4.3v0.5c0,1.8,0.4,3.2,1.1,4.2
		S458.3,352.4,459.7,352.4z"/>
	<path class="st43" d="M468.8,346.3c0-1.6,0.3-2.9,0.9-4.2s1.5-2.2,2.5-2.9s2.3-1,3.7-1c2.2,0,3.9,0.7,5.2,2.2s2,3.5,2,6v0.2
		c0,1.5-0.3,2.9-0.9,4.2s-1.4,2.2-2.5,2.9s-2.4,1-3.8,1c-2.1,0-3.9-0.7-5.2-2.2s-2-3.5-2-5.9V346.3z M471.5,346.6
		c0,1.8,0.4,3.2,1.2,4.2s1.9,1.6,3.3,1.6c1.4,0,2.5-0.5,3.3-1.6s1.2-2.6,1.2-4.5c0-1.7-0.4-3.1-1.2-4.2s-1.9-1.6-3.3-1.6
		c-1.3,0-2.4,0.5-3.2,1.6S471.5,344.6,471.5,346.6z"/>
	<path class="st43" d="M494.7,340.9c-0.4-0.1-0.9-0.1-1.3-0.1c-1.8,0-3,0.8-3.6,2.3v11.2H487v-15.8h2.6l0,1.8
		c0.9-1.4,2.1-2.1,3.8-2.1c0.5,0,0.9,0.1,1.2,0.2V340.9z"/>
	<path class="st43" d="M496.7,346.3c0-2.4,0.6-4.4,1.7-5.9s2.7-2.2,4.5-2.2c1.9,0,3.3,0.6,4.4,1.9v-8.3h2.7v22.5h-2.5l-0.1-1.7
		c-1.1,1.3-2.6,2-4.5,2c-1.8,0-3.3-0.8-4.5-2.3s-1.7-3.5-1.7-5.9V346.3z M499.4,346.6c0,1.8,0.4,3.2,1.1,4.2s1.8,1.5,3.1,1.5
		c1.7,0,3-0.8,3.8-2.3v-7.3c-0.8-1.5-2.1-2.2-3.7-2.2c-1.3,0-2.4,0.5-3.1,1.5S499.4,344.6,499.4,346.6z"/>
	<path class="st43" d="M529.2,354.7c-2.1,0-3.9-0.7-5.2-2.1s-2-3.3-2-5.7v-0.5c0-1.6,0.3-3,0.9-4.2s1.4-2.2,2.5-2.9s2.2-1,3.5-1
		c2.1,0,3.7,0.7,4.8,2s1.7,3.3,1.7,5.8v1.1h-10.7c0,1.6,0.5,2.8,1.4,3.8s2,1.4,3.3,1.4c1,0,1.8-0.2,2.4-0.6s1.2-0.9,1.7-1.6l1.7,1.3
		C533.8,353.6,531.8,354.7,529.2,354.7z M528.9,340.5c-1.1,0-2,0.4-2.8,1.2s-1.2,1.9-1.4,3.3h7.9v-0.2c-0.1-1.4-0.4-2.4-1.1-3.2
		S530,340.5,528.9,340.5z"/>
	<path class="st43" d="M544.3,344.3l3.5-5.8h3.2l-5.2,7.8l5.3,8H548l-3.7-5.9l-3.7,5.9h-3.1l5.3-8l-5.2-7.8h3.1L544.3,344.3z"/>
	<path class="st43" d="M564.1,354.4c-0.2-0.3-0.3-0.9-0.4-1.7c-1.3,1.3-2.8,2-4.5,2c-1.6,0-2.8-0.4-3.8-1.3s-1.5-2-1.5-3.4
		c0-1.7,0.6-2.9,1.9-3.8s3-1.4,5.3-1.4h2.6v-1.2c0-0.9-0.3-1.7-0.8-2.3s-1.4-0.8-2.5-0.8c-1,0-1.8,0.2-2.4,0.7s-1,1.1-1,1.8h-2.7
		c0-0.8,0.3-1.6,0.8-2.3s1.3-1.3,2.3-1.8s2-0.6,3.2-0.6c1.8,0,3.3,0.5,4.3,1.4s1.6,2.2,1.6,3.8v7.3c0,1.5,0.2,2.6,0.6,3.5v0.2H564.1
		z M559.6,352.3c0.8,0,1.7-0.2,2.4-0.7s1.3-1,1.7-1.7v-3.3h-2.1c-3.3,0-5,1-5,2.9c0,0.8,0.3,1.5,0.8,2S558.7,352.3,559.6,352.3z"/>
	<path class="st43" d="M577.4,352.4c1,0,1.8-0.3,2.5-0.9s1.1-1.3,1.2-2.2h2.6c0,0.9-0.4,1.8-0.9,2.6s-1.3,1.5-2.3,2s-2,0.7-3.1,0.7
		c-2.2,0-3.9-0.7-5.1-2.2s-1.9-3.4-1.9-5.9v-0.5c0-1.5,0.3-2.9,0.8-4.1s1.4-2.1,2.4-2.8s2.3-1,3.8-1c1.8,0,3.3,0.5,4.4,1.6
		s1.8,2.4,1.9,4.1h-2.6c-0.1-1-0.5-1.9-1.2-2.5s-1.6-1-2.6-1c-1.4,0-2.4,0.5-3.2,1.5s-1.1,2.4-1.1,4.3v0.5c0,1.8,0.4,3.2,1.1,4.2
		S576,352.4,577.4,352.4z"/>
	<path class="st43" d="M590.9,334.7v3.8h3v2.1h-3v9.8c0,0.6,0.1,1.1,0.4,1.4c0.3,0.3,0.7,0.5,1.3,0.5c0.3,0,0.7-0.1,1.3-0.2v2.2
		c-0.7,0.2-1.4,0.3-2.1,0.3c-1.2,0-2.1-0.4-2.7-1.1s-0.9-1.8-0.9-3.1v-9.8h-2.9v-2.1h2.9v-3.8H590.9z"/>
	<path class="st43" d="M605.7,354.4V333h7c2.3,0,4.1,0.5,5.2,1.4s1.8,2.4,1.8,4.2c0,1-0.3,1.9-0.8,2.6s-1.3,1.4-2.3,1.8
		c1.2,0.3,2.1,0.9,2.7,1.8s1,2,1,3.2c0,1.9-0.6,3.4-1.9,4.5s-3,1.6-5.3,1.6H605.7z M608.6,342.1h4.2c1.2,0,2.2-0.3,3-0.9
		c0.7-0.6,1.1-1.5,1.1-2.5c0-1.2-0.3-2-1-2.6s-1.7-0.8-3.1-0.8h-4.2V342.1z M608.6,344.4v7.7h4.6c1.3,0,2.3-0.3,3.1-1
		s1.1-1.6,1.1-2.8c0-2.6-1.4-3.9-4.2-3.9H608.6z"/>
	<path class="st43" d="M627.7,346v8.3h-2.8V333h7.9c2.3,0,4.2,0.6,5.5,1.8c1.3,1.2,2,2.8,2,4.7c0,2.1-0.6,3.7-1.9,4.8
		c-1.3,1.1-3.1,1.7-5.6,1.7H627.7z M627.7,343.7h5.1c1.5,0,2.7-0.4,3.5-1.1s1.2-1.7,1.2-3.1c0-1.3-0.4-2.3-1.2-3.1
		c-0.8-0.8-1.9-1.2-3.3-1.2h-5.2V343.7z"/>
</g>
<g>
	<path class="st9" d="M366.7,406.5v3.5h-0.4c-1.9,0-3.5,0.5-4.6,1.5s-1.9,2.3-2.1,4c1.1-1.2,2.6-1.7,4.3-1.7c1.9,0,3.3,0.7,4.4,2
		s1.6,3.1,1.6,5.2c0,1.4-0.3,2.6-0.9,3.8s-1.5,2-2.5,2.6s-2.3,0.9-3.7,0.9c-2.2,0-4.1-0.8-5.4-2.3s-2.1-3.6-2.1-6.3v-1.5
		c0-2.3,0.4-4.4,1.3-6.1s2.1-3.1,3.8-4.1s3.5-1.5,5.7-1.5H366.7z M362.5,417.1c-0.7,0-1.3,0.2-1.9,0.5s-1,0.8-1.2,1.4v1.3
		c0,1.4,0.3,2.5,0.8,3.3c0.6,0.8,1.3,1.2,2.3,1.2c0.9,0,1.6-0.4,2.2-1.1c0.6-0.7,0.8-1.6,0.8-2.8c0-1.2-0.3-2.1-0.8-2.8
		C364.3,417.5,363.5,417.1,362.5,417.1z"/>
	<path class="st43" d="M384.6,425.7h10.1v2.3h-12.9v-21.3h2.8V425.7z"/>
	<path class="st43" d="M404.5,428.3c-2.1,0-3.9-0.7-5.2-2.1s-2-3.3-2-5.7V420c0-1.6,0.3-3,0.9-4.2s1.4-2.2,2.5-2.9s2.2-1,3.5-1
		c2.1,0,3.7,0.7,4.8,2s1.7,3.3,1.7,5.8v1.1H400c0,1.6,0.5,2.8,1.4,3.8s2,1.4,3.3,1.4c1,0,1.8-0.2,2.4-0.6s1.2-0.9,1.7-1.6l1.7,1.3
		C409.2,427.3,407.2,428.3,404.5,428.3z M404.2,414.1c-1.1,0-2,0.4-2.8,1.2s-1.2,1.9-1.4,3.3h7.9v-0.2c-0.1-1.4-0.4-2.4-1.1-3.2
		S405.3,414.1,404.2,414.1z"/>
	<path class="st43" d="M413.7,419.9c0-2.5,0.6-4.4,1.7-5.9s2.7-2.2,4.5-2.2c1.9,0,3.4,0.7,4.5,2.1l0.1-1.8h2.5v15.5
		c0,2.1-0.6,3.7-1.8,4.8s-2.8,1.8-4.9,1.8c-1.1,0-2.3-0.2-3.4-0.7s-1.9-1.2-2.5-2l1.4-1.6c1.2,1.4,2.6,2.2,4.3,2.2
		c1.3,0,2.3-0.4,3.1-1.1s1.1-1.8,1.1-3.1v-1.4c-1.1,1.2-2.6,1.9-4.4,1.9c-1.9,0-3.4-0.7-4.5-2.2S413.7,422.5,413.7,419.9z
		 M416.4,420.3c0,1.8,0.4,3.2,1.1,4.2s1.8,1.5,3.1,1.5c1.7,0,3-0.8,3.8-2.3v-7.2c-0.8-1.5-2.1-2.3-3.7-2.3c-1.3,0-2.3,0.5-3.1,1.5
		S416.4,418.2,416.4,420.3z"/>
	<path class="st43" d="M440.8,423.8c0-0.7-0.3-1.3-0.8-1.7s-1.5-0.8-2.9-1s-2.5-0.6-3.3-1.1s-1.4-0.9-1.8-1.5s-0.6-1.2-0.6-2
		c0-1.3,0.5-2.4,1.6-3.3s2.5-1.3,4.2-1.3c1.8,0,3.3,0.5,4.4,1.4s1.7,2.1,1.7,3.6h-2.7c0-0.7-0.3-1.4-0.9-1.9s-1.4-0.8-2.4-0.8
		c-1,0-1.8,0.2-2.3,0.6s-0.8,1-0.8,1.7c0,0.7,0.3,1.1,0.8,1.5s1.5,0.6,2.8,1s2.4,0.7,3.3,1.1s1.5,0.9,1.9,1.5s0.6,1.3,0.6,2.2
		c0,1.4-0.6,2.6-1.7,3.4s-2.6,1.3-4.4,1.3c-1.3,0-2.4-0.2-3.4-0.7s-1.7-1.1-2.3-1.9s-0.8-1.7-0.8-2.6h2.7c0,0.9,0.4,1.6,1.1,2.2
		s1.6,0.8,2.7,0.8c1,0,1.8-0.2,2.5-0.6S440.8,424.5,440.8,423.8z"/>
	<path class="st43" d="M465.2,426.4c-1.1,1.2-2.6,1.9-4.6,1.9c-1.7,0-3-0.5-3.9-1.5s-1.3-2.4-1.3-4.4v-10.3h2.7v10.2
		c0,2.4,1,3.6,2.9,3.6c2.1,0,3.4-0.8,4.1-2.3v-11.5h2.7V428h-2.6L465.2,426.4z"/>
	<path class="st43" d="M474.9,412.2l0.1,2c1.2-1.5,2.8-2.3,4.7-2.3c3.3,0,5,1.9,5.1,5.7V428h-2.7v-10.5c0-1.1-0.3-2-0.8-2.5
		s-1.3-0.8-2.4-0.8c-0.9,0-1.7,0.2-2.3,0.7s-1.2,1.1-1.6,1.8V428h-2.7v-15.8H474.9z"/>
	<path class="st43" d="M495.7,426.1c1,0,1.8-0.3,2.5-0.9s1.1-1.3,1.2-2.2h2.6c0,0.9-0.4,1.8-0.9,2.6s-1.3,1.5-2.3,2s-2,0.7-3.1,0.7
		c-2.2,0-3.9-0.7-5.1-2.2s-1.9-3.4-1.9-5.9v-0.5c0-1.5,0.3-2.9,0.8-4.1s1.4-2.1,2.4-2.8s2.3-1,3.8-1c1.8,0,3.3,0.5,4.4,1.6
		s1.8,2.4,1.9,4.1h-2.6c-0.1-1-0.5-1.9-1.2-2.5s-1.6-1-2.6-1c-1.4,0-2.4,0.5-3.2,1.5s-1.1,2.4-1.1,4.3v0.5c0,1.8,0.4,3.2,1.1,4.2
		S494.3,426.1,495.7,426.1z"/>
	<path class="st43" d="M513.2,414.6c-0.4-0.1-0.9-0.1-1.3-0.1c-1.8,0-3,0.8-3.6,2.3V428h-2.7v-15.8h2.6l0,1.8
		c0.9-1.4,2.1-2.1,3.8-2.1c0.5,0,0.9,0.1,1.2,0.2V414.6z"/>
	<path class="st43" d="M515.1,419.9c0-1.6,0.3-2.9,0.9-4.2s1.5-2.2,2.5-2.9s2.3-1,3.7-1c2.2,0,3.9,0.7,5.2,2.2s2,3.5,2,6v0.2
		c0,1.5-0.3,2.9-0.9,4.2s-1.4,2.2-2.5,2.9s-2.4,1-3.8,1c-2.1,0-3.9-0.7-5.2-2.2s-2-3.5-2-5.9V419.9z M517.8,420.3
		c0,1.8,0.4,3.2,1.2,4.2s1.9,1.6,3.3,1.6c1.4,0,2.5-0.5,3.3-1.6s1.2-2.6,1.2-4.5c0-1.7-0.4-3.1-1.2-4.2s-1.9-1.6-3.3-1.6
		c-1.3,0-2.4,0.5-3.2,1.6S517.8,418.3,517.8,420.3z"/>
	<path class="st43" d="M542.6,423.8c0-0.7-0.3-1.3-0.8-1.7s-1.5-0.8-2.9-1s-2.5-0.6-3.3-1.1s-1.4-0.9-1.8-1.5s-0.6-1.2-0.6-2
		c0-1.3,0.5-2.4,1.6-3.3s2.5-1.3,4.2-1.3c1.8,0,3.3,0.5,4.4,1.4s1.7,2.1,1.7,3.6h-2.7c0-0.7-0.3-1.4-0.9-1.9s-1.4-0.8-2.4-0.8
		c-1,0-1.8,0.2-2.3,0.6s-0.8,1-0.8,1.7c0,0.7,0.3,1.1,0.8,1.5s1.5,0.6,2.8,1s2.4,0.7,3.3,1.1s1.5,0.9,1.9,1.5s0.6,1.3,0.6,2.2
		c0,1.4-0.6,2.6-1.7,3.4s-2.6,1.3-4.4,1.3c-1.3,0-2.4-0.2-3.4-0.7s-1.7-1.1-2.3-1.9s-0.8-1.7-0.8-2.6h2.7c0,0.9,0.4,1.6,1.1,2.2
		s1.6,0.8,2.7,0.8c1,0,1.8-0.2,2.5-0.6S542.6,424.5,542.6,423.8z"/>
	<path class="st43" d="M558.5,423.8c0-0.7-0.3-1.3-0.8-1.7s-1.5-0.8-2.9-1s-2.5-0.6-3.3-1.1s-1.4-0.9-1.8-1.5s-0.6-1.2-0.6-2
		c0-1.3,0.5-2.4,1.6-3.3s2.5-1.3,4.2-1.3c1.8,0,3.3,0.5,4.4,1.4s1.7,2.1,1.7,3.6h-2.7c0-0.7-0.3-1.4-0.9-1.9s-1.4-0.8-2.4-0.8
		c-1,0-1.8,0.2-2.3,0.6s-0.8,1-0.8,1.7c0,0.7,0.3,1.1,0.8,1.5s1.5,0.6,2.8,1s2.4,0.7,3.3,1.1s1.5,0.9,1.9,1.5s0.6,1.3,0.6,2.2
		c0,1.4-0.6,2.6-1.7,3.4s-2.6,1.3-4.4,1.3c-1.3,0-2.4-0.2-3.4-0.7s-1.7-1.1-2.3-1.9s-0.8-1.7-0.8-2.6h2.7c0,0.9,0.4,1.6,1.1,2.2
		s1.6,0.8,2.7,0.8c1,0,1.8-0.2,2.5-0.6S558.5,424.5,558.5,423.8z"/>
	<path class="st43" d="M571.8,428.3c-2.1,0-3.9-0.7-5.2-2.1s-2-3.3-2-5.7V420c0-1.6,0.3-3,0.9-4.2s1.4-2.2,2.5-2.9s2.2-1,3.5-1
		c2.1,0,3.7,0.7,4.8,2s1.7,3.3,1.7,5.8v1.1h-10.7c0,1.6,0.5,2.8,1.4,3.8s2,1.4,3.3,1.4c1,0,1.8-0.2,2.4-0.6s1.2-0.9,1.7-1.6l1.7,1.3
		C576.5,427.3,574.5,428.3,571.8,428.3z M571.5,414.1c-1.1,0-2,0.4-2.8,1.2s-1.2,1.9-1.4,3.3h7.9v-0.2c-0.1-1.4-0.4-2.4-1.1-3.2
		S572.6,414.1,571.5,414.1z"/>
	<path class="st43" d="M580.9,419.9c0-2.4,0.6-4.4,1.7-5.9s2.7-2.2,4.5-2.2c1.9,0,3.3,0.6,4.4,1.9v-8.3h2.7V428h-2.5l-0.1-1.7
		c-1.1,1.3-2.6,2-4.5,2c-1.8,0-3.3-0.8-4.5-2.3s-1.7-3.5-1.7-5.9V419.9z M583.6,420.3c0,1.8,0.4,3.2,1.1,4.2s1.8,1.5,3.1,1.5
		c1.7,0,3-0.8,3.8-2.3v-7.3c-0.8-1.5-2.1-2.2-3.7-2.2c-1.3,0-2.4,0.5-3.1,1.5S583.6,418.2,583.6,420.3z"/>
	<path class="st43" d="M377.9,464v-13.8h-2.5v-2.1h2.5v-1.6c0-1.7,0.5-3,1.4-3.9s2.2-1.4,3.9-1.4c0.6,0,1.2,0.1,1.9,0.2l-0.1,2.2
		c-0.5-0.1-0.9-0.1-1.5-0.1c-0.9,0-1.6,0.3-2,0.8c-0.5,0.5-0.7,1.3-0.7,2.2v1.7h3.4v2.1h-3.4V464H377.9z"/>
	<path class="st43" d="M393.6,464.3c-2.1,0-3.9-0.7-5.2-2.1s-2-3.3-2-5.7V456c0-1.6,0.3-3,0.9-4.2s1.4-2.2,2.5-2.9s2.2-1,3.5-1
		c2.1,0,3.7,0.7,4.8,2s1.7,3.3,1.7,5.8v1.1h-10.7c0,1.6,0.5,2.8,1.4,3.8s2,1.4,3.3,1.4c1,0,1.8-0.2,2.4-0.6s1.2-0.9,1.7-1.6l1.7,1.3
		C398.3,463.3,396.3,464.3,393.6,464.3z M393.3,450.1c-1.1,0-2,0.4-2.8,1.2s-1.2,1.9-1.4,3.3h7.9v-0.2c-0.1-1.4-0.4-2.4-1.1-3.2
		S394.4,450.1,393.3,450.1z"/>
	<path class="st43" d="M410,464.3c-2.1,0-3.9-0.7-5.2-2.1s-2-3.3-2-5.7V456c0-1.6,0.3-3,0.9-4.2s1.4-2.2,2.5-2.9s2.2-1,3.5-1
		c2.1,0,3.7,0.7,4.8,2s1.7,3.3,1.7,5.8v1.1h-10.7c0,1.6,0.5,2.8,1.4,3.8s2,1.4,3.3,1.4c1,0,1.8-0.2,2.4-0.6s1.2-0.9,1.7-1.6l1.7,1.3
		C414.6,463.3,412.6,464.3,410,464.3z M409.6,450.1c-1.1,0-2,0.4-2.8,1.2s-1.2,1.9-1.4,3.3h7.9v-0.2c-0.1-1.4-0.4-2.4-1.1-3.2
		S410.8,450.1,409.6,450.1z"/>
	<path class="st43" d="M423.4,444.3v3.8h3v2.1h-3v9.8c0,0.6,0.1,1.1,0.4,1.4c0.3,0.3,0.7,0.5,1.3,0.5c0.3,0,0.7-0.1,1.3-0.2v2.2
		c-0.7,0.2-1.4,0.3-2.1,0.3c-1.2,0-2.1-0.4-2.7-1.1s-0.9-1.8-0.9-3.1v-9.8h-2.9v-2.1h2.9v-3.8H423.4z"/>
	<path class="st43" d="M447.1,459.8c0-0.7-0.3-1.3-0.8-1.7s-1.5-0.8-2.9-1s-2.5-0.6-3.3-1.1s-1.4-0.9-1.8-1.5s-0.6-1.2-0.6-2
		c0-1.3,0.5-2.4,1.6-3.3s2.5-1.3,4.2-1.3c1.8,0,3.3,0.5,4.4,1.4s1.7,2.1,1.7,3.6h-2.7c0-0.7-0.3-1.4-0.9-1.9s-1.4-0.8-2.4-0.8
		c-1,0-1.8,0.2-2.3,0.6s-0.8,1-0.8,1.7c0,0.7,0.3,1.1,0.8,1.5s1.5,0.6,2.8,1s2.4,0.7,3.3,1.1s1.5,0.9,1.9,1.5s0.6,1.3,0.6,2.2
		c0,1.4-0.6,2.6-1.7,3.4s-2.6,1.3-4.4,1.3c-1.3,0-2.4-0.2-3.4-0.7s-1.7-1.1-2.3-1.9s-0.8-1.7-0.8-2.6h2.7c0,0.9,0.4,1.6,1.1,2.2
		s1.6,0.8,2.7,0.8c1,0,1.8-0.2,2.5-0.6S447.1,460.5,447.1,459.8z"/>
	<path class="st43" d="M463.6,462.4c-1.1,1.2-2.6,1.9-4.6,1.9c-1.7,0-3-0.5-3.9-1.5s-1.3-2.4-1.3-4.4v-10.3h2.7v10.2
		c0,2.4,1,3.6,2.9,3.6c2.1,0,3.4-0.8,4.1-2.3v-11.5h2.7V464h-2.6L463.6,462.4z"/>
	<path class="st43" d="M484.2,456.3c0,2.4-0.6,4.4-1.7,5.8s-2.6,2.2-4.5,2.2c-1.9,0-3.4-0.6-4.5-1.8v7.6h-2.7v-21.9h2.5l0.1,1.8
		c1.1-1.4,2.6-2.1,4.6-2.1c1.9,0,3.4,0.7,4.5,2.2s1.7,3.4,1.7,6V456.3z M481.5,455.9c0-1.8-0.4-3.2-1.1-4.2s-1.8-1.6-3.1-1.6
		c-1.6,0-2.9,0.7-3.7,2.2v7.6c0.8,1.4,2.1,2.2,3.7,2.2c1.3,0,2.3-0.5,3.1-1.5S481.5,458,481.5,455.9z"/>
	<path class="st43" d="M501.4,456.3c0,2.4-0.6,4.4-1.7,5.8s-2.6,2.2-4.5,2.2c-1.9,0-3.4-0.6-4.5-1.8v7.6h-2.7v-21.9h2.5l0.1,1.8
		c1.1-1.4,2.6-2.1,4.6-2.1c1.9,0,3.4,0.7,4.5,2.2s1.7,3.4,1.7,6V456.3z M498.7,455.9c0-1.8-0.4-3.2-1.1-4.2s-1.8-1.6-3.1-1.6
		c-1.6,0-2.9,0.7-3.7,2.2v7.6c0.8,1.4,2.1,2.2,3.7,2.2c1.3,0,2.3-0.5,3.1-1.5S498.7,458,498.7,455.9z"/>
	<path class="st43" d="M504.6,455.9c0-1.6,0.3-2.9,0.9-4.2s1.5-2.2,2.5-2.9s2.3-1,3.7-1c2.2,0,3.9,0.7,5.2,2.2s2,3.5,2,6v0.2
		c0,1.5-0.3,2.9-0.9,4.2s-1.4,2.2-2.5,2.9s-2.4,1-3.8,1c-2.1,0-3.9-0.7-5.2-2.2s-2-3.5-2-5.9V455.9z M507.3,456.3
		c0,1.8,0.4,3.2,1.2,4.2s1.9,1.6,3.3,1.6c1.4,0,2.5-0.5,3.3-1.6s1.2-2.6,1.2-4.5c0-1.7-0.4-3.1-1.2-4.2s-1.9-1.6-3.3-1.6
		c-1.3,0-2.4,0.5-3.2,1.6S507.3,454.3,507.3,456.3z"/>
	<path class="st43" d="M530.6,450.6c-0.4-0.1-0.9-0.1-1.3-0.1c-1.8,0-3,0.8-3.6,2.3V464h-2.7v-15.8h2.6l0,1.8
		c0.9-1.4,2.1-2.1,3.8-2.1c0.5,0,0.9,0.1,1.2,0.2V450.6z"/>
	<path class="st43" d="M537.9,444.3v3.8h3v2.1h-3v9.8c0,0.6,0.1,1.1,0.4,1.4c0.3,0.3,0.7,0.5,1.3,0.5c0.3,0,0.7-0.1,1.3-0.2v2.2
		c-0.7,0.2-1.4,0.3-2.1,0.3c-1.2,0-2.1-0.4-2.7-1.1s-0.9-1.8-0.9-3.1v-9.8h-2.9v-2.1h2.9v-3.8H537.9z"/>
	<path class="st43" d="M551.1,464.3c-2.1,0-3.9-0.7-5.2-2.1s-2-3.3-2-5.7V456c0-1.6,0.3-3,0.9-4.2s1.4-2.2,2.5-2.9s2.2-1,3.5-1
		c2.1,0,3.7,0.7,4.8,2s1.7,3.3,1.7,5.8v1.1h-10.7c0,1.6,0.5,2.8,1.4,3.8s2,1.4,3.3,1.4c1,0,1.8-0.2,2.4-0.6s1.2-0.9,1.7-1.6l1.7,1.3
		C555.7,463.3,553.7,464.3,551.1,464.3z M550.7,450.1c-1.1,0-2,0.4-2.8,1.2s-1.2,1.9-1.4,3.3h7.9v-0.2c-0.1-1.4-0.4-2.4-1.1-3.2
		S551.8,450.1,550.7,450.1z"/>
	<path class="st43" d="M560.2,455.9c0-2.4,0.6-4.4,1.7-5.9s2.7-2.2,4.5-2.2c1.9,0,3.3,0.6,4.4,1.9v-8.3h2.7V464H571l-0.1-1.7
		c-1.1,1.3-2.6,2-4.5,2c-1.8,0-3.3-0.8-4.5-2.3s-1.7-3.5-1.7-5.9V455.9z M562.9,456.3c0,1.8,0.4,3.2,1.1,4.2s1.8,1.5,3.1,1.5
		c1.7,0,3-0.8,3.8-2.3v-7.3c-0.8-1.5-2.1-2.2-3.7-2.2c-1.3,0-2.4,0.5-3.1,1.5S562.9,454.2,562.9,456.3z"/>
</g>
</svg>