<svg viewBox="0 0 300 200" fill="none" xmlns="http://www.w3.org/2000/svg">
<rect fill="white"/>
<path d="M300 0H0V178.314H300V0Z" fill="#FFFDE7"/>
<path d="M300 0H0V200H300V0Z" fill="#FFC800"/>
<path d="M291.56 8.72617H8.43903V189.031H291.56V8.72617Z" fill="white"/>
<path opacity="0.5" d="M291.134 188.043H40.6584C39.5704 180.531 38.3035 179.895 58.9195 168.606C82.9205 155.464 73.8485 141.853 89.2275 131.816C116.693 113.892 141.527 136.512 157.177 132.855C211.543 120.154 194.668 59.055 247.86 33.4888C291.134 6.01739 291.134 20.5594 291.134 43.6261V188.043Z" fill="#FFF8E0"/>
<path d="M139.967 101.388L156.707 92.7233L139.967 83.9981V101.388Z" fill="white"/>
<path d="M54.14 56.9085L49.571 59.7416L46.893 55.0594L55.479 49.3142H60.836V76.3459H54.14V56.9085Z" fill="black"/>
<path d="M90.1001 142.065L100.104 134.588C103.137 132.306 104.003 130.811 104.003 129.159C104.003 127.309 102.388 126.129 100.419 126.129C97.898 126.129 96.008 127.348 93.959 129.512L89.7451 125.341C92.62 121.879 96.126 120.03 100.577 120.03C106.643 120.03 110.897 123.728 110.897 128.883C110.897 132.463 109.4 135.257 104.674 138.484L100.42 141.514H111.173V147.534H90.1001V142.065Z" fill="black"/>
<path d="M198.912 52.6588C197.76 58.0833 202.017 65.2581 200.513 70.5967C198.273 78.5497 186.149 83.2619 185.825 91.5166C185.108 109.789 201.731 107.851 203.123 121.563C204.087 131.059 196.042 155.201 200.442 160.659C202.779 163.558 199.222 166.015 202.762 167.178C205.726 168.152 208.921 168.042 212.013 168.46C216.062 169.007 219.985 170.489 223.367 172.778C227.241 175.401 230.931 178.423 233.871 182.06C248.318 199.93 297.97 204.994 295.214 173.974C294.656 167.696 290.107 162.401 289.308 156.147C287.044 138.425 304.576 138.077 292.736 116.315C281.435 95.5435 257.279 103.504 251.112 82.0092C249.337 75.8214 257.911 65.4389 250.183 54.8076C245.855 48.8547 240.58 52.7537 234.837 43.4132C229.904 35.3903 217.758 36.8408 214.768 37.4242C207.901 38.7659 200.339 45.9436 198.912 52.6588Z" fill="#01243D"/>
<path d="M192.63 122.645L182.945 139.858C182.723 140.478 182.146 140.907 181.487 140.93C181.231 140.939 180.993 140.938 180.837 140.889C174.662 138.985 169.5 135.145 164.455 131.026C163.074 134.052 160.621 136.577 157.843 138.732C159.974 141.194 175.034 153.044 181.577 155.84C182.596 156.275 183.731 156.685 184.787 156.348C185.258 156.198 185.671 155.909 186.072 155.619C189.99 152.78 199.297 143.832 199.249 143.86C200.093 139.721 197.925 139.748 198.787 135.58C201.104 124.372 194.707 116.83 192.63 122.645Z" fill="#FFC800"/>
<path d="M157.943 127.652C157.562 127.411 157.332 126.996 157.341 126.546C157.368 125.156 156.896 123.787 156.141 122.601C155.259 121.216 154.136 119.998 153.252 118.616C152.467 117.389 151.875 116.039 151.505 114.631C151.394 114.209 151.303 113.776 151.25 113.34C151.109 112.186 149.612 111.758 148.941 112.708C148.741 112.992 148.58 113.307 148.469 113.651C148.042 114.963 148.329 116.47 149.161 117.57C149.504 118.024 149.937 118.421 150.159 118.945C150.291 119.255 150.341 119.595 150.374 119.931C150.397 120.162 150.413 120.393 150.423 120.625C150.452 121.354 149.849 121.953 149.119 121.946C148.949 121.944 148.774 121.941 148.594 121.921C147.568 121.806 146.538 121.619 145.52 121.451C143.128 121.056 140.6 120.541 138.161 120.604C136.051 120.659 134.983 121.276 133.321 122.32C132.193 123.029 130.996 123.489 129.943 124.367C129.053 125.109 128.186 125.481 128.781 126.48C129.505 127.698 131.395 128.678 132.746 128.775C136.972 129.077 141.185 128.615 145.383 129.563C147.633 130.072 149.695 131.596 152.096 130.885C155.651 133.532 158.482 136.762 161.46 140.046C161.923 140.557 162.375 141.076 162.826 141.598C164.102 140.7 165.18 139.511 166.055 138.211C166.704 137.248 167.241 136.213 167.679 135.138C164.509 132.533 161.381 129.823 157.943 127.652ZM152.079 130.826C152.061 130.807 152.099 130.814 152.079 130.826V130.826Z" fill="#C7A093"/>
<path d="M231.909 176.079C230.719 173.095 228.835 162.115 230.148 155.277C232.559 142.719 234.582 132.45 241.309 121.311C236.792 119.123 228.172 114.165 225.202 110.334C224.429 109.337 223.639 108.303 223.361 107.104C223.131 106.111 221.926 95.086 223.316 90.6724C224.36 87.3568 216.54 84.188 213.668 89.116C211.312 93.1579 211.311 105.401 210.759 106.45C207.809 112.054 191.408 115.13 190.593 132.121C190.227 139.763 195.853 153.457 197.386 160.973C200.636 176.909 195.105 178.553 193.927 194.734C206.728 198.024 221.996 197.952 242.541 194.075C240.496 188.084 233.064 178.976 231.909 176.079Z" fill="#FFC800"/>
<path d="M231.499 122.525C226.773 125.607 224.986 131.694 227.137 136.907C230.386 144.777 235.287 152.061 238.377 160.05C243.997 174.576 245.569 183.828 244.88 199.386C249.142 198.558 249.878 198.14 254.062 199.299C257.044 177.465 252.487 163.901 247.783 142.371C246.445 136.247 244.924 130.454 243.448 124.488C242.695 121.444 239.589 119.598 236.561 120.424C234.833 120.896 233.019 121.553 231.612 122.451C231.575 122.476 231.537 122.5 231.499 122.525Z" fill="#FFC800"/>
<path d="M183.085 153.398C182.771 150.467 182.691 147.493 182.847 144.556L182.949 142.619L183.746 144.388C184.493 146.044 185.357 147.673 186.315 149.228L185.513 149.721C184.873 148.681 184.273 147.608 183.721 146.516C183.681 148.778 183.782 151.05 184.023 153.297L183.085 153.398Z" fill="#B69913"/>
<path d="M213.667 89.3218C216.158 84.7004 221.879 86.6525 223.195 89.6035C223.195 89.6105 223.195 89.6165 223.194 89.6235C222.854 91.1969 222.723 93.3097 222.71 95.5145C222.563 98.6553 222.744 102.318 222.958 105.012C221.093 106.76 210.745 107.539 210.951 104.795C211.157 102.051 211.962 92.4856 213.667 89.3218Z" fill="#C7A093"/>
<path d="M231.093 81.7015C231.34 82.3658 232.288 81.8114 232.703 81.2349C233.497 80.134 234.397 79.0491 235.592 78.4867C236.787 77.9243 238.344 78.0282 239.176 79.0651C240.161 80.2939 239.504 82.115 238.79 83.5536C236.586 87.9931 232.692 85.4797 232.084 86.9542C230.46 90.8912 227.237 93.016 222.782 96.6714C219.559 99.3157 214.082 101.179 210.015 99.6823C201.044 96.3796 201.414 77.6775 201.632 75.1161C202.148 69.0712 202.645 62.6877 205.961 57.6757C210.302 62.378 217.352 62.5588 223.223 61.5928C234.909 59.6697 230.859 81.0701 231.093 81.7015Z" fill="#C7A093"/>
<path d="M215.85 91.081H208.227V92.005H215.85V91.081Z" fill="white"/>
<path d="M211.412 87.4986C210.654 87.068 209.989 86.6684 209.531 86.141C208.969 85.4966 208.87 84.7754 209.265 84.211C209.414 83.9992 209.621 83.8224 209.82 83.6515C209.911 83.5736 210.003 83.4957 210.087 83.4148C210.58 82.9392 210.823 82.3578 210.769 81.7774C210.769 81.7774 211.364 81.0652 211.427 81.7485C211.491 82.4318 211.206 83.1161 210.626 83.6745C210.534 83.7624 210.435 83.8473 210.336 83.9312C210.151 84.0891 209.977 84.2389 209.86 84.4048C209.507 84.9092 209.752 85.5146 210.098 85.9122C210.504 86.3787 211.318 86.6864 211.834 87.154C212.352 87.6205 211.412 87.4986 211.412 87.4986Z" fill="black"/>
<path d="M215.338 90.4566C215.568 90.4636 216.072 90.9841 216.182 91.1779C216.316 91.4156 216.282 92.2048 216.097 92.3966C215.24 93.2808 214.179 93.8901 213.028 94.1599C212.579 94.2648 212.121 94.3167 211.665 94.3167C210.653 94.3167 209.312 93.9381 208.61 93.2848L209.045 92.6794C210.232 93.3237 211.59 93.5135 212.871 93.2148C213.907 92.9731 214.867 92.4186 215.649 91.6104C215.694 91.5635 215.707 91.4826 215.681 91.4086C215.66 91.3497 215.626 91.3237 215.616 91.3207L208.229 91.083L207.951 90.2198" fill="black"/>
<path d="M205.265 75.5077C205.935 75.5077 206.478 74.7532 206.478 73.8224C206.478 72.8917 205.935 72.1372 205.265 72.1372C204.595 72.1372 204.052 72.8917 204.052 73.8224C204.052 74.7532 204.595 75.5077 205.265 75.5077Z" fill="black"/>
<path d="M218.537 78.0292C219.207 78.0292 219.75 77.2747 219.75 76.3439C219.75 75.4132 219.207 74.6586 218.537 74.6586C217.867 74.6586 217.324 75.4132 217.324 76.3439C217.324 77.2747 217.867 78.0292 218.537 78.0292Z" fill="black"/>
<path d="M203.19 81.2709C206.895 81.2709 209.899 78.2702 209.899 74.5687C209.899 70.8671 206.895 67.8664 203.19 67.8664C199.485 67.8664 196.481 70.8671 196.481 74.5687C196.481 78.2702 199.485 81.2709 203.19 81.2709Z" stroke="#231F20" stroke-width="2" stroke-miterlimit="10"/>
<path opacity="0.2" d="M203.19 81.2709C206.895 81.2709 209.899 78.2702 209.899 74.5687C209.899 70.8671 206.895 67.8664 203.19 67.8664C199.485 67.8664 196.481 70.8671 196.481 74.5687C196.481 78.2702 199.485 81.2709 203.19 81.2709Z" fill="white" stroke="#231F20" stroke-miterlimit="10"/>
<path d="M220.426 84.1899C224.131 84.1899 227.135 81.1893 227.135 77.4877C227.135 73.7862 224.131 70.7855 220.426 70.7855C216.721 70.7855 213.717 73.7862 213.717 77.4877C213.717 81.1893 216.721 84.1899 220.426 84.1899Z" stroke="#231F20" stroke-width="2" stroke-miterlimit="10"/>
<path opacity="0.2" d="M220.426 84.1899C224.131 84.1899 227.135 81.1893 227.135 77.4877C227.135 73.7862 224.131 70.7855 220.426 70.7855C216.721 70.7855 213.717 73.7862 213.717 77.4877C213.717 81.1893 216.721 84.1899 220.426 84.1899Z" fill="white" stroke="#231F20" stroke-miterlimit="10"/>
<path d="M256.715 40.3573L260.21 36.3323C261.993 38.1135 264.275 39.0036 266.557 39.0036C269.017 39.0036 270.372 37.9707 270.372 36.5461C270.372 35.0146 269.195 34.2304 266.093 34.2304L263.205 34.2664V29.1366H266.093C268.553 29.1726 269.873 28.3534 269.873 26.9278C269.873 25.4313 268.411 24.5412 266.2 24.5412C264.025 24.5412 262.242 25.5742 260.637 27.1416L257.214 23.4363C259.318 20.9788 262.313 19.0907 266.842 19.0907C272.619 19.0907 276.078 21.9409 276.078 25.788C276.078 28.5312 274.295 30.5971 271.549 31.3803C274.259 32.0217 276.612 33.9447 276.612 37.0796C276.612 41.3902 272.797 44.4531 266.877 44.4531C262.349 44.4541 258.89 42.7798 256.715 40.3573Z" fill="black"/>
<path d="M37.872 77.0392C35.7 83.2279 34.228 89.6594 33.7 96.2028C33.206 102.33 33.658 108.579 35.236 114.529C36.705 120.071 39.156 125.454 42.642 130.025C44.422 132.358 46.378 134.52 48.639 136.4C50.899 138.279 53.335 139.938 55.955 141.273C61.18 143.938 66.944 145.477 72.814 145.666C73.482 145.687 74.15 145.689 74.818 145.673C75.521 145.656 76.226 145.383 76.727 144.883C77.195 144.415 77.548 143.647 77.518 142.976C77.454 141.543 76.331 140.242 74.818 140.278C72.954 140.322 71.09 140.219 69.242 139.976C69.481 140.008 69.721 140.04 69.96 140.071C66.716 139.634 63.542 138.763 60.523 137.499C60.738 137.59 60.953 137.68 61.168 137.771C58.218 136.525 55.434 134.911 52.898 132.956C53.08 133.097 53.262 133.236 53.444 133.377C51.033 131.507 48.879 129.338 47.013 126.927C47.154 127.109 47.294 127.29 47.435 127.472C45.32 124.723 43.591 121.698 42.237 118.507C42.328 118.722 42.418 118.937 42.509 119.152C40.89 115.311 39.817 111.258 39.261 107.13C39.293 107.369 39.325 107.608 39.357 107.847C38.699 102.874 38.797 97.8262 39.46 92.8592C39.428 93.0979 39.396 93.3377 39.364 93.5764C40.061 88.4267 41.359 83.3748 43.079 78.4747C43.301 77.8413 43.137 76.9602 42.807 76.3958C42.479 75.8364 41.837 75.3029 41.193 75.1561C40.502 74.9992 39.726 75.0332 39.112 75.4278C38.499 75.8224 38.115 76.3469 37.872 77.0392Z" fill="#FFC800"/>
<path d="M211.433 100C214.199 100.101 219.017 98.6913 222.782 96.6723L222.687 100" fill="#AB8A7E"/>
<path d="M143.575 102.792L160.315 94.1276L143.575 85.4024V102.792Z" fill="#CFE1FF"/>
<rect x="127.608" y="84.4043" width="46" height="35" fill="white"/>
<path d="M180.329 87.3915C180.329 87.3915 179.722 83.1258 177.867 81.2477C175.514 78.7822 172.869 78.7692 171.662 78.6244C162.989 78 149.986 78 149.986 78H149.962C149.962 78 136.959 78 128.286 78.6244C127.079 78.7702 124.435 78.7822 122.081 81.2477C120.225 83.1258 119.619 87.3915 119.619 87.3915C119.619 87.3915 119 92.3965 119 97.4074V102.103C119 107.114 119.619 112.119 119.619 112.119C119.619 112.119 120.225 116.384 122.081 118.262C124.44 120.728 127.533 120.65 128.91 120.91C133.865 121.382 149.974 121.534 149.974 121.534C149.974 121.534 162.99 121.516 171.663 120.886C172.876 120.74 175.514 120.728 177.868 118.262C179.724 116.384 180.33 112.119 180.33 112.119C180.33 112.119 180.949 107.108 180.949 102.103V97.4074C180.948 92.3955 180.329 87.3915 180.329 87.3915ZM143.575 107.792V90.4025L160.315 99.1277L143.575 107.792Z" fill="#EE2724"/>
<path opacity="0.12" d="M143.575 90.4024L158.252 100.194L160.314 99.1276L143.575 90.4024Z" fill="#420000"/>
</svg>