<?xml version="1.0" encoding="utf-8"?>
<!-- Generator: Adobe Illustrator 24.0.3, SVG Export Plug-In . SVG Version: 6.00 Build 0)  -->
<svg id="thumb-demo" version="1.1" xmlns="http://www.w3.org/2000/svg" xmlns:xlink="http://www.w3.org/1999/xlink"
	x="0px" y="0px" viewBox="0 0 3000 2000" style="enable-background:new 0 0 3000 2000;" xml:space="preserve" >
<style type="text/css">
	#thumb-demo .st0{fill:#F0C718;}
	#thumb-demo .st1{fill:#FFFDE7;}
	#thumb-demo .st2{fill:#FFC800;}
	#thumb-demo .st3{fill:#FFFFFF;}
	#thumb-demo .st4{opacity:0.3;fill:#7DFF9B;}
	#thumb-demo .st5{opacity:0.12;fill:#420000;enable-background:new    ;}
	#thumb-demo .st6{fill:#EE2724;}
	#thumb-demo .st7{fill:#01243D;}
	#thumb-demo .st8{fill:#C7A093;}
	#thumb-demo .st9{fill:#B69913;}
	#thumb-demo .st10{fill:none;stroke:#231F20;stroke-width:12;stroke-miterlimit:10;}
	#thumb-demo .st11{opacity:0.2;fill:#FFFFFF;stroke:#231F20;stroke-width:12;stroke-miterlimit:10;}
	#thumb-demo .st12{fill:#AB8A7E;}
</style>
<g id="Background">
	<rect class="st0" width="3000" height="2000"/>
</g>
<g id="Illustration">
	<rect y="-2.02" class="st1" width="3000" height="1784.94"/>
	<rect y="-2.02" class="st2" width="3000" height="2002.02"/>
	<rect x="84.39" y="85.33" class="st3" width="2831.21" height="1804.87"/>
	<path class="st4" d="M835.7,2662.39c133.86,35.4,318.03-61.82,449.31-17.77c195.57,65.62,298.14,373.48,503.61,391.74
		c454.8,40.41,426.96-376.11,770.63-393.87c237.99-12.3,830.15,217.91,971.68,115.02c75.17-54.65,132.08,36.99,165.44-49.75
		c27.93-72.64,29.13-152.38,43.37-228.89c18.65-100.2,60.42-196.1,121.7-277.54c70.17-93.27,150.09-181.48,244.41-250.25
		c463.45-337.88,650.93-1568.61-126.05-1538.23c-157.27,6.15-294.92,112.97-451.84,125.16
		c-444.74,34.55-431.83-402.66-989.13-134.53c-531.92,255.92-363.17,867.53-906.82,994.67c-156.5,36.6-404.85-189.83-679.5-10.4
		c-153.79,100.47-63.07,236.71-303.08,368.27c-206.16,113-184.96,417.38-174.08,492.58C500.3,2421.3,670,2618.57,835.7,2662.39z"/>
	<path id="Triangle" class="st3" d="M1399.67,1012.88l167.4-86.73l-167.4-87.34V1012.88z"/>
	<path id="The_Sharpness" class="st5" d="M1399.67,838.81l146.77,98.01l20.62-10.67L1399.67,838.81z"/>
	<g id="Lozenge">
		<g>
			<path class="st6" d="M1767.21,808.67c0,0-6.07-42.7-24.62-61.5c-23.53-24.68-49.98-24.81-62.05-26.26
				c-86.73-6.25-216.76-6.25-216.76-6.25h-0.24c0,0-130.03,0-216.76,6.25c-12.07,1.46-38.51,1.58-62.05,26.26
				c-18.56,18.8-24.62,61.5-24.62,61.5s-6.19,50.1-6.19,100.26v47c0,50.16,6.19,100.26,6.19,100.26s6.06,42.7,24.62,61.5
				c23.59,24.68,54.52,23.9,68.29,26.5c49.55,4.73,210.64,6.25,210.64,6.25s130.16-0.18,216.89-6.49
				c12.13-1.46,38.51-1.58,62.05-26.26c18.56-18.8,24.62-61.5,24.62-61.5s6.19-50.16,6.19-100.26v-47
				C1773.4,858.76,1767.21,808.67,1767.21,808.67z M1399.67,1012.88V838.81l167.4,87.34L1399.67,1012.88z"/>
		</g>
	</g>
	<g>
		<path d="M541.4,567.64L495.71,596l-26.78-46.87l85.86-57.51h53.57v270.59H541.4V567.64z"/>
	</g>
	<g>
		<path d="M901,1420.06l100.04-74.84c30.33-22.84,38.99-37.81,38.99-54.35c0-18.51-16.15-30.33-35.84-30.33
			c-25.21,0-44.11,12.21-64.6,33.87l-42.14-41.75c28.75-34.66,63.81-53.17,108.32-53.17c60.66,0,103.2,37.02,103.2,88.62
			c0,35.84-14.97,63.81-62.23,96.11l-42.54,30.33h107.53v60.26H901V1420.06z"/>
	</g>
	<path class="st7" d="M1979.12,525.1c-11.52,54.3,31.05,126.12,16.01,179.56c-22.4,79.61-143.64,126.78-146.88,209.41
		c-7.17,182.91,159.06,163.51,172.98,300.77c9.64,95.05-70.81,336.72-26.81,391.35c23.37,29.02-12.2,53.62,23.2,65.26
		c29.64,9.75,61.59,8.65,92.51,12.83c40.49,5.48,79.72,20.31,113.54,43.23c38.74,26.25,75.64,56.5,105.04,92.91
		c144.47,178.88,640.99,229.57,613.43-80.94c-5.58-62.85-51.07-115.85-59.06-178.45c-22.64-177.4,152.68-180.89,34.28-398.73
		c-113.01-207.92-354.57-128.23-416.24-343.4c-17.75-61.94,67.99-165.87-9.29-272.29c-43.28-59.59-96.03-20.56-153.46-114.06
		c-49.33-80.31-170.79-65.79-200.69-59.95C2069.01,386.03,1993.39,457.88,1979.12,525.1z"/>
	<path class="st2" d="M1896.3,1325.77l-96.85,172.3c-2.22,6.21-7.99,10.5-14.58,10.73c-2.56,0.09-4.94,0.08-6.5-0.41
		c-61.75-19.06-113.37-57.49-163.82-98.73c-13.81,30.29-38.34,55.57-66.12,77.14c21.31,24.65,171.91,143.27,237.34,171.25
		c10.19,4.36,21.54,8.46,32.1,5.09c4.71-1.5,8.84-4.39,12.85-7.3c39.18-28.42,132.25-117.99,131.77-117.71
		c8.44-41.43-13.24-41.16-4.62-82.88C1981.04,1343.06,1917.07,1267.56,1896.3,1325.77z"/>
	<g>
		<path class="st8" d="M1549.43,1375.89c-3.81-2.41-6.11-6.57-6.02-11.07c0.27-13.91-4.45-27.62-12-39.49
			c-8.82-13.86-20.05-26.06-28.89-39.89c-7.85-12.28-13.77-25.8-17.47-39.89c-1.11-4.23-2.02-8.56-2.55-12.92
			c-1.41-11.56-16.38-15.84-23.09-6.33c-2,2.84-3.61,6-4.72,9.44c-4.27,13.13-1.4,28.22,6.92,39.23c3.43,4.54,7.76,8.52,9.98,13.76
			c1.32,3.11,1.82,6.51,2.15,9.87c0.23,2.31,0.39,4.63,0.49,6.95c0.29,7.3-5.74,13.29-13.04,13.22c-1.7-0.02-3.45-0.05-5.25-0.25
			c-10.26-1.15-20.56-3.02-30.74-4.7c-23.92-3.96-49.2-9.11-73.59-8.48c-21.1,0.55-31.78,6.73-48.4,17.18
			c-11.28,7.09-23.25,11.7-33.78,20.49c-8.9,7.42-17.57,11.15-11.62,21.15c7.24,12.19,26.14,22,39.65,22.97
			c42.26,3.02,84.39-1.6,126.37,7.89c22.5,5.09,43.12,20.35,67.13,13.23c35.55,26.5,63.86,58.83,93.64,91.71
			c4.63,5.11,9.15,10.31,13.66,15.53c12.76-8.99,23.54-20.89,32.29-33.9c6.49-9.64,11.86-20,16.24-30.76
			C1615.09,1424.75,1583.81,1397.62,1549.43,1375.89z M1490.79,1407.66C1490.61,1407.47,1490.99,1407.54,1490.79,1407.66
			L1490.79,1407.66z"/>
	</g>
	<path class="st2" d="M2319.09,1760.55c-11.9-29.87-30.74-139.78-17.61-208.23c24.11-125.71,44.34-228.5,111.61-340
		c-45.17-21.91-131.37-71.54-161.07-109.89c-7.73-9.98-15.63-20.33-18.41-32.33c-2.3-9.94-14.35-120.3-0.45-164.48
		c10.44-33.19-67.76-64.91-96.48-15.58c-23.56,40.46-23.57,163.01-29.09,173.52c-29.5,56.09-193.51,86.88-201.66,256.96
		c-3.66,76.5,52.6,213.58,67.93,288.82c32.5,159.52-22.81,256.29-34.59,418.26c128.01,32.93,280.69,32.21,486.14-6.6
		C2404.96,1961.03,2330.64,1789.55,2319.09,1760.55z"/>
	<path class="st2" d="M2314.99,1224.47c-47.26,30.85-65.13,91.78-43.62,143.96c32.49,78.78,81.5,151.7,112.4,231.67
		c56.2,145.4,71.92,238.02,65.03,393.75c42.62-8.28,49.98-12.47,91.82-0.87c29.82-218.56-15.75-354.33-62.79-569.85
		c-13.38-61.3-28.59-119.29-43.35-179.01c-7.53-30.47-38.59-48.95-68.87-40.68c-17.28,4.72-35.42,11.3-49.49,20.29
		C2315.75,1223.98,2315.37,1224.22,2314.99,1224.47z"/>
	<g>
		<path class="st9" d="M1800.85,1633.61c-3.14-29.34-3.94-59.11-2.38-88.51l1.02-19.39l7.97,17.71
			c7.47,16.58,16.11,32.88,25.69,48.45l-8.02,4.93c-6.4-10.41-12.4-21.15-17.92-32.08c-0.4,22.64,0.61,45.39,3.02,67.88
			L1800.85,1633.61z"/>
	</g>
	<path class="st8" d="M2136.67,892.1c24.91-46.26,82.12-26.72,95.28,2.82c0,0.07,0,0.13-0.01,0.2c-3.4,15.75-4.71,36.9-4.84,58.97
		c-1.47,31.44,0.34,68.1,2.48,95.07c-18.65,17.5-122.13,25.3-120.07-2.17C2111.57,1019.52,2119.62,923.77,2136.67,892.1z"/>
	<path class="st8" d="M2310.93,815.82c2.47,6.65,11.95,1.1,16.1-4.67c7.94-11.02,16.94-21.88,28.89-27.51
		c11.95-5.63,27.52-4.59,35.84,5.79c9.85,12.3,3.28,30.53-3.86,44.93c-22.04,44.44-60.98,19.28-67.06,34.04
		c-16.24,39.41-48.47,60.68-93.02,97.27c-32.23,26.47-87,45.12-127.67,30.14c-89.71-33.06-86.01-220.27-83.83-245.91
		c5.16-60.51,10.13-124.41,43.29-174.58c43.41,47.07,113.91,48.88,172.62,39.21C2349.09,595.28,2308.59,809.5,2310.93,815.82z"/>
	<rect x="2082.27" y="909.71" class="st3" width="76.23" height="9.25"/>
	<g>
		<path d="M2114.12,873.85c-7.58-4.31-14.23-8.31-18.81-13.59c-5.62-6.45-6.61-13.67-2.66-19.32c1.49-2.12,3.56-3.89,5.55-5.6
			c0.91-0.78,1.83-1.56,2.67-2.37c4.93-4.76,7.36-10.58,6.82-16.39c0,0,5.95-7.13,6.58-0.29c0.64,6.84-2.21,13.69-8.01,19.28
			c-0.92,0.88-1.91,1.73-2.9,2.57c-1.85,1.58-3.59,3.08-4.76,4.74c-3.53,5.05-1.08,11.11,2.38,15.09
			c4.06,4.67,12.2,7.75,17.36,12.43C2123.52,875.07,2114.12,873.85,2114.12,873.85z"/>
	</g>
	<g>
		<path d="M2153.38,903.46c2.3,0.07,7.34,5.28,8.44,7.22c1.34,2.38,1,10.28-0.85,12.2c-8.57,8.85-19.18,14.95-30.69,17.65
			c-4.49,1.05-9.07,1.57-13.63,1.57c-10.12,0-23.53-3.79-30.55-10.33l4.35-6.06c11.87,6.45,25.45,8.35,38.26,5.36
			c10.36-2.42,19.96-7.97,27.78-16.06c0.45-0.47,0.58-1.28,0.32-2.02c-0.21-0.59-0.55-0.85-0.65-0.88l-73.87-2.38l-2.78-8.64"/>
	</g>
	<ellipse cx="2052.65" cy="736.95" rx="12.13" ry="16.87"/>
	<ellipse cx="2185.37" cy="762.19" rx="12.13" ry="16.87"/>
	<circle class="st10" cx="2031.9" cy="744.42" r="67.09"/>
	<circle class="st11" cx="2031.9" cy="744.42" r="67.09"/>
	<circle class="st10" cx="2204.26" cy="773.64" r="67.09"/>
	<circle class="st11" cx="2204.26" cy="773.64" r="67.09"/>
	<g>
		<path d="M2567.15,401.96l34.95-40.29c17.83,17.83,40.65,26.74,63.47,26.74c24.6,0,38.15-10.34,38.15-24.6
			c0-15.33-11.77-23.18-42.79-23.18l-28.88,0.36v-51.35h28.88c24.6,0.36,37.8-7.84,37.8-22.11c0-14.98-14.62-23.89-36.73-23.89
			c-21.75,0-39.58,10.34-55.63,26.03l-34.23-37.09c21.04-24.6,50.99-43.5,96.28-43.5c57.77,0,92.36,28.53,92.36,67.04
			c0,27.46-17.83,48.14-45.29,55.98c27.1,6.42,50.63,25.67,50.63,57.05c0,43.15-38.15,73.81-97.35,73.81
			C2623.49,442.97,2588.9,426.21,2567.15,401.96z"/>
	</g>
	<g>
		<g>
			<path class="st2" d="M378.72,769.15C357,831.1,342.28,895.48,337,960.98c-4.94,61.33-0.42,123.89,15.36,183.45
				c14.69,55.47,39.2,109.36,74.06,155.11c17.8,23.36,37.36,45,59.97,63.82c22.6,18.81,46.96,35.41,73.16,48.78
				c52.25,26.67,109.89,42.08,168.59,43.97c6.68,0.21,13.36,0.23,20.04,0.07c7.03-0.17,14.08-2.9,19.09-7.91
				c4.68-4.68,8.21-12.37,7.91-19.09c-0.64-14.34-11.87-27.36-27-27c-18.64,0.44-37.28-0.59-55.76-3.03
				c2.39,0.32,4.79,0.64,7.18,0.96c-32.44-4.38-64.18-13.1-94.37-25.75c2.15,0.91,4.3,1.81,6.45,2.72
				c-29.5-12.47-57.34-28.63-82.7-48.2c1.82,1.41,3.64,2.81,5.46,4.22c-24.11-18.72-45.65-40.43-64.31-64.57
				c1.41,1.82,2.81,3.64,4.22,5.46c-21.15-27.52-38.44-57.8-51.98-89.74c0.91,2.15,1.81,4.3,2.72,6.45
				c-16.19-38.44-26.92-79.02-32.48-120.34c0.32,2.39,0.64,4.79,0.96,7.18c-6.58-49.78-5.6-100.31,1.03-150.03
				c-0.32,2.39-0.64,4.79-0.96,7.18c6.97-51.55,19.95-102.12,37.15-151.17c2.22-6.34,0.58-15.16-2.72-20.81
				c-3.28-5.6-9.7-10.94-16.14-12.41c-6.91-1.57-14.67-1.23-20.81,2.72C384.99,756.97,381.15,762.22,378.72,769.15L378.72,769.15z"
				/>
		</g>
	</g>
	<path class="st12" d="M2114.33,998.99c27.66,1.01,75.84-13.1,113.49-33.31l-0.95,33.31"/>
</g>
<g id="Text">
</g>
</svg>
