<?xml version="1.0" encoding="UTF-8"?>
<svg viewBox="0 0 502 302" version="1.1" xmlns="http://www.w3.org/2000/svg" xmlns:xlink="http://www.w3.org/1999/xlink">
    <!-- Generator: Sketch 54.1 (76490) - https://sketchapp.com -->
    <title>thumb_passport</title>
    <desc>Created with Sketch.</desc>
    <defs>
        <rect id="path-1" x="0" y="0" width="500" height="300"></rect>
        <linearGradient x1="50%" y1="51.8137058%" x2="50%" y2="3.061617e-15%" id="linearGradient-3">
            <stop stop-color="#F2F9FF" offset="0%"></stop>
            <stop stop-color="#E0F0FF" offset="100%"></stop>
        </linearGradient>
        <rect id="path-4" x="0" y="0" width="500" height="300"></rect>
        <linearGradient x1="50%" y1="0%" x2="50%" y2="100%" id="linearGradient-6">
            <stop stop-color="#8A8A8A" offset="0%"></stop>
            <stop stop-color="#CFCFCF" offset="100%"></stop>
        </linearGradient>
        <path d="M2.69004026,8.84913436e-15 L321.170119,2.08721929e-14 C322.455475,2.06360767e-14 323.547246,0.940744748 323.737214,2.21198584 L365.207994,279.728999 C365.419859,281.146767 364.442281,282.467845 363.024513,282.679709 C362.931171,282.693657 362.837138,282.702505 362.742832,282.706211 L48.8739551,295.041837 C47.5600384,295.093477 46.4150763,294.154402 46.208616,292.85578 L0.126634373,3.00314096 C-0.09844428,1.58741098 0.86676932,0.257272773 2.2824993,0.032194116 C2.41728859,0.0107647518 2.55355813,1.37918369e-14 2.69004026,8.84913436e-15 Z" id="path-7"></path>
        <path d="M3.2579073,0.0841177609 L321.737986,0.0841177609 C323.023342,0.0841177609 324.115113,1.02486251 324.305081,2.29610361 L365.775861,279.813117 C365.987726,281.230885 365.010148,282.551962 363.59238,282.763827 C363.499038,282.777775 363.405005,282.786622 363.310699,282.790329 L49.441822,295.125955 C48.127905,295.177594 46.982943,294.23852 46.776483,292.939898 L0.6945014,3.08725872 C0.4694228,1.67152874 1.4346364,0.341390534 2.8503663,0.116311877 C2.9851556,0.0948825127 3.1214252,0.0841177609 3.2579073,0.0841177609 Z" id="path-9"></path>
        <path d="M3.2579073,0.0841177609 L321.737986,0.0841177609 C323.023342,0.0841177609 324.115113,1.02486251 324.305081,2.29610361 L365.775861,279.813117 C365.987726,281.230885 365.010148,282.551962 363.59238,282.763827 C363.499038,282.777775 363.405005,282.786622 363.310699,282.790329 L49.441822,295.125955 C48.127905,295.177594 46.982943,294.23852 46.776483,292.939898 L0.6945014,3.08725872 C0.4694228,1.67152874 1.4346364,0.341390534 2.8503663,0.116311877 C2.9851556,0.0948825127 3.1214252,0.0841177609 3.2579073,0.0841177609 Z" id="path-11"></path>
        <path d="M3.2579073,0.0841177609 L321.737986,0.0841177609 C323.023342,0.0841177609 324.115113,1.02486251 324.305081,2.29610361 L365.775861,279.813117 C365.987726,281.230885 365.010148,282.551962 363.59238,282.763827 C363.499038,282.777775 363.405005,282.786622 363.310699,282.790329 L49.441822,295.125955 C48.127905,295.177594 46.982943,294.23852 46.776483,292.939898 L0.6945014,3.08725872 C0.4694228,1.67152874 1.4346364,0.341390534 2.8503663,0.116311877 C2.9851556,0.0948825127 3.1214252,0.0841177609 3.2579073,0.0841177609 Z" id="path-13"></path>
        <path d="M3.2579073,0.0841177609 L321.737986,0.0841177609 C323.023342,0.0841177609 324.115113,1.02486251 324.305081,2.29610361 L365.775861,279.813117 C365.987726,281.230885 365.010148,282.551962 363.59238,282.763827 C363.499038,282.777775 363.405005,282.786622 363.310699,282.790329 L49.441822,295.125955 C48.127905,295.177594 46.982943,294.23852 46.776483,292.939898 L0.6945014,3.08725872 C0.4694228,1.67152874 1.4346364,0.341390534 2.8503663,0.116311877 C2.9851556,0.0948825127 3.1214252,0.0841177609 3.2579073,0.0841177609 Z" id="path-15"></path>
        <rect id="path-17" x="0" y="0" width="500" height="300"></rect>
        <polygon id="path-19" points="0 0.959202875 6.22078127 0.959202875 6.22078127 6.13498969 0 6.13498969"></polygon>
        <rect id="path-21" x="0" y="0" width="500" height="300"></rect>
        <rect id="path-23" x="0" y="0" width="500" height="300"></rect>
    </defs>
    <g id="Page-1" stroke="none" stroke-width="1" fill="none" fill-rule="evenodd">
        <g id="thumb_passport" transform="translate(1.000000, 1.000000)">
            <g id="Rectangle" fill="#FEFEFF" fill-rule="nonzero" stroke="#0075EB" stroke-width="2">
                <rect id="path-1" x="0" y="0" width="500" height="300"></rect>
            </g>
            <g id="Rectangle-Clipped">
                <mask id="mask-2" fill="white">
                    <use xlink:href="#path-1"></use>
                </mask>
                <g id="path-1"></g>
                <rect id="Rectangle" fill="url(#linearGradient-3)" fill-rule="nonzero" mask="url(#mask-2)" x="0" y="-1" width="500" height="301"></rect>
            </g>
            <g id="Group-Clipped">
                <mask id="mask-5" fill="white">
                    <use xlink:href="#path-4"></use>
                </mask>
                <g id="path-1"></g>
                <g id="Group" mask="url(#mask-5)">
                    <g transform="translate(-37.000000, 22.000000)">
                        <g>
                            <path d="M71.8742335,0.0841177609 L392.032607,0.0841177609 C393.466117,0.0841177609 394.628207,1.24620746 394.628207,2.67971776 C394.628207,2.90948757 394.597698,3.13824016 394.537479,3.35997849 L325.650029,257.018981 C325.342994,258.149554 324.31668,258.93432 323.145157,258.93432 L2.98678353,258.93432 C1.55327324,258.93432 0.39118353,257.77223 0.39118353,256.33872 C0.39118353,256.10895 0.42169275,255.880198 0.48191134,255.658459 L69.3693613,1.99945703 C69.6763967,0.868883983 70.7027105,0.0841177609 71.8742335,0.0841177609 Z" id="Rectangle" fill="url(#linearGradient-6)"></path>
                            <g id="Rectangle-2" transform="translate(70.567867, 0.084118)">
                                <g id="Rectangle" fill="#FFFFFF" fill-rule="nonzero">
                                    <path d="M2.69004026,8.84913436e-15 L321.170119,2.08721929e-14 C322.455475,2.06360767e-14 323.547246,0.940744748 323.737214,2.21198584 L365.207994,279.728999 C365.419859,281.146767 364.442281,282.467845 363.024513,282.679709 C362.931171,282.693657 362.837138,282.702505 362.742832,282.706211 L48.8739551,295.041837 C47.5600384,295.093477 46.4150763,294.154402 46.208616,292.85578 L0.126634373,3.00314096 C-0.09844428,1.58741098 0.86676932,0.257272773 2.2824993,0.032194116 C2.41728859,0.0107647518 2.55355813,1.37918369e-14 2.69004026,8.84913436e-15 Z" id="path-5"></path>
                                </g>
                                <g id="Rectangle-Clipped">
                                    <mask id="mask-8" fill="white">
                                        <use xlink:href="#path-7"></use>
                                    </mask>
                                    <g id="path-5"></g>
                                    <path d="M26.6789599,155.789474 L345.159038,155.789474 C346.444395,155.789474 347.536166,156.730218 347.726134,158.00146 L389.196914,435.518473 C389.408778,436.93624 388.4312,438.257318 387.013433,438.469182 C386.920091,438.483131 386.826057,438.491978 386.731752,438.495685 L72.8628747,450.831311 C71.5489581,450.88295 70.4039959,449.943876 70.1975357,448.645254 L24.115554,158.792615 C23.8904754,157.376885 24.855689,156.046746 26.271419,155.821668 C26.4062083,155.800238 26.5424778,155.789474 26.6789599,155.789474 Z" id="Rectangle" fill="#EAEAEA" fill-rule="nonzero" mask="url(#mask-8)"></path>
                                </g>
                            </g>
                            <polygon id="Path" stroke="#FF3355" stroke-width="6.0978" points="73.7889679 3.13301776 119.724357 292.063597 432.685713 279.763638 391.347391 3.13301776"></polygon>
                            <g id="Rectangle-Clipped" transform="translate(70.000000, 0.000000)">
                                <mask id="mask-10" fill="white">
                                    <use xlink:href="#path-9"></use>
                                </mask>
                                <g id="path-7"></g>
                                <path d="M39.367264,68.4423295 C39.277894,68.4423295 39.188745,68.4512257 39.101138,68.4688865 C38.372043,68.615864 37.900143,69.326061 38.047121,70.0551559 L48.940828,124.094332 C49.067532,124.722861 49.619798,125.174906 50.260971,125.174906 L248.230041,125.174906 C248.330594,125.174906 248.430831,125.163644 248.528877,125.141331 C249.254096,124.976289 249.708209,124.254589 249.543167,123.52937 L237.245161,69.490194 C237.105667,68.8772389 236.560663,68.4423295 235.932035,68.4423295 L39.367264,68.4423295 Z" id="Rectangle" stroke="#D8D8D8" stroke-width="2.4978" fill="#FFFFFF" mask="url(#mask-10)"></path>
                            </g>
                            <g id="Calendar-Clipped" transform="translate(70.000000, 0.000000)">
                                <mask id="mask-12" fill="white">
                                    <use xlink:href="#path-11"></use>
                                </mask>
                                <g id="path-7"></g>
                            </g>
                            <g id="QR-Clipped" transform="translate(70.000000, 0.000000)">
                                <mask id="mask-14" fill="white">
                                    <use xlink:href="#path-13"></use>
                                </mask>
                                <g id="path-7"></g>
                                <g id="QR" mask="url(#mask-14)">
                                    <g transform="translate(247.000000, 18.000000)" id="Rectangle">
                                        <g transform="translate(0.228815, 0.059826)">
                                            <path d="M51.0379003,1.72665145e-14 L59.7644264,3.10862447e-15 C60.9690005,7.47594278e-16 62.0152827,0.828742867 62.2910783,2.00131936 L64.1705966,9.9923056 C64.4988087,11.3877369 63.6336566,12.785026 62.2382253,13.1132381 C62.0434514,13.1590499 61.8440335,13.1821862 61.6439446,13.1821862 L52.7027979,13.1821862 C51.4733379,13.1821862 50.4125326,12.3196171 50.1617633,11.1160031 L48.4968656,3.12501683 C48.2044768,1.72164213 49.1051088,0.346954174 50.5084835,0.0545653326 C50.6826199,0.0182845404 50.8600245,1.81122145e-14 51.0379003,1.72665145e-14 Z" id="Path" fill="#000000" fill-rule="nonzero"></path>
                                            <path d="M3.06006096,2.43719419e-14 L11.786587,1.02140518e-14 C12.9911612,7.85302164e-15 14.0374434,0.828742867 14.313239,2.00131936 L16.1927572,9.9923056 C16.5209693,11.3877369 15.6558173,12.785026 14.2603859,13.1132381 C14.0656121,13.1590499 13.8661942,13.1821862 13.6661053,13.1821862 L4.72495859,13.1821862 C3.49549859,13.1821862 2.43469323,12.3196171 2.18392392,11.1160031 L0.519026289,3.12501683 C0.226637448,1.72164213 1.12726943,0.346954174 2.53064413,0.0545653326 C2.70478055,0.0182845404 2.88218519,2.52176418e-14 3.06006096,2.43719419e-14 Z" id="Path" fill="#000000" fill-rule="nonzero"></path>
                                            <path d="M17.4795349,11.9838057 L22.2165066,11.9838057 C23.4249462,11.9838057 24.4735134,12.8177628 24.7455058,13.9951949 L25.7609666,18.3910395 C26.0836173,19.7877672 25.2129058,21.1815988 23.8161781,21.5042494 C23.6245925,21.5485066 23.4285983,21.5708502 23.2319673,21.5708502 L18.3790411,21.5708502 C17.146103,21.5708502 16.0833035,20.703505 15.8361334,19.4955964 L14.9366273,15.0997519 C14.649248,13.6953428 15.5547796,12.3238773 16.9591887,12.036498 C17.130421,12.0014594 17.3047545,11.9838057 17.4795349,11.9838057 Z" id="Path" fill="#000000" fill-rule="nonzero"></path>
                                            <path d="M45.0667925,11.9838057 L49.8037642,11.9838057 C51.0122038,11.9838057 52.060771,12.8177628 52.3327634,13.9951949 L53.3482242,18.3910395 C53.6708749,19.7877672 52.8001634,21.1815988 51.4034357,21.5042494 C51.2118501,21.5485066 51.0158559,21.5708502 50.8192249,21.5708502 L45.9662987,21.5708502 C44.7333606,21.5708502 43.6705611,20.703505 43.423391,19.4955964 L42.5238849,15.0997519 C42.2365056,13.6953428 43.1420372,12.3238773 44.5464463,12.036498 C44.7176786,12.0014594 44.8920121,11.9838057 45.0667925,11.9838057 Z" id="Path" fill="#000000" fill-rule="nonzero"></path>
                                            <path d="M23.4767648,3.5951417 L28.2137365,3.5951417 C29.4221761,3.5951417 30.4707433,4.42909879 30.7427357,5.60653097 L31.7581965,10.0023755 C32.0808472,11.3991032 31.2101357,12.7929348 29.813408,13.1155855 C29.6218224,13.1598427 29.4258282,13.1821862 29.2291972,13.1821862 L24.376271,13.1821862 C23.1433329,13.1821862 22.0805334,12.3148411 21.8333633,11.1069324 L20.9338572,6.71108791 C20.6464779,5.30667881 21.5520095,3.93521336 22.9564186,3.64783408 C23.1276509,3.61279542 23.3019844,3.5951417 23.4767648,3.5951417 Z" id="Path" fill="#000000" fill-rule="nonzero"></path>
                                            <path d="M36.6706706,3.5951417 L41.4076423,3.5951417 C42.6160819,3.5951417 43.6646492,4.42909879 43.9366415,5.60653097 L44.9521023,10.0023755 C45.274753,11.3991032 44.4040415,12.7929348 43.0073138,13.1155855 C42.8157282,13.1598427 42.619734,13.1821862 42.4231031,13.1821862 L37.5701768,13.1821862 C36.3372387,13.1821862 35.2744392,12.3148411 35.0272692,11.1069324 L34.127763,6.71108791 C33.8403837,5.30667881 34.7459153,3.93521336 36.1503244,3.64783408 C36.3215567,3.61279542 36.4958902,3.5951417 36.6706706,3.5951417 Z" id="Path" fill="#000000" fill-rule="nonzero"></path>
                                            <path d="M25.8756568,19.1740891 L30.6126284,19.1740891 C31.8210681,19.1740891 32.8696353,20.0080462 33.1416277,21.1854783 L34.1570885,25.5813229 C34.4797391,26.9780506 33.6090277,28.3718822 32.2122999,28.6945328 C32.0207144,28.73879 31.8247202,28.7611336 31.6280892,28.7611336 L26.7751629,28.7611336 C25.5422249,28.7611336 24.4794254,27.8937884 24.2322553,26.6858798 L23.3327492,22.2900353 C23.0453699,20.8856262 23.9509015,19.5141607 25.3553106,19.2267814 C25.5265428,19.1917428 25.7008764,19.1740891 25.8756568,19.1740891 Z" id="Path" fill="#000000" fill-rule="nonzero"></path>
                                            <path d="M19.8784269,27.562753 L24.6153985,27.562753 C25.8238382,27.562753 26.8724054,28.3967101 27.1443978,29.5741423 L28.1598585,33.9699868 C28.4825092,35.3667146 27.6117977,36.7605461 26.21507,37.0831968 C26.0234844,37.127454 25.8274903,37.1497976 25.6308593,37.1497976 L20.777933,37.1497976 C19.544995,37.1497976 18.4821955,36.2824524 18.2350254,35.0745438 L17.3355192,30.6786993 C17.04814,29.2742901 17.9536716,27.9028247 19.3580807,27.6154454 C19.5293129,27.5804068 19.7036464,27.562753 19.8784269,27.562753 Z" id="Path" fill="#000000" fill-rule="nonzero"></path>
                                            <path d="M10.282859,27.562753 L15.0198307,27.562753 C16.2282703,27.562753 17.2768375,28.3967101 17.5488299,29.5741423 L18.5642907,33.9699868 C18.8869414,35.3667146 18.0162299,36.7605461 16.6195022,37.0831968 C16.4279166,37.127454 16.2319224,37.1497976 16.0352914,37.1497976 L11.1823652,37.1497976 C9.9494271,37.1497976 8.88662761,36.2824524 8.63945753,35.0745438 L7.73995138,30.6786993 C7.4525721,29.2742901 8.35810368,27.9028247 9.76251278,27.6154454 C9.93374506,27.5804068 10.1080786,27.562753 10.282859,27.562753 Z" id="Path" fill="#000000" fill-rule="nonzero"></path>
                                            <path d="M35.4712246,27.562753 L40.2081963,27.562753 C41.416636,27.562753 42.4652032,28.3967101 42.7371956,29.5741423 L43.7526563,33.9699868 C44.075307,35.3667146 43.2045955,36.7605461 41.8078678,37.0831968 C41.6162822,37.127454 41.420288,37.1497976 41.2236571,37.1497976 L36.3707308,37.1497976 C35.1377927,37.1497976 34.0749933,36.2824524 33.8278232,35.0745438 L32.928317,30.6786993 C32.6409377,29.2742901 33.5464693,27.9028247 34.9508784,27.6154454 C35.1221107,27.5804068 35.2964442,27.562753 35.4712246,27.562753 Z" id="Path" fill="#000000" fill-rule="nonzero"></path>
                                            <path d="M48.6651305,27.562753 L53.4021021,27.562753 C54.6105418,27.562753 55.659109,28.3967101 55.9311014,29.5741423 L56.9465621,33.9699868 C57.2692128,35.3667146 56.3985013,36.7605461 55.0017736,37.0831968 C54.810188,37.127454 54.6141939,37.1497976 54.4175629,37.1497976 L49.5646366,37.1497976 C48.3316986,37.1497976 47.2688991,36.2824524 47.021729,35.0745438 L46.1222228,30.6786993 C45.8348436,29.2742901 46.7403752,27.9028247 48.1447843,27.6154454 C48.3160165,27.5804068 48.49035,27.562753 48.6651305,27.562753 Z" id="Path" fill="#000000" fill-rule="nonzero"></path>
                                            <path d="M54.6623604,19.1740891 L59.399332,19.1740891 C60.6077717,19.1740891 61.6563389,20.0080462 61.9283313,21.1854783 L62.9437921,25.5813229 C63.2664427,26.9780506 62.3957313,28.3718822 60.9990035,28.6945328 C60.807418,28.73879 60.6114238,28.7611336 60.4147928,28.7611336 L55.5618665,28.7611336 C54.3289285,28.7611336 53.266129,27.8937884 53.0189589,26.6858798 L52.1194528,22.2900353 C51.8320735,20.8856262 52.7376051,19.5141607 54.1420142,19.2267814 C54.3132464,19.1917428 54.48758,19.1740891 54.6623604,19.1740891 Z" id="Path" fill="#000000" fill-rule="nonzero"></path>
                                            <path d="M58.2606983,33.5546559 L62.99767,33.5546559 C64.2061096,33.5546559 65.2546769,34.388613 65.5266692,35.5660451 L66.54213,39.9618897 C66.8647807,41.3586174 65.9940692,42.752449 64.5973415,43.0750997 C64.4057559,43.1193568 64.2097617,43.1417004 64.0131308,43.1417004 L59.1602045,43.1417004 C57.9272664,43.1417004 56.8644669,42.2743552 56.6172969,41.0664466 L55.7177907,36.6706021 C55.4304114,35.266193 56.335943,33.8947275 57.7403521,33.6073482 C57.9115844,33.5723096 58.0859179,33.5546559 58.2606983,33.5546559 Z" id="Path" fill="#000000" fill-rule="nonzero"></path>
                                            <path d="M42.6679005,34.7530364 L47.4048722,34.7530364 C48.6133119,34.7530364 49.6618791,35.5869935 49.9338715,36.7644257 L50.9493322,41.1602702 C51.2719829,42.556998 50.4012714,43.9508295 49.0045437,44.2734802 C48.8129581,44.3177374 48.6169639,44.340081 48.420333,44.340081 L43.5674067,44.340081 C42.3344686,44.340081 41.2716692,43.4727358 41.0244991,42.2648272 L40.1249929,37.8689827 C39.8376136,36.4645736 40.7431452,35.0931081 42.1475543,34.8057288 C42.3187866,34.7706902 42.4931201,34.7530364 42.6679005,34.7530364 Z" id="Path" fill="#000000" fill-rule="nonzero"></path>
                                            <path d="M36.6706706,43.1417004 L41.4076423,43.1417004 C42.6160819,43.1417004 43.6646492,43.9756575 43.9366415,45.1530897 L44.9521023,49.5489342 C45.274753,50.9456619 44.4040415,52.3394935 43.0073138,52.6621442 C42.8157282,52.7064014 42.619734,52.7287449 42.4231031,52.7287449 L37.5701768,52.7287449 C36.3372387,52.7287449 35.2744392,51.8613998 35.0272692,50.6534912 L34.127763,46.2576466 C33.8403837,44.8532375 34.7459153,43.4817721 36.1503244,43.1943928 C36.3215567,43.1593541 36.4958902,43.1417004 36.6706706,43.1417004 Z" id="Path" fill="#000000" fill-rule="nonzero"></path>
                                            <path d="M30.6734407,34.7530364 L35.4104124,34.7530364 C36.618852,34.7530364 37.6674192,35.5869935 37.9394116,36.7644257 L38.9548724,41.1602702 C39.2775231,42.556998 38.4068116,43.9508295 37.0100839,44.2734802 C36.8184983,44.3177374 36.6225041,44.340081 36.4258731,44.340081 L31.5729469,44.340081 C30.3400088,44.340081 29.2772093,43.4727358 29.0300392,42.2648272 L28.1305331,37.8689827 C27.8431538,36.4645736 28.7486854,35.0931081 30.1530945,34.8057288 C30.3243268,34.7706902 30.4986603,34.7530364 30.6734407,34.7530364 Z" id="Path" fill="#000000" fill-rule="nonzero"></path>
                                            <path d="M35.4712246,34.7530364 L40.2081963,34.7530364 C41.416636,34.7530364 42.4652032,35.5869935 42.7371956,36.7644257 L43.7526563,41.1602702 C44.075307,42.556998 43.2045955,43.9508295 41.8078678,44.2734802 C41.6162822,44.3177374 41.420288,44.340081 41.2236571,44.340081 L36.3707308,44.340081 C35.1377927,44.340081 34.0749933,43.4727358 33.8278232,42.2648272 L32.928317,37.8689827 C32.6409377,36.4645736 33.5464693,35.0931081 34.9508784,34.8057288 C35.1221107,34.7706902 35.2964442,34.7530364 35.4712246,34.7530364 Z" id="Path" fill="#000000" fill-rule="nonzero"></path>
                                            <path d="M12.6556288,44.340081 L21.3821549,44.340081 C22.5867291,44.340081 23.6330112,45.1688238 23.9088068,46.3414003 L25.7883251,54.3323866 C26.1165372,55.7278179 25.2513851,57.125107 23.8559538,57.4533191 C23.6611799,57.4991309 23.4617621,57.5222672 23.2616732,57.5222672 L14.3205265,57.5222672 C13.0910665,57.5222672 12.0302611,56.659698 11.7794918,55.456084 L10.1145942,47.4650978 C9.82220531,46.0617231 10.7228373,44.6870351 12.126212,44.3946463 C12.3003484,44.3583655 12.4777531,44.340081 12.6556288,44.340081 Z" id="Path" fill="#000000" fill-rule="nonzero"></path>
                                            <path d="M59.4340222,44.340081 L68.1605483,44.340081 C69.3651224,44.340081 70.4114046,45.1688238 70.6872002,46.3414003 L72.5667184,54.3323866 C72.8949306,55.7278179 72.0297785,57.125107 70.6343472,57.4533191 C70.4395733,57.4991309 70.2401554,57.5222672 70.0400665,57.5222672 L61.0989198,57.5222672 C59.8694598,57.5222672 58.8086544,56.659698 58.5578851,55.456084 L56.8929875,47.4650978 C56.6005987,46.0617231 57.5012306,44.6870351 58.9046053,44.3946463 C59.0787418,44.3583655 59.2561464,44.340081 59.4340222,44.340081 Z" id="Path" fill="#000000" fill-rule="nonzero"></path>
                                        </g>
                                    </g>
                                </g>
                            </g>
                            <g id="BPPassport-Clipped" transform="translate(70.000000, 0.000000)">
                                <mask id="mask-16" fill="white">
                                    <use xlink:href="#path-15"></use>
                                </mask>
                                <g id="path-7"></g>
                                <path d="M35.249505,49.3319838 L32.240432,30.3963725 L41.840797,30.3963725 C45.23403,30.3963725 47.894308,32.3808907 48.33231,35.137166 C48.638912,37.0665587 47.896739,38.4722591 46.354077,39.3542672 C48.718738,40.3465263 50.268073,42.1105425 50.600955,44.2053117 C51.082757,47.2372146 48.822436,49.3319838 45.208505,49.3319838 L35.249505,49.3319838 Z M37.509024,38.0312551 L42.033334,38.0312551 C43.550633,38.0312551 44.486376,37.149247 44.293655,35.9364858 C44.105314,34.7512874 42.88925,33.8692794 41.371951,33.8692794 L36.847641,33.8692794 L37.509024,38.0312551 Z M38.75295,45.8590769 L43.911767,45.8590769 C45.539415,45.8590769 46.544779,44.8943806 46.330158,43.5438057 C46.115537,42.1932308 44.803572,41.2285344 43.175923,41.2285344 L38.017106,41.2285344 L38.75295,45.8590769 Z M53.551852,49.3319838 L50.542778,30.3963725 L59.06724,30.3963725 C63.177742,30.3963725 66.632822,33.0423968 67.228505,36.7909312 C67.824187,40.5394656 65.210071,43.1854899 61.09957,43.1854899 L56.630434,43.1854899 L57.607178,49.3319838 L53.551852,49.3319838 Z M56.039131,39.4645182 L60.066871,39.4645182 C62.080741,39.4645182 63.293663,38.4171336 63.035242,36.7909312 C62.77682,35.1647287 61.231017,34.1173441 59.217147,34.1173441 L55.189407,34.1173441 L56.039131,39.4645182 Z M77.82504,49.3319838 L74.815966,30.3963725 L83.340429,30.3963725 C87.45093,30.3963725 90.90601,33.0423968 91.501693,36.7909312 C92.097376,40.5394656 89.483259,43.1854899 85.372758,43.1854899 L80.903622,43.1854899 L81.880367,49.3319838 L77.82504,49.3319838 Z M80.31232,39.4645182 L84.340059,39.4645182 C86.353929,39.4645182 87.566851,38.4171336 87.30843,36.7909312 C87.050009,35.1647287 85.504205,34.1173441 83.490335,34.1173441 L79.462596,34.1173441 L80.31232,39.4645182 Z M99.162284,34.7512874 C102.886563,34.7512874 105.796893,37.0941215 106.388195,40.8150931 L107.741622,49.3319838 L103.851818,49.3319838 L103.624057,47.8987206 C102.78729,49.0563563 101.256002,49.6627368 99.711115,49.6627368 C96.676517,49.6627368 94.042519,47.8435951 93.608897,45.1148826 C93.162135,42.3034818 95.476323,40.3740891 98.786794,40.3740891 C99.945459,40.3740891 101.253893,40.6221538 102.542192,41.0907206 L102.498392,40.8150931 C102.257491,39.2991417 101.109283,37.9761296 98.764366,37.9761296 C97.440178,37.9761296 96.268832,38.4171336 95.229735,38.9959514 L93.453097,36.3223644 C95.304906,35.3025425 97.176001,34.7512874 99.162284,34.7512874 Z M100.179113,46.8788988 C101.723999,46.8788988 103.072243,46.1622672 103.137875,44.8392551 L102.927634,43.5162429 C101.964694,43.1854899 100.885718,42.9925506 99.782228,42.9925506 C98.320103,42.9925506 97.297219,43.846996 97.48118,45.0046316 C97.665141,46.1622672 98.79975,46.8788988 100.179113,46.8788988 Z M115.723719,49.6627368 C113.433977,49.6627368 110.883658,48.8909798 108.954247,47.5128421 L110.249862,44.729004 C111.663416,45.6385749 113.372978,46.3276437 115.276499,46.3276437 C116.352402,46.3276437 117.054765,45.8866397 116.954024,45.2526964 C116.813863,44.3706883 115.721747,44.0950607 114.198302,43.7091822 C111.160173,42.9925506 108.770997,42.1932308 108.296648,39.38183 C107.839818,36.6806802 109.767785,34.7512874 113.13343,34.7512874 C115.174887,34.7512874 117.302638,35.467919 119.041552,36.5153036 L117.869426,39.38183 C116.445804,38.5825101 114.881632,38.1139433 113.667793,38.1139433 C112.674651,38.1139433 112.04191,38.4722591 112.120751,38.9683887 C112.243391,39.7401457 112.857764,39.9606478 114.872092,40.4843401 C117.428099,41.1182834 120.290638,41.945166 120.78558,45.0597571 C121.232342,47.8711579 119.227301,49.6627368 115.723719,49.6627368 Z M128.756899,49.6627368 C126.467157,49.6627368 123.916838,48.8909798 121.987427,47.5128421 L123.283042,44.729004 C124.696596,45.6385749 126.406158,46.3276437 128.309679,46.3276437 C129.385582,46.3276437 130.087945,45.8866397 129.987204,45.2526964 C129.847043,44.3706883 128.754927,44.0950607 127.231483,43.7091822 C124.193353,42.9925506 121.804177,42.1932308 121.329828,39.38183 C120.872998,36.6806802 122.800965,34.7512874 126.16661,34.7512874 C128.208067,34.7512874 130.335818,35.467919 132.074732,36.5153036 L130.902606,39.38183 C129.478984,38.5825101 127.914812,38.1139433 126.700973,38.1139433 C125.707832,38.1139433 125.07509,38.4722591 125.153931,38.9683887 C125.276571,39.7401457 125.890944,39.9606478 127.905272,40.4843401 C130.461279,41.1182834 133.323818,41.945166 133.81876,45.0597571 C134.265522,47.8711579 132.260481,49.6627368 128.756899,49.6627368 Z M142.868896,34.7512874 C146.675937,34.7512874 149.925225,37.8383158 150.617268,42.1932308 C151.313692,46.5757085 149.045528,49.6627368 145.238487,49.6627368 C143.252204,49.6627368 141.461188,48.8082915 140.093589,47.3199028 L141.166694,54.0727773 L137.138955,54.0727773 L134.121121,35.0820405 L138.14886,35.0820405 L138.464222,37.0665587 C139.363158,35.6057328 140.882613,34.7512874 142.868896,34.7512874 Z M143.541079,46.2725182 C145.775647,46.2725182 147.08094,44.5911903 146.699878,42.1932308 C146.323196,39.822834 144.483541,38.1415061 142.248973,38.1415061 C140.290278,38.1415061 139.083502,39.5747692 139.191305,41.6419757 L139.366506,42.7444858 C139.920086,44.8392551 141.582384,46.2725182 143.541079,46.2725182 Z M160.837282,49.6627368 C156.588844,49.6627368 152.486965,46.2449555 151.843102,42.1932308 C151.199239,38.1415061 154.219253,34.7512874 158.467691,34.7512874 C162.688541,34.7512874 166.758453,38.1415061 167.402315,42.1932308 C168.046178,46.2449555 165.058132,49.6627368 160.837282,49.6627368 Z M160.298539,46.2725182 C162.422758,46.2725182 163.918088,44.398251 163.567687,42.1932308 C163.217285,39.9882105 161.130652,38.1415061 159.006433,38.1415061 C156.854627,38.1415061 155.354917,39.9882105 155.705318,42.1932308 C156.05572,44.398251 158.146733,46.2725182 160.298539,46.2725182 Z M172.636007,37.7280648 C173.280513,35.8813603 174.866516,34.7512874 177.04591,34.7512874 L177.584652,38.1415061 C174.605228,38.1415061 172.973269,39.8503968 173.398131,42.5239838 L174.479996,49.3319838 L170.452256,49.3319838 L168.187786,35.0820405 L172.215525,35.0820405 L172.636007,37.7280648 Z M187.807738,45.8039514 L189.189394,48.422413 C188.480037,49.1666073 187.262276,49.6627368 186.103611,49.6627368 C183.593171,49.6627368 181.542885,47.8711579 181.135543,45.3078219 L180.027398,38.3344453 L178.068703,38.3344453 L177.55186,35.0820405 L179.510556,35.0820405 L178.888593,31.1681296 L182.750809,31.1681296 L183.372772,35.0820405 L186.462545,35.0820405 L186.979387,38.3344453 L183.889614,38.3344453 L184.897019,44.6738785 C185.045939,45.6110121 185.757979,46.2725182 186.502835,46.2725182 C187.054581,46.2725182 187.575666,46.0795789 187.807738,45.8039514 Z" id="BPPassport" fill="#000000" fill-rule="nonzero" mask="url(#mask-16)"></path>
                            </g>
                        </g>
                    </g>
                </g>
            </g>
            <g id="Group-35-Clipped">
                <mask id="mask-18" fill="white">
                    <use xlink:href="#path-17"></use>
                </mask>
                <g id="path-1"></g>
                <g id="Group-35" mask="url(#mask-18)">
                    <g transform="translate(150.000000, -16.000000)" id="Group">
                        <g transform="translate(207.730304, 204.495957) rotate(-57.000000) translate(-207.730304, -204.495957) translate(64.230304, 49.995957)">
                            <polygon id="Fill-1" fill="#FAC753" fill-rule="nonzero" points="58.0485864 85.9232214 91.0485864 85.9232214 91.0485864 53.9232214 58.0485864 53.9232214"></polygon>
                            <polygon id="Fill-2" fill="#EA594E" fill-rule="nonzero" points="113.805274 85.4853038 146.805274 85.4853038 146.805274 53.4853038 113.805274 53.4853038"></polygon>
                            <g id="Group-34" transform="translate(0.705968, 0.383310)">
                                <path d="M128.245411,99.1744976 C128.245411,99.1744976 118.674446,98.9516358 110.435639,91.1765138 C110.435639,91.1765138 83.0574105,111.840059 67.6987088,110.062172 L51.8934456,98.728774 L44.9943228,82.9556683 L36.5347439,65.6275382 L67.2521474,46.0757984 C67.2521474,46.0757984 96.1933404,43.1886114 96.8581649,44.7436358 C97.528007,46.2986602 118.895218,73.4026602 118.895218,73.4026602 L128.245411,99.1744976 Z" id="Fill-3" fill="#B28980" fill-rule="nonzero"></path>
                                <path d="M126.351539,98.8417073 C126.351539,98.8417073 117.894468,98.2858049 110.435889,91.1742602 C110.435889,91.1742602 89.0686789,107.951496 70.4811877,110.392959 L66.6979596,108.504894 C66.6979596,108.504894 104.761047,100.839951 109.881451,81.2882114 C109.881451,81.2882114 115.556293,86.9549106 118.451416,82.0669756 C118.451416,82.0669756 127.7991,95.1757561 126.351539,98.8417073" id="Fill-5" fill="#996B62" fill-rule="nonzero"></path>
                                <path d="M88.8448965,48.2959024 C88.8448965,48.2959024 44.1059667,55.4074472 47.2193526,76.2913496 L51.6749316,81.8428618 C51.6749316,81.8428618 96.6346333,68.7365854 99.9763175,60.9614634 L88.8448965,48.2959024 Z" id="Fill-7" fill="#AA7D74" fill-rule="nonzero"></path>
                                <path d="M109.027716,69.2551772 C109.027716,69.2551772 90.1818211,78.8833073 82.6128561,79.9199902 L56.6445579,100.360673 L57.9064702,103.062559 L85.1718035,81.6227545 C85.1718035,81.6227545 100.992119,79.5068195 110.437646,74.7340715 C112.963979,73.4595024 113.887207,78.6228846 129.358804,78.4000228 L109.027716,69.2551772 Z" id="Fill-9" fill="#99746D" fill-rule="nonzero"></path>
                                <g id="Group-13" transform="translate(0.000000, 30.048780)">
                                    <g id="Fill-11-Clipped">
                                        <mask id="mask-20" fill="white">
                                            <use xlink:href="#path-19"></use>
                                        </mask>
                                        <g id="path-9"></g>
                                        <path d="M5.85697895,4.47226016 C6.2634,4.78276423 6.34117193,5.36120325 6.03008421,5.77186992 C5.71899649,6.17752846 5.13947018,6.25515447 4.73304912,5.94465041 L0.365277193,2.6217561 C-0.0436526316,2.31125203 -0.121424561,1.73030894 0.189663158,1.32465041 C0.500750877,0.916487805 1.08278596,0.838861789 1.49171579,1.14936585 L5.85697895,4.47226016 Z" id="Fill-11" fill="#737C8E" fill-rule="nonzero" mask="url(#mask-20)"></path>
                                    </g>
                                </g>
                                <path d="M17.1171,43.2827642 C15.8602053,45.1007154 12.5912754,49.550439 10.7724158,48.2959024 L3.66757368,38.8756098 C1.84620526,37.6210732 1.3871,35.1320325 2.64399474,33.3140813 C3.90088947,31.4961301 6.39711754,31.0378862 8.21848596,32.2924228 L20.230486,36.576878 C22.0543632,37.8314146 18.3739947,41.464813 17.1171,43.2827642" id="Fill-14" fill="#1B1C19" fill-rule="nonzero"></path>
                                <path d="M58.1272421,61.9973951 L22.1414175,36.2981756 C22.1414175,36.2981756 16.4289439,33.2607447 11.8303649,39.7062081 C11.8303649,39.7062081 6.33615439,46.9629886 11.3838035,50.518761 L51.7474351,79.473265 L58.1272421,61.9973951 Z" id="Fill-16" fill="#151E23" fill-rule="nonzero"></path>
                                <path d="M124.905984,113.949483 C124.905984,113.949483 107.542774,121.614426 102.645651,127.391304 C102.645651,127.391304 93.7420193,136.165548 87.0636684,127.055759 C87.0636684,127.055759 76.9382649,111.838556 68.478686,108.728507 C68.478686,108.728507 57.9794754,102.135304 57.9794754,92.9528976 C57.9794754,92.9528976 51.0050895,71.6257756 38.3157211,63.5151089 C38.3157211,63.5151089 74.9337561,63.0718894 88.4008439,50.9622309 C88.4008439,50.9622309 97.0811947,64.1811902 108.212616,69.1818081 C108.212616,69.1818081 113.666686,71.8486374 115.666177,73.1808 C115.666177,73.1808 118.784581,73.7341984 117.116247,77.1772878 C117.116247,77.1772878 114.554791,82.1779057 120.786581,87.5090602 C120.786581,87.5090602 125.352546,93.9545236 126.910493,102.175369 C126.910493,102.175369 131.581826,110.283532 124.905984,113.949483 L124.905984,113.949483 Z M260.018405,267.138166 C253.340054,247.143207 242.211142,236.701255 242.211142,236.701255 C227.966335,218.481678 224.62716,207.153288 224.62716,207.153288 C212.755651,150.866914 218.726528,88.4005073 218.726528,88.4005073 C221.511265,73.2909789 213.164581,65.9590764 213.164581,65.9590764 C208.044177,59.9593366 191.905247,56.626426 191.905247,56.626426 C186.117511,55.739987 169.57216,46.5951415 169.57216,46.5951415 C155.327353,37.4102309 140.264686,30.3011902 140.264686,30.3011902 L111.995844,6.00925528 C103.388247,-0.656565854 98.1950895,0.15975935 98.1950895,0.15975935 C89.5147386,1.63966179 79.6452298,11.8587512 79.6452298,11.8587512 C78.2353,13.1934179 61.4666684,24.8573528 61.4666684,24.8573528 C57.0135982,28.8563447 50.4481421,30.4113691 50.4481421,30.4113691 C41.6548965,31.8562146 37.5380018,35.411987 37.5380018,35.411987 C22.9570193,36.8543285 18.8401246,43.4074667 18.8401246,43.4074667 C14.4999491,51.0749138 22.7337386,57.9610927 22.7337386,57.9610927 C19.9540193,58.8500358 19.3970719,60.627922 19.3970719,60.627922 C13.7222298,71.6257756 19.8411246,87.3237593 19.8411246,87.3237593 C17.7638614,88.8061659 18.802493,92.6574179 18.802493,92.6574179 C19.3970719,98.5820358 17.6158439,111.913678 17.6158439,111.913678 C17.1717912,120.948345 26.2961947,128.503109 26.2961947,128.503109 C35.1998263,137.610393 53.9729667,159.458361 53.9729667,159.458361 C55.4556509,163.309613 64.3592825,176.934231 64.3592825,176.934231 L79.4947035,196.190491 C96.7124053,228.775889 130.026388,252.920085 130.026388,252.920085 C144.494475,261.807011 151.616879,273.213028 151.616879,273.213028 C171.20537,303.722556 172.231458,307.999499 172.231458,307.999499 L285.33944,307.999499 L260.018405,267.138166 Z" id="Fill-18" fill="#DDB19B" fill-rule="nonzero"></path>
                                <path d="M21.2525596,56.5172488 C21.2525596,56.5172488 29.4863491,63.0353301 39.4286123,63.5536715 C39.4286123,63.5536715 72.2257877,63.9217691 88.4023491,50.9607285 C88.4023491,50.9607285 97.3034719,64.2197528 109.322998,69.7011512 L115.667682,73.1792976 C115.667682,73.1792976 118.617998,73.9004683 117.115244,77.1782894 C117.115244,77.1782894 114.591419,81.9560455 120.788086,87.5100618 C120.788086,87.5100618 124.533682,92.140078 126.909489,102.173867 C126.909489,102.173867 131.583332,110.357151 124.904981,113.950485 C124.904981,113.950485 111.252244,119.61468 103.387244,126.500859 C103.387244,126.500859 93.7435246,137.165672 86.8444018,126.651102 C86.8444018,126.651102 78.1615421,113.17172 68.4776825,108.729509 C68.4776825,108.729509 58.0537351,101.617964 57.9809807,92.9538992 C57.9809807,92.9538992 49.8927,70.9581919 39.2078404,64.1446309 C39.2078404,64.1446309 51.4506474,80.0654764 52.785314,96.3594276 C52.785314,96.3594276 53.2318754,108.949867 61.3929105,114.281021 C61.3929105,114.281021 77.1229105,122.429249 86.9171561,138.720696 C86.9171561,138.720696 93.7435246,150.274452 106.207104,134.278485 C106.207104,134.278485 118.896472,121.835785 138.261682,118.502875 C138.261682,118.502875 151.31984,119.76242 141.969647,103.025249 C141.969647,103.025249 132.177911,87.1770211 134.255174,76.3644683 C134.255174,76.3644683 137.963139,65.4041756 125.795595,61.2574439 C125.795595,61.2574439 91.7415246,58.0722732 87.2859456,35.8537041 C87.2859456,35.8537041 59.3884018,69.846387 21.2525596,56.5172488" id="Fill-20" fill="#C99787" fill-rule="nonzero"></path>
                                <path d="M19.8413754,87.3240098 C19.8413754,87.3240098 17.7264807,88.5109366 18.8403754,92.8429691 C18.8403754,92.8429691 19.1740421,101.321733 17.6913579,110.802124 C17.6913579,110.802124 16.391814,119.280888 25.2954456,127.724595 C25.2954456,127.724595 37.4629895,139.869311 53.9707088,159.458611 C53.9707088,159.458611 59.2416386,171.678449 79.4949544,196.190741 C79.4949544,196.190741 95.3002175,226.036693 127.798849,251.365311 C127.798849,251.365311 140.93227,259.140433 149.687884,270.694189 C149.687884,270.694189 155.591025,278.597018 171.559358,307.99975 L185.272305,307.99975 L160.964814,267.581636 C160.964814,267.581636 152.507744,248.918839 137.372323,238.69975 C137.372323,238.69975 105.613779,216.926904 87.5104807,192.041506 C87.5104807,192.041506 64.9541123,163.309863 60.205007,155.309376 C60.205007,155.309376 32.3074632,129.389798 41.4318667,117.838546 C41.4318667,117.838546 19.1740421,128.057636 30.5262351,110.949863 C30.5262351,110.949863 21.8458842,116.06066 23.6271123,106.72801 C23.6271123,106.72801 18.9532702,90.1385789 19.8413754,87.3240098" id="Fill-22" fill="#D19E8F" fill-rule="nonzero"></path>
                                <path d="M19.8413754,87.3240098 C19.8413754,87.3240098 13.609586,71.0325626 19.8413754,59.6265463 C19.8413754,59.6265463 26.6702526,59.1082049 28.5969895,84.8800423 C28.5969895,84.8800423 29.1915684,87.1762699 19.8413754,87.3240098" id="Fill-24" fill="#FAD8BB" fill-rule="nonzero"></path>
                                <path d="M37.5375,35.4112358 C37.5375,35.4112358 23.9223947,36.2250569 18.8396228,43.4067154 C18.8396228,43.4067154 19.695114,46.5943902 37.5751316,41.4835935 C37.5751316,41.4835935 39.6523947,41.6313333 37.5375,35.4112358" id="Fill-26" fill="#FAD8BB" fill-rule="nonzero"></path>
                                <path d="M52.2840614,80.1225691 L256.977272,228.185431 L267.363588,210.409073 L58.8695877,61.9981463 C58.8695877,61.9981463 45.7737982,63.7384715 38.4306228,63.5156098 C38.4306228,63.5156098 46.7196053,69.4577561 52.2840614,80.1225691" id="Fill-28" fill="#1F2B33" fill-rule="nonzero"></path>
                                <path d="M38.4293684,63.5158602 C38.4293684,63.5158602 46.6631579,69.9588195 52.282807,80.1228195 L256.976018,228.185681 L260.686491,221.81534 L57.0871053,77.9943642 C57.0871053,77.9943642 49.224614,72.2174862 53.2311228,68.0682504 C53.2311228,68.0682504 58.1282456,64.3672423 70.1502807,69.9963805 L58.8683333,61.9983967 C58.8683333,61.9983967 50.4865263,63.2554374 38.4293684,63.5158602" id="Fill-30" fill="#151E23" fill-rule="nonzero"></path>
                                <path d="M264.811665,220.919886 C261.876402,225.820341 258.278823,229.06561 256.776068,228.169154 C255.270805,227.272699 256.432367,222.572569 259.36763,217.672114 C262.302893,212.771659 265.902981,209.52639 267.403226,210.42535 C268.908489,211.321805 267.746928,216.021935 264.811665,220.919886" id="Fill-32" fill="#111A1E" fill-rule="nonzero"></path>
                            </g>
                        </g>
                    </g>
                </g>
            </g>
            <rect id="Rectangle" fill="#FFFFFF" opacity="0.65108817" x="0" y="0" width="500" height="300"></rect>
            <g id="Fill-16-Clipped">
                <mask id="mask-22" fill="white">
                    <use xlink:href="#path-21"></use>
                </mask>
                <g id="path-1"></g>
                <path d="M301.379,106.723 C291.194,104 250.33,104 250.33,104 C250.33,104 209.486,104 199.28,106.723 C193.668,108.219 189.24,112.647 187.723,118.28 C185,128.465 185,149.729 185,149.729 C185,149.729 185,170.992 187.723,181.177 C189.22,186.79 193.647,191.217 199.28,192.734 C209.486,195.457 250.33,195.457 250.33,195.457 C250.33,195.457 291.194,195.457 301.379,192.734 C306.992,191.238 311.419,186.81 312.936,181.177 C315.659,170.992 315.659,149.729 315.659,149.729 C315.659,149.729 315.659,128.465 312.936,118.28 C311.44,112.668 307.012,108.24 301.379,106.723 Z" id="Fill-16" fill="#FF3333" fill-rule="nonzero" mask="url(#mask-22)"></path>
            </g>
            <g id="Fill-18-Clipped">
                <mask id="mask-24" fill="white">
                    <use xlink:href="#path-23"></use>
                </mask>
                <g id="path-1"></g>
                <polyline id="Fill-18" fill="#FFFFFE" fill-rule="nonzero" mask="url(#mask-24)" points="237.276 169.33 271.219 149.729 237.276 130.128 237.276 169.33"></polyline>
            </g>
        </g>
    </g>
</svg>