<svg viewBox="0 0 300 200" fill="none" xmlns="http://www.w3.org/2000/svg">
<rect fill="white"/>
<path d="M300 0H0V178.314H300V0Z" fill="#FFFDE7"/>
<path d="M300 0H0V200H300V0Z" fill="#0075EB"/>
<path d="M291.56 8.72618H8.43903V189.031H291.56V8.72618Z" fill="white"/>
<path opacity="0.5" d="M291.134 188.043H40.6584C39.5704 180.531 38.3035 179.895 58.9195 168.606C82.9205 155.464 73.8485 141.853 89.2275 131.816C116.693 113.892 141.527 136.512 157.177 132.855C211.543 120.154 194.668 59.055 247.86 33.4888C291.134 6.01739 291.134 20.5594 291.134 43.6261V188.043Z" fill="#E9EEF8"/>
<rect x="109" y="56" width="160" height="6" rx="3" fill="#0075EB" fill-opacity="0.15"/>
<rect x="109" y="76" width="160" height="6" rx="3" fill="#0075EB" fill-opacity="0.15"/>
<rect x="109" y="96" width="160" height="6" rx="3" fill="#0075EB" fill-opacity="0.15"/>
<rect x="109" y="116" width="160" height="6" rx="3" fill="#0075EB" fill-opacity="0.15"/>
<rect x="109" y="136" width="160" height="6" rx="3" fill="#0075EB" fill-opacity="0.15"/>
<rect x="109" y="156" width="160" height="6" rx="3" fill="#0075EB" fill-opacity="0.15"/>
<rect x="109" y="36" width="160" height="6" rx="3" fill="#0075EB" fill-opacity="0.15"/>
<path d="M143.575 97.3876L160.315 88.7233L143.575 79.9981V97.3876Z" fill="#CFE1FF"/>
<rect x="127.608" y="79" width="46" height="35" fill="white"/>
<path d="M180.329 81.9872C180.329 81.9872 179.722 77.7215 177.867 75.8434C175.514 73.3779 172.869 73.3649 171.662 73.2201C162.989 72.5957 149.986 72.5957 149.986 72.5957H149.962C149.962 72.5957 136.959 72.5957 128.286 73.2201C127.079 73.3659 124.435 73.3779 122.081 75.8434C120.225 77.7215 119.619 81.9872 119.619 81.9872C119.619 81.9872 119 86.9922 119 92.0031V96.6984C119 101.709 119.619 106.714 119.619 106.714C119.619 106.714 120.225 110.98 122.081 112.858C124.44 115.324 127.533 115.246 128.91 115.505C133.865 115.978 149.974 116.13 149.974 116.13C149.974 116.13 162.99 116.112 171.663 115.481C172.876 115.336 175.514 115.324 177.868 112.858C179.724 110.98 180.33 106.714 180.33 106.714C180.33 106.714 180.949 101.703 180.949 96.6984V92.0031C180.948 86.9912 180.329 81.9872 180.329 81.9872ZM143.575 102.388V84.9982L160.315 93.7234L143.575 102.388Z" fill="#EE2724"/>
<path opacity="0.12" d="M143.575 84.9981L158.252 94.7892L160.314 93.7233L143.575 84.9981Z" fill="#420000"/>
<path d="M69.742 34.644C63.4903 35.582 48.0087 29.2234 38.9212 43.2494C31.695 54.407 33.3701 69.5564 25.1585 82.5136C11.9105 103.411 -7.38132 119.651 2.91056 151.204C16.6951 193.489 78.9609 197.274 113.099 183.073C147.238 168.873 122.263 126.359 108.566 111.242C94.8586 96.1252 92.8878 74.399 91.5958 59.7622C90.3039 45.1254 84.4025 32.4518 69.742 34.644Z" fill="#01243D"/>
<path d="M111.325 134.811C107.537 121.538 95.6467 110.98 89.8548 98.4483C86.5592 91.2935 86.3402 83.1462 84.1504 75.5879C81.9607 68.0295 76.5738 60.2967 68.7017 59.5877C68.6469 59.5877 65.9097 63.7977 65.5265 64.2122C64.1688 65.6846 62.5922 66.9607 60.8733 68.0077C57.3806 70.1345 50.4062 71.3452 46.3113 71.3561C43.4209 71.367 46.7274 82.939 29.8443 102.756C22.2349 111.689 13.8153 118.353 10.4431 129.576C6.09638 144.027 4.87011 158.381 14.6474 169.909C16.005 171.501 17.4503 173.007 18.9612 174.424C43.6289 194.275 130.201 200.949 111.325 134.811Z" fill="#001A2D"/>
<path d="M89.6311 114.57C89.6311 114.57 100.38 120.728 100.38 145.838C100.38 170.948 95.6152 200 95.6152 200H88.6337L89.6311 114.57Z" fill="#E2B100"/>
<path d="M90.4224 200C94.2882 177.601 96.33 121.653 89.4312 114.502C89.4312 114.502 78.1909 112.709 73.1655 107.818C69.5971 104.362 69.3691 90.3864 69.3691 90.3864L55.2642 88.9409C55.2642 88.9409 56.7907 103.95 51.6859 106.243C41.8036 110.688 33.864 115.339 33.864 115.339C29.0864 142.476 30.5831 170.352 35.7076 199.989H90.4224V200Z" fill="#FFC800"/>
<path d="M51.7639 105.287C55.0594 106.89 59.0339 107.828 63.3148 107.828C67.0155 107.828 70.4754 107.119 73.4863 105.898C70.7162 100.957 70.5082 90.0065 70.5082 90.0065L54.9281 88.5559C54.9281 88.5668 55.9791 101.142 51.7639 105.287Z" fill="#C9A599"/>
<path d="M101.066 95.4778L79.6286 105.621L51.7639 99.4696L49.9573 101.138L50.7347 101.28L50.8442 141.897L78.9279 148.593V149.259L79.8256 148.812L80.7891 149.041V148.321L101.439 137.894L101.537 97.441L103.158 96.7321L101.066 95.4778Z" fill="white"/>
<path d="M82.4534 105.872L105.074 95.8813L104.975 138.505L82.4534 149.88V105.872Z" fill="#DDE3ED"/>
<path d="M78.063 106.526L48.0085 100.757L48.1289 143.38L78.063 150.524V106.526Z" fill="#D0D3D8"/>
<path d="M82.4534 149.88L78.0629 150.524V106.526L82.4534 105.872V149.88Z" fill="#C6CDD6"/>
<path opacity="0.11" d="M105.019 122.352C101.012 128.961 94.081 136.563 82.4643 140.479C79.9789 140.915 77.9534 141.264 77.9534 141.264C77.9534 141.264 61.4426 143.467 48.1069 134.022L48.1288 143.38L78.0629 150.48V150.524L78.1724 150.513L78.238 150.524V150.502L82.4643 149.88L104.975 138.505L105.019 122.352Z" fill="#7D7D7D"/>
<path d="M68.7944 160.2C70.9294 157.812 73.2396 155.314 76.3381 154.485C78.2651 153.962 80.3125 154.147 82.2723 153.787C85.5679 153.176 88.5131 150.951 89.9912 147.952C91.4584 144.953 91.4146 141.266 89.8708 138.299C89.5752 137.721 89.1591 137.132 88.5241 136.98C88.0095 136.86 87.4621 137.078 87.0569 137.405C86.6409 137.732 86.3343 138.18 86.0168 138.594C84.4621 140.579 82.338 142.117 79.9731 142.978C77.0607 144.047 72.2432 144.68 69.8892 146.687L66.5061 145.88C66.5061 145.88 65.5316 147.581 65.663 150.668C65.7944 153.743 63.2762 154.834 63.2762 154.834L68.7944 160.2Z" fill="#C7A093"/>
<path d="M42.0056 188.382C62.7885 182.036 73.6834 158.8 73.6834 158.8C72.8779 154.481 69.7363 150.251 66.1214 148.87C66.1214 148.87 53.7362 168.697 45.9628 167.853C41.6733 167.393 39.9917 160.597 39.3372 154.591C38.8438 150.042 39.0452 145.439 39.8105 140.934C41.3108 132.155 43.4253 113.38 33.9099 114.629C29.0565 141.998 30.577 170.111 35.7828 200H42.0156V188.382H42.0056Z" fill="#E2B100"/>
<path d="M37.6414 145.7C36.9153 148.649 35.0597 163.791 42.8551 164.636C50.6504 165.48 66.1099 149.241 66.1099 149.241C69.7303 150.623 72.8666 154.855 73.6834 159.175C73.6834 159.175 49.8134 191.28 32.9117 183.966C12.9444 175.326 12.7024 124.856 35.4732 114.144C48.1192 109.045 40.102 135.711 37.6414 145.7Z" fill="#FFC800"/>
<path d="M34.4804 179.587C18.9585 172.879 15.6403 140.331 26.1395 122.045C13.3105 140.111 16.2051 176.717 32.907 183.963C49.8106 191.297 73.6834 159.101 73.6834 159.101C73.5523 158.387 48.7516 185.755 34.4804 179.587Z" fill="#E2B100"/>
<path d="M75.7089 50.4261C71.9864 55.8358 62.8222 66.9716 48.7201 68.7275C47.5705 67.8114 43.7822 65.161 42.5122 68.8257C40.9027 73.4501 44.2311 80.5504 49.3552 78.6963C51.9719 86.0692 57.1726 94.9145 66.928 94.9145C74.9535 94.9145 81.468 86.3637 83.6797 73.6028C85.3767 63.7977 82.6286 54.9197 75.7089 50.4261Z" fill="#DCB9AD"/>
<ellipse cx="65.1404" cy="68.6513" rx="1.06788" ry="2.13575" fill="#2E2238"/>
<ellipse cx="81.1586" cy="68.6513" rx="1.06788" ry="2.13575" fill="#2E2238"/>
<path fill-rule="evenodd" clip-rule="evenodd" d="M75.7727 67.8258C74.2548 68.8488 77.0908 74.6316 77.2222 76.0694C77.2992 76.8947 77.2164 77.4335 76.3943 77.7086C75.5043 78.0081 74.6843 77.2507 73.8692 77.3425C73.895 78.6479 76.6346 78.7603 77.4649 78.0839C78.8414 76.9662 77.8515 74.6328 77.5243 73.3143C77.1363 71.7423 76.6191 70.0907 76.5293 68.4698C76.5302 68.4725 76.5309 68.4743 76.5282 68.4753C76.5305 68.4674 76.5264 68.4555 76.5288 68.4771C76.5255 68.4884 76.5037 68.5518 76.5077 68.5576C76.5757 68.032 76.3063 67.7812 75.7724 67.8249L75.7727 67.8258ZM76.4807 68.6207C76.3826 68.7257 76.3467 68.8133 76.2024 68.8752C76.2093 68.8657 76.5456 68.5526 76.4807 68.6207Z" fill="#1A1A1C"/>
<ellipse cx="73.6834" cy="85.7373" rx="3.20363" ry="1.06788" fill="#382A45"/>
<ellipse cx="73.6834" cy="84.1355" rx="3.20363" ry="1.60181" fill="white"/>
</svg>
