<svg width="141" height="131" viewBox="0 0 141 131" fill="none" xmlns="http://www.w3.org/2000/svg">
<path d="M57.9831 12.5C63.7566 2.5 78.1904 2.5 83.9639 12.5L138.956 107.75C144.73 117.75 137.513 130.25 125.966 130.25H15.9809C4.43386 130.25 -2.78301 117.75 2.99049 107.75L57.9831 12.5Z" fill="#FFD259"/>
<path d="M57.9831 7.5C63.7566 -2.5 78.1904 -2.5 83.9639 7.5L138.956 102.75C144.73 112.75 137.513 125.25 125.966 125.25H15.9809C4.43386 125.25 -2.78301 112.75 2.99049 102.75L57.9831 7.5Z" fill="#FFE6A2"/>
<path d="M80.2773 35.9062L78.1777 84.4902H64.7988L62.6992 35.9062H80.2773ZM62.2598 99.627C62.2598 97.2832 63.1061 95.3301 64.7988 93.7676C66.4915 92.1725 68.6888 91.375 71.3906 91.375C74.0924 91.375 76.2734 92.1725 77.9336 93.7676C79.6263 95.3301 80.4727 97.2832 80.4727 99.627C80.4727 101.971 79.6263 103.94 77.9336 105.535C76.2734 107.098 74.0924 107.879 71.3906 107.879C68.6888 107.879 66.4915 107.098 64.7988 105.535C63.1061 103.94 62.2598 101.971 62.2598 99.627Z" fill="#EAAF13"/>
<path d="M80.2773 33.9062L78.1777 82.4902H64.7988L62.6992 33.9062H80.2773ZM62.2598 97.627C62.2598 95.2832 63.1061 93.3301 64.7988 91.7676C66.4915 90.1725 68.6888 89.375 71.3906 89.375C74.0924 89.375 76.2734 90.1725 77.9336 91.7676C79.6263 93.3301 80.4727 95.2832 80.4727 97.627C80.4727 99.9707 79.6263 101.94 77.9336 103.535C76.2734 105.098 74.0924 105.879 71.3906 105.879C68.6888 105.879 66.4915 105.098 64.7988 103.535C63.1061 101.94 62.2598 99.9707 62.2598 97.627Z" fill="#FFC62D"/>
</svg>
