<?xml version="1.0" encoding="UTF-8"?>
<svg width="612px" height="612px" viewBox="0 0 612 612" version="1.1" xmlns="http://www.w3.org/2000/svg" xmlns:xlink="http://www.w3.org/1999/xlink">
    <!-- Generator: Sketch 53.2 (72643) - https://sketchapp.com -->
    <title>whatsapp</title>
    <desc>Created with Sketch.</desc>
    <defs>
        <path d="M126.734552,0.414270423 C56.7979775,0.414270423 0.103746479,57.1085014 0.103746479,127.045076 C0.103746479,168.002039 24.7818141,202.166113 24.7818141,202.166113 L9.33217465,248.263177 L56.9460845,232.726963 C56.9460845,232.726963 87.9734366,253.676597 126.734552,253.676597 C196.671127,253.676597 253.366789,196.981651 253.366789,127.045076 C253.366789,57.1085014 196.671127,0.414270423 126.734552,0.414270423" id="path-1"></path>
        <linearGradient x1="0%" y1="0%" x2="0%" y2="0%" id="linearGradient-3"></linearGradient>
    </defs>
    <g id="whatsapp" stroke="none" stroke-width="1" fill="none" fill-rule="evenodd">
        <rect id="Rectangle" stroke="#D3E9DC" stroke-width="14" x="42" y="29" width="416" height="544" rx="8"></rect>
        <g id="Group" transform="translate(244.000000, 65.000000)">
            <g id="Group-5" transform="translate(29.826000, 23.633000)">
                <mask id="mask-2" fill="white">
                    <use xlink:href="#path-1"></use>
                </mask>
                <use id="Clip-4" fill="#3DC973" xlink:href="#path-1"></use>
                <path d="M126.734552,0.414270423 C56.7979775,0.414270423 0.103746479,57.1085014 0.103746479,127.045076 C0.103746479,168.002039 24.7818141,202.166113 24.7818141,202.166113 L9.33217465,248.263177 L56.9460845,232.726963 C56.9460845,232.726963 87.9734366,253.676597 126.734552,253.676597 C196.671127,253.676597 253.366789,196.981651 253.366789,127.045076 C253.366789,57.1085014 196.671127,0.414270423 126.734552,0.414270423" id="Fill-3" mask="url(#mask-2)"></path>
            </g>
            <path d="M156.064909,277.761965 C117.301513,277.761965 86.2723349,256.831519 86.2723349,256.831519 L38.6556232,272.353503 L54.1061717,226.29866 C54.1061717,226.29866 29.4266519,192.165878 29.4266519,151.246428 C29.4266519,81.3739095 86.1242191,24.731606 156.064909,24.731606 C226.005599,24.731606 282.704598,81.3739095 282.704598,151.246428 C282.704598,221.118946 226.005599,277.761965 156.064909,277.761965 Z M156.064909,0.633 C72.8023873,0.633 5.30524948,68.0650627 5.30524948,151.246428 C5.30524948,192.52973 27.182734,229.430363 27.182734,229.430363 L0.826,309.633 L83.4330917,283.259781 C83.4330917,283.259781 114.100209,301.859856 156.064909,301.859856 C239.328147,301.859856 306.826,234.427793 306.826,151.246428 C306.826,68.0650627 239.328147,0.633 156.064909,0.633 L156.064909,0.633 Z" id="Fill-6" fill="#FFFFFE"></path>
            <path d="M98.6377045,85.2082993 C98.6377045,85.2082993 102.716322,82.633 104.842677,82.633 C106.968315,82.633 116.733928,82.633 116.733928,82.633 C116.733928,82.633 119.922743,83.1861754 121.38712,86.4966628 C122.852212,89.8064363 132.877888,113.276064 133.623689,115.086911 C134.369489,116.897043 136.315304,121.376694 133.193116,125.388822 C130.070928,129.401663 123.541415,136.893443 123.541415,136.893443 C123.541415,136.893443 120.956547,139.212497 123.196814,142.90414 C125.43708,146.59507 133.316341,158.773495 143.621424,167.974051 C153.92579,177.174608 166.544931,183.94262 172.834441,186.003288 C179.125384,188.063956 180.503789,185.316637 182.915998,182.225992 C185.32964,179.135347 192.827046,169.691393 192.827046,169.691393 C192.827046,169.691393 195.413347,165.914097 200.496394,168.231724 C205.581591,170.549351 230.311926,182.483665 230.311926,182.483665 C230.311926,182.483665 233.327367,182.999724 233.500026,186.347327 C233.671968,189.695645 235.743158,199.714901 226.779226,209.355143 C217.815295,218.995385 198.751895,223.456477 189.726351,220.942562 C180.699374,218.428648 150.857334,210.64993 131.394168,192.567161 C111.931003,174.484391 96.1696143,155.450159 89.7217736,141.413065 C83.2739328,127.375971 83.6321462,119.048361 83.9903596,115.122599 C84.3485729,111.196838 86.4190463,93.0055748 98.6377045,85.2082993" id="Fill-7" fill="#FFFFFE"></path>
        </g>
    </g>
</svg>