<?xml version="1.0" encoding="UTF-8"?>
<svg width="612px" height="612px" viewBox="0 0 612 612" version="1.1" xmlns="http://www.w3.org/2000/svg" xmlns:xlink="http://www.w3.org/1999/xlink">
    <!-- Generator: Sketch 53.2 (72643) - https://sketchapp.com -->
    <title>whatsapp</title>
    <desc>Created with Sketch.</desc>
    <defs>
        <rect id="path-1" x="0" y="0" width="430" height="558" rx="25"></rect>
        <path d="M168.646766,0.549642254 C75.5815606,0.549642254 0.138056338,75.7699408 0.138056338,168.559806 C0.138056338,222.900344 32.9773746,268.228268 32.9773746,268.228268 L12.4184056,329.388546 L75.7786479,308.775538 C75.7786479,308.775538 117.067014,336.570918 168.646766,336.570918 C261.711972,336.570918 337.15738,261.34967 337.15738,168.559806 C337.15738,75.7699408 261.711972,0.549642254 168.646766,0.549642254" id="path-3"></path>
    </defs>
    <g id="whatsapp" stroke="none" stroke-width="1" fill="none" fill-rule="evenodd">
        <g id="Mask-2" transform="translate(20.000000, 22.000000)">
            <mask id="mask-2" fill="white">
                <use xlink:href="#path-1"></use>
            </mask>
            <use id="Mask" fill="#FFD6DD" xlink:href="#path-1"></use>
            <rect id="Rectangle" fill="#FF3355" mask="url(#mask-2)" x="-45" y="-38" width="520" height="103"></rect>
        </g>
        <g id="Group" transform="translate(197.000000, 123.000000)">
            <g id="Group-5" transform="translate(38.000000, 30.000000)">
                <mask id="mask-4" fill="white">
                    <use xlink:href="#path-3"></use>
                </mask>
                <use id="Clip-4" fill="#3DC973" xlink:href="#path-3"></use>
                <path d="M168.646766,0.549642254 C75.5815606,0.549642254 0.138056338,75.7699408 0.138056338,168.559806 C0.138056338,222.900344 32.9773746,268.228268 32.9773746,268.228268 L12.4184056,329.388546 L75.7786479,308.775538 C75.7786479,308.775538 117.067014,336.570918 168.646766,336.570918 C261.711972,336.570918 337.15738,261.34967 337.15738,168.559806 C337.15738,75.7699408 261.711972,0.549642254 168.646766,0.549642254" id="Fill-3" fill="#00B849" mask="url(#mask-4)"></path>
            </g>
            <path d="M206.477896,367.711571 C154.920045,367.711571 113.64921,339.939782 113.64921,339.939782 L50.3158713,360.535295 L70.8661108,299.426927 C70.8661108,299.426927 38.0407364,254.137476 38.0407364,199.84306 C38.0407364,107.131951 113.452206,31.9754966 206.477896,31.9754966 C299.503585,31.9754966 374.916958,107.131951 374.916958,199.84306 C374.916958,292.554168 299.503585,367.711571 206.477896,367.711571 Z M206.477896,0 C95.7332995,0 5.95769457,89.4729634 5.95769457,199.84306 C5.95769457,254.620257 35.0561789,303.582262 35.0561789,303.582262 L0,410 L109.872831,375.006408 C109.872831,375.006408 150.662101,399.686119 206.477896,399.686119 C317.223443,399.686119 407,310.213156 407,199.84306 C407,89.4729634 317.223443,0 206.477896,0 L206.477896,0 Z" id="Fill-6" fill="#FFFFFE"></path>
            <path d="M128.748939,111.427557 C128.748939,111.427557 134.187096,108 137.022235,108 C139.85642,108 152.877237,108 152.877237,108 C152.877237,108 157.128991,108.736241 159.081493,113.142285 C161.03495,117.547379 174.402518,148.783934 175.396918,151.194054 C176.391318,153.603223 178.985738,159.565348 174.822821,164.90523 C170.659904,170.246063 161.953886,180.217137 161.953886,180.217137 C161.953886,180.217137 158.507396,183.303648 161.494418,188.216986 C164.48144,193.129373 174.987122,209.338068 188.727232,221.583414 C202.466386,233.828759 219.291907,242.836545 227.677921,245.57916 C236.065846,248.321775 237.903719,244.665272 241.119998,240.551824 C244.338187,236.438376 254.334728,223.869085 254.334728,223.869085 C254.334728,223.869085 257.783129,218.841748 264.560526,221.926359 C271.340789,225.01097 304.314569,240.894769 304.314569,240.894769 C304.314569,240.894769 308.335156,241.581611 308.565367,246.037054 C308.794624,250.493448 311.55621,263.828429 299.604302,276.658967 C287.652393,289.489505 262.234527,295.42693 250.200468,292.081072 C238.164499,288.735214 198.375112,278.382245 172.424225,254.31525 C146.473337,230.248254 125.458152,204.914924 116.861031,186.232461 C108.26391,167.549997 108.741528,156.466487 109.219146,151.241553 C109.696764,146.016619 112.457395,121.805225 128.748939,111.427557" id="Fill-7" fill="#FFFFFE"></path>
        </g>
    </g>
</svg>