<svg width="512" height="512" viewBox="0 0 512 512" fill="none" xmlns="http://www.w3.org/2000/svg">
<path d="M255.5 486.625C348.008 486.625 423 411.633 423 319.125C423 193.5 255.5 26 255.5 26C255.5 26 88 193.5 88 319.125C88 411.633 162.992 486.625 255.5 486.625Z" fill="#FF3355"/>
<path d="M155.401 395.017C148.177 385.988 149.641 372.812 158.67 365.588C167.7 358.364 180.876 359.828 188.099 368.858C217.879 406.082 272.196 412.118 309.421 382.338C314.398 378.356 318.919 373.835 322.901 368.858C330.124 359.828 343.3 358.364 352.33 365.588C361.359 372.812 362.823 385.988 355.6 395.017C349.686 402.409 342.972 409.123 335.58 415.037C280.296 459.264 199.627 450.3 155.401 395.017Z" fill="white"/>
</svg>
