<svg width="512" height="512" viewBox="0 0 512 512" fill="none" xmlns="http://www.w3.org/2000/svg">
<path d="M256 486C348.31 486 423.143 411.109 423.143 318.727C423.143 193.273 256 26 256 26C256 26 88.8571 193.273 88.8571 318.727C88.8571 411.109 163.69 486 256 486Z" fill="#697E97"/>
<path d="M156.114 394.516C148.906 385.499 150.367 372.341 159.377 365.127C168.387 357.913 181.535 359.375 188.743 368.393C218.459 405.567 272.661 411.594 309.805 381.855C314.772 377.878 319.283 373.363 323.257 368.393C330.465 359.375 343.613 357.913 352.623 365.127C361.633 372.341 363.094 385.499 355.886 394.516C349.985 401.898 343.285 408.603 335.909 414.509C280.743 458.676 200.246 449.725 156.114 394.516Z" fill="white"/>
<path d="M61 183.98H451V332.667H61V183.98Z" fill="#F0F2F5"/>
<path fill-rule="evenodd" clip-rule="evenodd" d="M210.426 233.716H167.971V248.993H206.414V263.825H167.971V280.663H210.426V295.495H151.48V218.884H210.426V233.716ZM292.66 218.884L264.58 257.022L292.66 295.495H273.16L254.886 270.404L236.389 295.495H217.334L245.303 257.357L217.334 218.884H236.723L255.109 243.975L273.494 218.884H292.66ZM302.131 295.495V218.884H336.563C353.166 218.884 365.423 229.589 365.423 244.756C365.423 259.922 353.166 270.627 336.563 270.627H318.511V295.495H302.131ZM318.511 255.572H334.78C342.914 255.572 348.486 251.335 348.486 244.755C348.486 238.176 342.914 233.938 334.78 233.938H318.511V255.572Z" fill="#2F363D"/>
</svg>
