<svg width="512" height="512" viewBox="0 0 512 512" fill="none" xmlns="http://www.w3.org/2000/svg">
<path d="M256 485.643C348.31 485.643 423.143 410.81 423.143 318.5C423.143 193.143 256 26 256 26C256 26 88.8571 193.143 88.8571 318.5C88.8571 410.81 163.69 485.643 256 485.643Z" fill="#F7C100"/>
<path d="M156.114 394.23C148.906 385.22 150.367 372.072 159.377 364.864C168.387 357.656 181.535 359.117 188.743 368.127C218.459 405.272 272.661 411.294 309.805 381.578C314.772 377.605 319.283 373.094 323.257 368.127C330.465 359.117 343.613 357.656 352.623 364.864C361.633 372.072 363.094 385.22 355.886 394.23C349.985 401.606 343.285 408.306 335.909 414.207C280.743 458.34 200.246 449.396 156.114 394.23Z" fill="white"/>
<path d="M61 183.857H451V332.428H61V183.857Z" fill="#FFEBA3"/>
<path fill-rule="evenodd" clip-rule="evenodd" d="M383.156 296.623C361.205 296.623 342.485 278.46 342.485 256.954C342.485 235.449 361.205 217.397 383.156 217.397C405.331 217.397 423.828 235.449 423.828 256.954C423.828 278.46 405.331 296.623 383.156 296.623ZM92.46 218.734V295.286H119.871C145.611 295.286 163.886 279.351 163.886 256.954C163.886 234.557 145.611 218.734 119.871 218.734H92.46ZM121.989 280.354H108.84V233.666H121.989C136.586 233.666 146.949 243.36 146.949 256.954C146.949 270.66 136.586 280.354 121.989 280.354ZM235.824 233.554H193.37V248.82H231.813V263.64H193.37V280.466H235.824V295.286H176.879V218.734H235.824V233.554ZM249.263 218.734V295.286H265.643V247.594L289.377 290.828L313 247.594V295.286H329.492V218.734H313L289.377 261.968L265.643 218.734H249.263ZM407.002 256.954C407.002 270.326 396.082 281.691 383.156 281.691C370.342 281.691 359.422 270.326 359.422 256.954C359.422 243.694 370.342 232.329 383.156 232.329C396.082 232.329 407.002 243.694 407.002 256.954Z" fill="#A27F00"/>
</svg>
